<?xml version="1.0" encoding="UTF-8"?>
<svg width="39px" height="40px" viewBox="0 0 39 40" version="1.1" xmlns="http://www.w3.org/2000/svg" xmlns:xlink="http://www.w3.org/1999/xlink">
    <!-- Generator: Sketch 47.1 (45422) - http://www.bohemiancoding.com/sketch -->
    <title>Page 1</title>
    <desc>Created with Sketch.</desc>
    <defs></defs>
    <g id="Page-1" stroke="none" stroke-width="1" fill="none" fill-rule="evenodd">
        <g id="21-by-2050" transform="translate(-364.000000, -3001.000000)" fill="#DF3965">
            <g id="Page-1" transform="translate(364.000000, 3001.000000)">
                <g id="Group-3" transform="translate(0.000000, 0.640640)">
                    <path d="M19.3491207,36.95936 C9.9044907,36.95936 2.2203207,29.20816 2.2203207,19.67936 C2.2203207,10.15136 9.9044907,2.40016 19.3491207,2.40016 C28.7945437,2.40016 36.4779207,10.15136 36.4779207,19.67936 C36.4779207,29.20816 28.7945437,36.95936 19.3491207,36.95936 M19.3491207,0.15936 C8.6800987,0.15936 -7.93e-05,8.91616 -7.93e-05,19.67936 C-7.93e-05,30.44256 8.6800987,39.20016 19.3491207,39.20016 C30.0189357,39.20016 38.6991137,30.44256 38.6991137,19.67936 C38.6991137,8.91616 30.0189357,0.15936 19.3491207,0.15936" id="Fill-1"></path>
                </g>
                <path d="M26.7544719,20.3992 L20.4596379,27.9488 L20.4596379,9.6208 C20.4596379,9.0024 19.9624269,8.5008 19.3494379,8.5008 C18.7356559,8.5008 18.2392379,9.0024 18.2392379,9.6208 L18.2392379,27.9488 L11.9444039,20.3992 C11.5494899,19.9256 10.8492709,19.8664 10.3798149,20.2632 C9.9103589,20.6616 9.8508839,21.368 10.2450049,21.8416 L18.4993419,31.7408 C18.7102799,31.9936 19.0219289,32.14 19.3494379,32.14 C19.6769469,32.14 19.9878029,31.9936 20.1987409,31.7408 L28.4538709,21.8416 C28.8487849,21.368 28.7877239,20.6616 28.3190609,20.2632 C27.8496049,19.8648 27.1485929,19.9256 26.7544719,20.3992" id="Fill-4"></path>
            </g>
        </g>
    </g>
</svg>