<?xml version="1.0" encoding="UTF-8"?>
<svg width="120px" height="80px" viewBox="0 0 120 80" version="1.1" xmlns="http://www.w3.org/2000/svg" xmlns:xlink="http://www.w3.org/1999/xlink">
    <!-- Generator: Sketch 47.1 (45422) - http://www.bohemiancoding.com/sketch -->
    <title>Group 2</title>
    <desc>Created with Sketch.</desc>
    <defs></defs>
    <g id="Page-1" stroke="none" stroke-width="1" fill="none" fill-rule="evenodd">
        <g id="Group-2">
            <rect id="Rectangle-6" fill="#FFFCF5" x="0" y="0" width="120" height="80"></rect>
            <g id="Group-12" transform="translate(29.000000, 13.000000)">
                <g id="Page-1">
                    <path d="M61.2502,39.5309 C61.2502,41.8579 59.2092,43.7619 56.7132,43.7619 L4.5372,43.7619 C2.0422,43.7619 0.0002,41.8579 0.0002,39.5309 C0.0002,37.2039 2.0422,35.2999 4.5372,35.2999 L56.7132,35.2999 C59.2092,35.2999 61.2502,37.2039 61.2502,39.5309" id="Fill-1" fill="#3723FF"></path>
                    <path d="M61.2502,39.5309 C61.2502,41.8579 59.2092,43.7619 56.7132,43.7619 L4.5372,43.7619 C2.0422,43.7619 0.0002,41.8579 0.0002,39.5309 C0.0002,37.2039 2.0422,35.2999 4.5372,35.2999 L56.7132,35.2999 C59.2092,35.2999 61.2502,37.2039 61.2502,39.5309 Z" id="Stroke-3" stroke="#3723FF" stroke-width="2"></path>
                    <path d="M61.2502,39.5309 C61.2502,41.8579 59.2092,43.7619 56.7132,43.7619 L4.5372,43.7619 C2.0422,43.7619 0.0002,41.8579 0.0002,39.5309 C0.0002,37.2039 2.0422,35.2999 4.5372,35.2999 L56.7132,35.2999 C59.2092,35.2999 61.2502,37.2039 61.2502,39.5309 Z" id="Stroke-5" stroke="#3723FF" stroke-width="2" stroke-linecap="round" stroke-linejoin="round"></path>
                    <path d="M57.8478,31.5172 C57.8478,33.7992 56.0328,35.6662 53.8148,35.6662 L7.4358,35.6662 C5.2178,35.6662 3.4028,33.7992 3.4028,31.5172 C3.4028,29.2352 5.2178,27.3682 7.4358,27.3682 L53.8148,27.3682 C56.0328,27.3682 57.8478,29.2352 57.8478,31.5172" id="Fill-7" fill="#FFFFFF"></path>
                    <path d="M57.8478,31.5172 C57.8478,33.7992 56.0328,35.6662 53.8148,35.6662 L7.4358,35.6662 C5.2178,35.6662 3.4028,33.7992 3.4028,31.5172 C3.4028,29.2352 5.2178,27.3682 7.4358,27.3682 L53.8148,27.3682 C56.0328,27.3682 57.8478,29.2352 57.8478,31.5172 Z" id="Stroke-9" stroke="#3723FF" stroke-width="2" stroke-linecap="round" stroke-linejoin="round"></path>
                    <path d="M57.8478,31.5172 C57.8478,33.7992 56.0328,35.6662 53.8148,35.6662 L7.4358,35.6662 C5.2178,35.6662 3.4028,33.7992 3.4028,31.5172 C3.4028,29.2352 5.2178,27.3682 7.4358,27.3682 L53.8148,27.3682 C56.0328,27.3682 57.8478,29.2352 57.8478,31.5172" id="Fill-11" fill="#FFC8D7"></path>
                    <path d="M57.8478,31.5172 C57.8478,33.7992 56.0328,35.6662 53.8148,35.6662 L7.4358,35.6662 C5.2178,35.6662 3.4028,33.7992 3.4028,31.5172 C3.4028,29.2352 5.2178,27.3682 7.4358,27.3682 L53.8148,27.3682 C56.0328,27.3682 57.8478,29.2352 57.8478,31.5172 Z" id="Stroke-13" stroke="#3723FF" stroke-width="2" stroke-linecap="round" stroke-linejoin="round"></path>
                    <path d="M2.3302,44.3629 C3.4872,48.0059 5.0832,51.2079 7.0362,53.9359 L54.2142,53.9359 C56.1672,51.2079 57.7632,48.0059 58.9202,44.3629 L2.3302,44.3629 Z" id="Fill-15" fill="#FFFCF5"></path>
                    <path d="M2.3302,44.3629 C3.4872,48.0059 5.0832,51.2079 7.0362,53.9359 L54.2142,53.9359 C56.1672,51.2079 57.7632,48.0059 58.9202,44.3629 L2.3302,44.3629 Z" id="Stroke-17" stroke="#3723FF" stroke-width="2" stroke-linecap="round" stroke-linejoin="round"></path>
                    <path d="M24.6388,27.9166 L48.2698,27.9166 C48.2698,27.9166 38.0608,42.5336 38.0608,43.7346 C38.0608,44.9366 24.6388,27.9166 24.6388,27.9166" id="Fill-19" fill="#FFE9EF"></path>
                    <path d="M24.6388,27.9166 L48.2698,27.9166 C48.2698,27.9166 38.0608,42.5336 38.0608,43.7346 C38.0608,44.9366 24.6388,27.9166 24.6388,27.9166 Z" id="Stroke-21" stroke="#3723FF" stroke-width="2" stroke-linecap="round" stroke-linejoin="round"></path>
                    <path d="M0.3664,27.9342 L60.8844,27.9342 C58.5744,-9.3108 2.6764,-9.3108 0.3664,27.9342" id="Fill-23" fill="#FFFCF5"></path>
                    <path d="M0.3664,27.9342 L60.8844,27.9342 C58.5744,-9.3108 2.6764,-9.3108 0.3664,27.9342 Z" id="Stroke-25" stroke="#3723FF" stroke-width="2" stroke-linecap="round" stroke-linejoin="round"></path>
                    <path d="M22.2697,11.4664 C23.8777,11.4664 23.8807,8.9664 22.2697,8.9664 C20.6607,8.9664 20.6587,11.4664 22.2697,11.4664" id="Fill-27" fill="#3723FF"></path>
                    <path d="M38.9806,11.4664 C40.5896,11.4664 40.5916,8.9664 38.9806,8.9664 C37.3726,8.9664 37.3696,11.4664 38.9806,11.4664" id="Fill-29" fill="#3723FF"></path>
                    <path d="M30.6252,6.8873 C32.2332,6.8873 32.2362,4.3873 30.6252,4.3873 C29.0172,4.3873 29.0142,6.8873 30.6252,6.8873" id="Fill-31" fill="#3723FF"></path>
                </g>
            </g>
        </g>
    </g>
</svg>