<?xml version="1.0" encoding="UTF-8"?>
<svg width="233px" height="340px" viewBox="0 0 233 340" version="1.1" xmlns="http://www.w3.org/2000/svg" xmlns:xlink="http://www.w3.org/1999/xlink">
    <!-- Generator: Sketch 47.1 (45422) - http://www.bohemiancoding.com/sketch -->
    <title>Burger Illustration</title>
    <desc>Created with Sketch.</desc>
    <defs></defs>
    <g id="Page-1" stroke="none" stroke-width="1" fill="none" fill-rule="evenodd">
        <g id="21-by-2050" transform="translate(-433.000000, -7795.000000)">
            <g id="Burger-Illustration" transform="translate(434.000000, 7796.000000)">
                <path d="M118.5607,269.8185 C63.3247,269.8185 19.5467,280.5885 20.7817,293.8715 L20.7817,313.2845 C22.0157,326.5685 65.7937,337.3385 118.5607,337.3385 C171.3267,337.3385 215.1037,326.5695 216.3387,313.2845 L216.3387,293.8715 C217.5737,280.5875 173.7947,269.8185 118.5607,269.8185" id="Fill-1" fill="#FFFCF5"></path>
                <path d="M118.5607,269.8185 C63.3247,269.8185 19.5467,280.5885 20.7817,293.8715 L20.7817,313.2845 C22.0157,326.5685 65.7937,337.3385 118.5607,337.3385 C171.3267,337.3385 215.1037,326.5695 216.3387,313.2845 L216.3387,293.8715 C217.5737,280.5875 173.7947,269.8185 118.5607,269.8185 Z" id="Stroke-3" stroke="#3723FF" stroke-width="3" stroke-linecap="round" stroke-linejoin="round"></path>
                <path d="M146.2794,315.3986 C185.8544,312.4156 215.3284,303.2316 216.3394,292.3656" id="Stroke-5" stroke="#3723FF" stroke-width="3" stroke-linecap="round" stroke-linejoin="round"></path>
                <path d="M97.5656,315.8391 C104.3396,316.2191 111.3666,316.4191 118.5606,316.4191 C121.5436,316.4191 124.4966,316.3851 127.4156,316.3181" id="Stroke-7" stroke="#3723FF" stroke-width="3" stroke-linecap="round" stroke-linejoin="round"></path>
                <path d="M20.7814,292.3654 C21.7584,302.8734 49.3544,311.8074 86.9624,315.0834" id="Stroke-9" stroke="#3723FF" stroke-width="3" stroke-linecap="round" stroke-linejoin="round"></path>
                <path d="M63.2941,324.5422 C60.8181,324.5422 58.8121,322.5362 58.8121,320.0612 L58.8121,305.1202 C58.8121,303.6382 57.6921,301.1132 56.5941,300.1172 L48.0371,292.3632 C45.8591,290.3912 44.9141,287.8142 45.4431,285.2962 C45.9731,282.7792 47.8751,280.8022 50.6651,279.8722 L60.6391,276.5482 C64.8141,275.1552 70.3301,276.4302 73.4741,279.5062 L90.2621,295.9442 C91.0871,296.7522 93.2191,297.3092 94.3321,297.0122 L102.2651,294.8832 L86.1901,279.4342 C83.9811,277.3122 83.1531,274.6752 83.9201,272.1982 C84.6871,269.7232 86.8581,268.0152 89.8791,267.5112 L100.9701,265.6622 C105.1691,264.9652 110.4561,266.8352 113.2761,270.0152 L138.0411,297.9232 C138.8491,298.8332 141.0631,299.6322 142.2591,299.4562 L151.0571,298.1462 L126.3931,276.9072 C123.0201,274.0022 123.4511,270.9372 123.7941,269.7542 C124.1361,268.5712 125.4061,265.7492 129.8101,265.0942 L143.3631,263.0752 C147.2481,262.4992 152.5221,263.8692 155.6301,266.2672 L189.0761,292.0572 C192.3181,294.5572 194.7651,299.5312 194.7651,303.6272 L194.7651,318.0682 C194.7651,320.5442 192.7591,322.5512 190.2831,322.5512 C187.8081,322.5512 185.8011,320.5442 185.8011,318.0682 L185.8011,303.6272 C185.8011,302.2772 184.6711,299.9802 183.6021,299.1542 L150.1561,273.3652 C148.9511,272.4362 146.1901,271.7172 144.6831,271.9412 L135.8861,273.2522 L160.5501,294.4902 C163.9231,297.3962 163.4911,300.4602 163.1481,301.6432 C162.8071,302.8262 161.5361,305.6472 157.1331,306.3032 L143.5791,308.3222 C139.3961,308.9452 134.1391,307.0302 131.3361,303.8722 L106.5711,275.9642 C105.7811,275.0732 103.6141,274.3102 102.4431,274.5042 L95.2461,275.7042 L110.6151,290.4702 C112.7571,292.5262 113.6161,295.1382 112.9751,297.6342 C112.3331,300.1302 110.3201,302.0032 107.4531,302.7712 L96.6541,305.6692 C92.5041,306.7812 87.0611,305.3552 83.9891,302.3492 L67.2021,285.9112 C66.4551,285.1792 64.4701,284.7212 63.4731,285.0512 L56.0521,287.5242 L62.6131,293.4762 C65.5561,296.1422 67.7751,301.1482 67.7751,305.1202 L67.7751,320.0612 C67.7751,322.5362 65.7691,324.5422 63.2941,324.5422" id="Fill-11" fill="#FFC8D7"></path>
                <path d="M63.2941,324.5422 C60.8181,324.5422 58.8121,322.5362 58.8121,320.0612 L58.8121,305.1202 C58.8121,303.6382 57.6921,301.1132 56.5941,300.1172 L48.0371,292.3632 C45.8591,290.3912 44.9141,287.8142 45.4431,285.2962 C45.9731,282.7792 47.8751,280.8022 50.6651,279.8722 L60.6391,276.5482 C64.8141,275.1552 70.3301,276.4302 73.4741,279.5062 L90.2621,295.9442 C91.0871,296.7522 93.2191,297.3092 94.3321,297.0122 L102.2651,294.8832 L86.1901,279.4342 C83.9811,277.3122 83.1531,274.6752 83.9201,272.1982 C84.6871,269.7232 86.8581,268.0152 89.8791,267.5112 L100.9701,265.6622 C105.1691,264.9652 110.4561,266.8352 113.2761,270.0152 L138.0411,297.9232 C138.8491,298.8332 141.0631,299.6322 142.2591,299.4562 L151.0571,298.1462 L126.3931,276.9072 C123.0201,274.0022 123.4511,270.9372 123.7941,269.7542 C124.1361,268.5712 125.4061,265.7492 129.8101,265.0942 L143.3631,263.0752 C147.2481,262.4992 152.5221,263.8692 155.6301,266.2672 L189.0761,292.0572 C192.3181,294.5572 194.7651,299.5312 194.7651,303.6272 L194.7651,318.0682 C194.7651,320.5442 192.7591,322.5512 190.2831,322.5512 C187.8081,322.5512 185.8011,320.5442 185.8011,318.0682 L185.8011,303.6272 C185.8011,302.2772 184.6711,299.9802 183.6021,299.1542 L150.1561,273.3652 C148.9511,272.4362 146.1901,271.7172 144.6831,271.9412 L135.8861,273.2522 L160.5501,294.4902 C163.9231,297.3962 163.4911,300.4602 163.1481,301.6432 C162.8071,302.8262 161.5361,305.6472 157.1331,306.3032 L143.5791,308.3222 C139.3961,308.9452 134.1391,307.0302 131.3361,303.8722 L106.5711,275.9642 C105.7811,275.0732 103.6141,274.3102 102.4431,274.5042 L95.2461,275.7042 L110.6151,290.4702 C112.7571,292.5262 113.6161,295.1382 112.9751,297.6342 C112.3331,300.1302 110.3201,302.0032 107.4531,302.7712 L96.6541,305.6692 C92.5041,306.7812 87.0611,305.3552 83.9891,302.3492 L67.2021,285.9112 C66.4551,285.1792 64.4701,284.7212 63.4731,285.0512 L56.0521,287.5242 L62.6131,293.4762 C65.5561,296.1422 67.7751,301.1482 67.7751,305.1202 L67.7751,320.0612 C67.7751,322.5362 65.7691,324.5422 63.2941,324.5422 Z" id="Stroke-13" stroke="#3723FF" stroke-width="3" stroke-linecap="round" stroke-linejoin="round"></path>
                <g id="Group-18" transform="translate(21.000000, 219.838000)">
                    <path d="M0.4474,22.0684 L2.9204,43.5144 C3.1104,45.1724 4.7334,46.4324 5.4914,47.9634 C6.2024,49.3974 6.1634,51.4424 7.3374,52.7564 C8.3914,53.9384 10.4434,54.1894 11.8474,55.2674 C13.1094,56.2354 13.8394,58.1604 15.3634,59.0394 C16.7504,59.8394 18.7934,59.5314 20.3844,60.2554 C21.8514,60.9224 22.9454,62.6694 24.5754,63.2674 C26.0974,63.8274 28.0694,63.2144 29.7244,63.7114 C31.2844,64.1794 32.5824,65.7824 34.2524,66.1944 C35.8404,66.5864 37.7394,65.7764 39.4214,66.1154 C41.0294,66.4394 42.4634,67.9234 44.1514,68.1994 C45.7744,68.4634 47.6054,67.5104 49.2984,67.7274 C50.9314,67.9364 52.4634,69.3214 54.1574,69.4854 C55.8014,69.6454 57.5714,68.5824 59.2684,68.6984 C60.9174,68.8114 62.5234,70.1064 64.2194,70.1774 C65.8734,70.2474 67.5834,69.0914 69.2764,69.1204 C70.9334,69.1484 72.6034,70.3614 74.2964,70.3494 C75.9554,70.3394 77.6084,69.1034 79.2994,69.0534 C80.9594,69.0044 82.6824,70.1394 84.3704,70.0524 C86.0304,69.9664 87.6274,68.6594 89.3114,68.5364 C90.9694,68.4154 92.7404,69.4754 94.4204,69.3164 C96.0774,69.1604 97.6184,67.7874 99.2924,67.5944 C100.9684,67.4014 102.7844,68.3864 104.4344,68.1624 C106.1074,67.9344 107.5924,66.4984 109.2364,66.2394 C110.9034,65.9754 112.7554,66.8844 114.3894,66.5904 C116.0534,66.2924 117.4744,64.7944 119.1024,64.4644 C120.7594,64.1284 122.6494,64.9554 124.2664,64.5894 C125.9184,64.2144 127.2674,62.6534 128.8754,62.2494 C130.5174,61.8354 132.4464,62.5714 134.0404,62.1274 C135.6754,61.6734 136.9444,60.0464 138.5234,59.5604 C140.1484,59.0614 142.1134,59.6944 143.6764,59.1654 C145.2894,58.6194 146.4644,56.9234 148.0074,56.3474 C149.6054,55.7524 151.6054,56.2614 153.1254,55.6354 C154.7054,54.9844 155.7634,53.2134 157.2554,52.5314 C158.8144,51.8194 160.8474,52.1754 162.3034,51.4334 C163.8374,50.6524 164.7364,48.7964 166.1484,47.9854 C167.6454,47.1254 169.7044,47.2744 171.0584,46.3844 C172.5094,45.4304 173.1774,43.4794 174.4554,42.4964 C175.8404,41.4304 177.8994,41.2654 179.0684,40.1714 C180.3534,38.9674 180.6264,36.9274 181.6344,35.6984 C182.7574,34.3294 184.6984,33.6174 185.4574,32.2264 C186.3014,30.6794 185.7994,28.6964 186.1654,27.1374 C186.5554,25.4734 187.8494,23.8764 187.6584,22.2174 L185.1854,0.7714" id="Fill-15" fill="#E2F8FF"></path>
                    <path d="M0.4474,22.0684 L2.9204,43.5144 C3.1104,45.1724 4.7334,46.4324 5.4914,47.9634 C6.2024,49.3974 6.1634,51.4424 7.3374,52.7564 C8.3914,53.9384 10.4434,54.1894 11.8474,55.2674 C13.1094,56.2354 13.8394,58.1604 15.3634,59.0394 C16.7504,59.8394 18.7934,59.5314 20.3844,60.2554 C21.8514,60.9224 22.9454,62.6694 24.5754,63.2674 C26.0974,63.8274 28.0694,63.2144 29.7244,63.7114 C31.2844,64.1794 32.5824,65.7824 34.2524,66.1944 C35.8404,66.5864 37.7394,65.7764 39.4214,66.1154 C41.0294,66.4394 42.4634,67.9234 44.1514,68.1994 C45.7744,68.4634 47.6054,67.5104 49.2984,67.7274 C50.9314,67.9364 52.4634,69.3214 54.1574,69.4854 C55.8014,69.6454 57.5714,68.5824 59.2684,68.6984 C60.9174,68.8114 62.5234,70.1064 64.2194,70.1774 C65.8734,70.2474 67.5834,69.0914 69.2764,69.1204 C70.9334,69.1484 72.6034,70.3614 74.2964,70.3494 C75.9554,70.3394 77.6084,69.1034 79.2994,69.0534 C80.9594,69.0044 82.6824,70.1394 84.3704,70.0524 C86.0304,69.9664 87.6274,68.6594 89.3114,68.5364 C90.9694,68.4154 92.7404,69.4754 94.4204,69.3164 C96.0774,69.1604 97.6184,67.7874 99.2924,67.5944 C100.9684,67.4014 102.7844,68.3864 104.4344,68.1624 C106.1074,67.9344 107.5924,66.4984 109.2364,66.2394 C110.9034,65.9754 112.7554,66.8844 114.3894,66.5904 C116.0534,66.2924 117.4744,64.7944 119.1024,64.4644 C120.7594,64.1284 122.6494,64.9554 124.2664,64.5894 C125.9184,64.2144 127.2674,62.6534 128.8754,62.2494 C130.5174,61.8354 132.4464,62.5714 134.0404,62.1274 C135.6754,61.6734 136.9444,60.0464 138.5234,59.5604 C140.1484,59.0614 142.1134,59.6944 143.6764,59.1654 C145.2894,58.6194 146.4644,56.9234 148.0074,56.3474 C149.6054,55.7524 151.6054,56.2614 153.1254,55.6354 C154.7054,54.9844 155.7634,53.2134 157.2554,52.5314 C158.8144,51.8194 160.8474,52.1754 162.3034,51.4334 C163.8374,50.6524 164.7364,48.7964 166.1484,47.9854 C167.6454,47.1254 169.7044,47.2744 171.0584,46.3844 C172.5094,45.4304 173.1774,43.4794 174.4554,42.4964 C175.8404,41.4304 177.8994,41.2654 179.0684,40.1714 C180.3534,38.9674 180.6264,36.9274 181.6344,35.6984 C182.7574,34.3294 184.6984,33.6174 185.4574,32.2264 C186.3014,30.6794 185.7994,28.6964 186.1654,27.1374 C186.5554,25.4734 187.8494,23.8764 187.6584,22.2174 L185.1854,0.7714" id="Stroke-17" stroke="#3723FF" stroke-width="3" stroke-linecap="round" stroke-linejoin="round"></path>
                </g>
                <path d="M206.1076,219.9348 C206.2986,221.5928 205.0046,223.1908 204.6156,224.8548 C204.2496,226.4138 204.7526,228.3968 203.9076,229.9438 C203.1486,231.3338 201.2076,232.0458 200.0856,233.4148 C199.0766,234.6448 198.8026,236.6848 197.5186,237.8878 C196.3496,238.9828 194.2906,239.1478 192.9056,240.2138 C191.6286,241.1978 190.9596,243.1478 189.5076,244.1018 C188.1546,244.9918 186.0956,244.8418 184.5986,245.7028 C183.1866,246.5128 182.2866,248.3698 180.7536,249.1508 C179.2976,249.8928 177.2636,249.5368 175.7046,250.2488 C174.2126,250.9298 173.1556,252.7018 171.5746,253.3528 C170.0546,253.9788 168.0546,253.4688 166.4576,254.0648 C164.9146,254.6408 163.7386,256.3358 162.1266,256.8818 C160.5636,257.4118 158.5986,256.7788 156.9736,257.2778 C155.3936,257.7628 154.1246,259.3898 152.4896,259.8448 C150.8956,260.2888 148.9676,259.5528 147.3246,259.9658 C145.7176,260.3708 144.3676,261.9318 142.7166,262.3058 C141.0996,262.6718 139.2096,261.8448 137.5516,262.1808 C135.9236,262.5108 134.5036,264.0088 132.8396,264.3078 C131.2056,264.6018 129.3536,263.6928 127.6866,263.9558 C126.0426,264.2148 124.5576,265.6518 122.8836,265.8788 C121.2336,266.1038 119.4196,265.1188 117.7426,265.3118 C116.0676,265.5038 114.5266,266.8768 112.8706,267.0338 C111.1906,267.1928 109.4196,266.1318 107.7606,266.2528 C106.0776,266.3768 104.4796,267.6838 102.8206,267.7698 C101.1326,267.8568 99.4096,266.7208 97.7496,266.7708 C96.0586,266.8208 94.4056,268.0558 92.7466,268.0678 C91.0526,268.0788 89.3836,266.8658 87.7266,266.8368 C86.0326,266.8088 84.3226,267.9638 82.6696,267.8948 C80.9736,267.8238 79.3676,266.5288 77.7176,266.4148 C76.0216,266.2988 74.2516,267.3628 72.6076,267.2028 C70.9126,267.0388 69.3816,265.6538 67.7476,265.4448 C66.0556,265.2278 64.2236,266.1798 62.6016,265.9158 C60.9136,265.6418 59.4786,264.1568 57.8716,263.8318 C56.1896,263.4938 54.2906,264.3028 52.7026,263.9118 C51.0326,263.4988 49.7336,261.8968 48.1746,261.4278 C46.5196,260.9308 44.5466,261.5438 43.0256,260.9858 C41.3956,260.3858 40.3006,258.6388 38.8336,257.9718 C37.2426,257.2478 35.2006,257.5568 33.8126,256.7558 C32.2886,255.8768 31.5596,253.9528 30.2976,252.9848 C28.8936,251.9078 26.8416,251.6558 25.7866,250.4738 C24.6126,249.1598 24.6516,247.1148 23.9416,245.6798 C23.1836,244.1498 21.5606,242.8888 21.3706,241.2318 C21.1786,239.5738 22.4726,237.9758 22.8626,236.3118 C23.2286,234.7528 22.7256,232.7698 23.5706,231.2218 C24.3296,229.8318 26.2706,229.1208 27.3926,227.7508 C28.4016,226.5218 28.6736,224.4818 29.9596,223.2788 C31.1286,222.1838 33.1876,222.0188 34.5726,220.9528 C35.8496,219.9688 36.5176,218.0188 37.9696,217.0648 C39.3236,216.1748 41.3816,216.3248 42.8786,215.4638 C44.2916,214.6528 45.1906,212.7968 46.7236,212.0158 C48.1796,211.2738 50.2126,211.6298 51.7736,210.9168 C53.2646,210.2368 54.3226,208.4648 55.9036,207.8138 C57.4226,207.1878 59.4226,207.6978 61.0206,207.1018 C62.5636,206.5258 63.7386,204.8298 65.3516,204.2848 C66.9146,203.7548 68.8786,204.3878 70.5036,203.8888 C72.0836,203.4038 73.3536,201.7768 74.9876,201.3218 C76.5826,200.8778 78.5096,201.6138 80.1536,201.2008 C81.7596,200.7958 83.1096,199.2348 84.7606,198.8608 C86.3786,198.4948 88.2686,199.3218 89.9256,198.9858 C91.5536,198.6558 92.9736,197.1578 94.6376,196.8578 C96.2726,196.5638 98.1246,197.4738 99.7916,197.2098 C101.4356,196.9518 102.9196,195.5148 104.5926,195.2878 C106.2446,195.0618 108.0586,196.0478 109.7356,195.8548 C111.4106,195.6628 112.9506,194.2898 114.6076,194.1328 C116.2876,193.9738 118.0576,195.0348 119.7156,194.9138 C121.4006,194.7898 122.9986,193.4828 124.6576,193.3968 C126.3446,193.3098 128.0686,194.4458 129.7286,194.3958 C131.4196,194.3458 133.0726,193.1108 134.7316,193.0988 C136.4246,193.0868 138.0936,194.3008 139.7516,194.3298 C141.4456,194.3578 143.1556,193.2028 144.8076,193.2718 C146.5036,193.3428 148.1106,194.6378 149.7586,194.7508 C151.4566,194.8668 153.2266,193.8038 154.8706,193.9638 C156.5656,194.1278 158.0956,195.5118 159.7306,195.7218 C161.4216,195.9388 163.2536,194.9868 164.8766,195.2498 C166.5646,195.5248 167.9986,197.0098 169.6066,197.3338 C171.2886,197.6728 173.1876,196.8638 174.7756,197.2548 C176.4456,197.6668 177.7446,199.2698 179.3026,199.7388 C180.9586,200.2358 182.9296,199.6228 184.4526,200.1808 C186.0826,200.7808 187.1766,202.5278 188.6436,203.1948 C190.2356,203.9178 192.2776,203.6098 193.6646,204.4108 C195.1886,205.2898 195.9186,207.2138 197.1796,208.1818 C198.5846,209.2588 200.6356,209.5108 201.6906,210.6928 C202.8646,212.0068 202.8266,214.0518 203.5366,215.4868 C204.2946,217.0168 205.9176,218.2778 206.1076,219.9348" id="Fill-19" fill="#E2F8FF"></path>
                <path d="M206.1076,219.9348 C206.2986,221.5928 205.0046,223.1908 204.6156,224.8548 C204.2496,226.4138 204.7526,228.3968 203.9076,229.9438 C203.1486,231.3338 201.2076,232.0458 200.0856,233.4148 C199.0766,234.6448 198.8026,236.6848 197.5186,237.8878 C196.3496,238.9828 194.2906,239.1478 192.9056,240.2138 C191.6286,241.1978 190.9596,243.1478 189.5076,244.1018 C188.1546,244.9918 186.0956,244.8418 184.5986,245.7028 C183.1866,246.5128 182.2866,248.3698 180.7536,249.1508 C179.2976,249.8928 177.2636,249.5368 175.7046,250.2488 C174.2126,250.9298 173.1556,252.7018 171.5746,253.3528 C170.0546,253.9788 168.0546,253.4688 166.4576,254.0648 C164.9146,254.6408 163.7386,256.3358 162.1266,256.8818 C160.5636,257.4118 158.5986,256.7788 156.9736,257.2778 C155.3936,257.7628 154.1246,259.3898 152.4896,259.8448 C150.8956,260.2888 148.9676,259.5528 147.3246,259.9658 C145.7176,260.3708 144.3676,261.9318 142.7166,262.3058 C141.0996,262.6718 139.2096,261.8448 137.5516,262.1808 C135.9236,262.5108 134.5036,264.0088 132.8396,264.3078 C131.2056,264.6018 129.3536,263.6928 127.6866,263.9558 C126.0426,264.2148 124.5576,265.6518 122.8836,265.8788 C121.2336,266.1038 119.4196,265.1188 117.7426,265.3118 C116.0676,265.5038 114.5266,266.8768 112.8706,267.0338 C111.1906,267.1928 109.4196,266.1318 107.7606,266.2528 C106.0776,266.3768 104.4796,267.6838 102.8206,267.7698 C101.1326,267.8568 99.4096,266.7208 97.7496,266.7708 C96.0586,266.8208 94.4056,268.0558 92.7466,268.0678 C91.0526,268.0788 89.3836,266.8658 87.7266,266.8368 C86.0326,266.8088 84.3226,267.9638 82.6696,267.8948 C80.9736,267.8238 79.3676,266.5288 77.7176,266.4148 C76.0216,266.2988 74.2516,267.3628 72.6076,267.2028 C70.9126,267.0388 69.3816,265.6538 67.7476,265.4448 C66.0556,265.2278 64.2236,266.1798 62.6016,265.9158 C60.9136,265.6418 59.4786,264.1568 57.8716,263.8318 C56.1896,263.4938 54.2906,264.3028 52.7026,263.9118 C51.0326,263.4988 49.7336,261.8968 48.1746,261.4278 C46.5196,260.9308 44.5466,261.5438 43.0256,260.9858 C41.3956,260.3858 40.3006,258.6388 38.8336,257.9718 C37.2426,257.2478 35.2006,257.5568 33.8126,256.7558 C32.2886,255.8768 31.5596,253.9528 30.2976,252.9848 C28.8936,251.9078 26.8416,251.6558 25.7866,250.4738 C24.6126,249.1598 24.6516,247.1148 23.9416,245.6798 C23.1836,244.1498 21.5606,242.8888 21.3706,241.2318 C21.1786,239.5738 22.4726,237.9758 22.8626,236.3118 C23.2286,234.7528 22.7256,232.7698 23.5706,231.2218 C24.3296,229.8318 26.2706,229.1208 27.3926,227.7508 C28.4016,226.5218 28.6736,224.4818 29.9596,223.2788 C31.1286,222.1838 33.1876,222.0188 34.5726,220.9528 C35.8496,219.9688 36.5176,218.0188 37.9696,217.0648 C39.3236,216.1748 41.3816,216.3248 42.8786,215.4638 C44.2916,214.6528 45.1906,212.7968 46.7236,212.0158 C48.1796,211.2738 50.2126,211.6298 51.7736,210.9168 C53.2646,210.2368 54.3226,208.4648 55.9036,207.8138 C57.4226,207.1878 59.4226,207.6978 61.0206,207.1018 C62.5636,206.5258 63.7386,204.8298 65.3516,204.2848 C66.9146,203.7548 68.8786,204.3878 70.5036,203.8888 C72.0836,203.4038 73.3536,201.7768 74.9876,201.3218 C76.5826,200.8778 78.5096,201.6138 80.1536,201.2008 C81.7596,200.7958 83.1096,199.2348 84.7606,198.8608 C86.3786,198.4948 88.2686,199.3218 89.9256,198.9858 C91.5536,198.6558 92.9736,197.1578 94.6376,196.8578 C96.2726,196.5638 98.1246,197.4738 99.7916,197.2098 C101.4356,196.9518 102.9196,195.5148 104.5926,195.2878 C106.2446,195.0618 108.0586,196.0478 109.7356,195.8548 C111.4106,195.6628 112.9506,194.2898 114.6076,194.1328 C116.2876,193.9738 118.0576,195.0348 119.7156,194.9138 C121.4006,194.7898 122.9986,193.4828 124.6576,193.3968 C126.3446,193.3098 128.0686,194.4458 129.7286,194.3958 C131.4196,194.3458 133.0726,193.1108 134.7316,193.0988 C136.4246,193.0868 138.0936,194.3008 139.7516,194.3298 C141.4456,194.3578 143.1556,193.2028 144.8076,193.2718 C146.5036,193.3428 148.1106,194.6378 149.7586,194.7508 C151.4566,194.8668 153.2266,193.8038 154.8706,193.9638 C156.5656,194.1278 158.0956,195.5118 159.7306,195.7218 C161.4216,195.9388 163.2536,194.9868 164.8766,195.2498 C166.5646,195.5248 167.9986,197.0098 169.6066,197.3338 C171.2886,197.6728 173.1876,196.8638 174.7756,197.2548 C176.4456,197.6668 177.7446,199.2698 179.3026,199.7388 C180.9586,200.2358 182.9296,199.6228 184.4526,200.1808 C186.0826,200.7808 187.1766,202.5278 188.6436,203.1948 C190.2356,203.9178 192.2776,203.6098 193.6646,204.4108 C195.1886,205.2898 195.9186,207.2138 197.1796,208.1818 C198.5846,209.2588 200.6356,209.5108 201.6906,210.6928 C202.8646,212.0068 202.8266,214.0518 203.5366,215.4868 C204.2946,217.0168 205.9176,218.2778 206.1076,219.9348 Z" id="Stroke-21" stroke="#3723FF" stroke-width="3" stroke-linecap="round" stroke-linejoin="round"></path>
                <path d="M50.7824,227.6594 L109.1984,251.0254" id="Stroke-23" stroke="#3723FF" stroke-width="3" stroke-linecap="round" stroke-linejoin="round"></path>
                <path d="M83.6408,218.8967 L142.0568,242.2627" id="Stroke-25" stroke="#3723FF" stroke-width="3" stroke-linecap="round" stroke-linejoin="round"></path>
                <path d="M114.3976,212.9084 L172.8136,236.2744" id="Stroke-27" stroke="#3723FF" stroke-width="3" stroke-linecap="round" stroke-linejoin="round"></path>
                <path d="M134.3156,178.0217 C132.6936,177.5947 130.1496,178.0027 128.6636,178.9267 L77.8546,210.5277 C76.3686,211.4517 76.2236,213.2567 77.5346,214.5387 L136.7676,272.4867 C138.0786,273.7687 139.9686,273.4527 140.9706,271.7847 L186.8656,195.3397 C187.8676,193.6717 187.3586,191.9587 185.7366,191.5327 L134.3156,178.0217 Z" id="Fill-29" fill="#FFFCF5"></path>
                <path d="M134.3156,178.0217 C132.6936,177.5947 130.1496,178.0027 128.6636,178.9267 L77.8546,210.5277 C76.3686,211.4517 76.2236,213.2567 77.5346,214.5387 L136.7676,272.4867 C138.0786,273.7687 139.9686,273.4527 140.9706,271.7847 L186.8656,195.3397 C187.8676,193.6717 187.3586,191.9587 185.7366,191.5327 L134.3156,178.0217 Z" id="Stroke-31" stroke="#3723FF" stroke-width="3" stroke-linecap="round" stroke-linejoin="round"></path>
                <path d="M112.6564,179.0041 C112.0374,177.5081 110.1554,176.3751 108.4744,176.4861 L59.3044,179.7571 C57.6244,179.8681 55.9994,181.2671 55.6934,182.8631 L43.3514,247.3691 C43.0464,248.9661 44.0674,249.7441 45.6224,249.0991 L124.6334,222.4471 C126.1864,221.8011 136.9114,202.9921 136.2924,201.4951 L112.6564,179.0041 Z" id="Fill-33" fill="#FFFCF5"></path>
                <path d="M112.6564,179.0041 C112.0374,177.5081 110.1554,176.3751 108.4744,176.4861 L59.3044,179.7571 C57.6244,179.8681 55.9994,181.2671 55.6934,182.8631 L43.3514,247.3691 C43.0464,248.9661 44.0674,249.7441 45.6224,249.0991 L124.6334,222.4471 C126.1864,221.8011 136.9114,202.9921 136.2924,201.4951 L112.6564,179.0041 Z" id="Stroke-35" stroke="#3723FF" stroke-width="3" stroke-linecap="round" stroke-linejoin="round"></path>
                <path d="M227.5294,200.3772 C227.5084,205.6382 208.6044,204.6872 195.9814,208.5882 C188.4254,210.9242 183.7694,224.7832 172.9954,226.3422 C164.2664,227.6052 152.3684,216.2722 142.1044,216.8962 C132.9274,217.4532 123.9034,230.1492 113.8914,230.1082 C103.8834,230.0672 94.9664,217.2992 85.7974,216.6672 C75.5374,215.9602 63.5474,227.1952 54.8284,225.8612 C44.0654,224.2162 39.5204,210.3182 31.9824,207.9222 C19.3894,203.9172 0.4784,204.7142 0.5004,199.4532 C0.5214,194.1922 19.4254,195.1442 32.0484,191.2422 C39.6034,188.9062 44.2594,175.0472 55.0334,173.4882 C63.7624,172.2262 75.6604,183.5592 85.9244,182.9352 C95.1004,182.3772 104.1254,169.6812 114.1374,169.7222 C124.1454,169.7632 133.0634,182.5312 142.2324,183.1632 C152.4914,183.8702 164.4814,172.6352 173.2014,173.9692 C183.9634,175.6152 188.5084,189.5122 196.0464,191.9082 C208.6384,195.9132 227.5504,195.1172 227.5294,200.3772" id="Fill-37" fill="#8CE06E"></path>
                <path d="M227.5294,200.3772 C227.5084,205.6382 208.6044,204.6872 195.9814,208.5882 C188.4254,210.9242 183.7694,224.7832 172.9954,226.3422 C164.2664,227.6052 152.3684,216.2722 142.1044,216.8962 C132.9274,217.4532 123.9034,230.1492 113.8914,230.1082 C103.8834,230.0672 94.9664,217.2992 85.7974,216.6672 C75.5374,215.9602 63.5474,227.1952 54.8284,225.8612 C44.0654,224.2162 39.5204,210.3182 31.9824,207.9222 C19.3894,203.9172 0.4784,204.7142 0.5004,199.4532 C0.5214,194.1922 19.4254,195.1442 32.0484,191.2422 C39.6034,188.9062 44.2594,175.0472 55.0334,173.4882 C63.7624,172.2262 75.6604,183.5592 85.9244,182.9352 C95.1004,182.3772 104.1254,169.6812 114.1374,169.7222 C124.1454,169.7632 133.0634,182.5312 142.2324,183.1632 C152.4914,183.8702 164.4814,172.6352 173.2014,173.9692 C183.9634,175.6152 188.5084,189.5122 196.0464,191.9082 C208.6384,195.9132 227.5504,195.1172 227.5294,200.3772 Z" id="Stroke-39" stroke="#3723FF" stroke-width="3" stroke-linecap="round" stroke-linejoin="round"></path>
                <path d="M230.1671,170.3772 C230.4131,175.8372 212.1121,175.7522 200.1221,180.4032 C192.9441,183.1882 189.1511,197.7922 178.8271,199.9242 C170.4631,201.6512 158.4011,190.4582 148.5221,191.5952 C139.6901,192.6112 131.6191,206.2182 121.9501,206.6532 C112.2851,207.0882 103.6361,198.7642 94.7511,198.5452 C84.8091,198.3012 72.1771,209.3382 63.6891,208.3692 C53.2151,207.1752 49.1401,189.6642 41.7391,187.5362 C29.3771,183.9812 16.3181,185.2092 16.0721,179.7492 C15.8261,174.2892 28.9661,174.8752 40.9571,170.2242 C48.1341,167.4392 52.8761,163.0002 63.1991,160.8682 C71.5631,159.1422 82.6781,160.1692 92.5571,159.0312 C101.3891,158.0152 109.4591,144.4092 119.1281,143.9742 C128.7941,143.5382 138.0511,156.3642 146.9371,156.5822 C156.8781,156.8262 167.8861,144.5952 176.3721,145.5632 C186.8471,146.7582 191.9391,160.9632 199.3391,163.0912 C211.7011,166.6462 229.9211,164.9172 230.1671,170.3772" id="Fill-41" fill="#8CE06E"></path>
                <path d="M230.1671,170.3772 C230.4131,175.8372 212.1121,175.7522 200.1221,180.4032 C192.9441,183.1882 189.1511,197.7922 178.8271,199.9242 C170.4631,201.6512 158.4011,190.4582 148.5221,191.5952 C139.6901,192.6112 131.6191,206.2182 121.9501,206.6532 C112.2851,207.0882 103.6361,198.7642 94.7511,198.5452 C84.8091,198.3012 72.1771,209.3382 63.6891,208.3692 C53.2151,207.1752 49.1401,189.6642 41.7391,187.5362 C29.3771,183.9812 16.3181,185.2092 16.0721,179.7492 C15.8261,174.2892 28.9661,174.8752 40.9571,170.2242 C48.1341,167.4392 52.8761,163.0002 63.1991,160.8682 C71.5631,159.1422 82.6781,160.1692 92.5571,159.0312 C101.3891,158.0152 109.4591,144.4092 119.1281,143.9742 C128.7941,143.5382 138.0511,156.3642 146.9371,156.5822 C156.8781,156.8262 167.8861,144.5952 176.3721,145.5632 C186.8471,146.7582 191.9391,160.9632 199.3391,163.0912 C211.7011,166.6462 229.9211,164.9172 230.1671,170.3772 Z" id="Stroke-43" stroke="#3723FF" stroke-width="3" stroke-linecap="round" stroke-linejoin="round"></path>
                <g id="Group-48" transform="translate(25.000000, 149.838000)">
                    <path d="M2.8878,0.4649 L1.0298,10.7429 C-0.9582,21.7319 18.9518,34.5309 45.4988,39.3309 C72.0458,44.1319 95.1768,39.1139 97.1628,28.1259 L99.0228,17.8469" id="Fill-45" fill="#FFC8D7"></path>
                    <path d="M2.8878,0.4649 L1.0298,10.7429 C-0.9582,21.7319 18.9518,34.5309 45.4988,39.3309 C72.0458,44.1319 95.1768,39.1139 97.1628,28.1259 L99.0228,17.8469" id="Stroke-47" stroke="#3723FF" stroke-width="3" stroke-linecap="round" stroke-linejoin="round"></path>
                </g>
                <path d="M124.2951,166.174 C122.3091,177.162 99.1781,182.18 72.6311,177.379 C46.0841,172.579 26.1741,159.779 28.1611,148.791 C30.1491,137.802 53.2791,132.785 79.8261,137.585 C106.3731,142.385 126.2821,155.185 124.2951,166.174" id="Fill-49" fill="#FFC8D7"></path>
                <path d="M124.2951,166.174 C122.3091,177.162 99.1781,182.18 72.6311,177.379 C46.0841,172.579 26.1741,159.779 28.1611,148.791 C30.1491,137.802 53.2791,132.785 79.8261,137.585 C106.3731,142.385 126.2821,155.185 124.2951,166.174 Z" id="Stroke-51" stroke="#3723FF" stroke-width="3" stroke-linecap="round" stroke-linejoin="round"></path>
                <path d="M41.4191,146.465 C43.4251,145.117 46.3781,143.966 49.9881,143.183 C57.0241,141.656 65.8231,141.55 75.1061,142.849 L73.4061,152.249 L41.4191,146.465 Z" id="Fill-53" fill="#FFE9EF"></path>
                <path d="M41.4191,146.465 C43.4251,145.117 46.3781,143.966 49.9881,143.183 C57.0241,141.656 65.8231,141.55 75.1061,142.849 L73.4061,152.249 L41.4191,146.465 Z" id="Stroke-55" stroke="#3723FF" stroke-width="3" stroke-linecap="round" stroke-linejoin="round"></path>
                <path d="M70.2716,169.5861 C61.1216,167.5531 52.9176,164.3711 46.8616,160.4791 C43.7526,158.4811 41.3916,156.3681 39.9836,154.4031 L71.9706,160.1881 L70.2716,169.5861 Z" id="Fill-57" fill="#FFE9EF"></path>
                <path d="M70.2716,169.5861 C61.1216,167.5531 52.9176,164.3711 46.8616,160.4791 C43.7526,158.4811 41.3916,156.3681 39.9836,154.4031 L71.9706,160.1881 L70.2716,169.5861 Z" id="Stroke-59" stroke="#3723FF" stroke-width="3" stroke-linecap="round" stroke-linejoin="round"></path>
                <path d="M79.9093,161.6232 L111.8963,167.4062 C109.8893,168.7542 106.9373,169.9052 103.3273,170.6882 C96.2913,172.2142 87.4923,172.3202 78.2103,171.0212 L79.9093,161.6232 Z" id="Fill-61" fill="#FFE9EF"></path>
                <path d="M79.9093,161.6232 L111.8963,167.4062 C109.8893,168.7542 106.9373,169.9052 103.3273,170.6882 C96.2913,172.2142 87.4923,172.3202 78.2103,171.0212 L79.9093,161.6232 Z" id="Stroke-63" stroke="#3723FF" stroke-width="3" stroke-linecap="round" stroke-linejoin="round"></path>
                <path d="M81.3449,153.6838 L83.0439,144.2848 C92.1949,146.3188 100.3989,149.4988 106.4539,153.3928 C109.5629,155.3908 111.9249,157.5028 113.3319,159.4678 L81.3449,153.6838 Z" id="Fill-65" fill="#FFE9EF"></path>
                <path d="M81.3449,153.6838 L83.0439,144.2848 C92.1949,146.3188 100.3989,149.4988 106.4539,153.3928 C109.5629,155.3908 111.9249,157.5028 113.3319,159.4678 L81.3449,153.6838 Z" id="Stroke-67" stroke="#3723FF" stroke-width="3" stroke-linecap="round" stroke-linejoin="round"></path>
                <g id="Group-72" transform="translate(94.000000, 143.838000)">
                    <path d="M0.2638,0.8155 L0.2638,13.1435 C0.2638,26.3235 26.0758,37.0075 57.9158,37.0075 C89.7558,37.0075 115.5678,26.3235 115.5678,13.1435 L115.5678,0.8155" id="Fill-69" fill="#FFC8D7"></path>
                    <path d="M0.2638,0.8155 L0.2638,13.1435 C0.2638,26.3235 26.0758,37.0075 57.9158,37.0075 C89.7558,37.0075 115.5678,26.3235 115.5678,13.1435 L115.5678,0.8155" id="Stroke-71" stroke="#3723FF" stroke-width="3" stroke-linecap="round" stroke-linejoin="round"></path>
                </g>
                <path d="M209.5675,142.84 C209.5675,156.021 183.7555,166.705 151.9165,166.705 C120.0755,166.705 94.2635,156.021 94.2635,142.84 C94.2635,129.66 120.0755,118.976 151.9165,118.976 C183.7555,118.976 209.5675,129.66 209.5675,142.84" id="Fill-73" fill="#FFC8D7"></path>
                <path d="M209.5675,142.84 C209.5675,156.021 183.7555,166.705 151.9165,166.705 C120.0755,166.705 94.2635,156.021 94.2635,142.84 C94.2635,129.66 120.0755,118.976 151.9165,118.976 C183.7555,118.976 209.5675,129.66 209.5675,142.84 Z" id="Stroke-75" stroke="#3723FF" stroke-width="3" stroke-linecap="round" stroke-linejoin="round"></path>
                <path d="M109.173,137.3547 C111.221,135.3687 114.408,133.4107 118.437,131.7427 C126.288,128.4927 136.485,126.5207 147.539,126.0807 L147.539,137.3547 L109.173,137.3547 Z" id="Fill-77" fill="#FFE9EF"></path>
                <path d="M109.173,137.3547 C111.221,135.3687 114.408,133.4107 118.437,131.7427 C126.288,128.4927 136.485,126.5207 147.539,126.0807 L147.539,137.3547 L109.173,137.3547 Z" id="Stroke-79" stroke="#3723FF" stroke-width="3" stroke-linecap="round" stroke-linejoin="round"></path>
                <path d="M147.5392,158.1486 C136.4852,157.7096 126.2882,155.7376 118.4362,152.4876 C114.4082,150.8196 111.2222,148.8626 109.1732,146.8766 L147.5392,146.8766 L147.5392,158.1486 Z" id="Fill-81" fill="#FFE9EF"></path>
                <path d="M147.5392,158.1486 C136.4852,157.7096 126.2882,155.7376 118.4362,152.4876 C114.4082,150.8196 111.2222,148.8626 109.1732,146.8766 L147.5392,146.8766 L147.5392,158.1486 Z" id="Stroke-83" stroke="#3723FF" stroke-width="3" stroke-linecap="round" stroke-linejoin="round"></path>
                <path d="M157.0607,146.8762 L195.4267,146.8762 C193.3777,148.8622 190.1917,150.8192 186.1637,152.4872 C178.3117,155.7372 168.1147,157.7092 157.0607,158.1482 L157.0607,146.8762 Z" id="Fill-85" fill="#FFE9EF"></path>
                <path d="M157.0607,146.8762 L195.4267,146.8762 C193.3777,148.8622 190.1917,150.8192 186.1637,152.4872 C178.3117,155.7372 168.1147,157.7092 157.0607,158.1482 L157.0607,146.8762 Z" id="Stroke-87" stroke="#3723FF" stroke-width="3" stroke-linecap="round" stroke-linejoin="round"></path>
                <path d="M157.0607,137.3547 L157.0607,126.0807 C168.1147,126.5207 178.3117,128.4927 186.1637,131.7427 C190.1917,133.4107 193.3787,135.3687 195.4267,137.3547 L157.0607,137.3547 Z" id="Fill-89" fill="#FFE9EF"></path>
                <path d="M157.0607,137.3547 L157.0607,126.0807 C168.1147,126.5207 178.3117,128.4927 186.1637,131.7427 C190.1917,133.4107 193.3787,135.3687 195.4267,137.3547 L157.0607,137.3547 Z" id="Stroke-91" stroke="#3723FF" stroke-width="3" stroke-linecap="round" stroke-linejoin="round"></path>
                <path d="M212.6447,98.6428 C210.6847,127.9808 171.4767,132.2888 123.0297,129.0308 C74.5567,126.1168 36.2707,116.8708 38.2847,87.5368 C40.1807,58.7038 80.9327,36.5758 129.1277,39.0228 C177.2407,42.7098 214.6567,69.8178 212.6447,98.6428" id="Fill-93" fill="#FFFCF5"></path>
                <path d="M212.6447,98.6428 C210.6847,127.9808 171.4767,132.2888 123.0297,129.0308 C74.5567,126.1168 36.2707,116.8708 38.2847,87.5368 C40.1807,58.7038 80.9327,36.5758 129.1277,39.0228 C177.2407,42.7098 214.6567,69.8178 212.6447,98.6428 Z" id="Stroke-95" stroke="#3723FF" stroke-width="3" stroke-linecap="round" stroke-linejoin="round"></path>
                <path d="M70.4542,72.8586 C69.7522,74.1616 68.5762,74.5716 67.8282,73.7746 C67.0792,72.9776 67.6542,71.9276 69.1122,71.4296 C69.5512,71.2806 70.2352,70.7736 70.7232,70.9646 C71.6082,71.3136 70.7082,72.3856 70.4542,72.8586" id="Fill-97" fill="#3723FF"></path>
                <path d="M70.4542,72.8586 C69.7522,74.1616 68.5762,74.5716 67.8282,73.7746 C67.0792,72.9776 67.6542,71.9276 69.1122,71.4296 C69.5512,71.2806 70.2352,70.7736 70.7232,70.9646 C71.6082,71.3136 70.7082,72.3856 70.4542,72.8586 Z" id="Stroke-99" stroke="#3723FF" stroke-width="2" stroke-linecap="round" stroke-linejoin="round"></path>
                <path d="M97.7033,58.2883 C96.8453,59.4993 95.6273,59.7683 94.9823,58.8903 C94.3393,58.0123 95.0403,57.0363 96.5503,56.7133 C97.0043,56.6163 97.7463,56.1933 98.2063,56.4403 C99.0423,56.8903 98.0153,57.8493 97.7033,58.2883" id="Fill-101" fill="#3723FF"></path>
                <path d="M97.7033,58.2883 C96.8453,59.4993 95.6273,59.7683 94.9823,58.8903 C94.3393,58.0123 95.0403,57.0363 96.5503,56.7133 C97.0043,56.6163 97.7463,56.1933 98.2063,56.4403 C99.0423,56.8903 98.0153,57.8493 97.7033,58.2883 Z" id="Stroke-103" stroke="#3723FF" stroke-width="2" stroke-linecap="round" stroke-linejoin="round"></path>
                <path d="M92.3781,94.4387 C92.4821,95.9047 91.7031,96.8507 90.6351,96.5517 C89.5671,96.2527 89.4901,95.0667 90.4641,93.9027 C90.7571,93.5527 91.0661,92.7727 91.5851,92.6897 C92.5281,92.5367 92.3401,93.9067 92.3781,94.4387" id="Fill-105" fill="#3723FF"></path>
                <path d="M92.3781,94.4387 C92.4821,95.9047 91.7031,96.8507 90.6351,96.5517 C89.5671,96.2527 89.4901,95.0667 90.4641,93.9027 C90.7571,93.5527 91.0661,92.7727 91.5851,92.6897 C92.5281,92.5367 92.3401,93.9067 92.3781,94.4387 Z" id="Stroke-107" stroke="#3723FF" stroke-width="2" stroke-linecap="round" stroke-linejoin="round"></path>
                <path d="M180.0646,79.1193 C179.9846,80.5863 180.7806,81.5203 181.8426,81.2043 C182.9056,80.8883 182.9616,79.7003 181.9686,78.5523 C181.6696,78.2073 181.3466,77.4323 180.8276,77.3563 C179.8816,77.2203 180.0936,78.5863 180.0646,79.1193" id="Fill-109" fill="#3723FF"></path>
                <path d="M180.0646,79.1193 C179.9846,80.5863 180.7806,81.5203 181.8426,81.2043 C182.9056,80.8883 182.9616,79.7003 181.9686,78.5523 C181.6696,78.2073 181.3466,77.4323 180.8276,77.3563 C179.8816,77.2203 180.0936,78.5863 180.0646,79.1193 Z" id="Stroke-111" stroke="#3723FF" stroke-width="2" stroke-linecap="round" stroke-linejoin="round"></path>
                <path d="M159.3019,95.885 C159.2519,97.355 160.0669,98.273 161.1229,97.936 C162.1789,97.599 162.2109,96.41 161.1949,95.281 C160.8889,94.943 160.5499,94.175 160.0289,94.11 C159.0809,93.989 159.3209,95.352 159.3019,95.885" id="Fill-113" fill="#3723FF"></path>
                <path d="M159.3019,95.885 C159.2519,97.355 160.0669,98.273 161.1229,97.936 C162.1789,97.599 162.2109,96.41 161.1949,95.281 C160.8889,94.943 160.5499,94.175 160.0289,94.11 C159.0809,93.989 159.3209,95.352 159.3019,95.885 Z" id="Stroke-115" stroke="#3723FF" stroke-width="2" stroke-linecap="round" stroke-linejoin="round"></path>
                <path d="M129.7492,79.8547 C130.0282,81.2997 129.3672,82.3277 128.2702,82.1507 C127.1752,81.9727 126.9562,80.8037 127.7842,79.5387 C128.0332,79.1577 128.2472,78.3487 128.7522,78.2077 C129.6702,77.9497 129.6472,79.3317 129.7492,79.8547" id="Fill-117" fill="#3723FF"></path>
                <path d="M129.7492,79.8547 C130.0282,81.2997 129.3672,82.3277 128.2702,82.1507 C127.1752,81.9727 126.9562,80.8037 127.7842,79.5387 C128.0332,79.1577 128.2472,78.3487 128.7522,78.2077 C129.6702,77.9497 129.6472,79.3317 129.7492,79.8547 Z" id="Stroke-119" stroke="#3723FF" stroke-width="2" stroke-linecap="round" stroke-linejoin="round"></path>
                <path d="M139.9816,55.7727 L147.5456,0.5007" id="Stroke-121" stroke="#3723FF" stroke-width="3" stroke-linecap="round" stroke-linejoin="round"></path>
                <path d="M163.4953,66.3518 C152.5733,56.0108 130.7793,52.4448 114.7663,58.3768" id="Stroke-123" stroke="#3723FF" stroke-width="3" stroke-linecap="round" stroke-linejoin="round"></path>
                <path d="M147.1046,1.7561 C145.9166,11.0331 144.7296,20.2701 143.5436,29.4601 C162.4066,37.0771 182.3216,14.0761 201.1756,21.9371 C183.4936,5.2721 164.8576,16.3671 147.1046,1.7561" id="Fill-125" fill="#FFC8D7"></path>
                <path d="M147.1046,1.7561 C145.9166,11.0331 144.7296,20.2701 143.5436,29.4601 C162.4066,37.0771 182.3216,14.0761 201.1756,21.9371 C183.4936,5.2721 164.8576,16.3671 147.1046,1.7561 Z" id="Stroke-127" stroke="#3723FF" stroke-width="3" stroke-linecap="round" stroke-linejoin="round"></path>
                <path d="M147.1046,1.7561 C145.9166,11.0331 144.7296,20.2701 143.5436,29.4601 C162.4066,37.0771 182.3216,14.0761 201.1756,21.9371 C183.4936,5.2721 164.8576,16.3671 147.1046,1.7561 Z" id="Stroke-129" stroke="#3723FF" stroke-width="3" stroke-linecap="round" stroke-linejoin="round"></path>
            </g>
        </g>
    </g>
</svg>