<?xml version="1.0" encoding="utf-8"?>
<!-- Generator: Adobe Illustrator 21.1.0, SVG Export Plug-In . SVG Version: 6.00 Build 0)  -->
<svg version="1.1" xmlns="http://www.w3.org/2000/svg" xmlns:xlink="http://www.w3.org/1999/xlink" x="0px" y="0px"
	 viewBox="0 0 792 269.1" style="enable-background:new 0 0 792 269.1;" xml:space="preserve">
<style type="text/css">
	.st0{fill:#3723FF;}
	.st1{fill:#FFC8D7;}
	.st2{fill:#FFFCF5;}
	.st3{fill:#FFFFFF;}
	.st4{fill:#FFE9EF;}
	.st5{fill:#E2F8FF;}
	.st6{fill:#8CE06E;}
	.st7{fill:none;stroke:#3723FF;stroke-width:2;stroke-linecap:round;stroke-linejoin:round;stroke-miterlimit:10;}
	.st8{fill:#FFFCF5;stroke:#3723FF;stroke-width:2.5;stroke-linecap:round;stroke-linejoin:round;stroke-miterlimit:10;}
</style>
<g id="Layer_8">
	<g>
		<g>
			<g>
				<rect x="2.8" y="1" class="st2" width="81.9" height="199.3"/>
				<path class="st0" d="M84.7,201.4H2.8c-0.6,0-1-0.4-1-1V1c0-0.6,0.4-1,1-1h81.9c0.6,0,1,0.4,1,1v199.4
					C85.7,200.9,85.3,201.4,84.7,201.4z M3.8,199.4h79.9V2H3.8V199.4z"/>
			</g>
			<g>
				<g>
					<g>
						<path class="st0" d="M27.3,81.8H14.6c-0.6,0-1-0.4-1-1V63c0-0.6,0.4-1,1-1h12.7c0.6,0,1,0.4,1,1v17.8
							C28.3,81.4,27.8,81.8,27.3,81.8z M15.6,79.8h10.7V64H15.6V79.8z"/>
					</g>
					<g>
						<path class="st0" d="M50.1,81.8H37.4c-0.6,0-1-0.4-1-1V63c0-0.6,0.4-1,1-1h12.7c0.6,0,1,0.4,1,1v17.8
							C51.1,81.4,50.7,81.8,50.1,81.8z M38.4,79.8h10.7V64H38.4V79.8z"/>
					</g>
					<g>
						<path class="st0" d="M73,81.8H60.3c-0.6,0-1-0.4-1-1V63c0-0.6,0.4-1,1-1H73c0.6,0,1,0.4,1,1v17.8C74,81.4,73.5,81.8,73,81.8z
							 M61.3,79.8H72V64H61.3V79.8z"/>
					</g>
				</g>
				<g>
					<g>
						<path class="st0" d="M27.3,107.4H14.6c-0.6,0-1-0.4-1-1V88.6c0-0.6,0.4-1,1-1h12.7c0.6,0,1,0.4,1,1v17.8
							C28.3,107,27.8,107.4,27.3,107.4z M15.6,105.4h10.7V89.6H15.6V105.4z"/>
					</g>
					<g>
						<path class="st0" d="M50.1,107.4H37.4c-0.6,0-1-0.4-1-1V88.6c0-0.6,0.4-1,1-1h12.7c0.6,0,1,0.4,1,1v17.8
							C51.1,107,50.7,107.4,50.1,107.4z M38.4,105.4h10.7V89.6H38.4V105.4z"/>
					</g>
					<g>
						<path class="st0" d="M73,107.4H60.3c-0.6,0-1-0.4-1-1V88.6c0-0.6,0.4-1,1-1H73c0.6,0,1,0.4,1,1v17.8
							C74,107,73.5,107.4,73,107.4z M61.3,105.4H72V89.6H61.3V105.4z"/>
					</g>
				</g>
				<g>
					<g>
						<path class="st0" d="M27.3,133H14.6c-0.6,0-1-0.4-1-1v-17.8c0-0.6,0.4-1,1-1h12.7c0.6,0,1,0.4,1,1V132
							C28.3,132.5,27.8,133,27.3,133z M15.6,131h10.7v-15.8H15.6V131z"/>
					</g>
					<g>
						<path class="st0" d="M50.1,133H37.4c-0.6,0-1-0.4-1-1v-17.8c0-0.6,0.4-1,1-1h12.7c0.6,0,1,0.4,1,1V132
							C51.1,132.5,50.7,133,50.1,133z M38.4,131h10.7v-15.8H38.4V131z"/>
					</g>
					<g>
						<path class="st0" d="M73,133H60.3c-0.6,0-1-0.4-1-1v-17.8c0-0.6,0.4-1,1-1H73c0.6,0,1,0.4,1,1V132C74,132.5,73.5,133,73,133z
							 M61.3,131H72v-15.8H61.3V131z"/>
					</g>
				</g>
				<g>
					<g>
						<path class="st0" d="M27.3,30.7H14.6c-0.6,0-1-0.4-1-1V11.9c0-0.6,0.4-1,1-1h12.7c0.6,0,1,0.4,1,1v17.8
							C28.3,30.2,27.8,30.7,27.3,30.7z M15.6,28.7h10.7V12.9H15.6V28.7z"/>
					</g>
					<g>
						<path class="st0" d="M50.1,30.7H37.4c-0.6,0-1-0.4-1-1V11.9c0-0.6,0.4-1,1-1h12.7c0.6,0,1,0.4,1,1v17.8
							C51.1,30.2,50.7,30.7,50.1,30.7z M38.4,28.7h10.7V12.9H38.4V28.7z"/>
					</g>
					<g>
						<path class="st0" d="M73,30.7H60.3c-0.6,0-1-0.4-1-1V11.9c0-0.6,0.4-1,1-1H73c0.6,0,1,0.4,1,1v17.8C74,30.2,73.5,30.7,73,30.7
							z M61.3,28.7H72V12.9H61.3V28.7z"/>
					</g>
				</g>
				<g>
					<g>
						<path class="st0" d="M27.3,56.3H14.6c-0.6,0-1-0.4-1-1V37.5c0-0.6,0.4-1,1-1h12.7c0.6,0,1,0.4,1,1v17.8
							C28.3,55.8,27.8,56.3,27.3,56.3z M15.6,54.3h10.7V38.5H15.6V54.3z"/>
					</g>
					<g>
						<path class="st0" d="M50.1,56.3H37.4c-0.6,0-1-0.4-1-1V37.5c0-0.6,0.4-1,1-1h12.7c0.6,0,1,0.4,1,1v17.8
							C51.1,55.8,50.7,56.3,50.1,56.3z M38.4,54.3h10.7V38.5H38.4V54.3z"/>
					</g>
					<g>
						<path class="st0" d="M73,56.3H60.3c-0.6,0-1-0.4-1-1V37.5c0-0.6,0.4-1,1-1H73c0.6,0,1,0.4,1,1v17.8C74,55.8,73.5,56.3,73,56.3
							z M61.3,54.3H72V38.5H61.3V54.3z"/>
					</g>
				</g>
				<g>
					<g>
						<path class="st0" d="M27.3,158.6H14.6c-0.6,0-1-0.4-1-1v-17.8c0-0.6,0.4-1,1-1h12.7c0.6,0,1,0.4,1,1v17.8
							C28.3,158.1,27.8,158.6,27.3,158.6z M15.6,156.6h10.7v-15.8H15.6V156.6z"/>
					</g>
					<g>
						<path class="st0" d="M50.1,158.6H37.4c-0.6,0-1-0.4-1-1v-17.8c0-0.6,0.4-1,1-1h12.7c0.6,0,1,0.4,1,1v17.8
							C51.1,158.1,50.7,158.6,50.1,158.6z M38.4,156.6h10.7v-15.8H38.4V156.6z"/>
					</g>
					<g>
						<path class="st0" d="M73,158.6H60.3c-0.6,0-1-0.4-1-1v-17.8c0-0.6,0.4-1,1-1H73c0.6,0,1,0.4,1,1v17.8
							C74,158.1,73.5,158.6,73,158.6z M61.3,156.6H72v-15.8H61.3V156.6z"/>
					</g>
				</g>
				<g>
					<g>
						<path class="st0" d="M27.3,184.2H14.6c-0.6,0-1-0.4-1-1v-17.8c0-0.6,0.4-1,1-1h12.7c0.6,0,1,0.4,1,1v17.8
							C28.3,183.7,27.8,184.2,27.3,184.2z M15.6,182.2h10.7v-15.8H15.6V182.2z"/>
					</g>
					<g>
						<path class="st0" d="M50.1,184.2H37.4c-0.6,0-1-0.4-1-1v-17.8c0-0.6,0.4-1,1-1h12.7c0.6,0,1,0.4,1,1v17.8
							C51.1,183.7,50.7,184.2,50.1,184.2z M38.4,182.2h10.7v-15.8H38.4V182.2z"/>
					</g>
					<g>
						<path class="st0" d="M73,184.2H60.3c-0.6,0-1-0.4-1-1v-17.8c0-0.6,0.4-1,1-1H73c0.6,0,1,0.4,1,1v17.8
							C74,183.7,73.5,184.2,73,184.2z M61.3,182.2H72v-15.8H61.3V182.2z"/>
					</g>
				</g>
			</g>
			<g>
				<polyline class="st0" points="36.6,200.5 36.6,164.8 51,164.8 51,200.5 				"/>
				<path class="st0" d="M51,201.5c-0.6,0-1-0.4-1-1v-34.7H37.6v34.7c0,0.6-0.4,1-1,1s-1-0.4-1-1v-35.7c0-0.6,0.4-1,1-1H51
					c0.6,0,1,0.4,1,1v35.7C52,201,51.5,201.5,51,201.5z"/>
			</g>
		</g>
		<g>
			<g>
				<rect x="65.7" y="70" class="st5" width="64.3" height="172.5"/>
				<path class="st0" d="M130.1,243.5H65.7c-0.6,0-1-0.4-1-1V70c0-0.6,0.4-1,1-1h64.3c0.6,0,1,0.4,1,1v172.5
					C131.1,243,130.6,243.5,130.1,243.5z M66.7,241.5h62.3V71H66.7V241.5z"/>
			</g>
			<g>
				<g>
					<path class="st0" d="M82.8,185.3c-0.6,0-1-0.4-1-1V79.6c0-0.6,0.4-1,1-1s1,0.4,1,1v104.7C83.8,184.8,83.4,185.3,82.8,185.3z"/>
				</g>
				<g>
					<path class="st0" d="M97.9,185.3c-0.6,0-1-0.4-1-1V79.6c0-0.6,0.4-1,1-1s1,0.4,1,1v104.7C98.9,184.8,98.5,185.3,97.9,185.3z"/>
				</g>
				<g>
					<path class="st0" d="M113,185.3c-0.6,0-1-0.4-1-1V79.6c0-0.6,0.4-1,1-1s1,0.4,1,1v104.7C114,184.8,113.5,185.3,113,185.3z"/>
				</g>
			</g>
		</g>
		<g>
			<g>
				<polygon class="st0" points="723.3,19 695.8,56.3 695.8,77.6 695.8,155.2 695.8,176.5 749.5,176.5 749.5,155.2 749.5,77.6 
					749.5,56.3 				"/>
				<path class="st0" d="M749.5,177.5h-53.6c-0.6,0-1-0.4-1-1V56.3c0-0.2,0.1-0.4,0.2-0.6l27.5-37.3c0.2-0.3,0.5-0.4,0.8-0.4
					c0,0,0,0,0,0c0.3,0,0.6,0.2,0.8,0.4l26.1,37.3c0.1,0.2,0.2,0.4,0.2,0.6v120.2C750.5,177,750,177.5,749.5,177.5z M696.8,175.5
					h51.6V56.6l-25.1-35.9l-26.5,35.9V175.5z"/>
			</g>
			<g>
				<polygon class="st2" points="723.3,19 666.3,19 639.5,56.3 639.5,77.6 639.5,155.2 639.5,176.5 696.5,176.5 696.5,155.2 
					696.5,77.6 696.9,55.9 				"/>
				<path class="st0" d="M696.5,177.5h-57.1c-0.6,0-1-0.4-1-1V56.3c0-0.2,0.1-0.4,0.2-0.6l26.8-37.3c0.2-0.3,0.5-0.4,0.8-0.4h57.1
					c0.4,0,0.7,0.2,0.9,0.5s0.1,0.7-0.1,1l-26.3,36.6l-0.3,21.4v98.9C697.5,177,697.1,177.5,696.5,177.5z M640.5,175.5h55.1V77.6
					l0.3-21.7c0-0.2,0.1-0.4,0.2-0.6L721.4,20h-54.6l-26.3,36.6V175.5z"/>
			</g>
			<g>
				<polygon class="st5" points="639.5,56.3 695.2,56.3 722.3,20.1 666.3,19 				"/>
				<path class="st0" d="M695.2,57.3h-55.7c-0.4,0-0.7-0.2-0.9-0.5s-0.1-0.7,0.1-1l26.8-37.3c0.2-0.3,0.5-0.4,0.8-0.4l56,1.1
					c0.4,0,0.7,0.2,0.9,0.6c0.2,0.3,0.1,0.7-0.1,1L696,56.9C695.8,57.1,695.5,57.3,695.2,57.3z M641.4,55.3h53.2l25.7-34.2L666.8,20
					L641.4,55.3z"/>
			</g>
			<g>
				<path class="st0" d="M662,90.6h-11.4c-0.6,0-1-0.4-1-1V66.7c0-0.6,0.4-1,1-1H662c0.6,0,1,0.4,1,1v22.9
					C663,90.2,662.6,90.6,662,90.6z M651.6,88.6h9.4V67.7h-9.4V88.6z"/>
			</g>
			<g>
				<path class="st0" d="M684.9,90.6h-11.4c-0.6,0-1-0.4-1-1V66.7c0-0.6,0.4-1,1-1h11.4c0.6,0,1,0.4,1,1v22.9
					C685.9,90.2,685.5,90.6,684.9,90.6z M674.5,88.6h9.4V67.7h-9.4V88.6z"/>
			</g>
			<g>
				<path class="st0" d="M662,127.1h-11.4c-0.6,0-1-0.4-1-1v-22.9c0-0.6,0.4-1,1-1H662c0.6,0,1,0.4,1,1v22.9
					C663,126.6,662.6,127.1,662,127.1z M651.6,125.1h9.4v-20.9h-9.4V125.1z"/>
			</g>
			<g>
				<path class="st0" d="M684.9,127.1h-11.4c-0.6,0-1-0.4-1-1v-22.9c0-0.6,0.4-1,1-1h11.4c0.6,0,1,0.4,1,1v22.9
					C685.9,126.6,685.5,127.1,684.9,127.1z M674.5,125.1h9.4v-20.9h-9.4V125.1z"/>
			</g>
			<g>
				<path class="st0" d="M662,163.5h-11.4c-0.6,0-1-0.4-1-1v-22.9c0-0.6,0.4-1,1-1H662c0.6,0,1,0.4,1,1v22.9
					C663,163.1,662.6,163.5,662,163.5z M651.6,161.5h9.4v-20.9h-9.4V161.5z"/>
			</g>
			<g>
				<path class="st0" d="M684.9,163.5h-11.4c-0.6,0-1-0.4-1-1v-22.9c0-0.6,0.4-1,1-1h11.4c0.6,0,1,0.4,1,1v22.9
					C685.9,163.1,685.5,163.5,684.9,163.5z M674.5,161.5h9.4v-20.9h-9.4V161.5z"/>
			</g>
			<g>
				<rect x="706.2" y="66.7" class="st2" width="10.9" height="22.9"/>
			</g>
			<g>
				<rect x="728.1" y="66.7" class="st2" width="10.9" height="22.9"/>
			</g>
			<g>
				<rect x="706.2" y="103.1" class="st2" width="10.9" height="22.9"/>
			</g>
			<g>
				<rect x="728.1" y="103.1" class="st2" width="10.9" height="22.9"/>
			</g>
			<g>
				<rect x="706.2" y="139.6" class="st2" width="10.9" height="22.9"/>
			</g>
			<g>
				<rect x="728.1" y="139.6" class="st2" width="10.9" height="22.9"/>
			</g>
		</g>
		<g>
			<g>
				<polygon class="st0" points="254.5,41.6 225,76.6 225,96.6 225,169.5 225,189.5 282.6,189.5 282.6,169.5 282.6,96.6 282.6,76.6 
									"/>
				<path class="st0" d="M282.6,190.5H225c-0.6,0-1-0.4-1-1V76.6c0-0.2,0.1-0.5,0.2-0.6l29.6-35c0.2-0.2,0.5-0.4,0.8-0.4
					c0.3,0,0.6,0.1,0.8,0.4l28.1,35c0.1,0.2,0.2,0.4,0.2,0.6v112.9C283.6,190.1,283.2,190.5,282.6,190.5z M226,188.5h55.6V76.9
					l-27.1-33.8L226,76.9V188.5z"/>
			</g>
			<g>
				<polygon class="st5" points="254.5,41.6 193.2,41.6 164.3,76.6 164.3,96.6 164.3,169.5 164.3,189.5 225.7,189.5 225.7,169.5 
					225.7,96.6 226.1,76.2 				"/>
				<path class="st0" d="M225.7,190.5h-61.4c-0.6,0-1-0.4-1-1V76.6c0-0.2,0.1-0.5,0.2-0.6l28.8-35c0.2-0.2,0.5-0.4,0.8-0.4h61.4
					c0.4,0,0.7,0.2,0.9,0.6s0.1,0.8-0.1,1.1l-28.3,34.4l-0.3,20v92.9C226.7,190.1,226.3,190.5,225.7,190.5z M165.3,188.5h59.4V96.6
					l0.3-20.4c0-0.2,0.1-0.4,0.2-0.6l27.1-33h-58.8l-28.3,34.4V188.5z"/>
			</g>
			<g>
				<polygon class="st2" points="164.3,76.6 224.2,76.6 253.4,42.6 193.2,41.6 				"/>
				<path class="st0" d="M224.2,77.6h-59.9c-0.4,0-0.7-0.2-0.9-0.6s-0.1-0.8,0.1-1.1l28.8-35c0.2-0.2,0.5-0.3,0.8-0.4l60.2,1.1
					c0.4,0,0.7,0.2,0.9,0.6c0.2,0.4,0.1,0.8-0.2,1.1l-29.2,34C224.8,77.5,224.5,77.6,224.2,77.6z M166.5,75.6h57.3l27.5-32l-57.6-1
					L166.5,75.6z"/>
			</g>
			<g>
				<path class="st0" d="M188.6,108.9h-12.3c-0.6,0-1-0.4-1-1V86.3c0-0.6,0.4-1,1-1h12.3c0.6,0,1,0.4,1,1v21.5
					C189.6,108.4,189.2,108.9,188.6,108.9z M177.4,106.9h10.3V87.3h-10.3V106.9z"/>
			</g>
			<g>
				<path class="st0" d="M213.2,108.9H201c-0.6,0-1-0.4-1-1V86.3c0-0.6,0.4-1,1-1h12.3c0.6,0,1,0.4,1,1v21.5
					C214.2,108.4,213.8,108.9,213.2,108.9z M202,106.9h10.3V87.3H202V106.9z"/>
			</g>
			<g>
				<path class="st0" d="M188.6,143.1h-12.3c-0.6,0-1-0.4-1-1v-21.5c0-0.6,0.4-1,1-1h12.3c0.6,0,1,0.4,1,1v21.5
					C189.6,142.7,189.2,143.1,188.6,143.1z M177.4,141.1h10.3v-19.5h-10.3V141.1z"/>
			</g>
			<g>
				<path class="st0" d="M213.2,143.1H201c-0.6,0-1-0.4-1-1v-21.5c0-0.6,0.4-1,1-1h12.3c0.6,0,1,0.4,1,1v21.5
					C214.2,142.7,213.8,143.1,213.2,143.1z M202,141.1h10.3v-19.5H202V141.1z"/>
			</g>
			<g>
				<path class="st0" d="M188.6,177.4h-12.3c-0.6,0-1-0.4-1-1v-21.5c0-0.6,0.4-1,1-1h12.3c0.6,0,1,0.4,1,1v21.5
					C189.6,176.9,189.2,177.4,188.6,177.4z M177.4,175.4h10.3v-19.5h-10.3V175.4z"/>
			</g>
			<g>
				<path class="st0" d="M213.2,177.4H201c-0.6,0-1-0.4-1-1v-21.5c0-0.6,0.4-1,1-1h12.3c0.6,0,1,0.4,1,1v21.5
					C214.2,176.9,213.8,177.4,213.2,177.4z M202,175.4h10.3v-19.5H202V175.4z"/>
			</g>
			<g>
				<rect x="236.1" y="86.3" class="st2" width="11.8" height="21.5"/>
			</g>
			<g>
				<rect x="259.7" y="86.3" class="st2" width="11.8" height="21.5"/>
			</g>
			<g>
				<rect x="236.1" y="120.6" class="st2" width="11.8" height="21.5"/>
			</g>
			<g>
				<rect x="259.7" y="120.6" class="st2" width="11.8" height="21.5"/>
			</g>
			<g>
				<rect x="236.1" y="154.8" class="st2" width="11.8" height="21.5"/>
			</g>
			<g>
				<rect x="259.7" y="154.8" class="st2" width="11.8" height="21.5"/>
			</g>
		</g>
		<g>
			<polygon class="st0" points="214.3,149.2 166.3,126.8 118.3,149.2 118.2,149.2 118.2,263.1 214.5,263.1 214.5,149.2 			"/>
			<path class="st0" d="M214.5,264.1h-96.3c-0.6,0-1-0.4-1-1V149.2c0-0.5,0.4-0.9,0.9-1l47.8-22.3c0.3-0.1,0.6-0.1,0.8,0l47.8,22.3
				c0.5,0.1,0.9,0.5,0.9,1v113.9C215.5,263.6,215,264.1,214.5,264.1z M119.2,262.1h94.3V149.9l-47.1-22l-47.1,22V262.1z"/>
		</g>
		<g>
			<g>
				<rect x="473.2" y="40.8" class="st2" width="51.8" height="15.6"/>
				<path class="st0" d="M525.1,57.4h-51.8c-0.6,0-1-0.4-1-1V40.8c0-0.6,0.4-1,1-1h51.8c0.6,0,1,0.4,1,1v15.6
					C526.1,56.9,525.6,57.4,525.1,57.4z M474.2,55.4h49.8V41.8h-49.8V55.4z"/>
			</g>
			<g>
				<rect x="466.1" y="51.7" class="st2" width="66.2" height="125.2"/>
				<path class="st0" d="M532.2,177.9h-66.2c-0.6,0-1-0.4-1-1V51.7c0-0.6,0.4-1,1-1h66.2c0.6,0,1,0.4,1,1v125.2
					C533.2,177.4,532.8,177.9,532.2,177.9z M467.1,175.9h64.2V52.7h-64.2V175.9z"/>
			</g>
			<g>
				<g>
					<path class="st5" d="M484.9,80.3c-3,0-6.1,0-9.1,0c0-5.4,0-10.8,0-16.2c1.9-3.4,7.2-3.4,9.1,0
						C484.9,69.5,484.9,74.9,484.9,80.3z"/>
					<path class="st0" d="M484.9,81.3h-9.1c-0.6,0-1-0.4-1-1V64.1c0-0.2,0-0.3,0.1-0.5c1-1.9,3.1-3.1,5.4-3.1s4.4,1.2,5.4,3.1
						c0.1,0.1,0.1,0.3,0.1,0.5v16.2C485.9,80.9,485.5,81.3,484.9,81.3z M476.8,79.3h7.1v-15c-0.7-1.2-2-1.9-3.5-1.9
						s-2.8,0.7-3.5,1.9V79.3z"/>
				</g>
				<g>
					<path class="st5" d="M503.7,80.3c-3,0-6.1,0-9.1,0c0-5.4,0-10.8,0-16.2c1.9-3.4,7.2-3.4,9.1,0
						C503.7,69.5,503.7,74.9,503.7,80.3z"/>
					<path class="st0" d="M503.7,81.3h-9.1c-0.6,0-1-0.4-1-1V64.1c0-0.2,0-0.3,0.1-0.5c1-1.9,3.1-3.1,5.4-3.1c0,0,0,0,0,0
						c2.3,0,4.4,1.2,5.4,3.1c0.1,0.1,0.1,0.3,0.1,0.5v16.2C504.7,80.9,504.2,81.3,503.7,81.3z M495.6,79.3h7.1v-15
						c-0.7-1.2-2-1.9-3.5-1.9h0c-1.5,0-2.8,0.7-3.5,1.9V79.3z"/>
				</g>
				<g>
					<path class="st5" d="M522.5,80.3c-3,0-6.1,0-9.1,0c0-5.4,0-10.8,0-16.2c1.9-3.4,7.2-3.4,9.1,0
						C522.5,69.5,522.5,74.9,522.5,80.3z"/>
					<path class="st0" d="M522.5,81.3h-9.1c-0.6,0-1-0.4-1-1V64.1c0-0.2,0-0.3,0.1-0.5c1-1.9,3.1-3.1,5.4-3.1h0
						c2.3,0,4.4,1.2,5.4,3.1c0.1,0.1,0.1,0.3,0.1,0.5v16.2C523.5,80.9,523,81.3,522.5,81.3z M514.4,79.3h7.1v-15
						c-0.7-1.2-2-1.9-3.5-1.9c-1.5,0-2.8,0.7-3.5,1.9V79.3z"/>
				</g>
			</g>
			<g>
				<g>
					<path class="st5" d="M484.9,109.2c-3,0-6.1,0-9.1,0c0-5.4,0-10.8,0-16.2c1.9-3.4,7.2-3.4,9.1,0
						C484.9,98.4,484.9,103.8,484.9,109.2z"/>
					<path class="st0" d="M484.9,110.2h-9.1c-0.6,0-1-0.4-1-1V92.9c0-0.2,0-0.3,0.1-0.5c1-1.9,3.1-3.1,5.4-3.1s4.4,1.2,5.4,3.1
						c0.1,0.1,0.1,0.3,0.1,0.5v16.2C485.9,109.7,485.5,110.2,484.9,110.2z M476.8,108.2h7.1v-15c-0.7-1.2-2-1.9-3.5-1.9
						s-2.8,0.7-3.5,1.9V108.2z"/>
				</g>
				<g>
					<path class="st5" d="M503.7,109.2c-3,0-6.1,0-9.1,0c0-5.4,0-10.8,0-16.2c1.9-3.4,7.2-3.4,9.1,0
						C503.7,98.4,503.7,103.8,503.7,109.2z"/>
					<path class="st0" d="M503.7,110.2h-9.1c-0.6,0-1-0.4-1-1V92.9c0-0.2,0-0.3,0.1-0.5c1-1.9,3.1-3.1,5.4-3.1c0,0,0,0,0,0
						c2.3,0,4.4,1.2,5.4,3.1c0.1,0.1,0.1,0.3,0.1,0.5v16.2C504.7,109.7,504.2,110.2,503.7,110.2z M495.6,108.2h7.1v-15
						c-0.7-1.2-2-1.9-3.5-1.9h0c-1.5,0-2.8,0.7-3.5,1.9V108.2z"/>
				</g>
				<g>
					<path class="st5" d="M522.5,109.2c-3,0-6.1,0-9.1,0c0-5.4,0-10.8,0-16.2c1.9-3.4,7.2-3.4,9.1,0
						C522.5,98.4,522.5,103.8,522.5,109.2z"/>
					<path class="st0" d="M522.5,110.2h-9.1c-0.6,0-1-0.4-1-1V92.9c0-0.2,0-0.3,0.1-0.5c1-1.9,3.1-3.1,5.4-3.1c0,0,0,0,0,0
						c2.3,0,4.4,1.2,5.4,3.1c0.1,0.1,0.1,0.3,0.1,0.5v16.2C523.5,109.7,523,110.2,522.5,110.2z M514.4,108.2h7.1v-15
						c-0.7-1.2-2-1.9-3.5-1.9c-1.5,0-2.8,0.7-3.5,1.9V108.2z"/>
				</g>
			</g>
			<g>
				<g>
					<path class="st5" d="M484.9,138c-3,0-6.1,0-9.1,0c0-5.4,0-10.8,0-16.2c1.9-3.4,7.2-3.4,9.1,0
						C484.9,127.2,484.9,132.6,484.9,138z"/>
					<path class="st0" d="M484.9,139h-9.1c-0.6,0-1-0.4-1-1v-16.2c0-0.2,0-0.3,0.1-0.5c1-1.9,3.1-3.1,5.4-3.1s4.4,1.2,5.4,3.1
						c0.1,0.1,0.1,0.3,0.1,0.5V138C485.9,138.6,485.5,139,484.9,139z M476.8,137h7.1v-15c-0.7-1.2-2-1.9-3.5-1.9s-2.8,0.7-3.5,1.9
						V137z"/>
				</g>
				<g>
					<path class="st5" d="M503.7,138c-3,0-6.1,0-9.1,0c0-5.4,0-10.8,0-16.2c1.9-3.4,7.2-3.4,9.1,0
						C503.7,127.2,503.7,132.6,503.7,138z"/>
					<path class="st0" d="M503.7,139h-9.1c-0.6,0-1-0.4-1-1v-16.2c0-0.2,0-0.3,0.1-0.5c1-1.9,3.1-3.1,5.4-3.1c0,0,0,0,0,0
						c2.3,0,4.4,1.2,5.4,3.1c0.1,0.1,0.1,0.3,0.1,0.5V138C504.7,138.6,504.2,139,503.7,139z M495.6,137h7.1v-15
						c-0.7-1.2-2-1.9-3.5-1.9h0c-1.5,0-2.8,0.7-3.5,1.9V137z"/>
				</g>
				<g>
					<path class="st5" d="M522.5,138c-3,0-6.1,0-9.1,0c0-5.4,0-10.8,0-16.2c1.9-3.4,7.2-3.4,9.1,0
						C522.5,127.2,522.5,132.6,522.5,138z"/>
					<path class="st0" d="M522.5,139h-9.1c-0.6,0-1-0.4-1-1v-16.2c0-0.2,0-0.3,0.1-0.5c1-1.9,3.1-3.1,5.4-3.1c0,0,0,0,0,0
						c2.3,0,4.4,1.2,5.4,3.1c0.1,0.1,0.1,0.3,0.1,0.5V138C523.5,138.6,523,139,522.5,139z M514.4,137h7.1v-15
						c-0.7-1.2-2-1.9-3.5-1.9c-1.5,0-2.8,0.7-3.5,1.9V137z"/>
				</g>
			</g>
			<g>
				<g>
					<path class="st5" d="M484.9,166.9c-3,0-6.1,0-9.1,0c0-5.4,0-10.8,0-16.2c1.9-3.4,7.2-3.4,9.1,0
						C484.9,156.1,484.9,161.5,484.9,166.9z"/>
					<path class="st0" d="M484.9,167.9h-9.1c-0.6,0-1-0.4-1-1v-16.2c0-0.2,0-0.3,0.1-0.5c1-1.9,3.1-3.1,5.4-3.1s4.4,1.2,5.4,3.1
						c0.1,0.1,0.1,0.3,0.1,0.5v16.2C485.9,167.5,485.5,167.9,484.9,167.9z M476.8,165.9h7.1v-15c-0.7-1.2-2-1.9-3.5-1.9
						s-2.8,0.7-3.5,1.9V165.9z"/>
				</g>
				<g>
					<path class="st5" d="M503.7,166.9c-3,0-6.1,0-9.1,0c0-5.4,0-10.8,0-16.2c1.9-3.4,7.2-3.4,9.1,0
						C503.7,156.1,503.7,161.5,503.7,166.9z"/>
					<path class="st0" d="M503.7,167.9h-9.1c-0.6,0-1-0.4-1-1v-16.2c0-0.2,0-0.3,0.1-0.5c1-1.9,3.1-3.1,5.4-3.1c0,0,0,0,0,0
						c2.3,0,4.4,1.2,5.4,3.1c0.1,0.1,0.1,0.3,0.1,0.5v16.2C504.7,167.5,504.2,167.9,503.7,167.9z M495.6,165.9h7.1v-15
						c-0.7-1.2-2-1.9-3.5-1.9h0c-1.5,0-2.8,0.7-3.5,1.9V165.9z"/>
				</g>
				<g>
					<path class="st5" d="M522.5,166.9c-3,0-6.1,0-9.1,0c0-5.4,0-10.8,0-16.2c1.9-3.4,7.2-3.4,9.1,0
						C522.5,156.1,522.5,161.5,522.5,166.9z"/>
					<path class="st0" d="M522.5,167.9h-9.1c-0.6,0-1-0.4-1-1v-16.2c0-0.2,0-0.3,0.1-0.5c1-1.9,3.1-3.1,5.4-3.1c0,0,0,0,0,0
						c2.3,0,4.4,1.2,5.4,3.1c0.1,0.1,0.1,0.3,0.1,0.5v16.2C523.5,167.5,523,167.9,522.5,167.9z M514.4,165.9h7.1v-15
						c-0.7-1.2-2-1.9-3.5-1.9c-1.5,0-2.8,0.7-3.5,1.9V165.9z"/>
				</g>
			</g>
		</g>
		<g>
			<g>
				<rect x="256.8" y="103.7" class="st2" width="74.9" height="164.4"/>
				<path class="st0" d="M331.7,269.1h-74.9c-0.6,0-1-0.4-1-1V103.7c0-0.6,0.4-1,1-1h74.9c0.6,0,1,0.4,1,1v164.4
					C332.7,268.7,332.3,269.1,331.7,269.1z M257.8,267.1h72.9V104.7h-72.9V267.1z"/>
			</g>
			<g>
				<g>
					<g>
						<rect x="269.7" y="116.7" class="st5" width="6.7" height="14.2"/>
						<path class="st0" d="M276.4,132h-6.7c-0.6,0-1-0.4-1-1v-14.2c0-0.6,0.4-1,1-1h6.7c0.6,0,1,0.4,1,1V131
							C277.4,131.5,276.9,132,276.4,132z M270.7,130h4.7v-12.2h-4.7V130z"/>
					</g>
					<g>
						<rect x="290.9" y="116.7" class="st5" width="6.7" height="14.2"/>
						<path class="st0" d="M297.6,132h-6.7c-0.6,0-1-0.4-1-1v-14.2c0-0.6,0.4-1,1-1h6.7c0.6,0,1,0.4,1,1V131
							C298.6,131.5,298.1,132,297.6,132z M291.9,130h4.7v-12.2h-4.7V130z"/>
					</g>
					<g>
						<rect x="312.1" y="116.7" class="st5" width="6.7" height="14.2"/>
						<path class="st0" d="M318.8,132h-6.7c-0.6,0-1-0.4-1-1v-14.2c0-0.6,0.4-1,1-1h6.7c0.6,0,1,0.4,1,1V131
							C319.8,131.5,319.3,132,318.8,132z M313.1,130h4.7v-12.2h-4.7V130z"/>
					</g>
				</g>
				<g>
					<g>
						<rect x="290.9" y="147.8" class="st5" width="6.7" height="14.2"/>
						<path class="st0" d="M297.6,163h-6.7c-0.6,0-1-0.4-1-1v-14.2c0-0.6,0.4-1,1-1h6.7c0.6,0,1,0.4,1,1V162
							C298.6,162.6,298.1,163,297.6,163z M291.9,161h4.7v-12.2h-4.7V161z"/>
					</g>
					<g>
						<rect x="312.1" y="147.8" class="st5" width="6.7" height="14.2"/>
						<path class="st0" d="M318.8,163h-6.7c-0.6,0-1-0.4-1-1v-14.2c0-0.6,0.4-1,1-1h6.7c0.6,0,1,0.4,1,1V162
							C319.8,162.6,319.3,163,318.8,163z M313.1,161h4.7v-12.2h-4.7V161z"/>
					</g>
				</g>
				<g>
					<g>
						<rect x="269.7" y="178.8" class="st5" width="6.7" height="14.2"/>
						<path class="st0" d="M276.4,194.1h-6.7c-0.6,0-1-0.4-1-1v-14.2c0-0.6,0.4-1,1-1h6.7c0.6,0,1,0.4,1,1v14.2
							C277.4,193.6,276.9,194.1,276.4,194.1z M270.7,192.1h4.7v-12.2h-4.7V192.1z"/>
					</g>
					<g>
						<rect x="290.9" y="178.8" class="st5" width="6.7" height="14.2"/>
						<path class="st0" d="M297.6,194.1h-6.7c-0.6,0-1-0.4-1-1v-14.2c0-0.6,0.4-1,1-1h6.7c0.6,0,1,0.4,1,1v14.2
							C298.6,193.6,298.1,194.1,297.6,194.1z M291.9,192.1h4.7v-12.2h-4.7V192.1z"/>
					</g>
					<g>
						<rect x="312.1" y="178.8" class="st5" width="6.7" height="14.2"/>
						<path class="st0" d="M318.8,194.1h-6.7c-0.6,0-1-0.4-1-1v-14.2c0-0.6,0.4-1,1-1h6.7c0.6,0,1,0.4,1,1v14.2
							C319.8,193.6,319.3,194.1,318.8,194.1z M313.1,192.1h4.7v-12.2h-4.7V192.1z"/>
					</g>
				</g>
				<g>
					<g>
						<rect x="269.7" y="209.9" class="st5" width="6.7" height="14.2"/>
						<path class="st0" d="M276.4,225.1h-6.7c-0.6,0-1-0.4-1-1v-14.2c0-0.6,0.4-1,1-1h6.7c0.6,0,1,0.4,1,1v14.2
							C277.4,224.6,276.9,225.1,276.4,225.1z M270.7,223.1h4.7v-12.2h-4.7V223.1z"/>
					</g>
					<g>
						<rect x="290.9" y="209.9" class="st5" width="6.7" height="14.2"/>
						<path class="st0" d="M297.6,225.1h-6.7c-0.6,0-1-0.4-1-1v-14.2c0-0.6,0.4-1,1-1h6.7c0.6,0,1,0.4,1,1v14.2
							C298.6,224.6,298.1,225.1,297.6,225.1z M291.9,223.1h4.7v-12.2h-4.7V223.1z"/>
					</g>
					<g>
						<rect x="312.1" y="209.9" class="st5" width="6.7" height="14.2"/>
						<path class="st0" d="M318.8,225.1h-6.7c-0.6,0-1-0.4-1-1v-14.2c0-0.6,0.4-1,1-1h6.7c0.6,0,1,0.4,1,1v14.2
							C319.8,224.6,319.3,225.1,318.8,225.1z M313.1,223.1h4.7v-12.2h-4.7V223.1z"/>
					</g>
				</g>
				<g>
					<g>
						<rect x="269.7" y="240.9" class="st5" width="6.7" height="14.2"/>
						<path class="st0" d="M276.4,256.1h-6.7c-0.6,0-1-0.4-1-1v-14.2c0-0.6,0.4-1,1-1h6.7c0.6,0,1,0.4,1,1v14.2
							C277.4,255.7,276.9,256.1,276.4,256.1z M270.7,254.1h4.7v-12.2h-4.7V254.1z"/>
					</g>
					<g>
						<rect x="290.9" y="240.9" class="st5" width="6.7" height="14.2"/>
						<path class="st0" d="M297.6,256.1h-6.7c-0.6,0-1-0.4-1-1v-14.2c0-0.6,0.4-1,1-1h6.7c0.6,0,1,0.4,1,1v14.2
							C298.6,255.7,298.1,256.1,297.6,256.1z M291.9,254.1h4.7v-12.2h-4.7V254.1z"/>
					</g>
					<g>
						<rect x="312.1" y="240.9" class="st5" width="6.7" height="14.2"/>
						<path class="st0" d="M318.8,256.1h-6.7c-0.6,0-1-0.4-1-1v-14.2c0-0.6,0.4-1,1-1h6.7c0.6,0,1,0.4,1,1v14.2
							C319.8,255.7,319.3,256.1,318.8,256.1z M313.1,254.1h4.7v-12.2h-4.7V254.1z"/>
					</g>
				</g>
			</g>
		</g>
		<g>
			<rect x="736.6" y="78.2" class="st5" width="54.4" height="189.9"/>
			<path class="st0" d="M791,269.1h-54.4c-0.6,0-1-0.4-1-1V78.2c0-0.6,0.4-1,1-1H791c0.6,0,1,0.4,1,1v189.9
				C792,268.7,791.6,269.1,791,269.1z M737.6,267.1H790V79.2h-52.4V267.1z"/>
		</g>
		<g>
			<g>
				<rect x="679.4" y="136.3" class="st2" width="57.4" height="131.8"/>
				<path class="st0" d="M736.7,269.1h-57.4c-0.6,0-1-0.4-1-1V136.3c0-0.6,0.4-1,1-1h57.4c0.6,0,1,0.4,1,1v131.8
					C737.7,268.7,737.3,269.1,736.7,269.1z M680.4,267.1h55.4V137.3h-55.4V267.1z"/>
			</g>
			<g>
				<g>
					<g>
						<path class="st0" d="M696.6,256.8h-9.1c-0.6,0-1-0.4-1-1v-11.9c0-0.6,0.4-1,1-1h9.1c0.6,0,1,0.4,1,1v11.9
							C697.6,256.4,697.1,256.8,696.6,256.8z M688.4,254.8h7.1v-9.9h-7.1V254.8z"/>
					</g>
					<g>
						<path class="st0" d="M696.6,233h-9.1c-0.6,0-1-0.4-1-1v-11.9c0-0.6,0.4-1,1-1h9.1c0.6,0,1,0.4,1,1V232
							C697.6,232.6,697.1,233,696.6,233z M688.4,231h7.1v-9.9h-7.1V231z"/>
					</g>
					<g>
						<path class="st0" d="M696.6,209.2h-9.1c-0.6,0-1-0.4-1-1v-11.9c0-0.6,0.4-1,1-1h9.1c0.6,0,1,0.4,1,1v11.9
							C697.6,208.7,697.1,209.2,696.6,209.2z M688.4,207.2h7.1v-9.9h-7.1V207.2z"/>
					</g>
					<g>
						<path class="st0" d="M696.6,185.4h-9.1c-0.6,0-1-0.4-1-1v-11.9c0-0.6,0.4-1,1-1h9.1c0.6,0,1,0.4,1,1v11.9
							C697.6,184.9,697.1,185.4,696.6,185.4z M688.4,183.4h7.1v-9.9h-7.1V183.4z"/>
					</g>
					<g>
						<path class="st0" d="M696.6,161.5h-9.1c-0.6,0-1-0.4-1-1v-11.9c0-0.6,0.4-1,1-1h9.1c0.6,0,1,0.4,1,1v11.9
							C697.6,161.1,697.1,161.5,696.6,161.5z M688.4,159.5h7.1v-9.9h-7.1V159.5z"/>
					</g>
				</g>
				<g>
					<g>
						<path class="st0" d="M712.6,256.8h-9.1c-0.6,0-1-0.4-1-1v-11.9c0-0.6,0.4-1,1-1h9.1c0.6,0,1,0.4,1,1v11.9
							C713.6,256.4,713.2,256.8,712.6,256.8z M704.5,254.8h7.1v-9.9h-7.1V254.8z"/>
					</g>
					<g>
						<path class="st0" d="M712.6,233h-9.1c-0.6,0-1-0.4-1-1v-11.9c0-0.6,0.4-1,1-1h9.1c0.6,0,1,0.4,1,1V232
							C713.6,232.6,713.2,233,712.6,233z M704.5,231h7.1v-9.9h-7.1V231z"/>
					</g>
					<g>
						<path class="st0" d="M712.6,209.2h-9.1c-0.6,0-1-0.4-1-1v-11.9c0-0.6,0.4-1,1-1h9.1c0.6,0,1,0.4,1,1v11.9
							C713.6,208.7,713.2,209.2,712.6,209.2z M704.5,207.2h7.1v-9.9h-7.1V207.2z"/>
					</g>
					<g>
						<path class="st0" d="M712.6,185.4h-9.1c-0.6,0-1-0.4-1-1v-11.9c0-0.6,0.4-1,1-1h9.1c0.6,0,1,0.4,1,1v11.9
							C713.6,184.9,713.2,185.4,712.6,185.4z M704.5,183.4h7.1v-9.9h-7.1V183.4z"/>
					</g>
					<g>
						<path class="st0" d="M712.6,161.5h-9.1c-0.6,0-1-0.4-1-1v-11.9c0-0.6,0.4-1,1-1h9.1c0.6,0,1,0.4,1,1v11.9
							C713.6,161.1,713.2,161.5,712.6,161.5z M704.5,159.5h7.1v-9.9h-7.1V159.5z"/>
					</g>
				</g>
				<g>
					<g>
						<path class="st0" d="M728.7,256.8h-9.1c-0.6,0-1-0.4-1-1v-11.9c0-0.6,0.4-1,1-1h9.1c0.6,0,1,0.4,1,1v11.9
							C729.7,256.4,729.2,256.8,728.7,256.8z M720.6,254.8h7.1v-9.9h-7.1V254.8z"/>
					</g>
					<g>
						<path class="st0" d="M728.7,233h-9.1c-0.6,0-1-0.4-1-1v-11.9c0-0.6,0.4-1,1-1h9.1c0.6,0,1,0.4,1,1V232
							C729.7,232.6,729.2,233,728.7,233z M720.6,231h7.1v-9.9h-7.1V231z"/>
					</g>
					<g>
						<path class="st0" d="M728.7,209.2h-9.1c-0.6,0-1-0.4-1-1v-11.9c0-0.6,0.4-1,1-1h9.1c0.6,0,1,0.4,1,1v11.9
							C729.7,208.7,729.2,209.2,728.7,209.2z M720.6,207.2h7.1v-9.9h-7.1V207.2z"/>
					</g>
					<g>
						<path class="st0" d="M728.7,185.4h-9.1c-0.6,0-1-0.4-1-1v-11.9c0-0.6,0.4-1,1-1h9.1c0.6,0,1,0.4,1,1v11.9
							C729.7,184.9,729.2,185.4,728.7,185.4z M720.6,183.4h7.1v-9.9h-7.1V183.4z"/>
					</g>
					<g>
						<path class="st0" d="M728.7,161.5h-9.1c-0.6,0-1-0.4-1-1v-11.9c0-0.6,0.4-1,1-1h9.1c0.6,0,1,0.4,1,1v11.9
							C729.7,161.1,729.2,161.5,728.7,161.5z M720.6,159.5h7.1v-9.9h-7.1V159.5z"/>
					</g>
				</g>
			</g>
		</g>
		<g>
			<g>
				<path class="st0" d="M751,187.6c-0.6,0-1-0.4-1-1V88.8c0-0.6,0.4-1,1-1s1,0.4,1,1v97.9C752,187.2,751.6,187.6,751,187.6z"/>
			</g>
			<g>
				<path class="st0" d="M763.8,187.6c-0.6,0-1-0.4-1-1V88.8c0-0.6,0.4-1,1-1s1,0.4,1,1v97.9C764.8,187.2,764.3,187.6,763.8,187.6z"
					/>
			</g>
			<g>
				<path class="st0" d="M776.6,187.6c-0.6,0-1-0.4-1-1V88.8c0-0.6,0.4-1,1-1s1,0.4,1,1v97.9C777.6,187.2,777.1,187.6,776.6,187.6z"
					/>
			</g>
		</g>
		<g>
			<g>
				<polygon class="st0" points="664.4,136.3 640.5,167.5 640.5,185.3 640.5,250.3 640.5,268.1 687.2,268.1 687.2,250.3 
					687.2,185.3 687.2,167.5 				"/>
				<path class="st0" d="M687.2,269.1h-46.7c-0.6,0-1-0.4-1-1V167.5c0-0.2,0.1-0.4,0.2-0.6l24-31.2c0.2-0.2,0.5-0.4,0.8-0.4
					c0,0,0,0,0,0c0.3,0,0.6,0.2,0.8,0.4l22.7,31.2c0.1,0.2,0.2,0.4,0.2,0.6v100.6C688.2,268.7,687.7,269.1,687.2,269.1z
					 M641.5,267.1h44.7v-99.3L664.4,138l-22.9,29.9V267.1z"/>
			</g>
			<g>
				<polygon class="st2" points="664.4,136.3 614.7,136.3 591.3,167.5 591.3,185.3 591.3,250.3 591.3,268.1 641.1,268.1 
					641.1,250.3 641.1,185.3 641.3,167.2 				"/>
				<path class="st0" d="M641.1,269.1h-49.7c-0.6,0-1-0.4-1-1V167.5c0-0.2,0.1-0.4,0.2-0.6l23.3-31.2c0.2-0.3,0.5-0.4,0.8-0.4h49.7
					c0.4,0,0.7,0.2,0.9,0.6c0.2,0.3,0.1,0.7-0.1,1l-22.9,30.6l-0.3,17.8v82.8C642.1,268.7,641.6,269.1,641.1,269.1z M592.3,267.1
					h47.7v-81.8l0.3-18.2c0-0.2,0.1-0.4,0.2-0.6l21.9-29.2h-47.2l-22.8,30.5V267.1z"/>
			</g>
			<g>
				<polygon class="st5" points="591.3,167.5 639.9,167.5 664.4,136.3 614.7,136.3 				"/>
				<path class="st0" d="M639.9,168.5h-48.5c-0.4,0-0.7-0.2-0.9-0.6c-0.2-0.3-0.1-0.7,0.1-1l23.3-31.2c0.2-0.3,0.5-0.4,0.8-0.4h49.7
					c0.4,0,0.7,0.2,0.9,0.6c0.2,0.3,0.1,0.8-0.1,1.1l-24.6,31.2C640.5,168.4,640.2,168.5,639.9,168.5z M593.3,166.5h46l23-29.2
					h-47.2L593.3,166.5z"/>
			</g>
			<g>
				<g>
					<g>
						<path class="st5" d="M611,196.6c-3.3,0-6.6,0-9.9,0c0-5.3,0-10.7,0-16c1.7-4.6,8.2-4.6,9.9,0C611,185.9,611,191.3,611,196.6z"
							/>
						<path class="st0" d="M611,197.6L611,197.6h-9.9c-0.3,0-0.5-0.1-0.7-0.3s-0.3-0.4-0.3-0.7v-16c0-0.1,0-0.2,0.1-0.4
							c0.9-2.5,3.3-4.1,5.9-4.1s5,1.6,5.9,4.1c0,0.1,0.1,0.2,0.1,0.4v16c0,0.3-0.1,0.5-0.3,0.7S611.3,197.6,611,197.6z M602.1,195.6
							h7.9v-14.8c-0.8-1.9-2.6-2.6-4-2.6s-3.2,0.7-4,2.6V195.6z"/>
					</g>
					<g>
						<path class="st5" d="M630.5,196.6c-3.3,0-6.6,0-9.9,0c0-5.3,0-10.7,0-16c1.7-4.6,8.2-4.6,9.9,0
							C630.5,185.9,630.5,191.3,630.5,196.6z"/>
						<path class="st0" d="M630.5,197.6L630.5,197.6h-9.9c-0.3,0-0.5-0.1-0.7-0.3s-0.3-0.4-0.3-0.7v-16c0-0.1,0-0.2,0.1-0.4
							c0.9-2.5,3.3-4.1,5.9-4.1s5,1.6,5.9,4.1c0,0.1,0.1,0.2,0.1,0.4v16c0,0.3-0.1,0.5-0.3,0.7S630.8,197.6,630.5,197.6z
							 M621.6,195.6h7.9v-14.8c-0.8-1.9-2.6-2.6-4-2.6s-3.2,0.7-4,2.6V195.6z"/>
					</g>
				</g>
				<g>
					<g>
						<path class="st5" d="M611,226.3c-3.3,0-6.6,0-9.9,0c0-5.3,0-10.7,0-16c1.7-4.6,8.2-4.6,9.9,0C611,215.6,611,220.9,611,226.3z"
							/>
						<path class="st0" d="M611,227.3h-9.9c-0.6,0-1-0.4-1-1v-16c0-0.1,0-0.2,0.1-0.4c0.9-2.5,3.3-4.1,5.9-4.1s5,1.6,5.9,4.1
							c0,0.1,0.1,0.2,0.1,0.4v16C612,226.8,611.6,227.3,611,227.3z M602.1,225.3h7.9v-14.8c-0.8-1.9-2.6-2.6-4-2.6s-3.2,0.7-4,2.6
							V225.3z"/>
					</g>
					<g>
						<path class="st5" d="M630.5,226.3c-3.3,0-6.6,0-9.9,0c0-5.3,0-10.7,0-16c1.7-4.6,8.2-4.6,9.9,0
							C630.5,215.6,630.5,220.9,630.5,226.3z"/>
						<path class="st0" d="M630.5,227.3h-9.9c-0.6,0-1-0.4-1-1v-16c0-0.1,0-0.2,0.1-0.4c0.9-2.5,3.3-4.1,5.9-4.1s5,1.6,5.9,4.1
							c0,0.1,0.1,0.2,0.1,0.4v16C631.5,226.8,631.1,227.3,630.5,227.3z M621.6,225.3h7.9v-14.8c-0.8-1.9-2.6-2.6-4-2.6
							s-3.2,0.7-4,2.6V225.3z"/>
					</g>
				</g>
				<g>
					<g>
						<path class="st5" d="M611,255.9c-3.3,0-6.6,0-9.9,0c0-5.3,0-10.7,0-16c1.7-4.6,8.2-4.6,9.9,0C611,245.3,611,250.6,611,255.9z"
							/>
						<path class="st0" d="M611,256.9h-9.9c-0.6,0-1-0.4-1-1v-16c0-0.1,0-0.2,0.1-0.4c0.9-2.5,3.3-4.1,5.9-4.1s5,1.6,5.9,4.1
							c0,0.1,0.1,0.2,0.1,0.4v16C612,256.5,611.6,256.9,611,256.9z M602.1,254.9h7.9v-14.8c-0.8-1.9-2.6-2.6-4-2.6s-3.2,0.7-4,2.6
							V254.9z"/>
					</g>
					<g>
						<path class="st5" d="M630.5,255.9c-3.3,0-6.6,0-9.9,0c0-5.3,0-10.7,0-16c1.7-4.6,8.2-4.6,9.9,0
							C630.5,245.3,630.5,250.6,630.5,255.9z"/>
						<path class="st0" d="M630.5,256.9h-9.9c-0.6,0-1-0.4-1-1v-16c0-0.1,0-0.2,0.1-0.4c0.9-2.5,3.3-4.1,5.9-4.1s5,1.6,5.9,4.1
							c0,0.1,0.1,0.2,0.1,0.4v16C631.5,256.5,631.1,256.9,630.5,256.9z M621.6,254.9h7.9v-14.8c-0.8-1.9-2.6-2.6-4-2.6
							s-3.2,0.7-4,2.6V254.9z"/>
					</g>
				</g>
			</g>
			<g>
				<g>
					<g>
						<path class="st5" d="M659.9,196.6c-3.3,0-6.6,0-9.9,0c0-5.3,0-10.7,0-16c1.7-4.6,8.2-4.6,9.9,0
							C659.9,185.9,659.9,191.3,659.9,196.6z"/>
					</g>
					<g>
						<path class="st5" d="M679.4,196.6c-3.3,0-6.6,0-9.9,0c0-5.3,0-10.7,0-16c1.7-4.6,8.2-4.6,9.9,0
							C679.4,185.9,679.4,191.3,679.4,196.6z"/>
					</g>
				</g>
				<g>
					<g>
						<path class="st5" d="M659.9,226.3c-3.3,0-6.6,0-9.9,0c0-5.3,0-10.7,0-16c1.7-4.6,8.2-4.6,9.9,0
							C659.9,215.6,659.9,220.9,659.9,226.3z"/>
					</g>
					<g>
						<path class="st5" d="M679.4,226.3c-3.3,0-6.6,0-9.9,0c0-5.3,0-10.7,0-16c1.7-4.6,8.2-4.6,9.9,0
							C679.4,215.6,679.4,220.9,679.4,226.3z"/>
					</g>
				</g>
				<g>
					<g>
						<path class="st5" d="M659.9,255.9c-3.3,0-6.6,0-9.9,0c0-5.3,0-10.7,0-16c1.7-4.6,8.2-4.6,9.9,0
							C659.9,245.3,659.9,250.6,659.9,255.9z"/>
					</g>
					<g>
						<path class="st5" d="M679.4,255.9c-3.3,0-6.6,0-9.9,0c0-5.3,0-10.7,0-16c1.7-4.6,8.2-4.6,9.9,0
							C679.4,245.3,679.4,250.6,679.4,255.9z"/>
					</g>
				</g>
			</g>
		</g>
		<g>
			<polygon class="st0" points="548.4,135.8 548.6,135.5 508.5,135.5 489.6,159.8 489.6,203.5 489.6,224.3 489.6,268 529.3,268 
				529.8,268 567,268 567,224.3 567,203.5 567,159.8 			"/>
			<path class="st0" d="M567,269h-77.4c-0.6,0-1-0.4-1-1V159.8c0-0.2,0.1-0.4,0.2-0.6l18.9-24.3c0.2-0.2,0.5-0.4,0.8-0.4h40.1
				c0.4,0,0.7,0.2,0.9,0.6c0.1,0.2,0.1,0.5,0.1,0.7l18.2,23.5c0.1,0.2,0.2,0.4,0.2,0.6V268C568,268.6,567.5,269,567,269z M490.6,267
				H566V160.2l-18.3-23.7H509l-18.3,23.7V267z"/>
		</g>
		<g>
			<polygon class="st5" points="477.7,152.1 456.6,179.6 456.6,195.3 456.6,252.5 456.6,268.1 497.7,268.1 497.7,252.5 497.7,195.3 
				497.7,179.6 			"/>
			<path class="st0" d="M497.7,269.1h-41.1c-0.6,0-1-0.4-1-1v-88.5c0-0.2,0.1-0.4,0.2-0.6l21.1-27.5c0.2-0.2,0.5-0.4,0.8-0.4
				c0,0,0,0,0,0c0.3,0,0.6,0.2,0.8,0.4l20,27.5c0.1,0.2,0.2,0.4,0.2,0.6v88.5C498.7,268.7,498.2,269.1,497.7,269.1z M457.6,267.1
				h39.1v-87.2l-19-26.1l-20.1,26.1V267.1z"/>
		</g>
		<g>
			<polygon class="st2" points="477.7,152.1 433.9,152.1 413.4,179.6 413.4,195.3 413.4,252.5 413.4,268.1 457.1,268.1 457.1,252.5 
				457.1,195.3 457.3,179.3 			"/>
			<path class="st0" d="M457.1,269.1h-43.8c-0.6,0-1-0.4-1-1v-88.5c0-0.2,0.1-0.4,0.2-0.6l20.5-27.5c0.2-0.3,0.5-0.4,0.8-0.4h43.8
				c0.4,0,0.7,0.2,0.9,0.6c0.2,0.3,0.1,0.7-0.1,1l-20.1,26.9l-0.2,15.7v72.9C458.1,268.7,457.7,269.1,457.1,269.1z M414.4,267.1
				h41.8v-71.9l0.2-16c0-0.2,0.1-0.4,0.2-0.6l19.1-25.5h-41.3l-20,26.8V267.1z"/>
		</g>
		<g>
			<polygon class="st0" points="413.4,179.6 456,179.6 476.8,153 433.9,152.1 			"/>
			<path class="st0" d="M456,180.6h-42.7c-0.4,0-0.7-0.2-0.9-0.6c-0.2-0.3-0.1-0.7,0.1-1l20.5-27.5c0.2-0.3,0.5-0.4,0.8-0.4
				l42.9,0.8c0.4,0,0.7,0.2,0.9,0.6c0.2,0.3,0.1,0.7-0.1,1l-20.8,26.6C456.6,180.5,456.4,180.6,456,180.6z M415.3,178.6h40.2
				l19.3-24.7l-40.4-0.8L415.3,178.6z"/>
		</g>
		<g>
			<path class="st0" d="M430.7,205.1h-8.8c-0.6,0-1-0.4-1-1v-16.9c0-0.6,0.4-1,1-1h8.8c0.6,0,1,0.4,1,1v16.9
				C431.7,204.7,431.2,205.1,430.7,205.1z M422.9,203.1h6.8v-14.9h-6.8V203.1z"/>
		</g>
		<g>
			<path class="st0" d="M448.2,205.1h-8.8c-0.6,0-1-0.4-1-1v-16.9c0-0.6,0.4-1,1-1h8.8c0.6,0,1,0.4,1,1v16.9
				C449.2,204.7,448.8,205.1,448.2,205.1z M440.5,203.1h6.8v-14.9h-6.8V203.1z"/>
		</g>
		<g>
			<path class="st0" d="M430.7,232h-8.8c-0.6,0-1-0.4-1-1v-16.9c0-0.6,0.4-1,1-1h8.8c0.6,0,1,0.4,1,1V231
				C431.7,231.5,431.2,232,430.7,232z M422.9,230h6.8v-14.9h-6.8V230z"/>
		</g>
		<g>
			<path class="st0" d="M448.2,232h-8.8c-0.6,0-1-0.4-1-1v-16.9c0-0.6,0.4-1,1-1h8.8c0.6,0,1,0.4,1,1V231
				C449.2,231.5,448.8,232,448.2,232z M440.5,230h6.8v-14.9h-6.8V230z"/>
		</g>
		<g>
			<path class="st0" d="M430.7,258.8h-8.8c-0.6,0-1-0.4-1-1v-16.9c0-0.6,0.4-1,1-1h8.8c0.6,0,1,0.4,1,1v16.9
				C431.7,258.4,431.2,258.8,430.7,258.8z M422.9,256.8h6.8v-14.9h-6.8V256.8z"/>
		</g>
		<g>
			<path class="st0" d="M448.2,258.8h-8.8c-0.6,0-1-0.4-1-1v-16.9c0-0.6,0.4-1,1-1h8.8c0.6,0,1,0.4,1,1v16.9
				C449.2,258.4,448.8,258.8,448.2,258.8z M440.5,256.8h6.8v-14.9h-6.8V256.8z"/>
		</g>
		<g>
			<path class="st0" d="M472.9,205.1h-8.4c-0.6,0-1-0.4-1-1v-16.9c0-0.6,0.4-1,1-1h8.4c0.6,0,1,0.4,1,1v16.9
				C473.9,204.7,473.5,205.1,472.9,205.1z M465.5,203.1h6.4v-14.9h-6.4V203.1z"/>
		</g>
		<g>
			<path class="st0" d="M489.7,205.1h-8.4c-0.6,0-1-0.4-1-1v-16.9c0-0.6,0.4-1,1-1h8.4c0.6,0,1,0.4,1,1v16.9
				C490.7,204.7,490.3,205.1,489.7,205.1z M482.3,203.1h6.4v-14.9h-6.4V203.1z"/>
		</g>
		<g>
			<path class="st0" d="M472.9,232h-8.4c-0.6,0-1-0.4-1-1v-16.9c0-0.6,0.4-1,1-1h8.4c0.6,0,1,0.4,1,1V231
				C473.9,231.5,473.5,232,472.9,232z M465.5,230h6.4v-14.9h-6.4V230z"/>
		</g>
		<g>
			<path class="st0" d="M489.7,232h-8.4c-0.6,0-1-0.4-1-1v-16.9c0-0.6,0.4-1,1-1h8.4c0.6,0,1,0.4,1,1V231
				C490.7,231.5,490.3,232,489.7,232z M482.3,230h6.4v-14.9h-6.4V230z"/>
		</g>
		<g>
			<path class="st0" d="M472.9,258.8h-8.4c-0.6,0-1-0.4-1-1v-16.9c0-0.6,0.4-1,1-1h8.4c0.6,0,1,0.4,1,1v16.9
				C473.9,258.4,473.5,258.8,472.9,258.8z M465.5,256.8h6.4v-14.9h-6.4V256.8z"/>
		</g>
		<g>
			<path class="st0" d="M489.7,258.8h-8.4c-0.6,0-1-0.4-1-1v-16.9c0-0.6,0.4-1,1-1h8.4c0.6,0,1,0.4,1,1v16.9
				C490.7,258.4,490.3,258.8,489.7,258.8z M482.3,256.8h6.4v-14.9h-6.4V256.8z"/>
		</g>
		<g>
			<rect x="359.4" y="63.3" class="st5" width="54.4" height="204.7"/>
			<path class="st0" d="M413.9,269h-54.4c-0.6,0-1-0.4-1-1V63.3c0-0.6,0.4-1,1-1h54.4c0.6,0,1,0.4,1,1V268
				C414.9,268.6,414.4,269,413.9,269z M360.4,267h52.4V64.3h-52.4V267z"/>
		</g>
		<g>
			<rect x="308.7" y="165.4" class="st2" width="50.9" height="102.7"/>
			<path class="st0" d="M359.6,269h-50.9c-0.6,0-1-0.4-1-1V165.4c0-0.6,0.4-1,1-1h50.9c0.6,0,1,0.4,1,1V268
				C360.6,268.6,360.2,269,359.6,269z M309.7,267h48.9V166.4h-48.9V267z"/>
		</g>
		<g>
			<g>
				<g>
					<path class="st0" d="M324,259.4h-8.1c-0.6,0-1-0.4-1-1v-9.3c0-0.6,0.4-1,1-1h8.1c0.6,0,1,0.4,1,1v9.3
						C325,259,324.5,259.4,324,259.4z M316.9,257.4h6.1v-7.3h-6.1V257.4z"/>
				</g>
				<g>
					<path class="st0" d="M324,240.9h-8.1c-0.6,0-1-0.4-1-1v-9.3c0-0.6,0.4-1,1-1h8.1c0.6,0,1,0.4,1,1v9.3
						C325,240.4,324.5,240.9,324,240.9z M316.9,238.9h6.1v-7.3h-6.1V238.9z"/>
				</g>
				<g>
					<path class="st0" d="M324,222.3h-8.1c-0.6,0-1-0.4-1-1V212c0-0.6,0.4-1,1-1h8.1c0.6,0,1,0.4,1,1v9.3
						C325,221.9,324.5,222.3,324,222.3z M316.9,220.3h6.1V213h-6.1V220.3z"/>
				</g>
				<g>
					<path class="st0" d="M324,203.8h-8.1c-0.6,0-1-0.4-1-1v-9.3c0-0.6,0.4-1,1-1h8.1c0.6,0,1,0.4,1,1v9.3
						C325,203.3,324.5,203.8,324,203.8z M316.9,201.8h6.1v-7.3h-6.1V201.8z"/>
				</g>
				<g>
					<path class="st0" d="M324,185.2h-8.1c-0.6,0-1-0.4-1-1v-9.3c0-0.6,0.4-1,1-1h8.1c0.6,0,1,0.4,1,1v9.3
						C325,184.8,324.5,185.2,324,185.2z M316.9,183.2h6.1v-7.3h-6.1V183.2z"/>
				</g>
			</g>
			<g>
				<g>
					<path class="st0" d="M338.2,259.4h-8.1c-0.6,0-1-0.4-1-1v-9.3c0-0.6,0.4-1,1-1h8.1c0.6,0,1,0.4,1,1v9.3
						C339.2,259,338.8,259.4,338.2,259.4z M331.1,257.4h6.1v-7.3h-6.1V257.4z"/>
				</g>
				<g>
					<path class="st0" d="M338.2,240.9h-8.1c-0.6,0-1-0.4-1-1v-9.3c0-0.6,0.4-1,1-1h8.1c0.6,0,1,0.4,1,1v9.3
						C339.2,240.4,338.8,240.9,338.2,240.9z M331.1,238.9h6.1v-7.3h-6.1V238.9z"/>
				</g>
				<g>
					<path class="st0" d="M338.2,222.3h-8.1c-0.6,0-1-0.4-1-1V212c0-0.6,0.4-1,1-1h8.1c0.6,0,1,0.4,1,1v9.3
						C339.2,221.9,338.8,222.3,338.2,222.3z M331.1,220.3h6.1V213h-6.1V220.3z"/>
				</g>
				<g>
					<path class="st0" d="M338.2,203.8h-8.1c-0.6,0-1-0.4-1-1v-9.3c0-0.6,0.4-1,1-1h8.1c0.6,0,1,0.4,1,1v9.3
						C339.2,203.3,338.8,203.8,338.2,203.8z M331.1,201.8h6.1v-7.3h-6.1V201.8z"/>
				</g>
				<g>
					<path class="st0" d="M338.2,185.2h-8.1c-0.6,0-1-0.4-1-1v-9.3c0-0.6,0.4-1,1-1h8.1c0.6,0,1,0.4,1,1v9.3
						C339.2,184.8,338.8,185.2,338.2,185.2z M331.1,183.2h6.1v-7.3h-6.1V183.2z"/>
				</g>
			</g>
			<g>
				<g>
					<path class="st0" d="M352.5,259.4h-8.1c-0.6,0-1-0.4-1-1v-9.3c0-0.6,0.4-1,1-1h8.1c0.6,0,1,0.4,1,1v9.3
						C353.5,259,353,259.4,352.5,259.4z M345.4,257.4h6.1v-7.3h-6.1V257.4z"/>
				</g>
				<g>
					<path class="st0" d="M352.5,240.9h-8.1c-0.6,0-1-0.4-1-1v-9.3c0-0.6,0.4-1,1-1h8.1c0.6,0,1,0.4,1,1v9.3
						C353.5,240.4,353,240.9,352.5,240.9z M345.4,238.9h6.1v-7.3h-6.1V238.9z"/>
				</g>
				<g>
					<path class="st0" d="M352.5,222.3h-8.1c-0.6,0-1-0.4-1-1V212c0-0.6,0.4-1,1-1h8.1c0.6,0,1,0.4,1,1v9.3
						C353.5,221.9,353,222.3,352.5,222.3z M345.4,220.3h6.1V213h-6.1V220.3z"/>
				</g>
				<g>
					<path class="st0" d="M352.5,203.8h-8.1c-0.6,0-1-0.4-1-1v-9.3c0-0.6,0.4-1,1-1h8.1c0.6,0,1,0.4,1,1v9.3
						C353.5,203.3,353,203.8,352.5,203.8z M345.4,201.8h6.1v-7.3h-6.1V201.8z"/>
				</g>
				<g>
					<path class="st0" d="M352.5,185.2h-8.1c-0.6,0-1-0.4-1-1v-9.3c0-0.6,0.4-1,1-1h8.1c0.6,0,1,0.4,1,1v9.3
						C353.5,184.8,353,185.2,352.5,185.2z M345.4,183.2h6.1v-7.3h-6.1V183.2z"/>
				</g>
			</g>
		</g>
		<g>
			<g>
				<path class="st0" d="M373.9,107c-0.6,0-1-0.4-1-1V74.4c0-0.6,0.4-1,1-1s1,0.4,1,1V106C374.9,106.5,374.4,107,373.9,107z"/>
			</g>
			<g>
				<path class="st0" d="M386.7,107c-0.6,0-1-0.4-1-1V74.4c0-0.6,0.4-1,1-1s1,0.4,1,1V106C387.7,106.5,387.2,107,386.7,107z"/>
			</g>
			<g>
				<path class="st0" d="M399.4,107c-0.6,0-1-0.4-1-1V74.4c0-0.6,0.4-1,1-1s1,0.4,1,1V106C400.4,106.5,400,107,399.4,107z"/>
			</g>
		</g>
		<g>
			<g>
				<path class="st0" d="M373.9,147.5c-0.6,0-1-0.4-1-1v-31.6c0-0.6,0.4-1,1-1s1,0.4,1,1v31.6C374.9,147,374.4,147.5,373.9,147.5z"
					/>
			</g>
			<g>
				<path class="st0" d="M386.7,147.5c-0.6,0-1-0.4-1-1v-31.6c0-0.6,0.4-1,1-1s1,0.4,1,1v31.6C387.7,147,387.2,147.5,386.7,147.5z"
					/>
			</g>
			<g>
				<path class="st0" d="M399.4,147.5c-0.6,0-1-0.4-1-1v-31.6c0-0.6,0.4-1,1-1s1,0.4,1,1v31.6C400.4,147,400,147.5,399.4,147.5z"/>
			</g>
		</g>
		<g>
			<g>
				<path class="st0" d="M373.9,188c-0.6,0-1-0.4-1-1v-31.6c0-0.6,0.4-1,1-1s1,0.4,1,1V187C374.9,187.6,374.4,188,373.9,188z"/>
			</g>
			<g>
				<path class="st0" d="M386.7,188c-0.6,0-1-0.4-1-1v-31.6c0-0.6,0.4-1,1-1s1,0.4,1,1V187C387.7,187.6,387.2,188,386.7,188z"/>
			</g>
			<g>
				<path class="st0" d="M399.4,188c-0.6,0-1-0.4-1-1v-31.6c0-0.6,0.4-1,1-1s1,0.4,1,1V187C400.4,187.6,400,188,399.4,188z"/>
			</g>
		</g>
		<g>
			<g>
				<path class="st0" d="M373.9,228.5c-0.6,0-1-0.4-1-1v-31.6c0-0.6,0.4-1,1-1s1,0.4,1,1v31.6C374.9,228.1,374.4,228.5,373.9,228.5z
					"/>
			</g>
			<g>
				<path class="st0" d="M386.7,228.5c-0.6,0-1-0.4-1-1v-31.6c0-0.6,0.4-1,1-1s1,0.4,1,1v31.6C387.7,228.1,387.2,228.5,386.7,228.5z
					"/>
			</g>
			<g>
				<path class="st0" d="M399.4,228.5c-0.6,0-1-0.4-1-1v-31.6c0-0.6,0.4-1,1-1s1,0.4,1,1v31.6C400.4,228.1,400,228.5,399.4,228.5z"
					/>
			</g>
		</g>
		<g>
			<g>
				<path class="st0" d="M373.9,269c-0.6,0-1-0.4-1-1v-31.6c0-0.6,0.4-1,1-1s1,0.4,1,1V268C374.9,268.6,374.4,269,373.9,269z"/>
			</g>
			<g>
				<path class="st0" d="M386.7,269c-0.6,0-1-0.4-1-1v-31.6c0-0.6,0.4-1,1-1s1,0.4,1,1V268C387.7,268.6,387.2,269,386.7,269z"/>
			</g>
			<g>
				<path class="st0" d="M399.4,269c-0.6,0-1-0.4-1-1v-31.6c0-0.6,0.4-1,1-1s1,0.4,1,1V268C400.4,268.6,400,269,399.4,269z"/>
			</g>
		</g>
		<g>
			<g>
				<rect x="527.3" y="107.2" class="st5" width="75.9" height="160.8"/>
				<path class="st0" d="M603.2,269h-75.9c-0.6,0-1-0.4-1-1V107.2c0-0.6,0.4-1,1-1h75.9c0.6,0,1,0.4,1,1V268
					C604.2,268.6,603.7,269,603.2,269z M528.3,267h73.9V108.2h-73.9V267z"/>
			</g>
			<g>
				<g>
					<g>
						<path class="st0" d="M550,172.6h-11.7c-0.6,0-1-0.4-1-1v-14.3c0-0.6,0.4-1,1-1H550c0.6,0,1,0.4,1,1v14.3
							C551,172.2,550.5,172.6,550,172.6z M539.2,170.6h9.7v-12.3h-9.7V170.6z"/>
					</g>
					<g>
						<path class="st0" d="M571.1,172.6h-11.7c-0.6,0-1-0.4-1-1v-14.3c0-0.6,0.4-1,1-1h11.7c0.6,0,1,0.4,1,1v14.3
							C572.1,172.2,571.7,172.6,571.1,172.6z M560.4,170.6h9.7v-12.3h-9.7V170.6z"/>
					</g>
					<g>
						<path class="st0" d="M592.3,172.6h-11.7c-0.6,0-1-0.4-1-1v-14.3c0-0.6,0.4-1,1-1h11.7c0.6,0,1,0.4,1,1v14.3
							C593.3,172.2,592.8,172.6,592.3,172.6z M581.5,170.6h9.7v-12.3h-9.7V170.6z"/>
					</g>
				</g>
				<g>
					<g>
						<path class="st0" d="M550,193.3h-11.7c-0.6,0-1-0.4-1-1v-14.3c0-0.6,0.4-1,1-1H550c0.6,0,1,0.4,1,1v14.3
							C551,192.8,550.5,193.3,550,193.3z M539.2,191.3h9.7v-12.3h-9.7V191.3z"/>
					</g>
					<g>
						<path class="st0" d="M571.1,193.3h-11.7c-0.6,0-1-0.4-1-1v-14.3c0-0.6,0.4-1,1-1h11.7c0.6,0,1,0.4,1,1v14.3
							C572.1,192.8,571.7,193.3,571.1,193.3z M560.4,191.3h9.7v-12.3h-9.7V191.3z"/>
					</g>
					<g>
						<path class="st0" d="M592.3,193.3h-11.7c-0.6,0-1-0.4-1-1v-14.3c0-0.6,0.4-1,1-1h11.7c0.6,0,1,0.4,1,1v14.3
							C593.3,192.8,592.8,193.3,592.3,193.3z M581.5,191.3h9.7v-12.3h-9.7V191.3z"/>
					</g>
				</g>
				<g>
					<g>
						<path class="st0" d="M550,213.9h-11.7c-0.6,0-1-0.4-1-1v-14.3c0-0.6,0.4-1,1-1H550c0.6,0,1,0.4,1,1v14.3
							C551,213.4,550.5,213.9,550,213.9z M539.2,211.9h9.7v-12.3h-9.7V211.9z"/>
					</g>
					<g>
						<path class="st0" d="M571.1,213.9h-11.7c-0.6,0-1-0.4-1-1v-14.3c0-0.6,0.4-1,1-1h11.7c0.6,0,1,0.4,1,1v14.3
							C572.1,213.4,571.7,213.9,571.1,213.9z M560.4,211.9h9.7v-12.3h-9.7V211.9z"/>
					</g>
					<g>
						<path class="st0" d="M592.3,213.9h-11.7c-0.6,0-1-0.4-1-1v-14.3c0-0.6,0.4-1,1-1h11.7c0.6,0,1,0.4,1,1v14.3
							C593.3,213.4,592.8,213.9,592.3,213.9z M581.5,211.9h9.7v-12.3h-9.7V211.9z"/>
					</g>
				</g>
				<g>
					<g>
						<path class="st0" d="M550,131.4h-11.7c-0.6,0-1-0.4-1-1V116c0-0.6,0.4-1,1-1H550c0.6,0,1,0.4,1,1v14.3
							C551,130.9,550.5,131.4,550,131.4z M539.2,129.4h9.7V117h-9.7V129.4z"/>
					</g>
					<g>
						<path class="st0" d="M571.1,131.4h-11.7c-0.6,0-1-0.4-1-1V116c0-0.6,0.4-1,1-1h11.7c0.6,0,1,0.4,1,1v14.3
							C572.1,130.9,571.7,131.4,571.1,131.4z M560.4,129.4h9.7V117h-9.7V129.4z"/>
					</g>
					<g>
						<path class="st0" d="M592.3,131.4h-11.7c-0.6,0-1-0.4-1-1V116c0-0.6,0.4-1,1-1h11.7c0.6,0,1,0.4,1,1v14.3
							C593.3,130.9,592.8,131.4,592.3,131.4z M581.5,129.4h9.7V117h-9.7V129.4z"/>
					</g>
				</g>
				<g>
					<g>
						<path class="st0" d="M550,152h-11.7c-0.6,0-1-0.4-1-1v-14.3c0-0.6,0.4-1,1-1H550c0.6,0,1,0.4,1,1V151
							C551,151.6,550.5,152,550,152z M539.2,150h9.7v-12.3h-9.7V150z"/>
					</g>
					<g>
						<path class="st0" d="M571.1,152h-11.7c-0.6,0-1-0.4-1-1v-14.3c0-0.6,0.4-1,1-1h11.7c0.6,0,1,0.4,1,1V151
							C572.1,151.6,571.7,152,571.1,152z M560.4,150h9.7v-12.3h-9.7V150z"/>
					</g>
					<g>
						<path class="st0" d="M592.3,152h-11.7c-0.6,0-1-0.4-1-1v-14.3c0-0.6,0.4-1,1-1h11.7c0.6,0,1,0.4,1,1V151
							C593.3,151.6,592.8,152,592.3,152z M581.5,150h9.7v-12.3h-9.7V150z"/>
					</g>
				</g>
				<g>
					<g>
						<path class="st0" d="M550,234.5h-11.7c-0.6,0-1-0.4-1-1v-14.3c0-0.6,0.4-1,1-1H550c0.6,0,1,0.4,1,1v14.3
							C551,234.1,550.5,234.5,550,234.5z M539.2,232.5h9.7v-12.3h-9.7V232.5z"/>
					</g>
					<g>
						<path class="st0" d="M571.1,234.5h-11.7c-0.6,0-1-0.4-1-1v-14.3c0-0.6,0.4-1,1-1h11.7c0.6,0,1,0.4,1,1v14.3
							C572.1,234.1,571.7,234.5,571.1,234.5z M560.4,232.5h9.7v-12.3h-9.7V232.5z"/>
					</g>
					<g>
						<path class="st0" d="M592.3,234.5h-11.7c-0.6,0-1-0.4-1-1v-14.3c0-0.6,0.4-1,1-1h11.7c0.6,0,1,0.4,1,1v14.3
							C593.3,234.1,592.8,234.5,592.3,234.5z M581.5,232.5h9.7v-12.3h-9.7V232.5z"/>
					</g>
				</g>
				<g>
					<g>
						<path class="st0" d="M550,255.1h-11.7c-0.6,0-1-0.4-1-1v-14.3c0-0.6,0.4-1,1-1H550c0.6,0,1,0.4,1,1v14.3
							C551,254.7,550.5,255.1,550,255.1z M539.2,253.1h9.7v-12.3h-9.7V253.1z"/>
					</g>
					<g>
						<path class="st0" d="M571.1,255.1h-11.7c-0.6,0-1-0.4-1-1v-14.3c0-0.6,0.4-1,1-1h11.7c0.6,0,1,0.4,1,1v14.3
							C572.1,254.7,571.7,255.1,571.1,255.1z M560.4,253.1h9.7v-12.3h-9.7V253.1z"/>
					</g>
					<g>
						<path class="st0" d="M592.3,255.1h-11.7c-0.6,0-1-0.4-1-1v-14.3c0-0.6,0.4-1,1-1h11.7c0.6,0,1,0.4,1,1v14.3
							C593.3,254.7,592.8,255.1,592.3,255.1z M581.5,253.1h9.7v-12.3h-9.7V253.1z"/>
					</g>
				</g>
			</g>
			<g>
				<polyline class="st0" points="558.6,268.1 558.6,239.4 571.9,239.4 571.9,268.1 				"/>
				<path class="st0" d="M571.9,269.1c-0.6,0-1-0.4-1-1v-27.8h-11.3v27.8c0,0.6-0.4,1-1,1s-1-0.4-1-1v-28.8c0-0.6,0.4-1,1-1h13.3
					c0.6,0,1,0.4,1,1v28.8C572.9,268.7,572.4,269.1,571.9,269.1z"/>
			</g>
		</g>
		<g>
			<path class="st0" d="M413.9,73.8h-54.4c-0.6,0-1-0.4-1-1s0.4-1,1-1h54.4c0.6,0,1,0.4,1,1S414.4,73.8,413.9,73.8z"/>
		</g>
		<g>
			<g>
				<rect x="228.2" y="160.5" class="st0" width="56.9" height="107.6"/>
				<path class="st0" d="M285.1,269.1h-56.9c-0.6,0-1-0.4-1-1V160.5c0-0.6,0.4-1,1-1h56.9c0.6,0,1,0.4,1,1v107.6
					C286.1,268.7,285.6,269.1,285.1,269.1z M229.2,267.1h54.9V161.5h-54.9V267.1z"/>
			</g>
			<g>
				<rect x="234.4" y="149.4" class="st5" width="44.6" height="10.2"/>
				<path class="st0" d="M278.9,160.6h-44.6c-0.6,0-1-0.4-1-1v-10.2c0-0.6,0.4-1,1-1h44.6c0.6,0,1,0.4,1,1v10.2
					C279.9,160.1,279.5,160.6,278.9,160.6z M235.4,158.6h42.6v-8.2h-42.6V158.6z"/>
			</g>
			<g>
				<g>
					<path class="st2" d="M244.4,185.1c-2.6,0-5.2,0-7.8,0c0-4.7,0-9.3,0-14c1.6-3,6.2-3,7.8,0C244.4,175.8,244.4,180.5,244.4,185.1
						z"/>
				</g>
				<g>
					<path class="st2" d="M260.5,185.1c-2.6,0-5.2,0-7.8,0c0-4.7,0-9.3,0-14c1.6-3,6.2-3,7.8,0C260.5,175.8,260.5,180.5,260.5,185.1
						z"/>
				</g>
				<g>
					<path class="st2" d="M276.7,185.1c-2.6,0-5.2,0-7.8,0c0-4.7,0-9.3,0-14c1.6-3,6.2-3,7.8,0C276.7,175.8,276.7,180.5,276.7,185.1
						z"/>
				</g>
			</g>
			<g>
				<g>
					<path class="st2" d="M244.4,209.9c-2.6,0-5.2,0-7.8,0c0-4.7,0-9.3,0-14c1.6-3,6.2-3,7.8,0C244.4,200.6,244.4,205.3,244.4,209.9
						z"/>
				</g>
				<g>
					<path class="st2" d="M260.5,209.9c-2.6,0-5.2,0-7.8,0c0-4.7,0-9.3,0-14c1.6-3,6.2-3,7.8,0C260.5,200.6,260.5,205.3,260.5,209.9
						z"/>
				</g>
				<g>
					<path class="st2" d="M276.7,209.9c-2.6,0-5.2,0-7.8,0c0-4.7,0-9.3,0-14c1.6-3,6.2-3,7.8,0C276.7,200.6,276.7,205.3,276.7,209.9
						z"/>
				</g>
			</g>
			<g>
				<g>
					<path class="st2" d="M244.4,234.7c-2.6,0-5.2,0-7.8,0c0-4.7,0-9.3,0-14c1.6-3,6.2-3,7.8,0C244.4,225.4,244.4,230.1,244.4,234.7
						z"/>
				</g>
				<g>
					<path class="st2" d="M260.5,234.7c-2.6,0-5.2,0-7.8,0c0-4.7,0-9.3,0-14c1.6-3,6.2-3,7.8,0C260.5,225.4,260.5,230.1,260.5,234.7
						z"/>
				</g>
				<g>
					<path class="st2" d="M276.7,234.7c-2.6,0-5.2,0-7.8,0c0-4.7,0-9.3,0-14c1.6-3,6.2-3,7.8,0C276.7,225.4,276.7,230.1,276.7,234.7
						z"/>
				</g>
			</g>
			<g>
				<g>
					<path class="st2" d="M244.4,259.6c-2.6,0-5.2,0-7.8,0c0-4.7,0-9.3,0-14c1.6-3,6.2-3,7.8,0C244.4,250.2,244.4,254.9,244.4,259.6
						z"/>
				</g>
				<g>
					<path class="st2" d="M260.5,259.6c-2.6,0-5.2,0-7.8,0c0-4.7,0-9.3,0-14c1.6-3,6.2-3,7.8,0C260.5,250.2,260.5,254.9,260.5,259.6
						z"/>
				</g>
				<g>
					<path class="st2" d="M276.7,259.6c-2.6,0-5.2,0-7.8,0c0-4.7,0-9.3,0-14c1.6-3,6.2-3,7.8,0C276.7,250.2,276.7,254.9,276.7,259.6
						z"/>
				</g>
			</g>
		</g>
		<g>
			<g>
				<polygon class="st5" points="213.9,167.8 233.9,195.3 233.9,268.1 192.8,268.1 192.8,195.3 				"/>
				<path class="st0" d="M233.9,269.1h-41.1c-0.6,0-1-0.4-1-1v-72.9c0-0.2,0.1-0.4,0.2-0.6l21.1-27.5c0.2-0.2,0.5-0.4,0.8-0.4
					c0,0,0,0,0,0c0.3,0,0.6,0.2,0.8,0.4l20,27.5c0.1,0.2,0.2,0.4,0.2,0.6v72.9C234.9,268.7,234.5,269.1,233.9,269.1z M193.8,267.1
					h39.1v-71.5l-19-26.1l-20.1,26.1V267.1z"/>
			</g>
			<g>
				<polygon class="st2" points="213.9,167.8 193.4,195.3 193.4,268.1 149.6,268.1 149.6,195.3 170.2,167.8 				"/>
				<path class="st0" d="M193.4,269.1h-43.8c-0.6,0-1-0.4-1-1v-72.9c0-0.2,0.1-0.4,0.2-0.6l20.5-27.5c0.2-0.3,0.5-0.4,0.8-0.4h43.8
					c0.4,0,0.7,0.2,0.9,0.6c0.2,0.3,0.1,0.7-0.1,1l-20.4,27.2v72.5C194.4,268.7,193.9,269.1,193.4,269.1z M150.6,267.1h41.8v-71.9
					c0-0.2,0.1-0.4,0.2-0.6l19.4-25.9h-41.3l-20,26.8V267.1z"/>
			</g>
			<g>
				<polygon class="st2" points="149.6,195.3 193.4,195.3 213.9,167.8 170.2,167.8 				"/>
				<path class="st0" d="M193.4,196.3h-43.8c-0.4,0-0.7-0.2-0.9-0.6c-0.2-0.3-0.1-0.7,0.1-1l20.5-27.5c0.2-0.3,0.5-0.4,0.8-0.4h43.8
					c0.4,0,0.7,0.2,0.9,0.6c0.2,0.3,0.1,0.7-0.1,1l-20.5,27.5C194,196.1,193.7,196.3,193.4,196.3z M151.6,194.3h41.3l19.1-25.5
					h-41.3L151.6,194.3z"/>
			</g>
			<g>
				<g>
					<g>
						<path class="st0" d="M167.1,206.3h-10.6c-0.6,0-1-0.4-1-1s0.4-1,1-1h10.6c0.6,0,1,0.4,1,1S167.6,206.3,167.1,206.3z"/>
					</g>
					<g>
						<path class="st0" d="M184.6,206.3h-10.6c-0.6,0-1-0.4-1-1s0.4-1,1-1h10.6c0.6,0,1,0.4,1,1S185.2,206.3,184.6,206.3z"/>
					</g>
				</g>
				<g>
					<g>
						<path class="st0" d="M167.1,212h-10.6c-0.6,0-1-0.4-1-1s0.4-1,1-1h10.6c0.6,0,1,0.4,1,1S167.6,212,167.1,212z"/>
					</g>
					<g>
						<path class="st0" d="M184.6,212h-10.6c-0.6,0-1-0.4-1-1s0.4-1,1-1h10.6c0.6,0,1,0.4,1,1S185.2,212,184.6,212z"/>
					</g>
				</g>
				<g>
					<g>
						<path class="st0" d="M167.1,217.7h-10.6c-0.6,0-1-0.4-1-1s0.4-1,1-1h10.6c0.6,0,1,0.4,1,1S167.6,217.7,167.1,217.7z"/>
					</g>
					<g>
						<path class="st0" d="M184.6,217.7h-10.6c-0.6,0-1-0.4-1-1s0.4-1,1-1h10.6c0.6,0,1,0.4,1,1S185.2,217.7,184.6,217.7z"/>
					</g>
				</g>
			</g>
			<g>
				<g>
					<g>
						<path class="st0" d="M167.1,227.2h-10.6c-0.6,0-1-0.4-1-1s0.4-1,1-1h10.6c0.6,0,1,0.4,1,1S167.6,227.2,167.1,227.2z"/>
					</g>
					<g>
						<path class="st0" d="M184.6,227.2h-10.6c-0.6,0-1-0.4-1-1s0.4-1,1-1h10.6c0.6,0,1,0.4,1,1S185.2,227.2,184.6,227.2z"/>
					</g>
				</g>
				<g>
					<g>
						<path class="st0" d="M167.1,232.9h-10.6c-0.6,0-1-0.4-1-1s0.4-1,1-1h10.6c0.6,0,1,0.4,1,1S167.6,232.9,167.1,232.9z"/>
					</g>
					<g>
						<path class="st0" d="M184.6,232.9h-10.6c-0.6,0-1-0.4-1-1s0.4-1,1-1h10.6c0.6,0,1,0.4,1,1S185.2,232.9,184.6,232.9z"/>
					</g>
				</g>
				<g>
					<g>
						<path class="st0" d="M167.1,238.6h-10.6c-0.6,0-1-0.4-1-1s0.4-1,1-1h10.6c0.6,0,1,0.4,1,1S167.6,238.6,167.1,238.6z"/>
					</g>
					<g>
						<path class="st0" d="M184.6,238.6h-10.6c-0.6,0-1-0.4-1-1s0.4-1,1-1h10.6c0.6,0,1,0.4,1,1S185.2,238.6,184.6,238.6z"/>
					</g>
				</g>
			</g>
			<g>
				<g>
					<g>
						<path class="st0" d="M167.1,248.1h-10.6c-0.6,0-1-0.4-1-1s0.4-1,1-1h10.6c0.6,0,1,0.4,1,1S167.6,248.1,167.1,248.1z"/>
					</g>
					<g>
						<path class="st0" d="M184.6,248.1h-10.6c-0.6,0-1-0.4-1-1s0.4-1,1-1h10.6c0.6,0,1,0.4,1,1S185.2,248.1,184.6,248.1z"/>
					</g>
				</g>
				<g>
					<g>
						<path class="st0" d="M167.1,253.9h-10.6c-0.6,0-1-0.4-1-1s0.4-1,1-1h10.6c0.6,0,1,0.4,1,1S167.6,253.9,167.1,253.9z"/>
					</g>
					<g>
						<path class="st0" d="M184.6,253.9h-10.6c-0.6,0-1-0.4-1-1s0.4-1,1-1h10.6c0.6,0,1,0.4,1,1S185.2,253.9,184.6,253.9z"/>
					</g>
				</g>
				<g>
					<g>
						<path class="st0" d="M167.1,259.6h-10.6c-0.6,0-1-0.4-1-1s0.4-1,1-1h10.6c0.6,0,1,0.4,1,1S167.6,259.6,167.1,259.6z"/>
					</g>
					<g>
						<path class="st0" d="M184.6,259.6h-10.6c-0.6,0-1-0.4-1-1s0.4-1,1-1h10.6c0.6,0,1,0.4,1,1S185.2,259.6,184.6,259.6z"/>
					</g>
				</g>
			</g>
			<g>
				<g>
					<g>
						<path class="st0" d="M210.4,206.3h-10.6c-0.6,0-1-0.4-1-1s0.4-1,1-1h10.6c0.6,0,1,0.4,1,1S211,206.3,210.4,206.3z"/>
					</g>
					<g>
						<path class="st0" d="M228,206.3h-10.6c-0.6,0-1-0.4-1-1s0.4-1,1-1H228c0.6,0,1,0.4,1,1S228.6,206.3,228,206.3z"/>
					</g>
				</g>
				<g>
					<g>
						<path class="st0" d="M210.4,212h-10.6c-0.6,0-1-0.4-1-1s0.4-1,1-1h10.6c0.6,0,1,0.4,1,1S211,212,210.4,212z"/>
					</g>
					<g>
						<path class="st0" d="M228,212h-10.6c-0.6,0-1-0.4-1-1s0.4-1,1-1H228c0.6,0,1,0.4,1,1S228.6,212,228,212z"/>
					</g>
				</g>
				<g>
					<g>
						<path class="st0" d="M210.4,217.7h-10.6c-0.6,0-1-0.4-1-1s0.4-1,1-1h10.6c0.6,0,1,0.4,1,1S211,217.7,210.4,217.7z"/>
					</g>
					<g>
						<path class="st0" d="M228,217.7h-10.6c-0.6,0-1-0.4-1-1s0.4-1,1-1H228c0.6,0,1,0.4,1,1S228.6,217.7,228,217.7z"/>
					</g>
				</g>
			</g>
			<g>
				<g>
					<g>
						<path class="st0" d="M210.4,227.2h-10.6c-0.6,0-1-0.4-1-1s0.4-1,1-1h10.6c0.6,0,1,0.4,1,1S211,227.2,210.4,227.2z"/>
					</g>
					<g>
						<path class="st0" d="M228,227.2h-10.6c-0.6,0-1-0.4-1-1s0.4-1,1-1H228c0.6,0,1,0.4,1,1S228.6,227.2,228,227.2z"/>
					</g>
				</g>
				<g>
					<g>
						<path class="st0" d="M210.4,232.9h-10.6c-0.6,0-1-0.4-1-1s0.4-1,1-1h10.6c0.6,0,1,0.4,1,1S211,232.9,210.4,232.9z"/>
					</g>
					<g>
						<path class="st0" d="M228,232.9h-10.6c-0.6,0-1-0.4-1-1s0.4-1,1-1H228c0.6,0,1,0.4,1,1S228.6,232.9,228,232.9z"/>
					</g>
				</g>
				<g>
					<g>
						<path class="st0" d="M210.4,238.6h-10.6c-0.6,0-1-0.4-1-1s0.4-1,1-1h10.6c0.6,0,1,0.4,1,1S211,238.6,210.4,238.6z"/>
					</g>
					<g>
						<path class="st0" d="M228,238.6h-10.6c-0.6,0-1-0.4-1-1s0.4-1,1-1H228c0.6,0,1,0.4,1,1S228.6,238.6,228,238.6z"/>
					</g>
				</g>
			</g>
			<g>
				<g>
					<g>
						<path class="st0" d="M210.4,248.1h-10.6c-0.6,0-1-0.4-1-1s0.4-1,1-1h10.6c0.6,0,1,0.4,1,1S211,248.1,210.4,248.1z"/>
					</g>
					<g>
						<path class="st0" d="M228,248.1h-10.6c-0.6,0-1-0.4-1-1s0.4-1,1-1H228c0.6,0,1,0.4,1,1S228.6,248.1,228,248.1z"/>
					</g>
				</g>
				<g>
					<g>
						<path class="st0" d="M210.4,253.9h-10.6c-0.6,0-1-0.4-1-1s0.4-1,1-1h10.6c0.6,0,1,0.4,1,1S211,253.9,210.4,253.9z"/>
					</g>
					<g>
						<path class="st0" d="M228,253.9h-10.6c-0.6,0-1-0.4-1-1s0.4-1,1-1H228c0.6,0,1,0.4,1,1S228.6,253.9,228,253.9z"/>
					</g>
				</g>
				<g>
					<g>
						<path class="st0" d="M210.4,259.6h-10.6c-0.6,0-1-0.4-1-1s0.4-1,1-1h10.6c0.6,0,1,0.4,1,1S211,259.6,210.4,259.6z"/>
					</g>
					<g>
						<path class="st0" d="M228,259.6h-10.6c-0.6,0-1-0.4-1-1s0.4-1,1-1H228c0.6,0,1,0.4,1,1S228.6,259.6,228,259.6z"/>
					</g>
				</g>
			</g>
			<g>
				<path class="st0" d="M233.7,196.3h-41.4c-0.6,0-1-0.4-1-1s0.4-1,1-1h41.4c0.6,0,1,0.4,1,1S234.2,196.3,233.7,196.3z"/>
			</g>
		</g>
		<g>
			<g>
				<g>
					<polygon class="st0" points="74.1,136.3 50.1,167.5 50.1,185.3 50.1,250.3 50.1,268.1 96.8,268.1 96.8,250.3 96.8,185.3 
						96.8,167.5 					"/>
					<path class="st0" d="M96.8,269.1H50.1c-0.6,0-1-0.4-1-1V167.5c0-0.2,0.1-0.4,0.2-0.6l24-31.2c0.2-0.2,0.5-0.4,0.8-0.4
						c0,0,0,0,0,0c0.3,0,0.6,0.2,0.8,0.4l22.7,31.2c0.1,0.2,0.2,0.4,0.2,0.6v100.6C97.8,268.7,97.4,269.1,96.8,269.1z M51.1,267.1
						h44.7v-99.3L74,138l-22.9,29.9V267.1z"/>
				</g>
				<g>
					<polygon class="st2" points="74.1,136.3 24.3,136.3 1,167.5 1,185.3 1,250.3 1,268.1 50.7,268.1 50.7,250.3 50.7,185.3 
						51,167.2 					"/>
					<path class="st0" d="M50.7,269.1H1c-0.6,0-1-0.4-1-1V167.5c0-0.2,0.1-0.4,0.2-0.6l23.3-31.2c0.2-0.3,0.5-0.4,0.8-0.4h49.7
						c0.4,0,0.7,0.2,0.9,0.6c0.2,0.3,0.1,0.7-0.1,1L52,167.5l-0.3,17.8v82.8C51.7,268.7,51.3,269.1,50.7,269.1z M2,267.1h47.7v-81.8
						l0.3-18.2c0-0.2,0.1-0.4,0.2-0.6l21.9-29.2H24.8L2,167.9V267.1z"/>
				</g>
				<g>
					<polygon class="st5" points="1,167.5 49.5,167.5 74.1,136.3 24.3,136.3 					"/>
					<path class="st0" d="M49.5,168.5H1c-0.4,0-0.7-0.2-0.9-0.6c-0.2-0.3-0.1-0.7,0.1-1l23.3-31.2c0.2-0.3,0.5-0.4,0.8-0.4h49.7
						c0.4,0,0.7,0.2,0.9,0.6c0.2,0.3,0.1,0.8-0.1,1.1l-24.6,31.2C50.1,168.4,49.8,168.5,49.5,168.5z M3,166.5h46l23-29.2H24.8
						L3,166.5z"/>
				</g>
				<g>
					<g>
						<g>
							<path class="st5" d="M20.7,196.6c-3.3,0-6.6,0-9.9,0c0-5.3,0-10.7,0-16c1.7-4.6,8.2-4.6,9.9,0
								C20.7,185.9,20.7,191.3,20.7,196.6z"/>
							<path class="st0" d="M20.7,197.6C20.7,197.6,20.7,197.6,20.7,197.6h-9.9c-0.3,0-0.5-0.1-0.7-0.3s-0.3-0.4-0.3-0.7v-16
								c0-0.1,0-0.2,0.1-0.4c0.9-2.5,3.3-4.1,5.9-4.1s5,1.6,5.9,4.1c0,0.1,0.1,0.2,0.1,0.4v16c0,0.3-0.1,0.5-0.3,0.7
								S20.9,197.6,20.7,197.6z M11.7,195.6h7.9v-14.8c-0.8-1.9-2.6-2.6-4-2.6s-3.2,0.7-4,2.6V195.6z"/>
						</g>
						<g>
							<path class="st5" d="M40.2,196.6c-3.3,0-6.6,0-9.9,0c0-5.3,0-10.7,0-16c1.7-4.6,8.2-4.6,9.9,0
								C40.2,185.9,40.2,191.3,40.2,196.6z"/>
							<path class="st0" d="M40.2,197.6C40.2,197.6,40.2,197.6,40.2,197.6h-9.9c-0.3,0-0.5-0.1-0.7-0.3s-0.3-0.4-0.3-0.7v-16
								c0-0.1,0-0.2,0.1-0.4c0.9-2.5,3.3-4.1,5.9-4.1s5,1.6,5.9,4.1c0,0.1,0.1,0.2,0.1,0.4v16c0,0.3-0.1,0.5-0.3,0.7
								S40.4,197.6,40.2,197.6z M31.2,195.6h7.9v-14.8c-0.8-1.9-2.6-2.6-4-2.6s-3.2,0.7-4,2.6V195.6z"/>
						</g>
					</g>
					<g>
						<g>
							<path class="st5" d="M20.7,226.3c-3.3,0-6.6,0-9.9,0c0-5.3,0-10.7,0-16c1.7-4.6,8.2-4.6,9.9,0
								C20.7,215.6,20.7,220.9,20.7,226.3z"/>
							<path class="st0" d="M20.7,227.3h-9.9c-0.6,0-1-0.4-1-1v-16c0-0.1,0-0.2,0.1-0.4c0.9-2.5,3.3-4.1,5.9-4.1
								c2.7,0,5,1.6,5.9,4.1c0,0.1,0.1,0.2,0.1,0.4v16C21.7,226.8,21.2,227.3,20.7,227.3z M11.7,225.3h7.9v-14.8
								c-0.8-1.9-2.6-2.6-4-2.6c-1.4,0-3.2,0.7-4,2.6V225.3z"/>
						</g>
						<g>
							<path class="st5" d="M40.2,226.3c-3.3,0-6.6,0-9.9,0c0-5.3,0-10.7,0-16c1.7-4.6,8.2-4.6,9.9,0
								C40.2,215.6,40.2,220.9,40.2,226.3z"/>
							<path class="st0" d="M40.2,227.3h-9.9c-0.6,0-1-0.4-1-1v-16c0-0.1,0-0.2,0.1-0.4c0.9-2.5,3.3-4.1,5.9-4.1
								c2.7,0,5,1.6,5.9,4.1c0,0.1,0.1,0.2,0.1,0.4v16C41.2,226.8,40.7,227.3,40.2,227.3z M31.2,225.3h7.9v-14.8
								c-0.8-1.9-2.6-2.6-4-2.6c-1.4,0-3.2,0.7-4,2.6V225.3z"/>
						</g>
					</g>
					<g>
						<g>
							<path class="st5" d="M20.7,255.9c-3.3,0-6.6,0-9.9,0c0-5.3,0-10.7,0-16c1.7-4.6,8.2-4.6,9.9,0
								C20.7,245.3,20.7,250.6,20.7,255.9z"/>
							<path class="st0" d="M20.7,256.9h-9.9c-0.6,0-1-0.4-1-1v-16c0-0.1,0-0.2,0.1-0.4c0.9-2.5,3.3-4.1,5.9-4.1
								c2.7,0,5,1.6,5.9,4.1c0,0.1,0.1,0.2,0.1,0.4v16C21.7,256.5,21.2,256.9,20.7,256.9z M11.7,254.9h7.9v-14.8
								c-0.8-1.9-2.6-2.6-4-2.6c-1.4,0-3.2,0.7-4,2.6V254.9z"/>
						</g>
						<g>
							<path class="st5" d="M40.2,255.9c-3.3,0-6.6,0-9.9,0c0-5.3,0-10.7,0-16c1.7-4.6,8.2-4.6,9.9,0
								C40.2,245.3,40.2,250.6,40.2,255.9z"/>
							<path class="st0" d="M40.2,256.9h-9.9c-0.6,0-1-0.4-1-1v-16c0-0.1,0-0.2,0.1-0.4c0.9-2.5,3.3-4.1,5.9-4.1
								c2.7,0,5,1.6,5.9,4.1c0,0.1,0.1,0.2,0.1,0.4v16C41.2,256.5,40.7,256.9,40.2,256.9z M31.2,254.9h7.9v-14.8
								c-0.8-1.9-2.6-2.6-4-2.6c-1.4,0-3.2,0.7-4,2.6V254.9z"/>
						</g>
					</g>
				</g>
				<g>
					<g>
						<g>
							<path class="st5" d="M69.6,196.6c-3.3,0-6.6,0-9.9,0c0-5.3,0-10.7,0-16c1.7-4.6,8.2-4.6,9.9,0
								C69.6,185.9,69.6,191.3,69.6,196.6z"/>
						</g>
						<g>
							<path class="st5" d="M89,196.6c-3.3,0-6.6,0-9.9,0c0-5.3,0-10.7,0-16c1.7-4.6,8.2-4.6,9.9,0C89,185.9,89,191.3,89,196.6z"/>
						</g>
					</g>
					<g>
						<g>
							<path class="st5" d="M69.6,226.3c-3.3,0-6.6,0-9.9,0c0-5.3,0-10.7,0-16c1.7-4.6,8.2-4.6,9.9,0
								C69.6,215.6,69.6,220.9,69.6,226.3z"/>
						</g>
						<g>
							<path class="st5" d="M89,226.3c-3.3,0-6.6,0-9.9,0c0-5.3,0-10.7,0-16c1.7-4.6,8.2-4.6,9.9,0C89,215.6,89,220.9,89,226.3z"/>
						</g>
					</g>
					<g>
						<g>
							<path class="st5" d="M69.6,255.9c-3.3,0-6.6,0-9.9,0c0-5.3,0-10.7,0-16c1.7-4.6,8.2-4.6,9.9,0
								C69.6,245.3,69.6,250.6,69.6,255.9z"/>
						</g>
						<g>
							<path class="st5" d="M89,255.9c-3.3,0-6.6,0-9.9,0c0-5.3,0-10.7,0-16c1.7-4.6,8.2-4.6,9.9,0C89,245.3,89,250.6,89,255.9z"/>
						</g>
					</g>
				</g>
			</g>
			<g>
				<path class="st0" d="M125.3,237.7h-20.9c-0.6,0-1-0.4-1-1s0.4-1,1-1h20.9c0.6,0,1,0.4,1,1S125.8,237.7,125.3,237.7z"/>
			</g>
			<g>
				<rect x="95.6" y="145.2" class="st5" width="75.9" height="122.8"/>
				<path class="st0" d="M171.5,269H95.6c-0.6,0-1-0.4-1-1V145.2c0-0.6,0.4-1,1-1h75.9c0.6,0,1,0.4,1,1V268
					C172.5,268.6,172,269,171.5,269z M96.6,267h73.9V146.2H96.6V267z"/>
			</g>
			<g>
				<g>
					<path class="st0" d="M118.2,172.7h-11.7c-0.6,0-1-0.4-1-1v-14.3c0-0.6,0.4-1,1-1h11.7c0.6,0,1,0.4,1,1v14.3
						C119.2,172.3,118.7,172.7,118.2,172.7z M107.5,170.7h9.7v-12.3h-9.7V170.7z"/>
				</g>
				<g>
					<path class="st0" d="M139.3,172.7h-11.7c-0.6,0-1-0.4-1-1v-14.3c0-0.6,0.4-1,1-1h11.7c0.6,0,1,0.4,1,1v14.3
						C140.3,172.3,139.9,172.7,139.3,172.7z M128.6,170.7h9.7v-12.3h-9.7V170.7z"/>
				</g>
				<g>
					<path class="st0" d="M160.5,172.7h-11.7c-0.6,0-1-0.4-1-1v-14.3c0-0.6,0.4-1,1-1h11.7c0.6,0,1,0.4,1,1v14.3
						C161.5,172.3,161.1,172.7,160.5,172.7z M149.8,170.7h9.7v-12.3h-9.7V170.7z"/>
				</g>
			</g>
			<g>
				<g>
					<path class="st0" d="M118.2,200h-11.7c-0.6,0-1-0.4-1-1v-14.3c0-0.6,0.4-1,1-1h11.7c0.6,0,1,0.4,1,1V199
						C119.2,199.6,118.7,200,118.2,200z M107.5,198h9.7v-12.3h-9.7V198z"/>
				</g>
				<g>
					<path class="st0" d="M139.3,200h-11.7c-0.6,0-1-0.4-1-1v-14.3c0-0.6,0.4-1,1-1h11.7c0.6,0,1,0.4,1,1V199
						C140.3,199.6,139.9,200,139.3,200z M128.6,198h9.7v-12.3h-9.7V198z"/>
				</g>
				<g>
					<path class="st0" d="M160.5,200h-11.7c-0.6,0-1-0.4-1-1v-14.3c0-0.6,0.4-1,1-1h11.7c0.6,0,1,0.4,1,1V199
						C161.5,199.6,161.1,200,160.5,200z M149.8,198h9.7v-12.3h-9.7V198z"/>
				</g>
			</g>
			<g>
				<g>
					<path class="st0" d="M118.2,227.3h-11.7c-0.6,0-1-0.4-1-1V212c0-0.6,0.4-1,1-1h11.7c0.6,0,1,0.4,1,1v14.3
						C119.2,226.9,118.7,227.3,118.2,227.3z M107.5,225.3h9.7V213h-9.7V225.3z"/>
				</g>
				<g>
					<path class="st0" d="M139.3,227.3h-11.7c-0.6,0-1-0.4-1-1V212c0-0.6,0.4-1,1-1h11.7c0.6,0,1,0.4,1,1v14.3
						C140.3,226.9,139.9,227.3,139.3,227.3z M128.6,225.3h9.7V213h-9.7V225.3z"/>
				</g>
				<g>
					<path class="st0" d="M160.5,227.3h-11.7c-0.6,0-1-0.4-1-1V212c0-0.6,0.4-1,1-1h11.7c0.6,0,1,0.4,1,1v14.3
						C161.5,226.9,161.1,227.3,160.5,227.3z M149.8,225.3h9.7V213h-9.7V225.3z"/>
				</g>
			</g>
			<g>
				<path class="st0" d="M118.2,254.7h-11.7c-0.6,0-1-0.4-1-1v-14.3c0-0.6,0.4-1,1-1h11.7c0.6,0,1,0.4,1,1v14.3
					C119.2,254.2,118.7,254.7,118.2,254.7z M107.5,252.7h9.7v-12.3h-9.7V252.7z"/>
			</g>
			<g>
				<path class="st0" d="M160.5,254.7h-11.7c-0.6,0-1-0.4-1-1v-11.7c0-0.6,0.4-1,1-1h11.7c0.6,0,1,0.4,1,1v11.7
					C161.5,254.2,161.1,254.7,160.5,254.7z M149.8,252.7h9.7v-9.7h-9.7V252.7z"/>
			</g>
			<g>
				<polyline class="st0" points="126.8,268.1 126.8,239.4 140,239.4 140,268.1 				"/>
				<path class="st0" d="M140,269.1c-0.6,0-1-0.4-1-1v-27.8h-11.3v27.8c0,0.6-0.4,1-1,1s-1-0.4-1-1v-28.8c0-0.6,0.4-1,1-1H140
					c0.6,0,1,0.4,1,1v28.8C141,268.7,140.6,269.1,140,269.1z"/>
			</g>
		</g>
	</g>
</g>
<g id="Layer_7">
</g>
</svg>
