<?xml version="1.0" encoding="UTF-8"?>
<svg width="54px" height="54px" viewBox="0 0 54 54" version="1.1" xmlns="http://www.w3.org/2000/svg" xmlns:xlink="http://www.w3.org/1999/xlink">
    <!-- Generator: Sketch 47.1 (45422) - http://www.bohemiancoding.com/sketch -->
    <title>Page 1</title>
    <desc>Created with Sketch.</desc>
    <defs></defs>
    <g id="Page-1" stroke="none" stroke-width="1" fill="none" fill-rule="evenodd">
        <g id="21-by-2050" transform="translate(-357.000000, -932.000000)" fill="#FFC8D7">
            <g id="Page-1" transform="translate(357.000000, 931.000000)">
                <g id="Group-3" transform="translate(0.000000, 0.880880)">
                    <path d="M26.8896857,50.81912 C13.7643796,50.81912 3.08560408,40.16122 3.08560408,27.05912 C3.08560408,13.95812 13.7643796,3.30022 26.8896857,3.30022 C40.0160939,3.30022 50.6937673,13.95812 50.6937673,27.05912 C50.6937673,40.16122 40.0160939,50.81912 26.8896857,50.81912 M26.8896857,0.21912 C12.0628286,0.21912 -0.000110204082,12.25972 -0.000110204082,27.05912 C-0.000110204082,41.85852 12.0628286,53.90022 26.8896857,53.90022 C41.7176449,53.90022 53.7805837,41.85852 53.7805837,27.05912 C53.7805837,12.25972 41.7176449,0.21912 26.8896857,0.21912" id="Fill-1"></path>
                </g>
                <path d="M37.1809837,28.0489 L28.4329837,38.4296 L28.4329837,13.2286 C28.4329837,12.3783 27.7420041,11.6886 26.8901265,11.6886 C26.0371469,11.6886 25.3472694,12.3783 25.3472694,13.2286 L25.3472694,38.4296 L16.5992694,28.0489 C16.0504531,27.3977 15.077351,27.3163 14.4249429,27.8619 C13.7725347,28.4097 13.6898816,29.381 14.2375959,30.0322 L25.7087388,43.6436 C26.0018816,43.9912 26.4349837,44.1925 26.8901265,44.1925 C27.3452694,44.1925 27.7772694,43.9912 28.0704122,43.6436 L39.5426571,30.0322 C40.0914735,29.381 40.0066163,28.4097 39.3553102,27.8619 C38.702902,27.3141 37.728698,27.3977 37.1809837,28.0489" id="Fill-4"></path>
            </g>
        </g>
    </g>
</svg>