<?xml version="1.0" encoding="utf-8"?>
<!-- Generator: Adobe Illustrator 22.0.1, SVG Export Plug-In . SVG Version: 6.00 Build 0)  -->
<svg version="1.1" id="Layer_1" xmlns="http://www.w3.org/2000/svg" xmlns:xlink="http://www.w3.org/1999/xlink" x="0px" y="0px"
	 viewBox="0 0 186 368.7" style="enable-background:new 0 0 186 368.7;" xml:space="preserve">
<style type="text/css">
	.st0{fill:#FFC8D7;}
	.st1{clip-path:url(#SVGID_2_);}
	.st2{fill:#FFFCF5;}
	.st3{clip-path:url(#SVGID_4_);}
	.st4{clip-path:url(#SVGID_6_);fill:#3723FF;}
	.st5{clip-path:url(#SVGID_8_);}
	.st6{clip-path:url(#SVGID_10_);fill:#3723FF;}
</style>
<rect x="5" y="8.6" class="st0" width="176" height="316.1"/>
<g>
	<defs>
		<rect id="SVGID_1_" x="5" y="8.6" width="176" height="316.1"/>
	</defs>
	<clipPath id="SVGID_2_">
		<use xlink:href="#SVGID_1_"  style="overflow:visible;"/>
	</clipPath>
	<g class="st1">
		<g>
			<path class="st2" d="M23.4,7.5c-0.5,0-1-0.4-1.1-0.9L20.3-4.2c-0.1-0.6,0.3-1.1,0.9-1.3c0.6-0.1,1.1,0.3,1.3,0.9l2.1,10.8
				c0.1,0.6-0.3,1.1-0.9,1.3C23.5,7.5,23.4,7.5,23.4,7.5z"/>
		</g>
		<g>
			<path class="st2" d="M3.4,14.1c-0.3,0-0.7-0.2-0.9-0.4c-0.4-0.5-0.3-1.2,0.2-1.5l8.8-6.5c0.5-0.4,1.2-0.3,1.5,0.2
				c0.4,0.5,0.3,1.2-0.2,1.5L4,13.9C3.8,14,3.6,14.1,3.4,14.1z"/>
		</g>
		<g>
			<path class="st2" d="M-18.9,18.9c-0.2,0-0.4,0-0.6-0.2c-0.5-0.3-0.7-1-0.4-1.5l5.7-9.4c0.3-0.5,1-0.7,1.5-0.4
				c0.5,0.3,0.7,1,0.4,1.5l-5.7,9.4C-18.2,18.7-18.5,18.9-18.9,18.9z"/>
		</g>
		<g>
			<path class="st2" d="M49.9,24c-0.2,0-0.5-0.1-0.7-0.2l-8.5-6.9c-0.5-0.4-0.5-1.1-0.2-1.5c0.4-0.5,1.1-0.5,1.5-0.2l8.5,6.9
				c0.5,0.4,0.5,1.1,0.2,1.5C50.5,23.8,50.2,24,49.9,24z"/>
		</g>
		<g>
			<path class="st2" d="M6.8,24.9c-0.4,0-0.7-0.2-0.9-0.5c-0.3-0.5-0.2-1.2,0.3-1.5l9.3-5.8c0.5-0.3,1.2-0.2,1.5,0.3
				c0.3,0.5,0.2,1.2-0.3,1.5l-9.3,5.8C7.2,24.9,7,24.9,6.8,24.9z"/>
		</g>
		<g>
			<path class="st2" d="M64.1,10.3c-0.3,0-0.6-0.1-0.8-0.4c-0.4-0.5-0.3-1.1,0.1-1.5l8.4-7C72.3,1,73,1.1,73.4,1.5
				C73.7,2,73.7,2.6,73.2,3l-8.4,7C64.6,10.2,64.3,10.3,64.1,10.3z"/>
		</g>
		<g>
			<path class="st2" d="M77.3,12.4c-0.2,0-0.4,0-0.6-0.2c-0.5-0.3-0.7-1-0.4-1.5L82,1.4c0.3-0.5,1-0.7,1.5-0.4
				c0.5,0.3,0.7,1,0.4,1.5l-5.7,9.4C78,12.2,77.7,12.4,77.3,12.4z"/>
		</g>
		<g>
			<path class="st2" d="M56.5,12.7c-0.5,0-1-0.4-1.1-0.9L52.9-1.3c-0.1-0.6,0.3-1.1,0.8-1.3c0.6-0.1,1.1,0.3,1.3,0.8l2.6,13.1
				c0.1,0.6-0.3,1.1-0.8,1.3C56.6,12.7,56.6,12.7,56.5,12.7z"/>
		</g>
		<g>
			<path class="st2" d="M-16,2.2c-0.4,0-0.8-0.3-1-0.7c-0.2-0.6,0-1.2,0.6-1.4l10.2-4.1c0.6-0.2,1.2,0,1.4,0.6
				c0.2,0.6,0,1.2-0.6,1.4l-10.2,4.1C-15.7,2.2-15.9,2.2-16,2.2z"/>
		</g>
		<g>
			<path class="st2" d="M-1.2,22.9c-0.4,0-0.8-0.2-1-0.6l-5.1-10.9c-0.3-0.5,0-1.2,0.5-1.4c0.5-0.3,1.2,0,1.4,0.5l5.1,10.9
				c0.3,0.5,0,1.2-0.5,1.4C-0.9,22.9-1.1,22.9-1.2,22.9z"/>
		</g>
		<g>
			<path class="st2" d="M45.6,8.8c-0.1,0-0.2,0-0.4-0.1L35,4.9c-0.6-0.2-0.8-0.8-0.6-1.4s0.8-0.8,1.4-0.6L46,6.7
				c0.6,0.2,0.8,0.8,0.6,1.4C46.5,8.5,46.1,8.8,45.6,8.8z"/>
		</g>
		<g>
			<path class="st2" d="M24.6,14.2c-0.5,0-0.9-0.3-1-0.8c-0.2-0.6,0.2-1.2,0.7-1.3l10.5-3.2c0.6-0.2,1.2,0.2,1.3,0.7
				c0.2,0.6-0.2,1.2-0.7,1.3L25,14.1C24.8,14.2,24.7,14.2,24.6,14.2z"/>
		</g>
		<g>
			<path class="st2" d="M74.8,25.3c-0.4,0-0.8-0.2-1-0.7l-4.3-10.1c-0.2-0.5,0-1.2,0.6-1.4c0.5-0.2,1.2,0,1.4,0.6l4.3,10.1
				c0.2,0.5,0,1.2-0.6,1.4C75.1,25.3,74.9,25.3,74.8,25.3z"/>
		</g>
		<g>
			<path class="st2" d="M97,9.1c-0.2,0-0.5-0.1-0.7-0.2l-8.5-7c-0.5-0.4-0.5-1.1-0.1-1.5c0.4-0.5,1.1-0.5,1.5-0.1l8.5,7
				c0.5,0.4,0.5,1.1,0.1,1.5C97.6,8.9,97.3,9.1,97,9.1z"/>
		</g>
		<g>
			<path class="st2" d="M85.3,22.9c-0.3,0-0.6-0.1-0.8-0.4c-0.4-0.5-0.3-1.1,0.1-1.5l8.4-7c0.5-0.4,1.1-0.3,1.5,0.1
				c0.4,0.5,0.3,1.1-0.1,1.5l-8.4,7C85.8,22.8,85.5,22.9,85.3,22.9z"/>
		</g>
		<g>
			<path class="st2" d="M86.4-4.1c-0.5,0-0.9-0.3-1.1-0.8c-0.1-0.6,0.2-1.2,0.8-1.3l10.7-2.3c0.6-0.1,1.2,0.2,1.3,0.8
				c0.1,0.6-0.2,1.2-0.8,1.3L86.6-4.1C86.6-4.1,86.5-4.1,86.4-4.1z"/>
		</g>
		<g>
			<path class="st2" d="M32.1,22.9c-0.1,0-0.2,0-0.3-0.1L24,20.4c-0.6-0.2-0.9-0.8-0.7-1.4c0.2-0.6,0.8-0.9,1.4-0.7l7.8,2.5
				c0.6,0.2,0.9,0.8,0.7,1.4C33,22.7,32.6,22.9,32.1,22.9z"/>
		</g>
		<g>
			<path class="st2" d="M60.4,28.7c-0.1,0-0.3,0-0.4-0.1c-0.5-0.2-0.8-0.9-0.5-1.4l4.5-9.9c0.2-0.5,0.9-0.8,1.4-0.5
				c0.5,0.2,0.8,0.9,0.5,1.4l-4.5,9.9C61.2,28.5,60.8,28.7,60.4,28.7z"/>
		</g>
		<g>
			<path class="st2" d="M56.1,36.8c-0.2,0-0.4,0-0.5-0.2l-9.4-5.6c-0.5-0.3-0.7-1-0.4-1.5c0.3-0.5,1-0.7,1.5-0.4l9.4,5.6
				c0.5,0.3,0.7,1,0.4,1.5C56.8,36.7,56.4,36.8,56.1,36.8z"/>
		</g>
		<g>
			<path class="st2" d="M13.4,39.2c-0.1,0-0.2,0-0.3-0.1c-0.6-0.2-0.9-0.8-0.7-1.4L17,23.7c0.2-0.6,0.8-0.9,1.4-0.7
				c0.6,0.2,0.9,0.8,0.7,1.4l-4.6,14.1C14.3,38.9,13.9,39.2,13.4,39.2z"/>
		</g>
		<g>
			<path class="st2" d="M5.2,39.2c-0.3,0-0.7-0.2-0.9-0.5l-7.7-10.9c-0.3-0.5-0.2-1.2,0.3-1.5c0.5-0.3,1.2-0.2,1.5,0.3l7.7,10.9
				C6.4,38,6.3,38.7,5.8,39C5.6,39.2,5.4,39.2,5.2,39.2z"/>
		</g>
		<g>
			<path class="st2" d="M64.5,37.6c-0.3,0-0.6-0.1-0.8-0.4c-0.4-0.5-0.3-1.1,0.1-1.5l8.5-7c0.5-0.4,1.1-0.3,1.5,0.1
				c0.4,0.5,0.3,1.1-0.1,1.5l-8.5,7C65,37.6,64.8,37.6,64.5,37.6z"/>
		</g>
		<g>
			<path class="st2" d="M80.9,38.5c-0.2,0-0.4,0-0.6-0.2c-0.5-0.3-0.7-1-0.4-1.5l5.7-9.4c0.3-0.5,1-0.7,1.5-0.4
				c0.5,0.3,0.7,1,0.4,1.5l-5.7,9.4C81.6,38.3,81.3,38.5,80.9,38.5z"/>
		</g>
		<g>
			<path class="st2" d="M29.6,39.2c-0.6,0-1.1-0.5-1.1-1.1l-0.1-8.4c0-0.6,0.5-1.1,1.1-1.1h0c0.6,0,1.1,0.5,1.1,1.1l0.1,8.4
				C30.7,38.7,30.2,39.2,29.6,39.2L29.6,39.2z"/>
		</g>
		<g>
			<path class="st2" d="M-12.4,33.2c-0.5,0-1-0.4-1.1-0.9l-1.8-10.8c-0.1-0.6,0.3-1.1,0.9-1.2c0.6-0.1,1.1,0.3,1.2,0.9l1.8,10.8
				c0.1,0.6-0.3,1.1-0.9,1.2C-12.3,33.2-12.4,33.2-12.4,33.2z"/>
		</g>
		<g>
			<path class="st2" d="M42.4,35.1c-0.4,0-0.7-0.2-0.9-0.6l-4.7-8.5c-0.3-0.5-0.1-1.2,0.4-1.5c0.5-0.3,1.2-0.1,1.5,0.4l4.7,8.5
				c0.3,0.5,0.1,1.2-0.4,1.5C42.8,35.1,42.6,35.1,42.4,35.1z"/>
		</g>
		<g>
			<path class="st2" d="M174,7.5c-0.5,0-1-0.4-1.1-0.9l-2.1-10.8c-0.1-0.6,0.3-1.1,0.9-1.3c0.6-0.1,1.1,0.3,1.3,0.9L175,6.2
				c0.1,0.6-0.3,1.1-0.9,1.3C174.1,7.5,174,7.5,174,7.5z"/>
		</g>
		<g>
			<path class="st2" d="M154,14.1c-0.3,0-0.7-0.2-0.9-0.4c-0.4-0.5-0.3-1.2,0.2-1.5l8.8-6.5c0.5-0.4,1.2-0.3,1.5,0.2
				c0.4,0.5,0.3,1.2-0.2,1.5l-8.8,6.5C154.4,14,154.2,14.1,154,14.1z"/>
		</g>
		<g>
			<path class="st2" d="M131.7,18.9c-0.2,0-0.4,0-0.6-0.2c-0.5-0.3-0.7-1-0.4-1.5l5.7-9.4c0.3-0.5,1-0.7,1.5-0.4
				c0.5,0.3,0.7,1,0.4,1.5l-5.7,9.4C132.4,18.7,132.1,18.9,131.7,18.9z"/>
		</g>
		<g>
			<path class="st2" d="M118.7,6.5c-0.2,0-0.4-0.1-0.6-0.2c-0.5-0.3-0.6-1-0.3-1.5l6.4-8.9c0.3-0.5,1-0.6,1.5-0.3
				c0.5,0.3,0.6,1,0.3,1.5L119.5,6C119.3,6.3,119,6.5,118.7,6.5z"/>
		</g>
		<g>
			<path class="st2" d="M157.4,24.9c-0.4,0-0.7-0.2-0.9-0.5c-0.3-0.5-0.2-1.2,0.3-1.5l9.3-5.8c0.5-0.3,1.2-0.2,1.5,0.3
				c0.3,0.5,0.2,1.2-0.3,1.5l-9.3,5.8C157.8,24.9,157.6,24.9,157.4,24.9z"/>
		</g>
		<g>
			<path class="st2" d="M106,16.2c-0.1,0-0.3,0-0.4-0.1c-0.5-0.2-0.8-0.9-0.6-1.4l4.3-10.1c0.2-0.5,0.9-0.8,1.4-0.6
				c0.5,0.2,0.8,0.9,0.6,1.4L107,15.6C106.8,16,106.4,16.2,106,16.2z"/>
		</g>
		<g>
			<path class="st2" d="M105.8,26.4c-0.3,0-0.6-0.1-0.8-0.4c-0.4-0.5-0.3-1.1,0.1-1.5l8.4-7c0.5-0.4,1.1-0.3,1.5,0.1
				c0.4,0.5,0.3,1.1-0.1,1.5l-8.4,7C106.3,26.3,106,26.4,105.8,26.4z"/>
		</g>
		<g>
			<path class="st2" d="M123.1,22.5c-0.6,0-1-0.4-1.1-1l-0.8-10.9c0-0.6,0.4-1.1,1-1.2c0.6,0,1.1,0.4,1.2,1l0.8,10.9
				C124.3,21.9,123.8,22.4,123.1,22.5C123.2,22.5,123.2,22.5,123.1,22.5z"/>
		</g>
		<g>
			<path class="st2" d="M134.6,2.2c-0.4,0-0.8-0.3-1-0.7c-0.2-0.6,0-1.2,0.6-1.4l10.2-4.1c0.6-0.2,1.2,0,1.4,0.6
				c0.2,0.6,0,1.2-0.6,1.4L135,2.2C134.8,2.2,134.7,2.2,134.6,2.2z"/>
		</g>
		<g>
			<path class="st2" d="M149.4,22.9c-0.4,0-0.8-0.2-1-0.6l-5.1-10.9c-0.3-0.5,0-1.2,0.5-1.4c0.5-0.3,1.2,0,1.4,0.5l5.1,10.9
				c0.3,0.5,0,1.2-0.5,1.4C149.7,22.9,149.5,22.9,149.4,22.9z"/>
		</g>
		<g>
			<path class="st2" d="M196.2,8.8c-0.1,0-0.2,0-0.4-0.1l-10.3-3.8c-0.6-0.2-0.8-0.8-0.6-1.4c0.2-0.6,0.8-0.8,1.4-0.6l10.3,3.8
				c0.6,0.2,0.8,0.8,0.6,1.4C197.1,8.5,196.7,8.8,196.2,8.8z"/>
		</g>
		<g>
			<path class="st2" d="M175.2,14.2c-0.5,0-0.9-0.3-1-0.8c-0.2-0.6,0.2-1.2,0.7-1.3l10.5-3.2c0.6-0.2,1.2,0.2,1.3,0.7
				c0.2,0.6-0.2,1.2-0.7,1.3l-10.5,3.2C175.4,14.2,175.3,14.2,175.2,14.2z"/>
		</g>
		<g>
			<path class="st2" d="M182.7,22.9c-0.1,0-0.2,0-0.3-0.1l-7.8-2.5c-0.6-0.2-0.9-0.8-0.7-1.4c0.2-0.6,0.8-0.9,1.4-0.7l7.8,2.5
				c0.6,0.2,0.9,0.8,0.7,1.4C183.6,22.7,183.2,22.9,182.7,22.9z"/>
		</g>
		<g>
			<path class="st2" d="M164,39.2c-0.1,0-0.2,0-0.3-0.1c-0.6-0.2-0.9-0.8-0.7-1.4l4.6-14.1c0.2-0.6,0.8-0.9,1.4-0.7
				c0.6,0.2,0.9,0.8,0.7,1.4l-4.6,14.1C164.9,38.9,164.5,39.2,164,39.2z"/>
		</g>
		<g>
			<path class="st2" d="M155.8,39.2c-0.3,0-0.7-0.2-0.9-0.5l-7.7-10.9c-0.3-0.5-0.2-1.2,0.3-1.5c0.5-0.3,1.2-0.2,1.5,0.3l7.7,10.9
				c0.3,0.5,0.2,1.2-0.3,1.5C156.2,39.2,156,39.2,155.8,39.2z"/>
		</g>
		<g>
			<path class="st2" d="M112.5,37.4c-0.1,0-0.2,0-0.2,0c-0.6-0.1-0.9-0.7-0.8-1.3l2.4-10.7c0.1-0.6,0.7-0.9,1.3-0.8
				c0.6,0.1,0.9,0.7,0.8,1.3l-2.4,10.7C113.4,37.1,112.9,37.4,112.5,37.4z"/>
		</g>
		<g>
			<path class="st2" d="M123.1,32.2c-0.3,0-0.7-0.2-0.9-0.4c-0.3-0.5-0.2-1.2,0.2-1.5l8.3-6c0.5-0.3,1.2-0.2,1.5,0.2
				c0.3,0.5,0.2,1.2-0.2,1.5l-8.3,6C123.5,32.1,123.3,32.2,123.1,32.2z"/>
		</g>
		<g>
			<path class="st2" d="M99.1,36.4c-0.5,0-1-0.4-1.1-0.9L96,24.8c-0.1-0.6,0.3-1.1,0.9-1.3c0.6-0.1,1.1,0.3,1.3,0.9l2.1,10.8
				c0.1,0.6-0.3,1.1-0.9,1.3C99.2,36.4,99.2,36.4,99.1,36.4z"/>
		</g>
		<g>
			<path class="st2" d="M180.2,39.2c-0.6,0-1.1-0.5-1.1-1.1l-0.1-8.4c0-0.6,0.5-1.1,1.1-1.1h0c0.6,0,1.1,0.5,1.1,1.1l0.1,8.4
				C181.2,38.7,180.8,39.2,180.2,39.2L180.2,39.2z"/>
		</g>
		<g>
			<path class="st2" d="M138.2,33.2c-0.5,0-1-0.4-1.1-0.9l-1.8-10.8c-0.1-0.6,0.3-1.1,0.9-1.2c0.6-0.1,1.1,0.3,1.2,0.9l1.8,10.8
				c0.1,0.6-0.3,1.1-0.9,1.2C138.3,33.2,138.2,33.2,138.2,33.2z"/>
		</g>
		<g>
			<path class="st2" d="M193,35.1c-0.4,0-0.7-0.2-0.9-0.6l-4.7-8.5c-0.3-0.5-0.1-1.2,0.4-1.5c0.5-0.3,1.2-0.1,1.5,0.4l4.7,8.5
				c0.3,0.5,0.1,1.2-0.4,1.5C193.4,35.1,193.2,35.1,193,35.1z"/>
		</g>
		<g>
			<path class="st2" d="M2.9,122.9c-0.2,0-0.4,0-0.6-0.2c-0.5-0.3-0.7-1-0.4-1.5l5.7-9.4c0.3-0.5,1-0.7,1.5-0.4
				c0.5,0.3,0.7,1,0.4,1.5l-5.7,9.4C3.6,122.7,3.2,122.9,2.9,122.9z"/>
		</g>
		<g>
			<path class="st2" d="M6.5,104.1c-0.4,0-0.8-0.2-0.9-0.6L1,95.3c-0.3-0.5-0.1-1.2,0.4-1.5c0.5-0.3,1.2-0.1,1.5,0.4l4.5,8.3
				c0.3,0.5,0.1,1.2-0.4,1.5C6.8,104.1,6.6,104.1,6.5,104.1z"/>
		</g>
		<g>
			<path class="st2" d="M-1.3,114.5c-0.6,0-1-0.4-1.1-1l-0.6-12.4c0-0.6,0.4-1.1,1-1.1c0.6,0,1.1,0.4,1.1,1l0.6,12.4
				C-0.2,113.9-0.6,114.5-1.3,114.5C-1.2,114.5-1.3,114.5-1.3,114.5z"/>
		</g>
		<g>
			<path class="st2" d="M23.4,155.9c-0.5,0-1-0.4-1.1-0.9l-2.1-10.8c-0.1-0.6,0.3-1.1,0.9-1.3c0.6-0.1,1.1,0.3,1.3,0.9l2.1,10.8
				c0.1,0.6-0.3,1.1-0.9,1.3C23.5,155.9,23.4,155.9,23.4,155.9z"/>
		</g>
		<g>
			<path class="st2" d="M-14.8,142c-0.1,0-0.1,0-0.2,0c-0.6-0.1-1-0.7-0.9-1.3l2-10.8c0.1-0.6,0.7-1,1.3-0.9c0.6,0.1,1,0.7,0.9,1.3
				l-2,10.8C-13.8,141.6-14.3,142-14.8,142z"/>
		</g>
		<g>
			<path class="st2" d="M-4.3,124.7c-0.2,0-0.5-0.1-0.7-0.2l-8.5-7c-0.5-0.4-0.5-1.1-0.1-1.5c0.4-0.5,1.1-0.5,1.5-0.1l8.5,7
				c0.5,0.4,0.5,1.1,0.1,1.5C-3.7,124.6-4,124.7-4.3,124.7z"/>
		</g>
		<g>
			<path class="st2" d="M-2,143.3c-0.4,0-0.9-0.3-1-0.7l-3.8-10.3c-0.2-0.6,0.1-1.2,0.6-1.4c0.6-0.2,1.2,0.1,1.4,0.6l3.8,10.3
				c0.2,0.6-0.1,1.2-0.6,1.4C-1.8,143.2-1.9,143.3-2,143.3z"/>
		</g>
		<g>
			<path class="st2" d="M-18.8,112.3c-0.5,0-0.9-0.3-1-0.8c-0.2-0.6,0.2-1.2,0.7-1.3l10.5-3c0.6-0.2,1.2,0.2,1.3,0.7
				c0.2,0.6-0.2,1.2-0.7,1.3l-10.5,3C-18.6,112.2-18.7,112.3-18.8,112.3z"/>
		</g>
		<g>
			<path class="st2" d="M3.4,162.5c-0.3,0-0.7-0.2-0.9-0.4c-0.4-0.5-0.3-1.2,0.2-1.5l8.8-6.5c0.5-0.4,1.2-0.3,1.5,0.2
				c0.4,0.5,0.3,1.2-0.2,1.5L4,162.3C3.8,162.5,3.6,162.5,3.4,162.5z"/>
		</g>
		<g>
			<path class="st2" d="M-18.9,167.3c-0.2,0-0.4,0-0.6-0.2c-0.5-0.3-0.7-1-0.4-1.5l5.7-9.4c0.3-0.5,1-0.7,1.5-0.4
				c0.5,0.3,0.7,1,0.4,1.5l-5.7,9.4C-18.2,167.1-18.5,167.3-18.9,167.3z"/>
		</g>
		<g>
			<path class="st2" d="M33.3,129.6c-0.4,0-0.8-0.2-1-0.7l-4.3-10.1c-0.2-0.5,0-1.2,0.6-1.4c0.5-0.2,1.2,0,1.4,0.6l4.3,10.1
				c0.2,0.5,0,1.2-0.6,1.4C33.5,129.6,33.4,129.6,33.3,129.6z"/>
		</g>
		<g>
			<path class="st2" d="M48.1,110.5c0,0-0.1,0-0.1,0c-0.6-0.1-1-0.6-1-1.2l1.4-14.7c0.1-0.6,0.6-1,1.2-1c0.6,0.1,1,0.6,1,1.2
				l-1.4,14.7C49.1,110,48.6,110.5,48.1,110.5z"/>
		</g>
		<g>
			<path class="st2" d="M15.3,141.3c-0.2,0-0.4,0-0.5-0.1c-0.5-0.3-0.7-1-0.4-1.5l5.5-9.5c0.3-0.5,1-0.7,1.5-0.4
				c0.5,0.3,0.7,1,0.4,1.5l-5.5,9.5C16.1,141.1,15.7,141.3,15.3,141.3z"/>
		</g>
		<g>
			<path class="st2" d="M35.6,138.3c-0.3,0-0.6-0.1-0.8-0.4c-0.4-0.5-0.3-1.1,0.1-1.5l8.5-7c0.5-0.4,1.1-0.3,1.5,0.1
				c0.4,0.5,0.3,1.1-0.1,1.5l-8.5,7C36.1,138.2,35.9,138.3,35.6,138.3z"/>
		</g>
		<g>
			<path class="st2" d="M49.9,172.4c-0.2,0-0.5-0.1-0.7-0.2l-8.5-6.9c-0.5-0.4-0.5-1.1-0.2-1.5c0.4-0.5,1.1-0.5,1.5-0.2l8.5,6.9
				c0.5,0.4,0.5,1.1,0.2,1.5C50.5,172.3,50.2,172.4,49.9,172.4z"/>
		</g>
		<g>
			<path class="st2" d="M45.5,122.3c-0.2,0-0.5-0.1-0.7-0.2l-8.4-7c-0.5-0.4-0.5-1.1-0.1-1.5c0.4-0.5,1.1-0.5,1.5-0.1l8.4,7
				c0.5,0.4,0.5,1.1,0.1,1.5C46.1,122.1,45.8,122.3,45.5,122.3z"/>
		</g>
		<g>
			<path class="st2" d="M19.5,120.7c-0.1,0-0.3,0-0.4-0.1c-0.6-0.2-0.8-0.8-0.6-1.4l3.8-10.3c0.2-0.6,0.8-0.8,1.4-0.6
				c0.6,0.2,0.8,0.8,0.6,1.4L20.5,120C20.4,120.4,20,120.7,19.5,120.7z"/>
		</g>
		<g>
			<path class="st2" d="M30.3,110.1c-0.4,0-0.7-0.2-0.9-0.5c-0.3-0.5-0.2-1.2,0.4-1.5l9.3-5.8c0.5-0.3,1.2-0.2,1.5,0.4
				c0.3,0.5,0.2,1.2-0.4,1.5l-9.3,5.8C30.7,110.1,30.5,110.1,30.3,110.1z"/>
		</g>
		<g>
			<path class="st2" d="M41.4,93.3c-0.2,0-0.4-0.1-0.6-0.2c-0.5-0.3-0.6-1-0.3-1.5l6.1-9.1c0.3-0.5,1-0.6,1.5-0.3
				c0.5,0.3,0.6,1,0.3,1.5l-6.1,9.1C42.1,93.2,41.8,93.3,41.4,93.3z"/>
		</g>
		<g>
			<path class="st2" d="M30.2,102.1C30.2,102.1,30.2,102.1,30.2,102.1c-0.7-0.1-1.1-0.6-1.1-1.2l1.1-14.1c0-0.6,0.6-1,1.2-1
				c0.6,0,1,0.6,1,1.2l-1.1,14.1C31.2,101.7,30.8,102.1,30.2,102.1z"/>
		</g>
		<g>
			<path class="st2" d="M-2.5,91.9c-0.1,0-0.3,0-0.4-0.1c-0.5-0.2-0.8-0.9-0.6-1.4l4.9-11.8C1.7,78,2.3,77.7,2.8,78
				c0.5,0.2,0.8,0.9,0.6,1.4l-4.9,11.8C-1.7,91.6-2.1,91.9-2.5,91.9z"/>
		</g>
		<g>
			<path class="st2" d="M4.7,150.2c-0.1,0-0.2,0-0.4-0.1c-0.6-0.2-0.9-0.8-0.7-1.4l3.6-10.3c0.2-0.6,0.8-0.9,1.4-0.7
				c0.6,0.2,0.9,0.8,0.7,1.4l-3.6,10.3C5.6,149.9,5.1,150.2,4.7,150.2z"/>
		</g>
		<g>
			<path class="st2" d="M32.1,145.7c-0.2,0-0.5-0.1-0.7-0.2l-8.5-7c-0.5-0.4-0.5-1.1-0.1-1.5c0.4-0.5,1.1-0.5,1.5-0.1l8.5,7
				c0.5,0.4,0.5,1.1,0.1,1.5C32.8,145.6,32.4,145.7,32.1,145.7z"/>
		</g>
		<g>
			<path class="st2" d="M-8.9,100.2c-0.4,0-0.7-0.2-0.9-0.5l-6.8-12c-0.3-0.5-0.1-1.2,0.4-1.5c0.5-0.3,1.2-0.1,1.5,0.4l6.8,12
				c0.3,0.5,0.1,1.2-0.4,1.5C-8.5,100.2-8.7,100.2-8.9,100.2z"/>
		</g>
		<g>
			<path class="st2" d="M6.8,173.4c-0.4,0-0.7-0.2-0.9-0.5c-0.3-0.5-0.2-1.2,0.3-1.5l9.3-5.8c0.5-0.3,1.2-0.2,1.5,0.3
				c0.3,0.5,0.2,1.2-0.3,1.5l-9.3,5.8C7.2,173.3,7,173.4,6.8,173.4z"/>
		</g>
		<g>
			<path class="st2" d="M60.4,60.2c-0.6,0-1-0.4-1.1-1l-0.7-13.2c0-0.6,0.4-1.1,1-1.1c0.6,0,1.1,0.4,1.1,1l0.7,13.2
				C61.5,59.6,61,60.1,60.4,60.2C60.4,60.2,60.4,60.2,60.4,60.2z"/>
		</g>
		<g>
			<path class="st2" d="M29,47.5c-0.2,0-0.5-0.1-0.7-0.2l-8.5-7c-0.5-0.4-0.5-1.1-0.1-1.5s1.1-0.5,1.5-0.1l8.5,7
				c0.5,0.4,0.5,1.1,0.1,1.5C29.6,47.4,29.3,47.5,29,47.5z"/>
		</g>
		<g>
			<path class="st2" d="M-3.9,53.4c-0.3,0-0.7-0.2-0.9-0.5c-0.3-0.5-0.2-1.2,0.3-1.5l11-7.7C7,43.4,7.7,43.5,8,44
				c0.3,0.5,0.2,1.2-0.3,1.5l-11,7.7C-3.4,53.3-3.7,53.4-3.9,53.4z"/>
		</g>
		<g>
			<path class="st2" d="M19.3,83.8c-0.4,0-0.7-0.2-0.9-0.5l-5.5-9.5c-0.3-0.5-0.1-1.2,0.4-1.5c0.5-0.3,1.2-0.1,1.5,0.4l5.5,9.5
				c0.3,0.5,0.1,1.2-0.4,1.5C19.7,83.7,19.5,83.8,19.3,83.8z"/>
		</g>
		<g>
			<path class="st2" d="M17.9,64c-0.1,0-0.1,0-0.2,0c-0.6-0.1-1-0.6-0.9-1.2l1.4-8.7c0.1-0.6,0.6-1,1.2-0.9c0.6,0.1,1,0.6,0.9,1.2
				L19,63.1C18.9,63.6,18.4,64,17.9,64z"/>
		</g>
		<g>
			<path class="st2" d="M37.9,58.5c-0.1,0-0.3,0-0.4-0.1l-10.1-4.4c-0.5-0.2-0.8-0.9-0.6-1.4c0.2-0.5,0.9-0.8,1.4-0.6l10.1,4.4
				c0.5,0.2,0.8,0.9,0.6,1.4C38.7,58.3,38.3,58.5,37.9,58.5z"/>
		</g>
		<g>
			<path class="st2" d="M7.8,57c-0.2,0-0.4,0-0.6-0.2c-0.5-0.3-0.7-1-0.4-1.5l5.7-9.4c0.3-0.5,1-0.7,1.5-0.4c0.5,0.3,0.7,1,0.4,1.5
				l-5.7,9.4C8.5,56.8,8.2,57,7.8,57z"/>
		</g>
		<g>
			<path class="st2" d="M56.3,94.8c-0.3,0-0.6-0.1-0.8-0.4c-0.4-0.4-0.4-1.1,0.1-1.5l9.8-8.7c0.4-0.4,1.1-0.3,1.5,0.1
				c0.4,0.4,0.4,1.1-0.1,1.5L57,94.5C56.8,94.7,56.5,94.8,56.3,94.8z"/>
		</g>
		<g>
			<path class="st2" d="M-12.1,82.2c-0.1,0-0.3,0-0.4-0.1c-0.6-0.2-0.8-0.8-0.6-1.4l4.9-12.6c0.2-0.6,0.8-0.8,1.4-0.6
				c0.6,0.2,0.8,0.8,0.6,1.4l-4.9,12.6C-11.3,82-11.7,82.2-12.1,82.2z"/>
		</g>
		<g>
			<path class="st2" d="M-7.1,61.7c-0.3,0-0.5-0.1-0.8-0.3l-7.8-7.7c-0.4-0.4-0.4-1.1,0-1.5s1.1-0.4,1.5,0l7.8,7.7
				c0.4,0.4,0.4,1.1,0,1.5C-6.5,61.6-6.8,61.7-7.1,61.7z"/>
		</g>
		<g>
			<path class="st2" d="M45,54c-0.2,0-0.4,0-0.5-0.1c-0.5-0.3-0.7-1-0.4-1.5l5.7-10c0.3-0.5,1-0.7,1.5-0.4c0.5,0.3,0.7,1,0.4,1.5
				l-5.7,10C45.7,53.8,45.3,54,45,54z"/>
		</g>
		<g>
			<path class="st2" d="M56.7,81.6c-0.6,0-1.1-0.5-1.1-1.1l-0.2-11c0-0.6,0.5-1.1,1.1-1.1c0.6,0,1.1,0.5,1.1,1.1l0.2,11
				C57.8,81.1,57.4,81.6,56.7,81.6C56.8,81.6,56.8,81.6,56.7,81.6z"/>
		</g>
		<g>
			<path class="st2" d="M57.5,64.3C57.5,64.3,57.5,64.3,57.5,64.3l-11-0.5c-0.6,0-1.1-0.5-1-1.1c0-0.6,0.5-1,1.1-1l11,0.5
				c0.6,0,1.1,0.5,1,1.1C58.6,63.8,58.1,64.3,57.5,64.3z"/>
		</g>
		<g>
			<path class="st2" d="M0.2,72.2c-0.3,0-0.6-0.1-0.8-0.4c-0.4-0.5-0.3-1.1,0.1-1.5l8.5-7c0.5-0.4,1.1-0.3,1.5,0.1
				c0.4,0.5,0.3,1.1-0.1,1.5l-8.5,7C0.7,72.1,0.5,72.2,0.2,72.2z"/>
		</g>
		<g>
			<path class="st2" d="M54.1,120.8c-0.1,0-0.3,0-0.4-0.1c-0.5-0.2-0.8-0.9-0.6-1.4l4.3-10.1c0.2-0.5,0.9-0.8,1.4-0.6
				c0.5,0.2,0.8,0.9,0.6,1.4l-4.3,10.1C54.9,120.5,54.5,120.8,54.1,120.8z"/>
		</g>
		<g>
			<path class="st2" d="M72.7,141.8c-0.5,0-1-0.4-1.1-0.9L69.8,130c-0.1-0.6,0.3-1.1,0.9-1.2c0.6-0.1,1.1,0.3,1.2,0.9l1.8,10.8
				c0.1,0.6-0.3,1.1-0.9,1.2C72.8,141.8,72.7,141.8,72.7,141.8z"/>
		</g>
		<g>
			<path class="st2" d="M76.5,128.4c-0.4,0-0.8-0.3-1-0.7l-4-10.2c-0.2-0.6,0.1-1.2,0.6-1.4c0.6-0.2,1.2,0.1,1.4,0.6l4,10.2
				c0.2,0.6-0.1,1.2-0.6,1.4C76.7,128.3,76.6,128.4,76.5,128.4z"/>
		</g>
		<g>
			<path class="st2" d="M64.1,158.7c-0.3,0-0.6-0.1-0.8-0.4c-0.4-0.5-0.3-1.1,0.1-1.5l8.4-7c0.5-0.4,1.1-0.3,1.5,0.1
				c0.4,0.5,0.3,1.1-0.1,1.5l-8.4,7C64.6,158.6,64.3,158.7,64.1,158.7z"/>
		</g>
		<g>
			<path class="st2" d="M77.3,160.9c-0.2,0-0.4,0-0.6-0.2c-0.5-0.3-0.7-1-0.4-1.5l5.7-9.4c0.3-0.5,1-0.7,1.5-0.4
				c0.5,0.3,0.7,1,0.4,1.5l-5.7,9.4C78,160.7,77.7,160.9,77.3,160.9z"/>
		</g>
		<g>
			<path class="st2" d="M56.5,161.1c-0.5,0-1-0.4-1.1-0.9l-2.6-13.1c-0.1-0.6,0.3-1.1,0.8-1.3c0.6-0.1,1.1,0.3,1.3,0.8l2.6,13.1
				c0.1,0.6-0.3,1.1-0.8,1.3C56.6,161.1,56.6,161.1,56.5,161.1z"/>
		</g>
		<g>
			<path class="st2" d="M82.5,91.8C82.4,91.8,82.4,91.8,82.5,91.8l-11-0.8c-0.6,0-1-0.6-1-1.2c0-0.6,0.6-1,1.2-1l10.9,0.8
				c0.6,0,1,0.6,1,1.2C83.5,91.4,83,91.8,82.5,91.8z"/>
		</g>
		<g>
			<path class="st2" d="M78.5,142.1c-0.3,0-0.6-0.1-0.8-0.4c-0.4-0.5-0.3-1.1,0.1-1.5l8.4-7c0.5-0.4,1.1-0.3,1.5,0.1
				c0.4,0.5,0.3,1.1-0.1,1.5l-8.4,7C79,142,78.8,142.1,78.5,142.1z"/>
		</g>
		<g>
			<path class="st2" d="M60,135.4c-0.2,0-0.3,0-0.5-0.1c-0.5-0.3-0.8-0.9-0.5-1.4l4.6-9.9c0.3-0.5,0.9-0.8,1.4-0.5
				c0.5,0.3,0.8,0.9,0.5,1.4l-4.6,9.9C60.8,135.1,60.4,135.4,60,135.4z"/>
		</g>
		<g>
			<path class="st2" d="M87.5,106.6c-0.3,0-0.5-0.1-0.7-0.3l-8.1-7.4c-0.4-0.4-0.5-1.1-0.1-1.5c0.4-0.4,1.1-0.5,1.5-0.1l8.1,7.4
				c0.4,0.4,0.5,1.1,0.1,1.5C88.1,106.5,87.8,106.6,87.5,106.6z"/>
		</g>
		<g>
			<path class="st2" d="M75.8,112.1c0,0-0.1,0-0.1,0l-10.9-1.2c-0.6-0.1-1-0.6-0.9-1.2c0.1-0.6,0.6-1,1.2-0.9l10.9,1.2
				c0.6,0.1,1,0.6,0.9,1.2C76.8,111.7,76.3,112.1,75.8,112.1z"/>
		</g>
		<g>
			<path class="st2" d="M67.9,50.2c-0.4,0-0.7-0.2-0.9-0.5c-0.3-0.5-0.2-1.2,0.4-1.5l9.3-5.8c0.5-0.3,1.2-0.2,1.5,0.4
				c0.3,0.5,0.2,1.2-0.4,1.5l-9.3,5.8C68.3,50.2,68.1,50.2,67.9,50.2z"/>
		</g>
		<g>
			<path class="st2" d="M67.5,67c-0.1,0-0.2,0-0.4-0.1c-0.6-0.2-0.9-0.8-0.7-1.4l3.6-10.3c0.2-0.6,0.8-0.9,1.4-0.7
				c0.6,0.2,0.9,0.8,0.7,1.4l-3.6,10.3C68.4,66.7,68,67,67.5,67z"/>
		</g>
		<g>
			<path class="st2" d="M21.4,72.7c-0.3,0-0.6-0.1-0.8-0.4c-0.4-0.5-0.3-1.1,0.1-1.5l10.1-8.4c0.5-0.4,1.1-0.3,1.5,0.1
				c0.4,0.5,0.3,1.1-0.1,1.5l-10.1,8.4C21.9,72.6,21.6,72.7,21.4,72.7z"/>
		</g>
		<g>
			<path class="st2" d="M43.8,75.5c-0.4,0-0.7-0.2-0.9-0.5l-5.5-9.5C37,65,37.2,64.3,37.7,64c0.5-0.3,1.2-0.1,1.5,0.4l5.5,9.5
				c0.3,0.5,0.1,1.2-0.4,1.5C44.1,75.4,44,75.5,43.8,75.5z"/>
		</g>
		<g>
			<path class="st2" d="M37.6,81.9c-0.2,0-0.3,0-0.5-0.1l-9.8-4.9c-0.5-0.3-0.7-0.9-0.5-1.4c0.3-0.5,0.9-0.7,1.4-0.5l9.8,4.9
				c0.5,0.3,0.7,0.9,0.5,1.4C38.4,81.7,38,81.9,37.6,81.9z"/>
		</g>
		<g>
			<path class="st2" d="M6.9,133.4c-0.3,0-0.6-0.1-0.8-0.4c-0.4-0.5-0.3-1.1,0.1-1.5l8.5-7c0.5-0.4,1.1-0.3,1.5,0.1
				c0.4,0.5,0.3,1.1-0.1,1.5l-8.5,7C7.4,133.4,7.1,133.4,6.9,133.4z"/>
		</g>
		<g>
			<path class="st2" d="M-16,150.7c-0.4,0-0.8-0.3-1-0.7c-0.2-0.6,0-1.2,0.6-1.4l10.2-4.1c0.6-0.2,1.2,0,1.4,0.6
				c0.2,0.6,0,1.2-0.6,1.4l-10.2,4.1C-15.7,150.7-15.9,150.7-16,150.7z"/>
		</g>
		<g>
			<path class="st2" d="M-1.2,171.4c-0.4,0-0.8-0.2-1-0.6l-5.1-10.9c-0.3-0.5,0-1.2,0.5-1.4c0.5-0.3,1.2,0,1.4,0.5l5.1,10.9
				c0.3,0.5,0,1.2-0.5,1.4C-0.9,171.4-1.1,171.4-1.2,171.4z"/>
		</g>
		<g>
			<path class="st2" d="M45.6,157.2c-0.1,0-0.2,0-0.4-0.1L35,153.4c-0.6-0.2-0.8-0.8-0.6-1.4s0.8-0.8,1.4-0.6l10.3,3.8
				c0.6,0.2,0.8,0.8,0.6,1.4C46.5,156.9,46.1,157.2,45.6,157.2z"/>
		</g>
		<g>
			<path class="st2" d="M36.2,51.1c0,0-0.1,0-0.1,0c-0.6-0.1-1-0.6-1-1.2l1-11.2c0.1-0.6,0.6-1,1.2-1c0.6,0.1,1,0.6,1,1.2l-1,11.2
				C37.2,50.7,36.8,51.1,36.2,51.1z"/>
		</g>
		<g>
			<path class="st2" d="M44.5,149.4c-0.1,0-0.2,0-0.3,0c-0.6-0.1-0.9-0.7-0.8-1.3l2.7-10.6c0.1-0.6,0.7-0.9,1.3-0.8
				c0.6,0.1,0.9,0.7,0.8,1.3l-2.7,10.6C45.4,149.1,45,149.4,44.5,149.4z"/>
		</g>
		<g>
			<path class="st2" d="M24.6,162.6c-0.5,0-0.9-0.3-1-0.8c-0.2-0.6,0.2-1.2,0.7-1.3l10.5-3.2c0.6-0.2,1.2,0.2,1.3,0.7
				c0.2,0.6-0.2,1.2-0.7,1.3L25,162.6C24.8,162.6,24.7,162.6,24.6,162.6z"/>
		</g>
		<g>
			<path class="st2" d="M15.9,103.1c-0.3,0-0.5-0.1-0.7-0.3c-0.4-0.4-0.5-1.1-0.1-1.5l9.8-10.6c0.4-0.4,1.1-0.5,1.5-0.1
				c0.4,0.4,0.5,1.1,0.1,1.5l-9.8,10.6C16.5,103,16.2,103.1,15.9,103.1z"/>
		</g>
		<g>
			<path class="st2" d="M74.8,173.8c-0.4,0-0.8-0.2-1-0.7L69.5,163c-0.2-0.5,0-1.2,0.6-1.4c0.5-0.2,1.2,0,1.4,0.6l4.3,10.1
				c0.2,0.5,0,1.2-0.6,1.4C75.1,173.7,74.9,173.8,74.8,173.8z"/>
		</g>
		<g>
			<path class="st2" d="M95,132.6c-0.2,0-0.5-0.1-0.7-0.2l-8.5-7c-0.5-0.4-0.5-1.1-0.1-1.5c0.4-0.5,1.1-0.5,1.5-0.1l8.5,7
				c0.5,0.4,0.5,1.1,0.1,1.5C95.6,132.5,95.3,132.6,95,132.6z"/>
		</g>
		<g>
			<path class="st2" d="M97,157.5c-0.2,0-0.5-0.1-0.7-0.2l-8.5-7c-0.5-0.4-0.5-1.1-0.1-1.5c0.4-0.5,1.1-0.5,1.5-0.1l8.5,7
				c0.5,0.4,0.5,1.1,0.1,1.5C97.6,157.4,97.3,157.5,97,157.5z"/>
		</g>
		<g>
			<path class="st2" d="M81.4,114.5c-0.5,0-0.9-0.3-1-0.8c-0.2-0.6,0.2-1.2,0.7-1.3l10.5-3c0.6-0.2,1.2,0.2,1.3,0.7
				c0.2,0.6-0.2,1.2-0.7,1.3l-10.5,3C81.6,114.5,81.5,114.5,81.4,114.5z"/>
		</g>
		<g>
			<path class="st2" d="M92.7,96.4c-0.4,0-0.7-0.2-0.9-0.5l-5.5-9.5c-0.3-0.5-0.1-1.2,0.4-1.5c0.5-0.3,1.2-0.1,1.5,0.4l5.5,9.5
				c0.3,0.5,0.1,1.2-0.4,1.5C93,96.3,92.8,96.4,92.7,96.4z"/>
		</g>
		<g>
			<path class="st2" d="M91.4,69.1c-0.5,0-0.9-0.3-1-0.8c-0.1-0.6,0.2-1.2,0.8-1.3l10.6-2.6c0.6-0.1,1.2,0.2,1.3,0.8
				c0.1,0.6-0.2,1.2-0.8,1.3l-10.6,2.6C91.6,69.1,91.5,69.1,91.4,69.1z"/>
		</g>
		<g>
			<path class="st2" d="M85.3,171.3c-0.3,0-0.6-0.1-0.8-0.4c-0.4-0.5-0.3-1.1,0.1-1.5l8.4-7c0.5-0.4,1.1-0.3,1.5,0.1
				c0.4,0.5,0.3,1.1-0.1,1.5l-8.4,7C85.8,171.3,85.5,171.3,85.3,171.3z"/>
		</g>
		<g>
			<path class="st2" d="M77.9,79.4c-0.4,0-0.8-0.2-1-0.7l-4.3-10.1c-0.2-0.5,0-1.2,0.6-1.4c0.5-0.2,1.2,0,1.4,0.6l4.3,10.1
				c0.2,0.5,0,1.2-0.6,1.4C78.2,79.3,78,79.4,77.9,79.4z"/>
		</g>
		<g>
			<path class="st2" d="M86.4,144.4c-0.5,0-0.9-0.3-1.1-0.8c-0.1-0.6,0.2-1.2,0.8-1.3l10.7-2.3c0.6-0.1,1.2,0.2,1.3,0.8
				c0.1,0.6-0.2,1.2-0.8,1.3l-10.7,2.3C86.6,144.4,86.5,144.4,86.4,144.4z"/>
		</g>
		<g>
			<path class="st2" d="M59.7,102.1c-0.5,0-0.9-0.3-1-0.8c-0.1-0.6,0.2-1.2,0.8-1.3l13.3-3.2c0.6-0.1,1.2,0.2,1.3,0.8
				c0.1,0.6-0.2,1.2-0.8,1.3L60,102.1C59.9,102.1,59.8,102.1,59.7,102.1z"/>
		</g>
		<g>
			<path class="st2" d="M65.6,148.6c-0.3,0-0.6-0.1-0.8-0.3l-7.7-7.8c-0.4-0.4-0.4-1.1,0-1.5c0.4-0.4,1.1-0.4,1.5,0l7.7,7.8
				c0.4,0.4,0.4,1.1,0,1.5C66.2,148.5,65.9,148.6,65.6,148.6z"/>
		</g>
		<g>
			<path class="st2" d="M83.7,63.9c-0.4,0-0.8-0.2-1-0.6l-5.1-9.7c-0.3-0.5-0.1-1.2,0.4-1.5c0.5-0.3,1.2-0.1,1.5,0.4l5.1,9.7
				c0.3,0.5,0.1,1.2-0.4,1.5C84,63.8,83.9,63.9,83.7,63.9z"/>
		</g>
		<g>
			<path class="st2" d="M93.9,77.9C93.8,77.9,93.8,77.9,93.9,77.9l-11-0.8c-0.6,0-1-0.6-1-1.2c0-0.6,0.6-1,1.2-1L94,75.8
				c0.6,0,1,0.6,1,1.2C94.9,77.5,94.4,77.9,93.9,77.9z"/>
		</g>
		<g>
			<path class="st2" d="M12.9,95.7c-0.5,0-0.9-0.3-1-0.8L8.9,81.9c-0.1-0.6,0.2-1.2,0.8-1.3c0.6-0.1,1.2,0.2,1.3,0.8l2.9,12.9
				c0.1,0.6-0.2,1.2-0.8,1.3C13.1,95.7,13,95.7,12.9,95.7z"/>
		</g>
		<g>
			<path class="st2" d="M52.7,136.1c-0.5,0-1-0.4-1.1-0.9l-2.2-10.8c-0.1-0.6,0.3-1.1,0.8-1.3c0.6-0.1,1.1,0.3,1.3,0.8l2.2,10.8
				c0.1,0.6-0.3,1.1-0.8,1.3C52.8,136.1,52.7,136.1,52.7,136.1z"/>
		</g>
		<g>
			<path class="st2" d="M73.1,83.3c-0.2,0-0.4,0-0.5-0.1L63,77.9c-0.5-0.3-0.7-0.9-0.4-1.5c0.3-0.5,0.9-0.7,1.5-0.4l9.6,5.3
				c0.5,0.3,0.7,0.9,0.4,1.5C73.8,83.1,73.5,83.3,73.1,83.3z"/>
		</g>
		<g>
			<path class="st2" d="M32.1,171.4c-0.1,0-0.2,0-0.3-0.1l-7.8-2.5c-0.6-0.2-0.9-0.8-0.7-1.4c0.2-0.6,0.8-0.9,1.4-0.7l7.8,2.5
				c0.6,0.2,0.9,0.8,0.7,1.4C33,171.1,32.6,171.4,32.1,171.4z"/>
		</g>
		<g>
			<path class="st2" d="M-5.8,47.6c0,0-0.1,0-0.1,0c-0.6-0.1-1-0.6-1-1.2l1.1-10.9c0.1-0.6,0.6-1,1.2-1c0.6,0.1,1,0.6,1,1.2
				l-1.1,10.9C-4.8,47.2-5.3,47.6-5.8,47.6z"/>
		</g>
		<g>
			<path class="st2" d="M86.7,52.7c-0.1,0-0.3,0-0.4-0.1c-0.6-0.2-0.8-0.8-0.6-1.4L89.5,41c0.2-0.6,0.8-0.8,1.4-0.6
				c0.6,0.2,0.8,0.8,0.6,1.4L87.7,52C87.5,52.5,87.1,52.7,86.7,52.7z"/>
		</g>
		<g>
			<path class="st2" d="M60.4,177.2c-0.1,0-0.3,0-0.4-0.1c-0.5-0.2-0.8-0.9-0.5-1.4l4.5-9.9c0.2-0.5,0.9-0.8,1.4-0.5
				c0.5,0.2,0.8,0.9,0.5,1.4l-4.5,9.9C61.2,176.9,60.8,177.2,60.4,177.2z"/>
		</g>
		<g>
			<path class="st2" d="M56.1,185.3c-0.2,0-0.4,0-0.5-0.2l-9.4-5.6c-0.5-0.3-0.7-1-0.4-1.5c0.3-0.5,1-0.7,1.5-0.4l9.4,5.6
				c0.5,0.3,0.7,1,0.4,1.5C56.8,185.1,56.4,185.3,56.1,185.3z"/>
		</g>
		<g>
			<path class="st2" d="M13.4,187.7c-0.1,0-0.2,0-0.3-0.1c-0.6-0.2-0.9-0.8-0.7-1.4l4.6-14.1c0.2-0.6,0.8-0.9,1.4-0.7
				c0.6,0.2,0.9,0.8,0.7,1.4l-4.6,14.1C14.3,187.4,13.9,187.7,13.4,187.7z"/>
		</g>
		<g>
			<path class="st2" d="M5.2,187.7c-0.3,0-0.7-0.2-0.9-0.5l-7.7-10.9c-0.3-0.5-0.2-1.2,0.3-1.5c0.5-0.3,1.2-0.2,1.5,0.3L6.1,186
				c0.3,0.5,0.2,1.2-0.3,1.5C5.6,187.6,5.4,187.7,5.2,187.7z"/>
		</g>
		<g>
			<path class="st2" d="M64.5,186.1c-0.3,0-0.6-0.1-0.8-0.4c-0.4-0.5-0.3-1.1,0.1-1.5l8.5-7c0.5-0.4,1.1-0.3,1.5,0.1
				c0.4,0.5,0.3,1.1-0.1,1.5l-8.5,7C65,186,64.8,186.1,64.5,186.1z"/>
		</g>
		<g>
			<path class="st2" d="M80.9,186.9c-0.2,0-0.4,0-0.6-0.2c-0.5-0.3-0.7-1-0.4-1.5l5.7-9.4c0.3-0.5,1-0.7,1.5-0.4
				c0.5,0.3,0.7,1,0.4,1.5l-5.7,9.4C81.6,186.7,81.3,186.9,80.9,186.9z"/>
		</g>
		<g>
			<path class="st2" d="M29.6,187.7c-0.6,0-1.1-0.5-1.1-1.1l-0.1-8.4c0-0.6,0.5-1.1,1.1-1.1h0c0.6,0,1.1,0.5,1.1,1.1l0.1,8.4
				C30.7,187.2,30.2,187.7,29.6,187.7L29.6,187.7z"/>
		</g>
		<g>
			<path class="st2" d="M-12.4,181.7c-0.5,0-1-0.4-1.1-0.9l-1.8-10.8c-0.1-0.6,0.3-1.1,0.9-1.2c0.6-0.1,1.1,0.3,1.2,0.9l1.8,10.8
				c0.1,0.6-0.3,1.1-0.9,1.2C-12.3,181.6-12.4,181.7-12.4,181.7z"/>
		</g>
		<g>
			<path class="st2" d="M42.4,183.6c-0.4,0-0.7-0.2-0.9-0.6l-4.7-8.5c-0.3-0.5-0.1-1.2,0.4-1.5c0.5-0.3,1.2-0.1,1.5,0.4l4.7,8.5
				c0.3,0.5,0.1,1.2-0.4,1.5C42.8,183.5,42.6,183.6,42.4,183.6z"/>
		</g>
		<g>
			<path class="st2" d="M153.5,122.9c-0.2,0-0.4,0-0.6-0.2c-0.5-0.3-0.7-1-0.4-1.5l5.7-9.4c0.3-0.5,1-0.7,1.5-0.4
				c0.5,0.3,0.7,1,0.4,1.5l-5.7,9.4C154.2,122.7,153.8,122.9,153.5,122.9z"/>
		</g>
		<g>
			<path class="st2" d="M157.1,104.1c-0.4,0-0.8-0.2-0.9-0.6l-4.5-8.3c-0.3-0.5-0.1-1.2,0.4-1.5c0.5-0.3,1.2-0.1,1.5,0.4l4.5,8.3
				c0.3,0.5,0.1,1.2-0.4,1.5C157.4,104.1,157.2,104.1,157.1,104.1z"/>
		</g>
		<g>
			<path class="st2" d="M149.3,114.5c-0.6,0-1-0.4-1.1-1l-0.6-12.4c0-0.6,0.4-1.1,1-1.1c0.6,0,1.1,0.4,1.1,1l0.6,12.4
				C150.4,113.9,150,114.5,149.3,114.5C149.3,114.5,149.3,114.5,149.3,114.5z"/>
		</g>
		<g>
			<path class="st2" d="M174,155.9c-0.5,0-1-0.4-1.1-0.9l-2.1-10.8c-0.1-0.6,0.3-1.1,0.9-1.3c0.6-0.1,1.1,0.3,1.3,0.9l2.1,10.8
				c0.1,0.6-0.3,1.1-0.9,1.3C174.1,155.9,174,155.9,174,155.9z"/>
		</g>
		<g>
			<path class="st2" d="M135.8,142c-0.1,0-0.1,0-0.2,0c-0.6-0.1-1-0.7-0.9-1.3l2-10.8c0.1-0.6,0.7-1,1.3-0.9c0.6,0.1,1,0.7,0.9,1.3
				l-2,10.8C136.8,141.6,136.3,142,135.8,142z"/>
		</g>
		<g>
			<path class="st2" d="M126.7,139.4c-0.2,0-0.5-0.1-0.7-0.2l-8.5-7c-0.5-0.4-0.5-1.1-0.1-1.5c0.4-0.5,1.1-0.5,1.5-0.1l8.5,7
				c0.5,0.4,0.5,1.1,0.1,1.5C127.4,139.2,127,139.4,126.7,139.4z"/>
		</g>
		<g>
			<path class="st2" d="M146.3,124.7c-0.2,0-0.5-0.1-0.7-0.2l-8.5-7c-0.5-0.4-0.5-1.1-0.1-1.5c0.4-0.5,1.1-0.5,1.5-0.1l8.5,7
				c0.5,0.4,0.5,1.1,0.1,1.5C146.9,124.6,146.6,124.7,146.3,124.7z"/>
		</g>
		<g>
			<path class="st2" d="M148.6,143.3c-0.4,0-0.9-0.3-1-0.7l-3.8-10.3c-0.2-0.6,0.1-1.2,0.6-1.4c0.6-0.2,1.2,0.1,1.4,0.6l3.8,10.3
				c0.2,0.6-0.1,1.2-0.6,1.4C148.8,143.2,148.7,143.3,148.6,143.3z"/>
		</g>
		<g>
			<path class="st2" d="M106.4,148.9c-0.3,0-0.6-0.1-0.8-0.4c-0.4-0.5-0.3-1.1,0.1-1.5l10.8-9.2c0.5-0.4,1.1-0.3,1.5,0.1
				c0.4,0.5,0.3,1.1-0.1,1.5l-10.8,9.2C106.9,148.9,106.7,148.9,106.4,148.9z"/>
		</g>
		<g>
			<path class="st2" d="M131.7,112.3c-0.5,0-0.9-0.3-1-0.8c-0.2-0.6,0.2-1.2,0.7-1.3l10.5-3c0.6-0.2,1.2,0.2,1.3,0.7
				c0.2,0.6-0.2,1.2-0.7,1.3l-10.5,3C131.9,112.2,131.8,112.3,131.7,112.3z"/>
		</g>
		<g>
			<path class="st2" d="M154,162.5c-0.3,0-0.7-0.2-0.9-0.4c-0.4-0.5-0.3-1.2,0.2-1.5l8.8-6.5c0.5-0.4,1.2-0.3,1.5,0.2
				c0.4,0.5,0.3,1.2-0.2,1.5l-8.8,6.5C154.4,162.5,154.2,162.5,154,162.5z"/>
		</g>
		<g>
			<path class="st2" d="M131.7,167.3c-0.2,0-0.4,0-0.6-0.2c-0.5-0.3-0.7-1-0.4-1.5l5.7-9.4c0.3-0.5,1-0.7,1.5-0.4
				c0.5,0.3,0.7,1,0.4,1.5l-5.7,9.4C132.4,167.1,132.1,167.3,131.7,167.3z"/>
		</g>
		<g>
			<path class="st2" d="M183.8,129.6c-0.4,0-0.8-0.2-1-0.7l-4.3-10.1c-0.2-0.5,0-1.2,0.6-1.4c0.5-0.2,1.2,0,1.4,0.6l4.3,10.1
				c0.2,0.5,0,1.2-0.6,1.4C184.1,129.6,184,129.6,183.8,129.6z"/>
		</g>
		<g>
			<path class="st2" d="M165.9,141.3c-0.2,0-0.4,0-0.5-0.1c-0.5-0.3-0.7-1-0.4-1.5l5.5-9.5c0.3-0.5,1-0.7,1.5-0.4
				c0.5,0.3,0.7,1,0.4,1.5l-5.5,9.5C166.7,141.1,166.3,141.3,165.9,141.3z"/>
		</g>
		<g>
			<path class="st2" d="M186.2,138.3c-0.3,0-0.6-0.1-0.8-0.4c-0.4-0.5-0.3-1.1,0.1-1.5l8.5-7c0.5-0.4,1.1-0.3,1.5,0.1
				c0.4,0.5,0.3,1.1-0.1,1.5l-8.5,7C186.7,138.2,186.5,138.3,186.2,138.3z"/>
		</g>
		<g>
			<path class="st2" d="M196.1,122.3c-0.2,0-0.5-0.1-0.7-0.2l-8.4-7c-0.5-0.4-0.5-1.1-0.1-1.5c0.4-0.5,1.1-0.5,1.5-0.1l8.4,7
				c0.5,0.4,0.5,1.1,0.1,1.5C196.7,122.1,196.4,122.3,196.1,122.3z"/>
		</g>
		<g>
			<path class="st2" d="M170.1,120.7c-0.1,0-0.3,0-0.4-0.1c-0.6-0.2-0.8-0.8-0.6-1.4l3.8-10.3c0.2-0.6,0.8-0.8,1.4-0.6
				c0.6,0.2,0.8,0.8,0.6,1.4l-3.8,10.3C171,120.4,170.6,120.7,170.1,120.7z"/>
		</g>
		<g>
			<path class="st2" d="M180.9,110.1c-0.4,0-0.7-0.2-0.9-0.5c-0.3-0.5-0.2-1.2,0.4-1.5l9.3-5.8c0.5-0.3,1.2-0.2,1.5,0.4
				c0.3,0.5,0.2,1.2-0.4,1.5l-9.3,5.8C181.3,110.1,181.1,110.1,180.9,110.1z"/>
		</g>
		<g>
			<path class="st2" d="M118.7,154.9c-0.2,0-0.4-0.1-0.6-0.2c-0.5-0.3-0.6-1-0.3-1.5l6.4-8.9c0.3-0.5,1-0.6,1.5-0.3
				c0.5,0.3,0.6,1,0.3,1.5l-6.4,8.9C119.3,154.7,119,154.9,118.7,154.9z"/>
		</g>
		<g>
			<path class="st2" d="M192,93.3c-0.2,0-0.4-0.1-0.6-0.2c-0.5-0.3-0.6-1-0.3-1.5l6.1-9.1c0.3-0.5,1-0.6,1.5-0.3
				c0.5,0.3,0.6,1,0.3,1.5l-6.1,9.1C192.7,93.2,192.3,93.3,192,93.3z"/>
		</g>
		<g>
			<path class="st2" d="M128.9,129.1c-0.5,0-0.9-0.3-1-0.7l-4.4-13.4c-0.2-0.6,0.1-1.2,0.7-1.4c0.6-0.2,1.2,0.1,1.4,0.7l4.4,13.4
				c0.2,0.6-0.1,1.2-0.7,1.4C129.1,129,129,129.1,128.9,129.1z"/>
		</g>
		<g>
			<path class="st2" d="M126.7,75.9c-0.2,0-0.5-0.1-0.7-0.3c-0.5-0.4-0.5-1.1-0.1-1.5l7.1-8.4c0.4-0.5,1.1-0.5,1.5-0.1
				c0.5,0.4,0.5,1.1,0.1,1.5l-7.1,8.4C127.3,75.8,127,75.9,126.7,75.9z"/>
		</g>
		<g>
			<path class="st2" d="M180.8,102.1C180.8,102.1,180.7,102.1,180.8,102.1c-0.7-0.1-1.1-0.6-1.1-1.2l1.1-14.1c0-0.6,0.6-1,1.2-1
				c0.6,0,1,0.6,1,1.2l-1.1,14.1C181.8,101.7,181.4,102.1,180.8,102.1z"/>
		</g>
		<g>
			<path class="st2" d="M148.1,91.9c-0.1,0-0.3,0-0.4-0.1c-0.5-0.2-0.8-0.9-0.6-1.4l4.9-11.8c0.2-0.5,0.9-0.8,1.4-0.6
				c0.5,0.2,0.8,0.9,0.6,1.4l-4.9,11.8C148.9,91.6,148.5,91.9,148.1,91.9z"/>
		</g>
		<g>
			<path class="st2" d="M155.3,150.2c-0.1,0-0.2,0-0.4-0.1c-0.6-0.2-0.9-0.8-0.7-1.4l3.6-10.3c0.2-0.6,0.8-0.9,1.4-0.7
				c0.6,0.2,0.9,0.8,0.7,1.4l-3.6,10.3C156.1,149.9,155.7,150.2,155.3,150.2z"/>
		</g>
		<g>
			<path class="st2" d="M182.7,145.7c-0.2,0-0.5-0.1-0.7-0.2l-8.5-7c-0.5-0.4-0.5-1.1-0.1-1.5c0.4-0.5,1.1-0.5,1.5-0.1l8.5,7
				c0.5,0.4,0.5,1.1,0.1,1.5C183.3,145.6,183,145.7,182.7,145.7z"/>
		</g>
		<g>
			<path class="st2" d="M141.7,100.2c-0.4,0-0.7-0.2-0.9-0.5l-6.8-12c-0.3-0.5-0.1-1.2,0.4-1.5c0.5-0.3,1.2-0.1,1.5,0.4l6.8,12
				c0.3,0.5,0.1,1.2-0.4,1.5C142,100.2,141.9,100.2,141.7,100.2z"/>
		</g>
		<g>
			<path class="st2" d="M157.4,173.4c-0.4,0-0.7-0.2-0.9-0.5c-0.3-0.5-0.2-1.2,0.3-1.5l9.3-5.8c0.5-0.3,1.2-0.2,1.5,0.3
				c0.3,0.5,0.2,1.2-0.3,1.5l-9.3,5.8C157.8,173.3,157.6,173.4,157.4,173.4z"/>
		</g>
		<g>
			<path class="st2" d="M131.4,106.1c-0.1,0-0.2,0-0.3,0l-10.6-2.8c-0.6-0.2-0.9-0.7-0.8-1.3c0.2-0.6,0.7-0.9,1.3-0.8l10.6,2.8
				c0.6,0.2,0.9,0.7,0.8,1.3C132.3,105.8,131.9,106.1,131.4,106.1z"/>
		</g>
		<g>
			<path class="st2" d="M125.7,91.9c-0.2,0-0.3,0-0.5-0.1c-0.5-0.3-0.7-0.9-0.4-1.5l4.2-7.8c0.3-0.5,0.9-0.7,1.5-0.4
				c0.5,0.3,0.7,0.9,0.4,1.5l-4.2,7.8C126.4,91.7,126,91.9,125.7,91.9z"/>
		</g>
		<g>
			<path class="st2" d="M179.6,47.5c-0.2,0-0.5-0.1-0.7-0.2l-8.5-7c-0.5-0.4-0.5-1.1-0.1-1.5c0.4-0.5,1.1-0.5,1.5-0.1l8.5,7
				c0.5,0.4,0.5,1.1,0.1,1.5C180.2,47.4,179.9,47.5,179.6,47.5z"/>
		</g>
		<g>
			<path class="st2" d="M146.7,53.4c-0.3,0-0.7-0.2-0.9-0.5c-0.3-0.5-0.2-1.2,0.3-1.5l11-7.7c0.5-0.3,1.2-0.2,1.5,0.3
				c0.3,0.5,0.2,1.2-0.3,1.5l-11,7.7C147.1,53.3,146.9,53.4,146.7,53.4z"/>
		</g>
		<g>
			<path class="st2" d="M137.8,44.4c-0.2,0-0.4-0.1-0.6-0.2l-9.6-6.6c-0.5-0.3-0.6-1-0.3-1.5c0.3-0.5,1-0.6,1.5-0.3l9.6,6.6
				c0.5,0.3,0.6,1,0.3,1.5C138.5,44.2,138.2,44.4,137.8,44.4z"/>
		</g>
		<g>
			<path class="st2" d="M169.9,83.8c-0.4,0-0.7-0.2-0.9-0.5l-5.5-9.5c-0.3-0.5-0.1-1.2,0.4-1.5c0.5-0.3,1.2-0.1,1.5,0.4l5.5,9.5
				c0.3,0.5,0.1,1.2-0.4,1.5C170.3,83.7,170.1,83.8,169.9,83.8z"/>
		</g>
		<g>
			<path class="st2" d="M168.5,64c-0.1,0-0.1,0-0.2,0c-0.6-0.1-1-0.6-0.9-1.2l1.4-8.7c0.1-0.6,0.6-1,1.2-0.9c0.6,0.1,1,0.6,0.9,1.2
				l-1.4,8.7C169.5,63.6,169,64,168.5,64z"/>
		</g>
		<g>
			<path class="st2" d="M188.5,58.5c-0.1,0-0.3,0-0.4-0.1L178,54.1c-0.5-0.2-0.8-0.9-0.6-1.4c0.2-0.5,0.9-0.8,1.4-0.6l10.1,4.4
				c0.5,0.2,0.8,0.9,0.6,1.4C189.3,58.3,188.9,58.5,188.5,58.5z"/>
		</g>
		<g>
			<path class="st2" d="M158.4,57c-0.2,0-0.4,0-0.6-0.2c-0.5-0.3-0.7-1-0.4-1.5l5.7-9.4c0.3-0.5,1-0.7,1.5-0.4
				c0.5,0.3,0.7,1,0.4,1.5l-5.7,9.4C159.1,56.8,158.7,57,158.4,57z"/>
		</g>
		<g>
			<path class="st2" d="M138.5,82.2c-0.1,0-0.3,0-0.4-0.1c-0.6-0.2-0.8-0.8-0.6-1.4l4.9-12.6c0.2-0.6,0.8-0.8,1.4-0.6
				c0.6,0.2,0.8,0.8,0.6,1.4l-4.9,12.6C139.3,82,138.9,82.2,138.5,82.2z"/>
		</g>
		<g>
			<path class="st2" d="M143.5,61.7c-0.3,0-0.5-0.1-0.8-0.3l-7.8-7.7c-0.4-0.4-0.4-1.1,0-1.5s1.1-0.4,1.5,0l7.8,7.7
				c0.4,0.4,0.4,1.1,0,1.5C144.1,61.6,143.8,61.7,143.5,61.7z"/>
		</g>
		<g>
			<path class="st2" d="M150.8,72.2c-0.3,0-0.6-0.1-0.8-0.4c-0.4-0.5-0.3-1.1,0.1-1.5l8.5-7c0.5-0.4,1.1-0.3,1.5,0.1
				c0.4,0.5,0.3,1.1-0.1,1.5l-8.5,7C151.3,72.1,151.1,72.2,150.8,72.2z"/>
		</g>
		<g>
			<path class="st2" d="M105.9,53.4c-0.3,0-0.5-0.1-0.7-0.3c-0.4-0.4-0.5-1.1-0.1-1.5l7-7.7c0.4-0.4,1.1-0.5,1.5-0.1
				c0.4,0.4,0.5,1.1,0.1,1.5l-7,7.7C106.5,53.3,106.2,53.4,105.9,53.4z"/>
		</g>
		<g>
			<path class="st2" d="M120.4,65.1c-0.3,0-0.6-0.1-0.8-0.4c-0.4-0.5-0.3-1.1,0.1-1.5l8.5-7c0.5-0.4,1.1-0.3,1.5,0.1
				c0.4,0.5,0.3,1.1-0.1,1.5l-8.5,7C120.9,65,120.7,65.1,120.4,65.1z"/>
		</g>
		<g>
			<path class="st2" d="M124.8,49c-0.5,0-0.9-0.3-1-0.8l-3.2-10.5c-0.2-0.6,0.2-1.2,0.7-1.3c0.6-0.2,1.2,0.2,1.3,0.7l3.2,10.5
				c0.2,0.6-0.2,1.2-0.7,1.3C125,49,124.9,49,124.8,49z"/>
		</g>
		<g>
			<path class="st2" d="M106,164.7c-0.1,0-0.3,0-0.4-0.1c-0.5-0.2-0.8-0.9-0.6-1.4l4.3-10.1c0.2-0.5,0.9-0.8,1.4-0.6
				c0.5,0.2,0.8,0.9,0.6,1.4L107,164C106.8,164.4,106.4,164.7,106,164.7z"/>
		</g>
		<g>
			<path class="st2" d="M105.8,174.8c-0.3,0-0.6-0.1-0.8-0.4c-0.4-0.5-0.3-1.1,0.1-1.5l8.4-7c0.5-0.4,1.1-0.3,1.5,0.1
				c0.4,0.5,0.3,1.1-0.1,1.5l-8.4,7C106.3,174.8,106,174.8,105.8,174.8z"/>
		</g>
		<g>
			<path class="st2" d="M117.1,115.7c-0.2,0-0.5-0.1-0.7-0.2l-8.4-7c-0.5-0.4-0.5-1.1-0.1-1.5c0.4-0.5,1.1-0.5,1.5-0.1l8.4,7
				c0.5,0.4,0.5,1.1,0.1,1.5C117.7,115.6,117.4,115.7,117.1,115.7z"/>
		</g>
		<g>
			<path class="st2" d="M94.3,69.1c-0.5,0-0.9-0.3-1-0.8c-0.1-0.6,0.2-1.2,0.8-1.3l10.6-2.6c0.6-0.1,1.2,0.2,1.3,0.8
				c0.1,0.6-0.2,1.2-0.8,1.3l-10.6,2.6C94.4,69.1,94.3,69.1,94.3,69.1z"/>
		</g>
		<g>
			<path class="st2" d="M99.4,106.1c-0.2,0-0.4-0.1-0.6-0.2c-0.5-0.3-0.7-1-0.4-1.5l5.7-9.4c0.3-0.5,1-0.7,1.5-0.4
				c0.5,0.3,0.7,1,0.4,1.5l-5.7,9.4C100.1,105.9,99.8,106.1,99.4,106.1z"/>
		</g>
		<g>
			<path class="st2" d="M98.8,86c-0.3,0-0.6-0.1-0.8-0.4c-0.4-0.5-0.3-1.1,0.1-1.5l8.4-7c0.5-0.4,1.1-0.3,1.5,0.1
				c0.4,0.5,0.3,1.1-0.1,1.5l-8.4,7C99.3,85.9,99,86,98.8,86z"/>
		</g>
		<g>
			<path class="st2" d="M117.3,79.7c-0.4,0-0.7-0.2-0.9-0.5l-5.5-9.4c-0.3-0.5-0.1-1.2,0.4-1.5c0.5-0.3,1.2-0.1,1.5,0.4l5.5,9.4
				c0.3,0.5,0.1,1.2-0.4,1.5C117.7,79.6,117.5,79.7,117.3,79.7z"/>
		</g>
		<g>
			<path class="st2" d="M114.7,97.7c-0.4,0-0.7-0.2-0.9-0.5l-7-11.6c-0.3-0.5-0.1-1.2,0.4-1.5c0.5-0.3,1.2-0.1,1.5,0.4l7,11.6
				c0.3,0.5,0.1,1.2-0.4,1.5C115.1,97.7,114.9,97.7,114.7,97.7z"/>
		</g>
		<g>
			<path class="st2" d="M101.2,125.8c-0.1,0-0.1,0-0.2,0c-0.6-0.1-1-0.7-0.9-1.3l2-10.8c0.1-0.6,0.7-1,1.3-0.9
				c0.6,0.1,1,0.7,0.9,1.3l-2,10.8C102.2,125.5,101.7,125.8,101.2,125.8z"/>
		</g>
		<g>
			<path class="st2" d="M107,131.2c-0.3,0-0.6-0.1-0.9-0.4c-0.4-0.5-0.3-1.1,0.2-1.5l10.3-7.9c0.5-0.4,1.1-0.3,1.5,0.2
				c0.4,0.5,0.3,1.1-0.2,1.5l-10.3,7.9C107.5,131.1,107.3,131.2,107,131.2z"/>
		</g>
		<g>
			<path class="st2" d="M123.1,170.9c-0.6,0-1-0.4-1.1-1l-0.8-10.9c0-0.6,0.4-1.1,1-1.2c0.6,0,1.1,0.4,1.2,1l0.8,10.9
				C124.3,170.4,123.8,170.9,123.1,170.9C123.2,170.9,123.2,170.9,123.1,170.9z"/>
		</g>
		<g>
			<path class="st2" d="M172,72.7c-0.3,0-0.6-0.1-0.8-0.4c-0.4-0.5-0.3-1.1,0.1-1.5l10.1-8.4c0.5-0.4,1.1-0.3,1.5,0.1
				c0.4,0.5,0.3,1.1-0.1,1.5l-10.1,8.4C172.5,72.6,172.2,72.7,172,72.7z"/>
		</g>
		<g>
			<path class="st2" d="M194.4,75.5c-0.4,0-0.7-0.2-0.9-0.5l-5.5-9.5c-0.3-0.5-0.1-1.2,0.4-1.5c0.5-0.3,1.2-0.1,1.5,0.4l5.5,9.5
				c0.3,0.5,0.1,1.2-0.4,1.5C194.7,75.4,194.5,75.5,194.4,75.5z"/>
		</g>
		<g>
			<path class="st2" d="M188.2,81.9c-0.2,0-0.3,0-0.5-0.1l-9.8-4.9c-0.5-0.3-0.7-0.9-0.5-1.4c0.3-0.5,0.9-0.7,1.4-0.5l9.8,4.9
				c0.5,0.3,0.7,0.9,0.5,1.4C189,81.7,188.6,81.9,188.2,81.9z"/>
		</g>
		<g>
			<path class="st2" d="M157.5,133.4c-0.3,0-0.6-0.1-0.8-0.4c-0.4-0.5-0.3-1.1,0.1-1.5l8.5-7c0.5-0.4,1.1-0.3,1.5,0.1
				c0.4,0.5,0.3,1.1-0.1,1.5l-8.5,7C158,133.4,157.7,133.4,157.5,133.4z"/>
		</g>
		<g>
			<path class="st2" d="M134.6,150.7c-0.4,0-0.8-0.3-1-0.7c-0.2-0.6,0-1.2,0.6-1.4l10.2-4.1c0.6-0.2,1.2,0,1.4,0.6
				c0.2,0.6,0,1.2-0.6,1.4l-10.2,4.1C134.8,150.7,134.7,150.7,134.6,150.7z"/>
		</g>
		<g>
			<path class="st2" d="M149.4,171.4c-0.4,0-0.8-0.2-1-0.6l-5.1-10.9c-0.3-0.5,0-1.2,0.5-1.4c0.5-0.3,1.2,0,1.4,0.5l5.1,10.9
				c0.3,0.5,0,1.2-0.5,1.4C149.7,171.4,149.5,171.4,149.4,171.4z"/>
		</g>
		<g>
			<path class="st2" d="M196.2,157.2c-0.1,0-0.2,0-0.4-0.1l-10.3-3.8c-0.6-0.2-0.8-0.8-0.6-1.4c0.2-0.6,0.8-0.8,1.4-0.6l10.3,3.8
				c0.6,0.2,0.8,0.8,0.6,1.4C197.1,156.9,196.7,157.2,196.2,157.2z"/>
		</g>
		<g>
			<path class="st2" d="M186.8,51.1c0,0-0.1,0-0.1,0c-0.6-0.1-1-0.6-1-1.2l1-11.2c0.1-0.6,0.6-1,1.2-1c0.6,0.1,1,0.6,1,1.2l-1,11.2
				C187.8,50.7,187.4,51.1,186.8,51.1z"/>
		</g>
		<g>
			<path class="st2" d="M195.1,149.4c-0.1,0-0.2,0-0.3,0c-0.6-0.1-0.9-0.7-0.8-1.3l2.7-10.6c0.1-0.6,0.7-0.9,1.3-0.8
				c0.6,0.1,0.9,0.7,0.8,1.3l-2.7,10.6C196,149.1,195.5,149.4,195.1,149.4z"/>
		</g>
		<g>
			<path class="st2" d="M175.2,162.6c-0.5,0-0.9-0.3-1-0.8c-0.2-0.6,0.2-1.2,0.7-1.3l10.5-3.2c0.6-0.2,1.2,0.2,1.3,0.7
				c0.2,0.6-0.2,1.2-0.7,1.3l-10.5,3.2C175.4,162.6,175.3,162.6,175.2,162.6z"/>
		</g>
		<g>
			<path class="st2" d="M166.5,103.1c-0.3,0-0.5-0.1-0.7-0.3c-0.4-0.4-0.5-1.1-0.1-1.5l9.8-10.6c0.4-0.4,1.1-0.5,1.5-0.1
				c0.4,0.4,0.5,1.1,0.1,1.5l-9.8,10.6C167.1,103,166.8,103.1,166.5,103.1z"/>
		</g>
		<g>
			<path class="st2" d="M108.5,60.7c-0.3,0-0.7-0.2-0.9-0.5c-0.3-0.5-0.2-1.2,0.3-1.5l9-6.2c0.5-0.3,1.2-0.2,1.5,0.3
				c0.3,0.5,0.2,1.2-0.3,1.5l-9,6.2C109,60.7,108.7,60.7,108.5,60.7z"/>
		</g>
		<g>
			<path class="st2" d="M163.5,95.7c-0.5,0-0.9-0.3-1-0.8l-2.9-12.9c-0.1-0.6,0.2-1.2,0.8-1.3c0.6-0.1,1.2,0.2,1.3,0.8l2.9,12.9
				c0.1,0.6-0.2,1.2-0.8,1.3C163.6,95.7,163.6,95.7,163.5,95.7z"/>
		</g>
		<g>
			<path class="st2" d="M182.7,171.4c-0.1,0-0.2,0-0.3-0.1l-7.8-2.5c-0.6-0.2-0.9-0.8-0.7-1.4c0.2-0.6,0.8-0.9,1.4-0.7l7.8,2.5
				c0.6,0.2,0.9,0.8,0.7,1.4C183.6,171.1,183.2,171.4,182.7,171.4z"/>
		</g>
		<g>
			<path class="st2" d="M144.8,47.6c0,0-0.1,0-0.1,0c-0.6-0.1-1-0.6-1-1.2l1.1-10.9c0.1-0.6,0.6-1,1.2-1c0.6,0.1,1,0.6,1,1.2
				l-1.1,10.9C145.8,47.2,145.3,47.6,144.8,47.6z"/>
		</g>
		<g>
			<path class="st2" d="M100.6,59.8c-0.5,0-1-0.4-1.1-0.9L97,45.5c-0.1-0.6,0.3-1.1,0.9-1.3c0.6-0.1,1.1,0.3,1.3,0.9l2.6,13.5
				c0.1,0.6-0.3,1.1-0.9,1.3C100.8,59.8,100.7,59.8,100.6,59.8z"/>
		</g>
		<g>
			<path class="st2" d="M164,187.7c-0.1,0-0.2,0-0.3-0.1c-0.6-0.2-0.9-0.8-0.7-1.4l4.6-14.1c0.2-0.6,0.8-0.9,1.4-0.7
				c0.6,0.2,0.9,0.8,0.7,1.4l-4.6,14.1C164.9,187.4,164.5,187.7,164,187.7z"/>
		</g>
		<g>
			<path class="st2" d="M155.8,187.7c-0.3,0-0.7-0.2-0.9-0.5l-7.7-10.9c-0.3-0.5-0.2-1.2,0.3-1.5c0.5-0.3,1.2-0.2,1.5,0.3l7.7,10.9
				c0.3,0.5,0.2,1.2-0.3,1.5C156.2,187.6,156,187.7,155.8,187.7z"/>
		</g>
		<g>
			<path class="st2" d="M112.5,185.9c-0.1,0-0.2,0-0.2,0c-0.6-0.1-0.9-0.7-0.8-1.3l2.4-10.7c0.1-0.6,0.7-0.9,1.3-0.8
				c0.6,0.1,0.9,0.7,0.8,1.3l-2.4,10.7C113.4,185.5,112.9,185.9,112.5,185.9z"/>
		</g>
		<g>
			<path class="st2" d="M123.1,180.6c-0.3,0-0.7-0.2-0.9-0.4c-0.3-0.5-0.2-1.2,0.2-1.5l8.3-6c0.5-0.3,1.2-0.2,1.5,0.2
				c0.3,0.5,0.2,1.2-0.2,1.5l-8.3,6C123.5,180.6,123.3,180.6,123.1,180.6z"/>
		</g>
		<g>
			<path class="st2" d="M99.1,184.9c-0.5,0-1-0.4-1.1-0.9L96,173.2c-0.1-0.6,0.3-1.1,0.9-1.3c0.6-0.1,1.1,0.3,1.3,0.9l2.1,10.8
				c0.1,0.6-0.3,1.1-0.9,1.3C99.2,184.8,99.2,184.9,99.1,184.9z"/>
		</g>
		<g>
			<path class="st2" d="M180.2,187.7c-0.6,0-1.1-0.5-1.1-1.1l-0.1-8.4c0-0.6,0.5-1.1,1.1-1.1h0c0.6,0,1.1,0.5,1.1,1.1l0.1,8.4
				C181.2,187.2,180.8,187.7,180.2,187.7L180.2,187.7z"/>
		</g>
		<g>
			<path class="st2" d="M138.2,181.7c-0.5,0-1-0.4-1.1-0.9l-1.8-10.8c-0.1-0.6,0.3-1.1,0.9-1.2c0.6-0.1,1.1,0.3,1.2,0.9l1.8,10.8
				c0.1,0.6-0.3,1.1-0.9,1.2C138.3,181.6,138.2,181.7,138.2,181.7z"/>
		</g>
		<g>
			<path class="st2" d="M193,183.6c-0.4,0-0.7-0.2-0.9-0.6l-4.7-8.5c-0.3-0.5-0.1-1.2,0.4-1.5c0.5-0.3,1.2-0.1,1.5,0.4l4.7,8.5
				c0.3,0.5,0.1,1.2-0.4,1.5C193.4,183.5,193.2,183.6,193,183.6z"/>
		</g>
		<g>
			<path class="st2" d="M2.9,271.4c-0.2,0-0.4,0-0.6-0.2c-0.5-0.3-0.7-1-0.4-1.5l5.7-9.4c0.3-0.5,1-0.7,1.5-0.4
				c0.5,0.3,0.7,1,0.4,1.5l-5.7,9.4C3.6,271.2,3.2,271.4,2.9,271.4z"/>
		</g>
		<g>
			<path class="st2" d="M6.5,252.6c-0.4,0-0.8-0.2-0.9-0.6L1,243.7c-0.3-0.5-0.1-1.2,0.4-1.5c0.5-0.3,1.2-0.1,1.5,0.4l4.5,8.3
				c0.3,0.5,0.1,1.2-0.4,1.5C6.8,252.5,6.6,252.6,6.5,252.6z"/>
		</g>
		<g>
			<path class="st2" d="M-1.3,262.9c-0.6,0-1-0.4-1.1-1l-0.6-12.4c0-0.6,0.4-1.1,1-1.1c0.6,0,1.1,0.4,1.1,1l0.6,12.4
				C-0.2,262.4-0.6,262.9-1.3,262.9C-1.2,262.9-1.3,262.9-1.3,262.9z"/>
		</g>
		<g>
			<path class="st2" d="M23.4,304.3c-0.5,0-1-0.4-1.1-0.9l-2.1-10.8c-0.1-0.6,0.3-1.1,0.9-1.3c0.6-0.1,1.1,0.3,1.3,0.9l2.1,10.8
				c0.1,0.6-0.3,1.1-0.9,1.3C23.5,304.3,23.4,304.3,23.4,304.3z"/>
		</g>
		<g>
			<path class="st2" d="M-14.8,290.4c-0.1,0-0.1,0-0.2,0c-0.6-0.1-1-0.7-0.9-1.3l2-10.8c0.1-0.6,0.7-1,1.3-0.9
				c0.6,0.1,1,0.7,0.9,1.3l-2,10.8C-13.8,290.1-14.3,290.4-14.8,290.4z"/>
		</g>
		<g>
			<path class="st2" d="M-4.3,273.1c-0.2,0-0.5-0.1-0.7-0.2l-8.5-7c-0.5-0.4-0.5-1.1-0.1-1.5c0.4-0.5,1.1-0.5,1.5-0.1l8.5,7
				c0.5,0.4,0.5,1.1,0.1,1.5C-3.7,273-4,273.1-4.3,273.1z"/>
		</g>
		<g>
			<path class="st2" d="M-2,291.7c-0.4,0-0.9-0.3-1-0.7l-3.8-10.3c-0.2-0.6,0.1-1.2,0.6-1.4c0.6-0.2,1.2,0.1,1.4,0.6l3.8,10.3
				c0.2,0.6-0.1,1.2-0.6,1.4C-1.8,291.7-1.9,291.7-2,291.7z"/>
		</g>
		<g>
			<path class="st2" d="M-18.8,260.7c-0.5,0-0.9-0.3-1-0.8c-0.2-0.6,0.2-1.2,0.7-1.3l10.5-3c0.6-0.2,1.2,0.2,1.3,0.7
				c0.2,0.6-0.2,1.2-0.7,1.3l-10.5,3C-18.6,260.7-18.7,260.7-18.8,260.7z"/>
		</g>
		<g>
			<path class="st2" d="M3.4,311c-0.3,0-0.7-0.2-0.9-0.4c-0.4-0.5-0.3-1.2,0.2-1.5l8.8-6.5c0.5-0.4,1.2-0.3,1.5,0.2
				c0.4,0.5,0.3,1.2-0.2,1.5L4,310.8C3.8,310.9,3.6,311,3.4,311z"/>
		</g>
		<g>
			<path class="st2" d="M-18.9,315.8c-0.2,0-0.4,0-0.6-0.2c-0.5-0.3-0.7-1-0.4-1.5l5.7-9.4c0.3-0.5,1-0.7,1.5-0.4
				c0.5,0.3,0.7,1,0.4,1.5l-5.7,9.4C-18.2,315.6-18.5,315.8-18.9,315.8z"/>
		</g>
		<g>
			<path class="st2" d="M33.3,278.1c-0.4,0-0.8-0.2-1-0.7l-4.3-10.1c-0.2-0.5,0-1.2,0.6-1.4c0.5-0.2,1.2,0,1.4,0.6l4.3,10.1
				c0.2,0.5,0,1.2-0.6,1.4C33.5,278.1,33.4,278.1,33.3,278.1z"/>
		</g>
		<g>
			<path class="st2" d="M48.1,258.9c0,0-0.1,0-0.1,0c-0.6-0.1-1-0.6-1-1.2l1.4-14.7c0.1-0.6,0.6-1,1.2-1c0.6,0.1,1,0.6,1,1.2
				l-1.4,14.7C49.1,258.5,48.6,258.9,48.1,258.9z"/>
		</g>
		<g>
			<path class="st2" d="M15.3,289.7c-0.2,0-0.4,0-0.5-0.1c-0.5-0.3-0.7-1-0.4-1.5l5.5-9.5c0.3-0.5,1-0.7,1.5-0.4
				c0.5,0.3,0.7,1,0.4,1.5l-5.5,9.5C16.1,289.5,15.7,289.7,15.3,289.7z"/>
		</g>
		<g>
			<path class="st2" d="M35.6,286.7c-0.3,0-0.6-0.1-0.8-0.4c-0.4-0.5-0.3-1.1,0.1-1.5l8.5-7c0.5-0.4,1.1-0.3,1.5,0.1
				c0.4,0.5,0.3,1.1-0.1,1.5l-8.5,7C36.1,286.6,35.9,286.7,35.6,286.7z"/>
		</g>
		<g>
			<path class="st2" d="M49.9,320.8c-0.2,0-0.5-0.1-0.7-0.2l-8.5-6.9c-0.5-0.4-0.5-1.1-0.2-1.5c0.4-0.5,1.1-0.5,1.5-0.2l8.5,6.9
				c0.5,0.4,0.5,1.1,0.2,1.5C50.5,320.7,50.2,320.8,49.9,320.8z"/>
		</g>
		<g>
			<path class="st2" d="M45.5,270.7c-0.2,0-0.5-0.1-0.7-0.2l-8.4-7c-0.5-0.4-0.5-1.1-0.1-1.5c0.4-0.5,1.1-0.5,1.5-0.1l8.4,7
				c0.5,0.4,0.5,1.1,0.1,1.5C46.1,270.6,45.8,270.7,45.5,270.7z"/>
		</g>
		<g>
			<path class="st2" d="M19.5,269.1c-0.1,0-0.3,0-0.4-0.1c-0.6-0.2-0.8-0.8-0.6-1.4l3.8-10.3c0.2-0.6,0.8-0.8,1.4-0.6
				c0.6,0.2,0.8,0.8,0.6,1.4l-3.8,10.3C20.4,268.9,20,269.1,19.5,269.1z"/>
		</g>
		<g>
			<path class="st2" d="M30.3,258.6c-0.4,0-0.7-0.2-0.9-0.5c-0.3-0.5-0.2-1.2,0.4-1.5l9.3-5.8c0.5-0.3,1.2-0.2,1.5,0.4
				c0.3,0.5,0.2,1.2-0.4,1.5l-9.3,5.8C30.7,258.5,30.5,258.6,30.3,258.6z"/>
		</g>
		<g>
			<path class="st2" d="M41.4,241.8c-0.2,0-0.4-0.1-0.6-0.2c-0.5-0.3-0.6-1-0.3-1.5l6.1-9.1c0.3-0.5,1-0.6,1.5-0.3
				c0.5,0.3,0.6,1,0.3,1.5l-6.1,9.1C42.1,241.6,41.8,241.8,41.4,241.8z"/>
		</g>
		<g>
			<path class="st2" d="M30.2,250.6C30.2,250.6,30.2,250.6,30.2,250.6c-0.7-0.1-1.1-0.6-1.1-1.2l1.1-14.1c0-0.6,0.6-1,1.2-1
				c0.6,0,1,0.6,1,1.2l-1.1,14.1C31.2,250.1,30.8,250.6,30.2,250.6z"/>
		</g>
		<g>
			<path class="st2" d="M-2.5,240.3c-0.1,0-0.3,0-0.4-0.1c-0.5-0.2-0.8-0.9-0.6-1.4L1.4,227c0.2-0.5,0.9-0.8,1.4-0.6
				c0.5,0.2,0.8,0.9,0.6,1.4l-4.9,11.8C-1.7,240.1-2.1,240.3-2.5,240.3z"/>
		</g>
		<g>
			<path class="st2" d="M4.7,298.6c-0.1,0-0.2,0-0.4-0.1c-0.6-0.2-0.9-0.8-0.7-1.4l3.6-10.3c0.2-0.6,0.8-0.9,1.4-0.7
				c0.6,0.2,0.9,0.8,0.7,1.4l-3.6,10.3C5.6,298.4,5.1,298.6,4.7,298.6z"/>
		</g>
		<g>
			<path class="st2" d="M32.1,294.2c-0.2,0-0.5-0.1-0.7-0.2l-8.5-7c-0.5-0.4-0.5-1.1-0.1-1.5c0.4-0.5,1.1-0.5,1.5-0.1l8.5,7
				c0.5,0.4,0.5,1.1,0.1,1.5C32.8,294,32.4,294.2,32.1,294.2z"/>
		</g>
		<g>
			<path class="st2" d="M-8.9,248.6c-0.4,0-0.7-0.2-0.9-0.5l-6.8-12c-0.3-0.5-0.1-1.2,0.4-1.5c0.5-0.3,1.2-0.1,1.5,0.4l6.8,12
				c0.3,0.5,0.1,1.2-0.4,1.5C-8.5,248.6-8.7,248.6-8.9,248.6z"/>
		</g>
		<g>
			<path class="st2" d="M6.8,321.8c-0.4,0-0.7-0.2-0.9-0.5c-0.3-0.5-0.2-1.2,0.3-1.5l9.3-5.8c0.5-0.3,1.2-0.2,1.5,0.3
				c0.3,0.5,0.2,1.2-0.3,1.5l-9.3,5.8C7.2,321.7,7,321.8,6.8,321.8z"/>
		</g>
		<g>
			<path class="st2" d="M60.4,208.6c-0.6,0-1-0.4-1.1-1l-0.7-13.2c0-0.6,0.4-1.1,1-1.1c0.6,0,1.1,0.4,1.1,1l0.7,13.2
				C61.5,208.1,61,208.6,60.4,208.6C60.4,208.6,60.4,208.6,60.4,208.6z"/>
		</g>
		<g>
			<path class="st2" d="M29,196c-0.2,0-0.5-0.1-0.7-0.2l-8.5-7c-0.5-0.4-0.5-1.1-0.1-1.5s1.1-0.5,1.5-0.1l8.5,7
				c0.5,0.4,0.5,1.1,0.1,1.5C29.6,195.8,29.3,196,29,196z"/>
		</g>
		<g>
			<path class="st2" d="M-3.9,201.8c-0.3,0-0.7-0.2-0.9-0.5c-0.3-0.5-0.2-1.2,0.3-1.5l11-7.7c0.5-0.3,1.2-0.2,1.5,0.3
				c0.3,0.5,0.2,1.2-0.3,1.5l-11,7.7C-3.4,201.7-3.7,201.8-3.9,201.8z"/>
		</g>
		<g>
			<path class="st2" d="M19.3,232.2c-0.4,0-0.7-0.2-0.9-0.5l-5.5-9.5c-0.3-0.5-0.1-1.2,0.4-1.5c0.5-0.3,1.2-0.1,1.5,0.4l5.5,9.5
				c0.3,0.5,0.1,1.2-0.4,1.5C19.7,232.2,19.5,232.2,19.3,232.2z"/>
		</g>
		<g>
			<path class="st2" d="M17.9,212.4c-0.1,0-0.1,0-0.2,0c-0.6-0.1-1-0.6-0.9-1.2l1.4-8.7c0.1-0.6,0.6-1,1.2-0.9
				c0.6,0.1,1,0.6,0.9,1.2l-1.4,8.7C18.9,212,18.4,212.4,17.9,212.4z"/>
		</g>
		<g>
			<path class="st2" d="M37.9,207c-0.1,0-0.3,0-0.4-0.1l-10.1-4.4c-0.5-0.2-0.8-0.9-0.6-1.4c0.2-0.5,0.9-0.8,1.4-0.6l10.1,4.4
				c0.5,0.2,0.8,0.9,0.6,1.4C38.7,206.7,38.3,207,37.9,207z"/>
		</g>
		<g>
			<path class="st2" d="M7.8,205.5c-0.2,0-0.4,0-0.6-0.2c-0.5-0.3-0.7-1-0.4-1.5l5.7-9.4c0.3-0.5,1-0.7,1.5-0.4
				c0.5,0.3,0.7,1,0.4,1.5l-5.7,9.4C8.5,205.3,8.2,205.5,7.8,205.5z"/>
		</g>
		<g>
			<path class="st2" d="M56.3,243.2c-0.3,0-0.6-0.1-0.8-0.4c-0.4-0.4-0.4-1.1,0.1-1.5l9.8-8.7c0.4-0.4,1.1-0.4,1.5,0.1
				c0.4,0.4,0.4,1.1-0.1,1.5L57,243C56.8,243.1,56.5,243.2,56.3,243.2z"/>
		</g>
		<g>
			<path class="st2" d="M-12.1,230.7c-0.1,0-0.3,0-0.4-0.1c-0.6-0.2-0.8-0.8-0.6-1.4l4.9-12.6c0.2-0.6,0.8-0.8,1.4-0.6
				c0.6,0.2,0.8,0.8,0.6,1.4l-4.9,12.6C-11.3,230.4-11.7,230.7-12.1,230.7z"/>
		</g>
		<g>
			<path class="st2" d="M-7.1,210.1c-0.3,0-0.5-0.1-0.8-0.3l-7.8-7.7c-0.4-0.4-0.4-1.1,0-1.5c0.4-0.4,1.1-0.4,1.5,0l7.8,7.7
				c0.4,0.4,0.4,1.1,0,1.5C-6.5,210-6.8,210.1-7.1,210.1z"/>
		</g>
		<g>
			<path class="st2" d="M45,202.5c-0.2,0-0.4,0-0.5-0.1c-0.5-0.3-0.7-1-0.4-1.5l5.7-10c0.3-0.5,1-0.7,1.5-0.4c0.5,0.3,0.7,1,0.4,1.5
				l-5.7,10C45.7,202.3,45.3,202.5,45,202.5z"/>
		</g>
		<g>
			<path class="st2" d="M56.7,230.1c-0.6,0-1.1-0.5-1.1-1.1l-0.2-11c0-0.6,0.5-1.1,1.1-1.1c0.6,0,1.1,0.5,1.1,1.1l0.2,11
				C57.8,229.6,57.4,230.1,56.7,230.1C56.8,230.1,56.8,230.1,56.7,230.1z"/>
		</g>
		<g>
			<path class="st2" d="M57.5,212.7C57.5,212.7,57.5,212.7,57.5,212.7l-11-0.5c-0.6,0-1.1-0.5-1-1.1c0-0.6,0.5-1,1.1-1l11,0.5
				c0.6,0,1.1,0.5,1,1.1C58.6,212.3,58.1,212.7,57.5,212.7z"/>
		</g>
		<g>
			<path class="st2" d="M0.2,220.6c-0.3,0-0.6-0.1-0.8-0.4c-0.4-0.5-0.3-1.1,0.1-1.5l8.5-7c0.5-0.4,1.1-0.3,1.5,0.1
				c0.4,0.5,0.3,1.1-0.1,1.5l-8.5,7C0.7,220.5,0.5,220.6,0.2,220.6z"/>
		</g>
		<g>
			<path class="st2" d="M54.1,269.2c-0.1,0-0.3,0-0.4-0.1c-0.5-0.2-0.8-0.9-0.6-1.4l4.3-10.1c0.2-0.5,0.9-0.8,1.4-0.6
				c0.5,0.2,0.8,0.9,0.6,1.4l-4.3,10.1C54.9,269,54.5,269.2,54.1,269.2z"/>
		</g>
		<g>
			<path class="st2" d="M72.7,290.2c-0.5,0-1-0.4-1.1-0.9l-1.8-10.8c-0.1-0.6,0.3-1.1,0.9-1.2c0.6-0.1,1.1,0.3,1.2,0.9l1.8,10.8
				c0.1,0.6-0.3,1.1-0.9,1.2C72.8,290.2,72.7,290.2,72.7,290.2z"/>
		</g>
		<g>
			<path class="st2" d="M76.5,276.8c-0.4,0-0.8-0.3-1-0.7l-4-10.2c-0.2-0.6,0.1-1.2,0.6-1.4c0.6-0.2,1.2,0.1,1.4,0.6l4,10.2
				c0.2,0.6-0.1,1.2-0.6,1.4C76.7,276.8,76.6,276.8,76.5,276.8z"/>
		</g>
		<g>
			<path class="st2" d="M64.1,307.2c-0.3,0-0.6-0.1-0.8-0.4c-0.4-0.5-0.3-1.1,0.1-1.5l8.4-7c0.5-0.4,1.1-0.3,1.5,0.1
				c0.4,0.5,0.3,1.1-0.1,1.5l-8.4,7C64.6,307.1,64.3,307.2,64.1,307.2z"/>
		</g>
		<g>
			<path class="st2" d="M77.3,309.3c-0.2,0-0.4,0-0.6-0.2c-0.5-0.3-0.7-1-0.4-1.5l5.7-9.4c0.3-0.5,1-0.7,1.5-0.4
				c0.5,0.3,0.7,1,0.4,1.5l-5.7,9.4C78,309.1,77.7,309.3,77.3,309.3z"/>
		</g>
		<g>
			<path class="st2" d="M56.5,309.6c-0.5,0-1-0.4-1.1-0.9l-2.6-13.1c-0.1-0.6,0.3-1.1,0.8-1.3c0.6-0.1,1.1,0.3,1.3,0.8l2.6,13.1
				c0.1,0.6-0.3,1.1-0.8,1.3C56.6,309.6,56.6,309.6,56.5,309.6z"/>
		</g>
		<g>
			<path class="st2" d="M82.5,240.3C82.4,240.3,82.4,240.3,82.5,240.3l-11-0.8c-0.6,0-1-0.6-1-1.2c0-0.6,0.6-1,1.2-1l10.9,0.8
				c0.6,0,1,0.6,1,1.2C83.5,239.8,83,240.3,82.5,240.3z"/>
		</g>
		<g>
			<path class="st2" d="M78.5,290.6c-0.3,0-0.6-0.1-0.8-0.4c-0.4-0.5-0.3-1.1,0.1-1.5l8.4-7c0.5-0.4,1.1-0.3,1.5,0.1
				c0.4,0.5,0.3,1.1-0.1,1.5l-8.4,7C79,290.5,78.8,290.6,78.5,290.6z"/>
		</g>
		<g>
			<path class="st2" d="M60,283.8c-0.2,0-0.3,0-0.5-0.1c-0.5-0.2-0.8-0.9-0.5-1.4l4.6-9.9c0.3-0.5,0.9-0.8,1.4-0.5
				c0.5,0.3,0.8,0.9,0.5,1.4l-4.6,9.9C60.8,283.6,60.4,283.8,60,283.8z"/>
		</g>
		<g>
			<path class="st2" d="M87.5,255c-0.3,0-0.5-0.1-0.7-0.3l-8.1-7.4c-0.4-0.4-0.5-1.1-0.1-1.5c0.4-0.4,1.1-0.5,1.5-0.1l8.1,7.4
				c0.4,0.4,0.5,1.1,0.1,1.5C88.1,254.9,87.8,255,87.5,255z"/>
		</g>
		<g>
			<path class="st2" d="M75.8,260.5c0,0-0.1,0-0.1,0l-10.9-1.2c-0.6-0.1-1-0.6-0.9-1.2c0.1-0.6,0.6-1,1.2-0.9l10.9,1.2
				c0.6,0.1,1,0.6,0.9,1.2C76.8,260.1,76.3,260.5,75.8,260.5z"/>
		</g>
		<g>
			<path class="st2" d="M67.9,198.7c-0.4,0-0.7-0.2-0.9-0.5c-0.3-0.5-0.2-1.2,0.4-1.5l9.3-5.8c0.5-0.3,1.2-0.2,1.5,0.4
				c0.3,0.5,0.2,1.2-0.4,1.5l-9.3,5.8C68.3,198.6,68.1,198.7,67.9,198.7z"/>
		</g>
		<g>
			<path class="st2" d="M67.5,215.4c-0.1,0-0.2,0-0.4-0.1c-0.6-0.2-0.9-0.8-0.7-1.4l3.6-10.3c0.2-0.6,0.8-0.9,1.4-0.7
				c0.6,0.2,0.9,0.8,0.7,1.4l-3.6,10.3C68.4,215.1,68,215.4,67.5,215.4z"/>
		</g>
		<g>
			<path class="st2" d="M21.4,221.2c-0.3,0-0.6-0.1-0.8-0.4c-0.4-0.5-0.3-1.1,0.1-1.5l10.1-8.4c0.5-0.4,1.1-0.3,1.5,0.1
				c0.4,0.5,0.3,1.1-0.1,1.5l-10.1,8.4C21.9,221.1,21.6,221.2,21.4,221.2z"/>
		</g>
		<g>
			<path class="st2" d="M43.8,223.9c-0.4,0-0.7-0.2-0.9-0.5l-5.5-9.5c-0.3-0.5-0.1-1.2,0.4-1.5c0.5-0.3,1.2-0.1,1.5,0.4l5.5,9.5
				c0.3,0.5,0.1,1.2-0.4,1.5C44.1,223.9,44,223.9,43.8,223.9z"/>
		</g>
		<g>
			<path class="st2" d="M37.6,230.4c-0.2,0-0.3,0-0.5-0.1l-9.8-4.9c-0.5-0.3-0.7-0.9-0.5-1.4c0.3-0.5,0.9-0.7,1.4-0.5l9.8,4.9
				c0.5,0.3,0.7,0.9,0.5,1.4C38.4,230.2,38,230.4,37.6,230.4z"/>
		</g>
		<g>
			<path class="st2" d="M6.9,281.9c-0.3,0-0.6-0.1-0.8-0.4c-0.4-0.5-0.3-1.1,0.1-1.5l8.5-7c0.5-0.4,1.1-0.3,1.5,0.1
				c0.4,0.5,0.3,1.1-0.1,1.5l-8.5,7C7.4,281.8,7.1,281.9,6.9,281.9z"/>
		</g>
		<g>
			<path class="st2" d="M-16,299.1c-0.4,0-0.8-0.3-1-0.7c-0.2-0.6,0-1.2,0.6-1.4l10.2-4.1c0.6-0.2,1.2,0,1.4,0.6
				c0.2,0.6,0,1.2-0.6,1.4l-10.2,4.1C-15.7,299.1-15.9,299.1-16,299.1z"/>
		</g>
		<g>
			<path class="st2" d="M-1.2,319.8c-0.4,0-0.8-0.2-1-0.6l-5.1-10.9c-0.3-0.5,0-1.2,0.5-1.4c0.5-0.3,1.2,0,1.4,0.5l5.1,10.9
				c0.3,0.5,0,1.2-0.5,1.4C-0.9,319.8-1.1,319.8-1.2,319.8z"/>
		</g>
		<g>
			<path class="st2" d="M45.6,305.6c-0.1,0-0.2,0-0.4-0.1L35,301.8c-0.6-0.2-0.8-0.8-0.6-1.4s0.8-0.8,1.4-0.6l10.3,3.8
				c0.6,0.2,0.8,0.8,0.6,1.4C46.5,305.4,46.1,305.6,45.6,305.6z"/>
		</g>
		<g>
			<path class="st2" d="M36.2,199.6c0,0-0.1,0-0.1,0c-0.6-0.1-1-0.6-1-1.2l1-11.2c0.1-0.6,0.6-1,1.2-1c0.6,0.1,1,0.6,1,1.2l-1,11.2
				C37.2,199.2,36.8,199.6,36.2,199.6z"/>
		</g>
		<g>
			<path class="st2" d="M44.5,297.8c-0.1,0-0.2,0-0.3,0c-0.6-0.1-0.9-0.7-0.8-1.3l2.7-10.6c0.1-0.6,0.7-0.9,1.3-0.8
				c0.6,0.1,0.9,0.7,0.8,1.3L45.5,297C45.4,297.5,45,297.8,44.5,297.8z"/>
		</g>
		<g>
			<path class="st2" d="M24.6,311.1c-0.5,0-0.9-0.3-1-0.8c-0.2-0.6,0.2-1.2,0.7-1.3l10.5-3.2c0.6-0.2,1.2,0.2,1.3,0.7
				c0.2,0.6-0.2,1.2-0.7,1.3L25,311C24.8,311,24.7,311.1,24.6,311.1z"/>
		</g>
		<g>
			<path class="st2" d="M15.9,251.5c-0.3,0-0.5-0.1-0.7-0.3c-0.4-0.4-0.5-1.1-0.1-1.5l9.8-10.6c0.4-0.4,1.1-0.5,1.5-0.1
				c0.4,0.4,0.5,1.1,0.1,1.5l-9.8,10.6C16.5,251.4,16.2,251.5,15.9,251.5z"/>
		</g>
		<g>
			<path class="st2" d="M74.8,322.2c-0.4,0-0.8-0.2-1-0.7l-4.3-10.1c-0.2-0.5,0-1.2,0.6-1.4c0.5-0.2,1.2,0,1.4,0.6l4.3,10.1
				c0.2,0.5,0,1.2-0.6,1.4C75.1,322.2,74.9,322.2,74.8,322.2z"/>
		</g>
		<g>
			<path class="st2" d="M95,281.1c-0.2,0-0.5-0.1-0.7-0.2l-8.5-7c-0.5-0.4-0.5-1.1-0.1-1.5c0.4-0.5,1.1-0.5,1.5-0.1l8.5,7
				c0.5,0.4,0.5,1.1,0.1,1.5C95.6,280.9,95.3,281.1,95,281.1z"/>
		</g>
		<g>
			<path class="st2" d="M97,306c-0.2,0-0.5-0.1-0.7-0.2l-8.5-7c-0.5-0.4-0.5-1.1-0.1-1.5c0.4-0.5,1.1-0.5,1.5-0.1l8.5,7
				c0.5,0.4,0.5,1.1,0.1,1.5C97.6,305.8,97.3,306,97,306z"/>
		</g>
		<g>
			<path class="st2" d="M81.4,262.9c-0.5,0-0.9-0.3-1-0.8c-0.2-0.6,0.2-1.2,0.7-1.3l10.5-3c0.6-0.2,1.2,0.2,1.3,0.7
				c0.2,0.6-0.2,1.2-0.7,1.3l-10.5,3C81.6,262.9,81.5,262.9,81.4,262.9z"/>
		</g>
		<g>
			<path class="st2" d="M92.7,244.8c-0.4,0-0.7-0.2-0.9-0.5l-5.5-9.5c-0.3-0.5-0.1-1.2,0.4-1.5c0.5-0.3,1.2-0.1,1.5,0.4l5.5,9.5
				c0.3,0.5,0.1,1.2-0.4,1.5C93,244.7,92.8,244.8,92.7,244.8z"/>
		</g>
		<g>
			<path class="st2" d="M91.4,217.5c-0.5,0-0.9-0.3-1-0.8c-0.1-0.6,0.2-1.2,0.8-1.3l10.6-2.6c0.6-0.1,1.2,0.2,1.3,0.8
				c0.1,0.6-0.2,1.2-0.8,1.3l-10.6,2.6C91.6,217.5,91.5,217.5,91.4,217.5z"/>
		</g>
		<g>
			<path class="st2" d="M85.3,319.8c-0.3,0-0.6-0.1-0.8-0.4c-0.4-0.5-0.3-1.1,0.1-1.5l8.4-7c0.5-0.4,1.1-0.3,1.5,0.1
				c0.4,0.5,0.3,1.1-0.1,1.5l-8.4,7C85.8,319.7,85.5,319.8,85.3,319.8z"/>
		</g>
		<g>
			<path class="st2" d="M77.9,227.8c-0.4,0-0.8-0.2-1-0.7l-4.3-10.1c-0.2-0.5,0-1.2,0.6-1.4c0.5-0.2,1.2,0,1.4,0.6l4.3,10.1
				c0.2,0.5,0,1.2-0.6,1.4C78.2,227.8,78,227.8,77.9,227.8z"/>
		</g>
		<g>
			<path class="st2" d="M86.4,292.8c-0.5,0-0.9-0.3-1.1-0.8c-0.1-0.6,0.2-1.2,0.8-1.3l10.7-2.3c0.6-0.1,1.2,0.2,1.3,0.8
				c0.1,0.6-0.2,1.2-0.8,1.3l-10.7,2.3C86.6,292.8,86.5,292.8,86.4,292.8z"/>
		</g>
		<g>
			<path class="st2" d="M59.7,250.6c-0.5,0-0.9-0.3-1-0.8c-0.1-0.6,0.2-1.2,0.8-1.3l13.3-3.2c0.6-0.1,1.2,0.2,1.3,0.8
				c0.1,0.6-0.2,1.2-0.8,1.3L60,250.5C59.9,250.6,59.8,250.6,59.7,250.6z"/>
		</g>
		<g>
			<path class="st2" d="M65.6,297.1c-0.3,0-0.6-0.1-0.8-0.3l-7.7-7.8c-0.4-0.4-0.4-1.1,0-1.5c0.4-0.4,1.1-0.4,1.5,0l7.7,7.8
				c0.4,0.4,0.4,1.1,0,1.5C66.2,297,65.9,297.1,65.6,297.1z"/>
		</g>
		<g>
			<path class="st2" d="M83.7,212.3c-0.4,0-0.8-0.2-1-0.6l-5.1-9.7c-0.3-0.5-0.1-1.2,0.4-1.5c0.5-0.3,1.2-0.1,1.5,0.4l5.1,9.7
				c0.3,0.5,0.1,1.2-0.4,1.5C84,212.3,83.9,212.3,83.7,212.3z"/>
		</g>
		<g>
			<path class="st2" d="M93.9,226.4C93.8,226.4,93.8,226.4,93.9,226.4l-11-0.8c-0.6,0-1-0.6-1-1.2c0-0.6,0.6-1,1.2-1l10.9,0.8
				c0.6,0,1,0.6,1,1.2C94.9,226,94.4,226.4,93.9,226.4z"/>
		</g>
		<g>
			<path class="st2" d="M12.9,244.2c-0.5,0-0.9-0.3-1-0.8l-2.9-12.9c-0.1-0.6,0.2-1.2,0.8-1.3c0.6-0.1,1.2,0.2,1.3,0.8l2.9,12.9
				c0.1,0.6-0.2,1.2-0.8,1.3C13.1,244.1,13,244.2,12.9,244.2z"/>
		</g>
		<g>
			<path class="st2" d="M52.7,284.6c-0.5,0-1-0.4-1.1-0.9l-2.2-10.8c-0.1-0.6,0.3-1.1,0.8-1.3c0.6-0.1,1.1,0.3,1.3,0.8l2.2,10.8
				c0.1,0.6-0.3,1.1-0.8,1.3C52.8,284.5,52.7,284.6,52.7,284.6z"/>
		</g>
		<g>
			<path class="st2" d="M73.1,231.8c-0.2,0-0.4,0-0.5-0.1l-9.6-5.3c-0.5-0.3-0.7-0.9-0.4-1.5c0.3-0.5,0.9-0.7,1.5-0.4l9.6,5.3
				c0.5,0.3,0.7,0.9,0.4,1.5C73.8,231.6,73.5,231.8,73.1,231.8z"/>
		</g>
		<g>
			<path class="st2" d="M32.1,319.8c-0.1,0-0.2,0-0.3-0.1l-7.8-2.5c-0.6-0.2-0.9-0.8-0.7-1.4c0.2-0.6,0.8-0.9,1.4-0.7l7.8,2.5
				c0.6,0.2,0.9,0.8,0.7,1.4C33,319.5,32.6,319.8,32.1,319.8z"/>
		</g>
		<g>
			<path class="st2" d="M-5.8,196.1c0,0-0.1,0-0.1,0c-0.6-0.1-1-0.6-1-1.2l1.1-10.9c0.1-0.6,0.6-1,1.2-1c0.6,0.1,1,0.6,1,1.2
				l-1.1,10.9C-4.8,195.6-5.3,196.1-5.8,196.1z"/>
		</g>
		<g>
			<path class="st2" d="M86.7,201.2c-0.1,0-0.3,0-0.4-0.1c-0.6-0.2-0.8-0.8-0.6-1.4l3.8-10.3c0.2-0.6,0.8-0.8,1.4-0.6
				c0.6,0.2,0.8,0.8,0.6,1.4l-3.8,10.3C87.5,200.9,87.1,201.2,86.7,201.2z"/>
		</g>
		<g>
			<path class="st2" d="M60.4,325.6c-0.1,0-0.3,0-0.4-0.1c-0.5-0.2-0.8-0.9-0.5-1.4l4.5-9.9c0.2-0.5,0.9-0.8,1.4-0.5
				c0.5,0.2,0.8,0.9,0.5,1.4l-4.5,9.9C61.2,325.4,60.8,325.6,60.4,325.6z"/>
		</g>
		<g>
			<path class="st2" d="M56.1,333.7c-0.2,0-0.4,0-0.5-0.2l-9.4-5.6c-0.5-0.3-0.7-1-0.4-1.5c0.3-0.5,1-0.7,1.5-0.4l9.4,5.6
				c0.5,0.3,0.7,1,0.4,1.5C56.8,333.5,56.4,333.7,56.1,333.7z"/>
		</g>
		<g>
			<path class="st2" d="M13.4,336.1c-0.1,0-0.2,0-0.3-0.1c-0.6-0.2-0.9-0.8-0.7-1.4l4.6-14.1c0.2-0.6,0.8-0.9,1.4-0.7
				c0.6,0.2,0.9,0.8,0.7,1.4l-4.6,14.1C14.3,335.8,13.9,336.1,13.4,336.1z"/>
		</g>
		<g>
			<path class="st2" d="M5.2,336.1c-0.3,0-0.7-0.2-0.9-0.5l-7.7-10.9c-0.3-0.5-0.2-1.2,0.3-1.5c0.5-0.3,1.2-0.2,1.5,0.3l7.7,10.9
				c0.3,0.5,0.2,1.2-0.3,1.5C5.6,336.1,5.4,336.1,5.2,336.1z"/>
		</g>
		<g>
			<path class="st2" d="M64.5,334.5c-0.3,0-0.6-0.1-0.8-0.4c-0.4-0.5-0.3-1.1,0.1-1.5l8.5-7c0.5-0.4,1.1-0.3,1.5,0.1
				c0.4,0.5,0.3,1.1-0.1,1.5l-8.5,7C65,334.4,64.8,334.5,64.5,334.5z"/>
		</g>
		<g>
			<path class="st2" d="M80.9,335.3c-0.2,0-0.4,0-0.6-0.2c-0.5-0.3-0.7-1-0.4-1.5l5.7-9.4c0.3-0.5,1-0.7,1.5-0.4
				c0.5,0.3,0.7,1,0.4,1.5l-5.7,9.4C81.6,335.2,81.3,335.3,80.9,335.3z"/>
		</g>
		<g>
			<path class="st2" d="M29.6,336.1c-0.6,0-1.1-0.5-1.1-1.1l-0.1-8.4c0-0.6,0.5-1.1,1.1-1.1h0c0.6,0,1.1,0.5,1.1,1.1l0.1,8.4
				C30.7,335.6,30.2,336.1,29.6,336.1L29.6,336.1z"/>
		</g>
		<g>
			<path class="st2" d="M-12.4,330.1c-0.5,0-1-0.4-1.1-0.9l-1.8-10.8c-0.1-0.6,0.3-1.1,0.9-1.2c0.6-0.1,1.1,0.3,1.2,0.9l1.8,10.8
				c0.1,0.6-0.3,1.1-0.9,1.2C-12.3,330.1-12.4,330.1-12.4,330.1z"/>
		</g>
		<g>
			<path class="st2" d="M42.4,332c-0.4,0-0.7-0.2-0.9-0.6l-4.7-8.5c-0.3-0.5-0.1-1.2,0.4-1.5c0.5-0.3,1.2-0.1,1.5,0.4l4.7,8.5
				c0.3,0.5,0.1,1.2-0.4,1.5C42.8,332,42.6,332,42.4,332z"/>
		</g>
		<g>
			<path class="st2" d="M153.5,271.4c-0.2,0-0.4,0-0.6-0.2c-0.5-0.3-0.7-1-0.4-1.5l5.7-9.4c0.3-0.5,1-0.7,1.5-0.4
				c0.5,0.3,0.7,1,0.4,1.5l-5.7,9.4C154.2,271.2,153.8,271.4,153.5,271.4z"/>
		</g>
		<g>
			<path class="st2" d="M157.1,252.6c-0.4,0-0.8-0.2-0.9-0.6l-4.5-8.3c-0.3-0.5-0.1-1.2,0.4-1.5c0.5-0.3,1.2-0.1,1.5,0.4l4.5,8.3
				c0.3,0.5,0.1,1.2-0.4,1.5C157.4,252.5,157.2,252.6,157.1,252.6z"/>
		</g>
		<g>
			<path class="st2" d="M149.3,262.9c-0.6,0-1-0.4-1.1-1l-0.6-12.4c0-0.6,0.4-1.1,1-1.1c0.6,0,1.1,0.4,1.1,1l0.6,12.4
				C150.4,262.4,150,262.9,149.3,262.9C149.3,262.9,149.3,262.9,149.3,262.9z"/>
		</g>
		<g>
			<path class="st2" d="M174,304.3c-0.5,0-1-0.4-1.1-0.9l-2.1-10.8c-0.1-0.6,0.3-1.1,0.9-1.3c0.6-0.1,1.1,0.3,1.3,0.9l2.1,10.8
				c0.1,0.6-0.3,1.1-0.9,1.3C174.1,304.3,174,304.3,174,304.3z"/>
		</g>
		<g>
			<path class="st2" d="M135.8,290.4c-0.1,0-0.1,0-0.2,0c-0.6-0.1-1-0.7-0.9-1.3l2-10.8c0.1-0.6,0.7-1,1.3-0.9
				c0.6,0.1,1,0.7,0.9,1.3l-2,10.8C136.8,290.1,136.3,290.4,135.8,290.4z"/>
		</g>
		<g>
			<path class="st2" d="M126.7,287.8c-0.2,0-0.5-0.1-0.7-0.2l-8.5-7c-0.5-0.4-0.5-1.1-0.1-1.5c0.4-0.5,1.1-0.5,1.5-0.1l8.5,7
				c0.5,0.4,0.5,1.1,0.1,1.5C127.4,287.7,127,287.8,126.7,287.8z"/>
		</g>
		<g>
			<path class="st2" d="M146.3,273.1c-0.2,0-0.5-0.1-0.7-0.2l-8.5-7c-0.5-0.4-0.5-1.1-0.1-1.5c0.4-0.5,1.1-0.5,1.5-0.1l8.5,7
				c0.5,0.4,0.5,1.1,0.1,1.5C146.9,273,146.6,273.1,146.3,273.1z"/>
		</g>
		<g>
			<path class="st2" d="M148.6,291.7c-0.4,0-0.9-0.3-1-0.7l-3.8-10.3c-0.2-0.6,0.1-1.2,0.6-1.4c0.6-0.2,1.2,0.1,1.4,0.6l3.8,10.3
				c0.2,0.6-0.1,1.2-0.6,1.4C148.8,291.7,148.7,291.7,148.6,291.7z"/>
		</g>
		<g>
			<path class="st2" d="M106.4,297.4c-0.3,0-0.6-0.1-0.8-0.4c-0.4-0.5-0.3-1.1,0.1-1.5l10.8-9.2c0.5-0.4,1.1-0.3,1.5,0.1
				c0.4,0.5,0.3,1.1-0.1,1.5l-10.8,9.2C106.9,297.3,106.7,297.4,106.4,297.4z"/>
		</g>
		<g>
			<path class="st2" d="M131.7,260.7c-0.5,0-0.9-0.3-1-0.8c-0.2-0.6,0.2-1.2,0.7-1.3l10.5-3c0.6-0.2,1.2,0.2,1.3,0.7
				c0.2,0.6-0.2,1.2-0.7,1.3l-10.5,3C131.9,260.7,131.8,260.7,131.7,260.7z"/>
		</g>
		<g>
			<path class="st2" d="M154,311c-0.3,0-0.7-0.2-0.9-0.4c-0.4-0.5-0.3-1.2,0.2-1.5l8.8-6.5c0.5-0.4,1.2-0.3,1.5,0.2
				c0.4,0.5,0.3,1.2-0.2,1.5l-8.8,6.5C154.4,310.9,154.2,311,154,311z"/>
		</g>
		<g>
			<path class="st2" d="M131.7,315.8c-0.2,0-0.4,0-0.6-0.2c-0.5-0.3-0.7-1-0.4-1.5l5.7-9.4c0.3-0.5,1-0.7,1.5-0.4
				c0.5,0.3,0.7,1,0.4,1.5l-5.7,9.4C132.4,315.6,132.1,315.8,131.7,315.8z"/>
		</g>
		<g>
			<path class="st2" d="M183.8,278.1c-0.4,0-0.8-0.2-1-0.7l-4.3-10.1c-0.2-0.5,0-1.2,0.6-1.4c0.5-0.2,1.2,0,1.4,0.6l4.3,10.1
				c0.2,0.5,0,1.2-0.6,1.4C184.1,278.1,184,278.1,183.8,278.1z"/>
		</g>
		<g>
			<path class="st2" d="M165.9,289.7c-0.2,0-0.4,0-0.5-0.1c-0.5-0.3-0.7-1-0.4-1.5l5.5-9.5c0.3-0.5,1-0.7,1.5-0.4
				c0.5,0.3,0.7,1,0.4,1.5l-5.5,9.5C166.7,289.5,166.3,289.7,165.9,289.7z"/>
		</g>
		<g>
			<path class="st2" d="M186.2,286.7c-0.3,0-0.6-0.1-0.8-0.4c-0.4-0.5-0.3-1.1,0.1-1.5l8.5-7c0.5-0.4,1.1-0.3,1.5,0.1
				c0.4,0.5,0.3,1.1-0.1,1.5l-8.5,7C186.7,286.6,186.5,286.7,186.2,286.7z"/>
		</g>
		<g>
			<path class="st2" d="M196.1,270.7c-0.2,0-0.5-0.1-0.7-0.2l-8.4-7c-0.5-0.4-0.5-1.1-0.1-1.5c0.4-0.5,1.1-0.5,1.5-0.1l8.4,7
				c0.5,0.4,0.5,1.1,0.1,1.5C196.7,270.6,196.4,270.7,196.1,270.7z"/>
		</g>
		<g>
			<path class="st2" d="M170.1,269.1c-0.1,0-0.3,0-0.4-0.1c-0.6-0.2-0.8-0.8-0.6-1.4l3.8-10.3c0.2-0.6,0.8-0.8,1.4-0.6
				c0.6,0.2,0.8,0.8,0.6,1.4l-3.8,10.3C171,268.9,170.6,269.1,170.1,269.1z"/>
		</g>
		<g>
			<path class="st2" d="M180.9,258.6c-0.4,0-0.7-0.2-0.9-0.5c-0.3-0.5-0.2-1.2,0.4-1.5l9.3-5.8c0.5-0.3,1.2-0.2,1.5,0.4
				c0.3,0.5,0.2,1.2-0.4,1.5l-9.3,5.8C181.3,258.5,181.1,258.6,180.9,258.6z"/>
		</g>
		<g>
			<path class="st2" d="M118.7,303.3c-0.2,0-0.4-0.1-0.6-0.2c-0.5-0.3-0.6-1-0.3-1.5l6.4-8.9c0.3-0.5,1-0.6,1.5-0.3
				c0.5,0.3,0.6,1,0.3,1.5l-6.4,8.9C119.3,303.2,119,303.3,118.7,303.3z"/>
		</g>
		<g>
			<path class="st2" d="M192,241.8c-0.2,0-0.4-0.1-0.6-0.2c-0.5-0.3-0.6-1-0.3-1.5l6.1-9.1c0.3-0.5,1-0.6,1.5-0.3
				c0.5,0.3,0.6,1,0.3,1.5l-6.1,9.1C192.7,241.6,192.3,241.8,192,241.8z"/>
		</g>
		<g>
			<path class="st2" d="M128.9,277.5c-0.5,0-0.9-0.3-1-0.7l-4.4-13.4c-0.2-0.6,0.1-1.2,0.7-1.4c0.6-0.2,1.2,0.1,1.4,0.7l4.4,13.4
				c0.2,0.6-0.1,1.2-0.7,1.4C129.1,277.5,129,277.5,128.9,277.5z"/>
		</g>
		<g>
			<path class="st2" d="M126.7,224.4c-0.2,0-0.5-0.1-0.7-0.3c-0.5-0.4-0.5-1.1-0.1-1.5l7.1-8.4c0.4-0.5,1.1-0.5,1.5-0.1
				c0.5,0.4,0.5,1.1,0.1,1.5l-7.1,8.4C127.3,224.3,127,224.4,126.7,224.4z"/>
		</g>
		<g>
			<path class="st2" d="M180.8,250.6C180.8,250.6,180.7,250.6,180.8,250.6c-0.7-0.1-1.1-0.6-1.1-1.2l1.1-14.1c0-0.6,0.6-1,1.2-1
				c0.6,0,1,0.6,1,1.2l-1.1,14.1C181.8,250.1,181.4,250.6,180.8,250.6z"/>
		</g>
		<g>
			<path class="st2" d="M148.1,240.3c-0.1,0-0.3,0-0.4-0.1c-0.5-0.2-0.8-0.9-0.6-1.4L152,227c0.2-0.5,0.9-0.8,1.4-0.6
				c0.5,0.2,0.8,0.9,0.6,1.4l-4.9,11.8C148.9,240.1,148.5,240.3,148.1,240.3z"/>
		</g>
		<g>
			<path class="st2" d="M155.3,298.6c-0.1,0-0.2,0-0.4-0.1c-0.6-0.2-0.9-0.8-0.7-1.4l3.6-10.3c0.2-0.6,0.8-0.9,1.4-0.7
				c0.6,0.2,0.9,0.8,0.7,1.4l-3.6,10.3C156.1,298.4,155.7,298.6,155.3,298.6z"/>
		</g>
		<g>
			<path class="st2" d="M182.7,294.2c-0.2,0-0.5-0.1-0.7-0.2l-8.5-7c-0.5-0.4-0.5-1.1-0.1-1.5c0.4-0.5,1.1-0.5,1.5-0.1l8.5,7
				c0.5,0.4,0.5,1.1,0.1,1.5C183.3,294,183,294.2,182.7,294.2z"/>
		</g>
		<g>
			<path class="st2" d="M141.7,248.6c-0.4,0-0.7-0.2-0.9-0.5l-6.8-12c-0.3-0.5-0.1-1.2,0.4-1.5c0.5-0.3,1.2-0.1,1.5,0.4l6.8,12
				c0.3,0.5,0.1,1.2-0.4,1.5C142,248.6,141.9,248.6,141.7,248.6z"/>
		</g>
		<g>
			<path class="st2" d="M157.4,321.8c-0.4,0-0.7-0.2-0.9-0.5c-0.3-0.5-0.2-1.2,0.3-1.5l9.3-5.8c0.5-0.3,1.2-0.2,1.5,0.3
				c0.3,0.5,0.2,1.2-0.3,1.5l-9.3,5.8C157.8,321.7,157.6,321.8,157.4,321.8z"/>
		</g>
		<g>
			<path class="st2" d="M131.4,254.6c-0.1,0-0.2,0-0.3,0l-10.6-2.8c-0.6-0.2-0.9-0.7-0.8-1.3c0.2-0.6,0.7-0.9,1.3-0.8l10.6,2.8
				c0.6,0.2,0.9,0.7,0.8,1.3C132.3,254.3,131.9,254.6,131.4,254.6z"/>
		</g>
		<g>
			<path class="st2" d="M125.7,240.3c-0.2,0-0.3,0-0.5-0.1c-0.5-0.3-0.7-0.9-0.4-1.5l4.2-7.8c0.3-0.5,0.9-0.7,1.5-0.4
				c0.5,0.3,0.7,0.9,0.4,1.5l-4.2,7.8C126.4,240.1,126,240.3,125.7,240.3z"/>
		</g>
		<g>
			<path class="st2" d="M179.6,196c-0.2,0-0.5-0.1-0.7-0.2l-8.5-7c-0.5-0.4-0.5-1.1-0.1-1.5c0.4-0.5,1.1-0.5,1.5-0.1l8.5,7
				c0.5,0.4,0.5,1.1,0.1,1.5C180.2,195.8,179.9,196,179.6,196z"/>
		</g>
		<g>
			<path class="st2" d="M146.7,201.8c-0.3,0-0.7-0.2-0.9-0.5c-0.3-0.5-0.2-1.2,0.3-1.5l11-7.7c0.5-0.3,1.2-0.2,1.5,0.3
				c0.3,0.5,0.2,1.2-0.3,1.5l-11,7.7C147.1,201.7,146.9,201.8,146.7,201.8z"/>
		</g>
		<g>
			<path class="st2" d="M137.8,192.8c-0.2,0-0.4-0.1-0.6-0.2l-9.6-6.6c-0.5-0.3-0.6-1-0.3-1.5c0.3-0.5,1-0.6,1.5-0.3l9.6,6.6
				c0.5,0.3,0.6,1,0.3,1.5C138.5,192.7,138.2,192.8,137.8,192.8z"/>
		</g>
		<g>
			<path class="st2" d="M169.9,232.2c-0.4,0-0.7-0.2-0.9-0.5l-5.5-9.5c-0.3-0.5-0.1-1.2,0.4-1.5c0.5-0.3,1.2-0.1,1.5,0.4l5.5,9.5
				c0.3,0.5,0.1,1.2-0.4,1.5C170.3,232.2,170.1,232.2,169.9,232.2z"/>
		</g>
		<g>
			<path class="st2" d="M168.5,212.4c-0.1,0-0.1,0-0.2,0c-0.6-0.1-1-0.6-0.9-1.2l1.4-8.7c0.1-0.6,0.6-1,1.2-0.9
				c0.6,0.1,1,0.6,0.9,1.2l-1.4,8.7C169.5,212,169,212.4,168.5,212.4z"/>
		</g>
		<g>
			<path class="st2" d="M188.5,207c-0.1,0-0.3,0-0.4-0.1l-10.1-4.4c-0.5-0.2-0.8-0.9-0.6-1.4c0.2-0.5,0.9-0.8,1.4-0.6l10.1,4.4
				c0.5,0.2,0.8,0.9,0.6,1.4C189.3,206.7,188.9,207,188.5,207z"/>
		</g>
		<g>
			<path class="st2" d="M158.4,205.5c-0.2,0-0.4,0-0.6-0.2c-0.5-0.3-0.7-1-0.4-1.5l5.7-9.4c0.3-0.5,1-0.7,1.5-0.4
				c0.5,0.3,0.7,1,0.4,1.5l-5.7,9.4C159.1,205.3,158.7,205.5,158.4,205.5z"/>
		</g>
		<g>
			<path class="st2" d="M138.5,230.7c-0.1,0-0.3,0-0.4-0.1c-0.6-0.2-0.8-0.8-0.6-1.4l4.9-12.6c0.2-0.6,0.8-0.8,1.4-0.6
				c0.6,0.2,0.8,0.8,0.6,1.4l-4.9,12.6C139.3,230.4,138.9,230.7,138.5,230.7z"/>
		</g>
		<g>
			<path class="st2" d="M143.5,210.1c-0.3,0-0.5-0.1-0.8-0.3l-7.8-7.7c-0.4-0.4-0.4-1.1,0-1.5c0.4-0.4,1.1-0.4,1.5,0l7.8,7.7
				c0.4,0.4,0.4,1.1,0,1.5C144.1,210,143.8,210.1,143.5,210.1z"/>
		</g>
		<g>
			<path class="st2" d="M150.8,220.6c-0.3,0-0.6-0.1-0.8-0.4c-0.4-0.5-0.3-1.1,0.1-1.5l8.5-7c0.5-0.4,1.1-0.3,1.5,0.1
				s0.3,1.1-0.1,1.5l-8.5,7C151.3,220.5,151.1,220.6,150.8,220.6z"/>
		</g>
		<g>
			<path class="st2" d="M105.9,201.8c-0.3,0-0.5-0.1-0.7-0.3c-0.4-0.4-0.5-1.1-0.1-1.5l7-7.7c0.4-0.4,1.1-0.5,1.5-0.1
				c0.4,0.4,0.5,1.1,0.1,1.5l-7,7.7C106.5,201.7,106.2,201.8,105.9,201.8z"/>
		</g>
		<g>
			<path class="st2" d="M120.4,213.6c-0.3,0-0.6-0.1-0.8-0.4c-0.4-0.5-0.3-1.1,0.1-1.5l8.5-7c0.5-0.4,1.1-0.3,1.5,0.1
				c0.4,0.5,0.3,1.1-0.1,1.5l-8.5,7C120.9,213.5,120.7,213.6,120.4,213.6z"/>
		</g>
		<g>
			<path class="st2" d="M124.8,197.4c-0.5,0-0.9-0.3-1-0.8l-3.2-10.5c-0.2-0.6,0.2-1.2,0.7-1.3c0.6-0.2,1.2,0.2,1.3,0.7l3.2,10.5
				c0.2,0.6-0.2,1.2-0.7,1.3C125,197.4,124.9,197.4,124.8,197.4z"/>
		</g>
		<g>
			<path class="st2" d="M106,313.1c-0.1,0-0.3,0-0.4-0.1c-0.5-0.2-0.8-0.9-0.6-1.4l4.3-10.1c0.2-0.5,0.9-0.8,1.4-0.6
				c0.5,0.2,0.8,0.9,0.6,1.4l-4.3,10.1C106.8,312.9,106.4,313.1,106,313.1z"/>
		</g>
		<g>
			<path class="st2" d="M105.8,323.3c-0.3,0-0.6-0.1-0.8-0.4c-0.4-0.5-0.3-1.1,0.1-1.5l8.4-7c0.5-0.4,1.1-0.3,1.5,0.1
				c0.4,0.5,0.3,1.1-0.1,1.5l-8.4,7C106.3,323.2,106,323.3,105.8,323.3z"/>
		</g>
		<g>
			<path class="st2" d="M117.1,264.1c-0.2,0-0.5-0.1-0.7-0.2l-8.4-7c-0.5-0.4-0.5-1.1-0.1-1.5c0.4-0.5,1.1-0.5,1.5-0.1l8.4,7
				c0.5,0.4,0.5,1.1,0.1,1.5C117.7,264,117.4,264.1,117.1,264.1z"/>
		</g>
		<g>
			<path class="st2" d="M94.3,217.5c-0.5,0-0.9-0.3-1-0.8c-0.1-0.6,0.2-1.2,0.8-1.3l10.6-2.6c0.6-0.1,1.2,0.2,1.3,0.8
				c0.1,0.6-0.2,1.2-0.8,1.3l-10.6,2.6C94.4,217.5,94.3,217.5,94.3,217.5z"/>
		</g>
		<g>
			<path class="st2" d="M99.4,254.6c-0.2,0-0.4-0.1-0.6-0.2c-0.5-0.3-0.7-1-0.4-1.5l5.7-9.4c0.3-0.5,1-0.7,1.5-0.4
				c0.5,0.3,0.7,1,0.4,1.5l-5.7,9.4C100.1,254.4,99.8,254.6,99.4,254.6z"/>
		</g>
		<g>
			<path class="st2" d="M98.8,234.4c-0.3,0-0.6-0.1-0.8-0.4c-0.4-0.5-0.3-1.1,0.1-1.5l8.4-7c0.5-0.4,1.1-0.3,1.5,0.1
				s0.3,1.1-0.1,1.5l-8.4,7C99.3,234.4,99,234.4,98.8,234.4z"/>
		</g>
		<g>
			<path class="st2" d="M117.3,228.1c-0.4,0-0.7-0.2-0.9-0.5l-5.5-9.4c-0.3-0.5-0.1-1.2,0.4-1.5c0.5-0.3,1.2-0.1,1.5,0.4l5.5,9.4
				c0.3,0.5,0.1,1.2-0.4,1.5C117.7,228.1,117.5,228.1,117.3,228.1z"/>
		</g>
		<g>
			<path class="st2" d="M114.7,246.1c-0.4,0-0.7-0.2-0.9-0.5l-7-11.6c-0.3-0.5-0.1-1.2,0.4-1.5c0.5-0.3,1.2-0.1,1.5,0.4l7,11.6
				c0.3,0.5,0.1,1.2-0.4,1.5C115.1,246.1,114.9,246.1,114.7,246.1z"/>
		</g>
		<g>
			<path class="st2" d="M101.2,274.3c-0.1,0-0.1,0-0.2,0c-0.6-0.1-1-0.7-0.9-1.3l2-10.8c0.1-0.6,0.7-1,1.3-0.9
				c0.6,0.1,1,0.7,0.9,1.3l-2,10.8C102.2,273.9,101.7,274.3,101.2,274.3z"/>
		</g>
		<g>
			<path class="st2" d="M107,279.6c-0.3,0-0.6-0.1-0.9-0.4c-0.4-0.5-0.3-1.1,0.2-1.5l10.3-7.9c0.5-0.4,1.1-0.3,1.5,0.2
				c0.4,0.5,0.3,1.1-0.2,1.5l-10.3,7.9C107.5,279.6,107.3,279.6,107,279.6z"/>
		</g>
		<g>
			<path class="st2" d="M123.1,319.4c-0.6,0-1-0.4-1.1-1l-0.8-10.9c0-0.6,0.4-1.1,1-1.2c0.6,0,1.1,0.4,1.2,1l0.8,10.9
				C124.3,318.8,123.8,319.3,123.1,319.4C123.2,319.4,123.2,319.4,123.1,319.4z"/>
		</g>
		<g>
			<path class="st2" d="M172,221.2c-0.3,0-0.6-0.1-0.8-0.4c-0.4-0.5-0.3-1.1,0.1-1.5l10.1-8.4c0.5-0.4,1.1-0.3,1.5,0.1
				c0.4,0.5,0.3,1.1-0.1,1.5l-10.1,8.4C172.5,221.1,172.2,221.2,172,221.2z"/>
		</g>
		<g>
			<path class="st2" d="M194.4,223.9c-0.4,0-0.7-0.2-0.9-0.5l-5.5-9.5c-0.3-0.5-0.1-1.2,0.4-1.5c0.5-0.3,1.2-0.1,1.5,0.4l5.5,9.5
				c0.3,0.5,0.1,1.2-0.4,1.5C194.7,223.9,194.5,223.9,194.4,223.9z"/>
		</g>
		<g>
			<path class="st2" d="M188.2,230.4c-0.2,0-0.3,0-0.5-0.1l-9.8-4.9c-0.5-0.3-0.7-0.9-0.5-1.4c0.3-0.5,0.9-0.7,1.4-0.5l9.8,4.9
				c0.5,0.3,0.7,0.9,0.5,1.4C189,230.2,188.6,230.4,188.2,230.4z"/>
		</g>
		<g>
			<path class="st2" d="M157.5,281.9c-0.3,0-0.6-0.1-0.8-0.4c-0.4-0.5-0.3-1.1,0.1-1.5l8.5-7c0.5-0.4,1.1-0.3,1.5,0.1
				c0.4,0.5,0.3,1.1-0.1,1.5l-8.5,7C158,281.8,157.7,281.9,157.5,281.9z"/>
		</g>
		<g>
			<path class="st2" d="M134.6,299.1c-0.4,0-0.8-0.3-1-0.7c-0.2-0.6,0-1.2,0.6-1.4l10.2-4.1c0.6-0.2,1.2,0,1.4,0.6
				c0.2,0.6,0,1.2-0.6,1.4L135,299C134.8,299.1,134.7,299.1,134.6,299.1z"/>
		</g>
		<g>
			<path class="st2" d="M149.4,319.8c-0.4,0-0.8-0.2-1-0.6l-5.1-10.9c-0.3-0.5,0-1.2,0.5-1.4c0.5-0.3,1.2,0,1.4,0.5l5.1,10.9
				c0.3,0.5,0,1.2-0.5,1.4C149.7,319.8,149.5,319.8,149.4,319.8z"/>
		</g>
		<g>
			<path class="st2" d="M196.2,305.6c-0.1,0-0.2,0-0.4-0.1l-10.3-3.8c-0.6-0.2-0.8-0.8-0.6-1.4c0.2-0.6,0.8-0.8,1.4-0.6l10.3,3.8
				c0.6,0.2,0.8,0.8,0.6,1.4C197.1,305.4,196.7,305.6,196.2,305.6z"/>
		</g>
		<g>
			<path class="st2" d="M186.8,199.6c0,0-0.1,0-0.1,0c-0.6-0.1-1-0.6-1-1.2l1-11.2c0.1-0.6,0.6-1,1.2-1c0.6,0.1,1,0.6,1,1.2l-1,11.2
				C187.8,199.2,187.4,199.6,186.8,199.6z"/>
		</g>
		<g>
			<path class="st2" d="M195.1,297.8c-0.1,0-0.2,0-0.3,0c-0.6-0.1-0.9-0.7-0.8-1.3l2.7-10.6c0.1-0.6,0.7-0.9,1.3-0.8
				c0.6,0.1,0.9,0.7,0.8,1.3l-2.7,10.6C196,297.5,195.5,297.8,195.1,297.8z"/>
		</g>
		<g>
			<path class="st2" d="M175.2,311.1c-0.5,0-0.9-0.3-1-0.8c-0.2-0.6,0.2-1.2,0.7-1.3l10.5-3.2c0.6-0.2,1.2,0.2,1.3,0.7
				c0.2,0.6-0.2,1.2-0.7,1.3l-10.5,3.2C175.4,311,175.3,311.1,175.2,311.1z"/>
		</g>
		<g>
			<path class="st2" d="M166.5,251.5c-0.3,0-0.5-0.1-0.7-0.3c-0.4-0.4-0.5-1.1-0.1-1.5l9.8-10.6c0.4-0.4,1.1-0.5,1.5-0.1
				c0.4,0.4,0.5,1.1,0.1,1.5l-9.8,10.6C167.1,251.4,166.8,251.5,166.5,251.5z"/>
		</g>
		<g>
			<path class="st2" d="M108.5,209.2c-0.3,0-0.7-0.2-0.9-0.5c-0.3-0.5-0.2-1.2,0.3-1.5l9-6.2c0.5-0.3,1.2-0.2,1.5,0.3
				c0.3,0.5,0.2,1.2-0.3,1.5l-9,6.2C109,209.1,108.7,209.2,108.5,209.2z"/>
		</g>
		<g>
			<path class="st2" d="M163.5,244.2c-0.5,0-0.9-0.3-1-0.8l-2.9-12.9c-0.1-0.6,0.2-1.2,0.8-1.3c0.6-0.1,1.2,0.2,1.3,0.8l2.9,12.9
				c0.1,0.6-0.2,1.2-0.8,1.3C163.6,244.1,163.6,244.2,163.5,244.2z"/>
		</g>
		<g>
			<path class="st2" d="M182.7,319.8c-0.1,0-0.2,0-0.3-0.1l-7.8-2.5c-0.6-0.2-0.9-0.8-0.7-1.4c0.2-0.6,0.8-0.9,1.4-0.7l7.8,2.5
				c0.6,0.2,0.9,0.8,0.7,1.4C183.6,319.5,183.2,319.8,182.7,319.8z"/>
		</g>
		<g>
			<path class="st2" d="M144.8,196.1c0,0-0.1,0-0.1,0c-0.6-0.1-1-0.6-1-1.2l1.1-10.9c0.1-0.6,0.6-1,1.2-1c0.6,0.1,1,0.6,1,1.2
				l-1.1,10.9C145.8,195.6,145.3,196.1,144.8,196.1z"/>
		</g>
		<g>
			<path class="st2" d="M100.6,208.2c-0.5,0-1-0.4-1.1-0.9L97,193.9c-0.1-0.6,0.3-1.1,0.9-1.3c0.6-0.1,1.1,0.3,1.3,0.9l2.6,13.5
				c0.1,0.6-0.3,1.1-0.9,1.3C100.8,208.2,100.7,208.2,100.6,208.2z"/>
		</g>
		<g>
			<path class="st2" d="M164,336.1c-0.1,0-0.2,0-0.3-0.1c-0.6-0.2-0.9-0.8-0.7-1.4l4.6-14.1c0.2-0.6,0.8-0.9,1.4-0.7
				c0.6,0.2,0.9,0.8,0.7,1.4l-4.6,14.1C164.9,335.8,164.5,336.1,164,336.1z"/>
		</g>
		<g>
			<path class="st2" d="M155.8,336.1c-0.3,0-0.7-0.2-0.9-0.5l-7.7-10.9c-0.3-0.5-0.2-1.2,0.3-1.5c0.5-0.3,1.2-0.2,1.5,0.3l7.7,10.9
				c0.3,0.5,0.2,1.2-0.3,1.5C156.2,336.1,156,336.1,155.8,336.1z"/>
		</g>
		<g>
			<path class="st2" d="M112.5,334.3c-0.1,0-0.2,0-0.2,0c-0.6-0.1-0.9-0.7-0.8-1.3l2.4-10.7c0.1-0.6,0.7-0.9,1.3-0.8
				c0.6,0.1,0.9,0.7,0.8,1.3l-2.4,10.7C113.4,334,112.9,334.3,112.5,334.3z"/>
		</g>
		<g>
			<path class="st2" d="M123.1,329.1c-0.3,0-0.7-0.2-0.9-0.4c-0.3-0.5-0.2-1.2,0.2-1.5l8.3-6c0.5-0.3,1.2-0.2,1.5,0.2
				c0.3,0.5,0.2,1.2-0.2,1.5l-8.3,6C123.5,329,123.3,329.1,123.1,329.1z"/>
		</g>
		<g>
			<path class="st2" d="M99.1,333.3c-0.5,0-1-0.4-1.1-0.9L96,321.7c-0.1-0.6,0.3-1.1,0.9-1.3c0.6-0.1,1.1,0.3,1.3,0.9l2.1,10.8
				c0.1,0.6-0.3,1.1-0.9,1.3C99.2,333.3,99.2,333.3,99.1,333.3z"/>
		</g>
		<g>
			<path class="st2" d="M180.2,336.1c-0.6,0-1.1-0.5-1.1-1.1l-0.1-8.4c0-0.6,0.5-1.1,1.1-1.1h0c0.6,0,1.1,0.5,1.1,1.1l0.1,8.4
				C181.2,335.6,180.8,336.1,180.2,336.1L180.2,336.1z"/>
		</g>
		<g>
			<path class="st2" d="M138.2,330.1c-0.5,0-1-0.4-1.1-0.9l-1.8-10.8c-0.1-0.6,0.3-1.1,0.9-1.2c0.6-0.1,1.1,0.3,1.2,0.9l1.8,10.8
				c0.1,0.6-0.3,1.1-0.9,1.2C138.3,330.1,138.2,330.1,138.2,330.1z"/>
		</g>
		<g>
			<path class="st2" d="M193,332c-0.4,0-0.7-0.2-0.9-0.6l-4.7-8.5c-0.3-0.5-0.1-1.2,0.4-1.5c0.5-0.3,1.2-0.1,1.5,0.4l4.7,8.5
				c0.3,0.5,0.1,1.2-0.4,1.5C193.4,332,193.2,332,193,332z"/>
		</g>
	</g>
</g>
<g>
	<g>
		<defs>
			<rect id="SVGID_3_" x="5" y="324.4" width="176" height="35"/>
		</defs>
		<clipPath id="SVGID_4_">
			<use xlink:href="#SVGID_3_"  style="overflow:visible;"/>
		</clipPath>
		<g class="st3">
			<defs>
				<rect id="SVGID_5_" x="-173" y="-5497.6" width="768" height="15351"/>
			</defs>
			<clipPath id="SVGID_6_">
				<use xlink:href="#SVGID_5_"  style="overflow:visible;"/>
			</clipPath>
			<rect y="319.4" class="st4" width="186" height="45"/>
		</g>
	</g>
	<g>
		<path class="st2" d="M79,338.6c0.8,1,1.2,2.5,1.2,4.2c0,1.9-0.4,3.3-1.1,4.3c-0.8,1-1.9,1.5-3.3,1.5c-1,0-1.9-0.2-2.5-0.6
			c-0.6-0.4-1.1-1-1.5-1.9l1.7-0.8c0.2,0.6,0.4,1,0.7,1.3c0.3,0.3,0.8,0.4,1.5,0.4c1,0,1.7-0.4,2.1-1.1s0.6-1.9,0.6-3.3v-0.2h-0.1
			c-0.2,0.7-0.5,1.1-1.1,1.5c-0.6,0.3-1.2,0.5-1.9,0.5c-0.7,0-1.4-0.1-1.9-0.4c-0.6-0.3-1-0.7-1.3-1.3c-0.3-0.5-0.5-1.2-0.5-1.9
			c0-1.1,0.4-2,1.1-2.7c0.7-0.7,1.7-1,2.9-1C77.2,337,78.3,337.5,79,338.6z M74.1,339.2c-0.4,0.4-0.6,0.9-0.6,1.6
			c0,0.6,0.2,1.2,0.6,1.5c0.4,0.4,0.9,0.5,1.6,0.5c0.7,0,1.2-0.2,1.6-0.6c0.4-0.4,0.6-0.9,0.6-1.5c0-0.6-0.2-1.1-0.6-1.5
			c-0.4-0.4-0.9-0.6-1.6-0.6C75.1,338.6,74.5,338.8,74.1,339.2z"/>
		<path class="st2" d="M84.5,346.4c0.2,0.2,0.3,0.5,0.3,0.9s-0.1,0.7-0.3,0.9s-0.5,0.3-0.9,0.3c-0.4,0-0.7-0.1-0.9-0.3
			c-0.2-0.2-0.4-0.5-0.4-0.9s0.1-0.7,0.3-0.9c0.2-0.2,0.5-0.3,0.9-0.3C84,346.1,84.3,346.2,84.5,346.4z"/>
		<path class="st2" d="M93.2,341.6c0.5,0.3,0.9,0.7,1.2,1.2c0.3,0.5,0.4,1.2,0.4,1.9c0,1.2-0.4,2.2-1.1,2.8s-1.7,1-2.9,1
			c-1,0-1.9-0.2-2.5-0.6c-0.7-0.4-1.2-1-1.6-1.9l1.7-0.9c0.2,0.6,0.4,1.1,0.8,1.4c0.3,0.3,0.9,0.5,1.6,0.5c0.7,0,1.2-0.2,1.6-0.6
			c0.4-0.4,0.6-0.9,0.6-1.6c0-0.7-0.2-1.2-0.6-1.6s-0.9-0.6-1.6-0.6c-1.1,0-1.8,0.3-2.3,1l-1.5-0.1l0.7-6.4h6.5v1.6h-5.1l-0.4,3.1
			l0,0.2h0c0.5-0.6,1.4-0.9,2.5-0.9C92,341.2,92.7,341.3,93.2,341.6z"/>
		<path class="st2" d="M106.9,337.9c0.5,0.6,0.8,1.3,0.8,2.3s-0.3,1.7-0.8,2.3s-1.2,0.9-2.1,0.9s-1.5-0.3-2.1-0.9s-0.8-1.3-0.8-2.3
			s0.3-1.7,0.8-2.3s1.2-0.9,2.1-0.9S106.3,337.3,106.9,337.9z M103.8,338.8c-0.2,0.3-0.3,0.8-0.3,1.3c0,0.6,0.1,1,0.3,1.3
			s0.6,0.5,1,0.5c0.4,0,0.8-0.2,1-0.5s0.3-0.8,0.3-1.3c0-0.6-0.1-1-0.3-1.3c-0.2-0.3-0.6-0.5-1-0.5
			C104.4,338.3,104,338.5,103.8,338.8z M111.7,337.2h1.6l-7.3,11.2h-1.6L111.7,337.2z M114.9,343.2c0.5,0.6,0.8,1.3,0.8,2.3
			s-0.3,1.7-0.8,2.3s-1.2,0.9-2.1,0.9c-0.9,0-1.6-0.3-2.1-0.9s-0.8-1.3-0.8-2.3s0.3-1.7,0.8-2.3s1.2-0.9,2.1-0.9
			C113.7,342.3,114.4,342.6,114.9,343.2z M111.8,344.1c-0.2,0.3-0.3,0.8-0.3,1.3c0,0.6,0.1,1,0.3,1.3c0.2,0.3,0.6,0.5,1,0.5
			c0.4,0,0.8-0.2,1-0.5c0.2-0.3,0.3-0.8,0.3-1.3c0-0.6-0.1-1-0.3-1.3s-0.6-0.5-1-0.5C112.4,343.7,112.1,343.8,111.8,344.1z"/>
	</g>
	<g>
		<defs>
			<polygon id="SVGID_7_" points="93.5,367.4 87,358.4 100,358.4 			"/>
		</defs>
		<clipPath id="SVGID_8_">
			<use xlink:href="#SVGID_7_"  style="overflow:visible;"/>
		</clipPath>
		<g class="st5">
			<defs>
				<rect id="SVGID_9_" x="-173" y="-5497.6" width="768" height="15351"/>
			</defs>
			<clipPath id="SVGID_10_">
				<use xlink:href="#SVGID_9_"  style="overflow:visible;"/>
			</clipPath>
			<rect x="82" y="353.4" class="st6" width="23" height="19"/>
		</g>
	</g>
</g>
</svg>
