<?xml version="1.0" encoding="UTF-8"?>
<svg width="322px" height="308px" viewBox="0 0 322 308" version="1.1" xmlns="http://www.w3.org/2000/svg" xmlns:xlink="http://www.w3.org/1999/xlink">
    <!-- Generator: Sketch 47.1 (45422) - http://www.bohemiancoding.com/sketch -->
    <title>Group 2</title>
    <desc>Created with Sketch.</desc>
    <defs>
        <polygon id="path-1" points="0 159.5 0 319 322 319 322 159.5 322 0 0 0"></polygon>
        <polygon id="path-3" points="0 202 231.057 202 231.057 0.996 0 0.996"></polygon>
    </defs>
    <g id="Page-1" stroke="none" stroke-width="1" fill="none" fill-rule="evenodd">
        <g id="21-by-2050" transform="translate(-401.000000, -12409.000000)">
            <g id="Group-2" transform="translate(401.000000, 12398.000000)">
                <g id="Page-1">
                    <mask id="mask-2" fill="white">
                        <use xlink:href="#path-1"></use>
                    </mask>
                    <g id="Clip-2"></g>
                    <path d="M175.135013,309.875195 C87.3556667,348.076862 -1.96867823,259.446178 -1.99996935,171.716454 C-2.03126047,83.9867303 21.8735124,70.3133428 175.135013,17.8048813 C271.151933,-15.0911869 322,76.9727291 322,171.716454 C322,266.460179 256.495925,274.466988 175.135013,309.875195 Z" id="Fill-1" fill="#FFE9EF" mask="url(#mask-2)"></path>
                </g>
                <g id="Page-1" transform="translate(43.000000, 57.000000)">
                    <path d="M61.3,116.1855 L61.3,9.2895" id="Stroke-1" stroke="#3723FF" stroke-width="2.6" stroke-linecap="round" stroke-linejoin="round"></path>
                    <g id="Humane-Illustration" transform="translate(0.000000, 0.004000)">
                        <path d="M211.2648,179.869 C211.2648,185.836 177.0048,208.3 159.3778,198.064 C130.0308,181.024 104.5058,185.836 104.5058,179.869 C104.5058,173.902 131.3838,169.065 159.8048,169.065 C188.2248,169.065 211.2648,173.902 211.2648,179.869 Z" id="Fill-2" fill="#FFFCF5"></path>
                        <path d="M211.2648,179.869 C211.2648,185.836 177.0048,208.3 159.3778,198.064 C130.0308,181.024 104.5058,185.836 104.5058,179.869 C104.5058,173.902 131.3838,169.065 159.8048,169.065 C188.2248,169.065 211.2648,173.902 211.2648,179.869 Z" id="Stroke-4" stroke="#3723FF" stroke-width="2.6" stroke-linecap="round" stroke-linejoin="round"></path>
                        <path d="M193.8039,183.2352 C189.0819,186.0842 183.0829,188.9612 177.1479,190.4872" id="Stroke-6" stroke="#3723FF" stroke-width="2.6" stroke-linecap="round" stroke-linejoin="round"></path>
                        <g id="Group-11" transform="translate(45.000000, 139.000000)">
                            <path d="M135.1682,0.8631 L135.1682,7.0541 C135.1682,10.4611 132.3812,13.2471 128.9762,13.2471 L7.1082,13.2471 C3.7022,13.2471 0.9162,10.4611 0.9162,7.0541 L0.9162,0.8631" id="Fill-8" fill="#FFFCF5"></path>
                            <path d="M135.1682,0.8631 L135.1682,7.0541 C135.1682,10.4611 132.3812,13.2471 128.9762,13.2471 L7.1082,13.2471 C3.7022,13.2471 0.9162,10.4611 0.9162,7.0541 L0.9162,0.8631" id="Stroke-10" stroke="#3723FF" stroke-width="2.6" stroke-linecap="round" stroke-linejoin="round"></path>
                        </g>
                        <path d="M185.6057,44.3807 C185.6387,44.4137 185.6747,44.4427 185.7097,44.4747 L169.7687,60.4147 L175.4927,66.1387 L191.4327,50.1977 C191.4647,50.2327 191.4937,50.2687 191.5267,50.3017 C193.8827,52.6577 197.7047,52.6587 200.0607,50.3027 C202.4177,47.9457 202.4177,44.1247 200.0607,41.7687 C198.9097,40.6177 197.4097,40.0327 195.9017,40.0067 C195.8747,38.4977 195.2907,36.9977 194.1387,35.8477 C191.7827,33.4907 187.9617,33.4907 185.6057,35.8477 C183.2497,38.2037 183.2497,42.0247 185.6057,44.3807" id="Fill-12" fill="#E2F8FF"></path>
                        <path d="M185.6057,44.3807 C185.6387,44.4137 185.6747,44.4427 185.7097,44.4747 L169.7687,60.4147 L175.4927,66.1387 L191.4327,50.1977 C191.4647,50.2327 191.4937,50.2687 191.5267,50.3017 C193.8827,52.6577 197.7047,52.6587 200.0607,50.3027 C202.4177,47.9457 202.4177,44.1247 200.0607,41.7687 C198.9097,40.6177 197.4097,40.0327 195.9017,40.0067 C195.8747,38.4977 195.2907,36.9977 194.1387,35.8477 C191.7827,33.4907 187.9617,33.4907 185.6057,35.8477 C183.2497,38.2037 183.2497,42.0247 185.6057,44.3807 Z" id="Stroke-14" stroke="#3723FF" stroke-width="2.6" stroke-linecap="round" stroke-linejoin="round"></path>
                        <g id="Group-19" transform="translate(52.000000, 52.000000)">
                            <path d="M12.2512,78.5184 C-24.0398,48.3394 32.4112,-8.5696 69.0602,1.8464 C106.8002,12.5724 175.9242,26.4764 128.6492,79.3134" id="Fill-16" fill="#FFC8D7"></path>
                            <path d="M12.2512,78.5184 C-24.0398,48.3394 32.4112,-8.5696 69.0602,1.8464 C106.8002,12.5724 175.9242,26.4764 128.6492,79.3134" id="Stroke-18" stroke="#3723FF" stroke-width="2.6" stroke-linecap="round" stroke-linejoin="round"></path>
                        </g>
                        <path d="M67.2092,98.5184 C66.3512,100.7954 65.8622,102.8714 65.6562,104.7584" id="Stroke-20" stroke="#3723FF" stroke-width="2.6" stroke-linecap="round" stroke-linejoin="round"></path>
                        <path d="M111.7219,65.5936 C97.6339,65.5936 79.0399,77.2766 70.1399,92.4586" id="Stroke-22" stroke="#3723FF" stroke-width="2.6" stroke-linecap="round" stroke-linejoin="round"></path>
                        <mask id="mask-4" fill="white">
                            <use xlink:href="#path-3"></use>
                        </mask>
                        <g id="Clip-25"></g>
                        <polygon id="Fill-24" fill="#FFFCF5" mask="url(#mask-4)" points="31.052 140.108 195.032 140.108 195.032 131.313 31.052 131.313"></polygon>
                        <polygon id="Stroke-26" stroke="#3723FF" stroke-width="2.6" stroke-linecap="round" stroke-linejoin="round" mask="url(#mask-4)" points="31.052 140.108 195.032 140.108 195.032 131.313 31.052 131.313"></polygon>
                        <path d="M174.8225,61.0858 C166.4145,52.6778 153.2045,55.0848 145.3135,66.4588 C137.4235,77.8328 135.0175,91.0438 139.9405,95.9678 C144.8635,100.8908 158.0765,98.4848 169.4495,90.5948 C180.8225,82.7028 183.2275,69.4918 174.8225,61.0858" id="Fill-27" fill="#FFC8D7" mask="url(#mask-4)"></path>
                        <path d="M174.8225,61.0858 C166.4145,52.6778 153.2045,55.0848 145.3135,66.4588 C137.4235,77.8328 135.0175,91.0438 139.9405,95.9678 C144.8635,100.8908 158.0765,98.4848 169.4495,90.5948 C180.8225,82.7028 183.2275,69.4918 174.8225,61.0858 Z" id="Stroke-28" stroke="#3723FF" stroke-width="2.6" stroke-linecap="round" stroke-linejoin="round" mask="url(#mask-4)"></path>
                        <path d="M165.216,66.6483 C166.08,66.9863 166.889,67.5293 167.635,68.2743 C169.144,69.7853 169.821,71.5533 169.644,73.5323 C169.45,75.6873 168.27,77.9513 166.359,79.9463" id="Stroke-29" stroke="#3723FF" stroke-width="2.6" stroke-linecap="round" stroke-linejoin="round" mask="url(#mask-4)"></path>
                        <path d="M205.6369,138.951 C203.3999,126.546 196.7509,116.49 190.7909,116.49 C184.8359,116.49 178.1799,126.546 175.9459,138.951 C173.7039,151.354 180.3559,161.411 190.7909,161.411 C201.2319,161.412 207.8769,151.355 205.6369,138.951" id="Fill-30" fill="#FFFCF5" mask="url(#mask-4)"></path>
                        <path d="M205.6369,138.951 C203.3999,126.546 196.7509,116.49 190.7909,116.49 C184.8359,116.49 178.1799,126.546 175.9459,138.951 C173.7039,151.354 180.3559,161.411 190.7909,161.411 C201.2319,161.412 207.8769,151.355 205.6369,138.951 Z" id="Stroke-31" stroke="#3723FF" stroke-width="2.6" stroke-linecap="round" stroke-linejoin="round" mask="url(#mask-4)"></path>
                        <path d="M229.6662,145.3075 C230.4272,132.7255 226.3482,121.3815 220.5572,119.9715 C214.7712,118.5625 205.9252,126.7565 200.8172,138.2815 C195.7052,149.8015 199.7872,161.1465 209.9272,163.6165 C220.0702,166.0875 228.9062,157.8895 229.6662,145.3075" id="Fill-32" fill="#FFFCF5" mask="url(#mask-4)"></path>
                        <path d="M229.6662,145.3075 C230.4272,132.7255 226.3482,121.3815 220.5572,119.9715 C214.7712,118.5625 205.9252,126.7565 200.8172,138.2815 C195.7052,149.8015 199.7872,161.1465 209.9272,163.6165 C220.0702,166.0875 228.9062,157.8895 229.6662,145.3075 Z" id="Stroke-33" stroke="#3723FF" stroke-width="2.6" stroke-linecap="round" stroke-linejoin="round" mask="url(#mask-4)"></path>
                        <path d="M143.7648,173.3163 C143.7628,174.6143 143.7638,175.9163 143.7648,177.2143 C153.9728,182.8293 166.3418,182.8283 176.5558,177.2153 L176.5558,173.3163 C176.6748,155.1393 143.6418,155.1393 143.7648,173.3163" id="Fill-34" fill="#FFC8D7" mask="url(#mask-4)"></path>
                        <path d="M143.7648,173.3163 C143.7628,174.6143 143.7638,175.9163 143.7648,177.2143 C153.9728,182.8293 166.3418,182.8283 176.5558,177.2153 L176.5558,173.3163 C176.6748,155.1393 143.6418,155.1393 143.7648,173.3163 Z" id="Stroke-35" stroke="#3723FF" stroke-width="2.6" stroke-linecap="round" stroke-linejoin="round" mask="url(#mask-4)"></path>
                        <path d="M143.7648,173.3163 C143.7628,174.6143 143.7638,175.9163 143.7648,177.2143 C153.9728,182.8293 166.3418,182.8283 176.5558,177.2153 L176.5558,173.3163 C176.6748,155.1393 143.6418,155.1393 143.7648,173.3163" id="Fill-36" fill="#FFC8D7" mask="url(#mask-4)"></path>
                        <path d="M143.7648,173.3163 C143.7628,174.6143 143.7638,175.9163 143.7648,177.2143 C153.9728,182.8293 166.3418,182.8283 176.5558,177.2153 L176.5558,173.3163 C176.6748,155.1393 143.6418,155.1393 143.7648,173.3163 Z" id="Stroke-37" stroke="#3723FF" stroke-width="2.6" stroke-linecap="round" stroke-linejoin="round" mask="url(#mask-4)"></path>
                        <path d="M195.9016,40.0067 L192.8526,42.8907" id="Stroke-38" stroke="#3723FF" stroke-width="2.6" stroke-linecap="round" stroke-linejoin="round" mask="url(#mask-4)"></path>
                        <path d="M94.4582,153.3045 C94.8722,153.3045 95.2762,153.3505 95.6732,153.4225 L95.6732,143.5215 L1.3002,144.4855 L1.3002,153.2235 C6.5242,153.6745 10.6342,158.3155 10.6342,163.9835 C10.6342,169.6525 6.5242,174.2925 1.3002,174.7435 L1.3002,182.0795 L95.6732,181.1165 L95.6732,168.5065 C95.2762,168.5775 94.8722,168.6235 94.4582,168.6235 C90.4782,168.6235 87.2512,165.1945 87.2512,160.9645 C87.2512,156.7345 90.4782,153.3045 94.4582,153.3045" id="Fill-39" fill="#E2F8FF" mask="url(#mask-4)"></path>
                        <path d="M94.4582,153.3045 C94.8722,153.3045 95.2762,153.3505 95.6732,153.4225 L95.6732,143.5215 L1.3002,144.4855 L1.3002,153.2235 C6.5242,153.6745 10.6342,158.3155 10.6342,163.9835 C10.6342,169.6525 6.5242,174.2925 1.3002,174.7435 L1.3002,182.0795 L95.6732,181.1165 L95.6732,168.5065 C95.2762,168.5775 94.8722,168.6235 94.4582,168.6235 C90.4782,168.6235 87.2512,165.1945 87.2512,160.9645 C87.2512,156.7345 90.4782,153.3045 94.4582,153.3045 Z" id="Stroke-40" stroke="#3723FF" stroke-width="2.6" stroke-linecap="round" stroke-linejoin="round" mask="url(#mask-4)"></path>
                        <polygon id="Fill-41" fill="#FFFCF5" mask="url(#mask-4)" points="28.9426 123.5526 1.9486 143.7506 95.6726 143.5216"></polygon>
                        <polygon id="Stroke-42" stroke="#3723FF" stroke-width="2.6" stroke-linecap="round" stroke-linejoin="round" mask="url(#mask-4)" points="28.9426 123.5526 1.9486 143.7506 95.6726 143.5216"></polygon>
                        <path d="M30.4875,152.9315 C30.4875,156.9875 27.3935,160.2755 23.5765,160.2755 C19.7595,160.2755 16.6665,156.9875 16.6665,152.9315 C16.6665,148.8745 19.7595,145.5865 23.5765,145.5865 C27.3935,145.5865 30.4875,148.8745 30.4875,152.9315" id="Fill-43" fill="#3723FF" mask="url(#mask-4)"></path>
                        <path d="M30.4875,152.9315 C30.4875,156.9875 27.3935,160.2755 23.5765,160.2755 C19.7595,160.2755 16.6665,156.9875 16.6665,152.9315 C16.6665,148.8745 19.7595,145.5865 23.5765,145.5865 C27.3935,145.5865 30.4875,148.8745 30.4875,152.9315 Z" id="Stroke-44" stroke="#3723FF" stroke-width="2.6" stroke-linecap="round" stroke-linejoin="round" mask="url(#mask-4)"></path>
                        <path d="M28.1897,180.2489 C28.1897,171.3639 34.9677,164.1609 43.3277,164.1609 C51.6877,164.1609 58.4647,171.3639 58.4647,180.2489 L28.1897,180.2489 Z" id="Fill-45" fill="#3723FF" mask="url(#mask-4)"></path>
                        <path d="M28.1897,180.2489 C28.1897,171.3639 34.9677,164.1609 43.3277,164.1609 C51.6877,164.1609 58.4647,171.3639 58.4647,180.2489 L28.1897,180.2489 Z" id="Stroke-46" stroke="#3723FF" stroke-width="2.6" stroke-linecap="round" stroke-linejoin="round" mask="url(#mask-4)"></path>
                        <path d="M76.0432,159.285 C76.0432,161.765 74.1512,163.776 71.8172,163.776 C69.4842,163.776 67.5922,161.765 67.5922,159.285 C67.5922,156.805 69.4842,154.794 71.8172,154.794 C74.1512,154.794 76.0432,156.805 76.0432,159.285" id="Fill-47" fill="#3723FF" mask="url(#mask-4)"></path>
                        <path d="M76.0432,159.285 C76.0432,161.765 74.1512,163.776 71.8172,163.776 C69.4842,163.776 67.5922,161.765 67.5922,159.285 C67.5922,156.805 69.4842,154.794 71.8172,154.794 C74.1512,154.794 76.0432,156.805 76.0432,159.285 Z" id="Stroke-48" stroke="#3723FF" stroke-width="2.6" stroke-linecap="round" stroke-linejoin="round" mask="url(#mask-4)"></path>
                        <path d="M38.383,126.8163 C36.015,127.5363 34.279,129.8493 34.279,132.5983 C34.279,135.9213 36.815,138.6173 39.942,138.6173 C43.07,138.6173 45.605,135.9213 45.605,132.5983 C45.605,131.0583 45.056,129.6583 44.16,128.5933 L38.383,126.8163 Z" id="Fill-49" fill="#3723FF" mask="url(#mask-4)"></path>
                        <path d="M38.383,126.8163 C36.015,127.5363 34.279,129.8493 34.279,132.5983 C34.279,135.9213 36.815,138.6173 39.942,138.6173 C43.07,138.6173 45.605,135.9213 45.605,132.5983 C45.605,131.0583 45.056,129.6583 44.16,128.5933 L38.383,126.8163 Z" id="Stroke-50" stroke="#3723FF" stroke-width="2.6" stroke-linecap="round" stroke-linejoin="round" mask="url(#mask-4)"></path>
                        <path d="M146.8,40.5565 C118.356,23.8805 89.911,59.5115 61.466,42.8355 L61.466,8.0855 C89.911,25.2025 118.356,-9.9875 146.8,7.1295 L146.8,40.5565 Z" id="Fill-51" fill="#FFFCF5" mask="url(#mask-4)"></path>
                        <path d="M146.8,40.5565 C118.356,23.8805 89.911,59.5115 61.466,42.8355 L61.466,8.0855 C89.911,25.2025 118.356,-9.9875 146.8,7.1295 L146.8,40.5565 Z" id="Stroke-52" stroke="#3723FF" stroke-width="2.6" stroke-linecap="round" stroke-linejoin="round" mask="url(#mask-4)"></path>
                        <path d="M69.4201,23.2391 C70.4151,23.5231 71.4111,23.7561 72.4071,23.9401 L72.4071,28.0321 C73.6851,28.2661 74.9621,28.4231 76.2391,28.5101 L76.2391,24.4261 C77.2341,24.4951 78.2311,24.5231 79.2261,24.5131 L79.2261,35.4111 C78.2311,35.4261 77.2341,35.4021 76.2391,35.3381 L76.2391,31.1901 C74.9621,31.1051 73.6851,30.9501 72.4071,30.7181 L72.4071,34.8711 C71.4111,34.6911 70.4161,34.4641 69.4201,34.1841 L69.4201,23.2391 Z" id="Fill-53" fill="#3723FF" mask="url(#mask-4)"></path>
                        <path d="M85.9836,34.992 C85.2126,35.117 84.5186,35.114 83.9056,34.991 C83.2906,34.87 82.7666,34.618 82.3356,34.246 C81.9036,33.875 81.5716,33.38 81.3426,32.767 C81.1116,32.154 80.9966,31.421 80.9956,30.57 L80.9956,24.458 C82.0116,24.404 83.0276,24.315 84.0446,24.194 L84.0446,30.236 C84.0446,31.023 84.2176,31.585 84.5786,31.916 C84.9386,32.247 85.4116,32.368 86.0136,32.271 C86.6106,32.175 87.0926,31.907 87.4496,31.478 C87.8036,31.052 87.9826,30.452 87.9836,29.686 L87.9836,23.578 C89.0006,23.384 90.0166,23.164 91.0326,22.924 L91.0326,28.932 C91.0306,29.809 90.9096,30.595 90.6706,31.286 C90.4286,31.978 90.0906,32.578 89.6536,33.083 C89.2196,33.588 88.6886,34.004 88.0696,34.322 C87.4446,34.641 86.7536,34.868 85.9836,34.992" id="Fill-54" fill="#3723FF" mask="url(#mask-4)"></path>
                        <path d="M92.8039,22.4862 C93.8559,22.2152 94.9069,21.9242 95.9579,21.6202 C96.8159,22.7672 97.6729,23.9042 98.5299,25.0332 C99.3869,23.3752 100.2429,21.7122 101.1009,20.0472 C102.1529,19.7122 103.2029,19.3722 104.2549,19.0322 L104.2549,29.8072 C103.2649,30.1322 102.2749,30.4572 101.2839,30.7772 L101.2839,24.5812 C100.3679,26.2822 99.4519,27.9822 98.5359,29.6762 C98.5159,29.6832 98.4959,29.6892 98.4759,29.6962 C97.5649,28.5802 96.6549,27.4552 95.7429,26.3172 L95.7429,32.4982 C94.7629,32.7852 93.7829,33.0592 92.8039,33.3172 L92.8039,22.4862 Z" id="Fill-55" fill="#3723FF" mask="url(#mask-4)"></path>
                        <path d="M112.507,22.9842 C112.107,22.0832 111.706,21.1832 111.306,20.2852 C110.902,21.4242 110.495,22.5652 110.09,23.7092 C110.896,23.4612 111.7,23.2182 112.507,22.9842 M109.89,17.1692 C110.85,16.8752 111.809,16.5882 112.769,16.3152 C114.298,19.4822 115.827,22.6722 117.356,25.9022 C116.288,26.1582 115.222,26.4362 114.153,26.7322 C113.892,26.1662 113.63,25.6002 113.368,25.0362 C111.983,25.4292 110.598,25.8492 109.212,26.2842 C108.955,27.0052 108.699,27.7262 108.443,28.4482 C107.396,28.7822 106.35,29.1222 105.303,29.4642 C106.832,25.3482 108.361,21.2452 109.89,17.1692" id="Fill-56" fill="#3723FF" mask="url(#mask-4)"></path>
                        <path d="M118.4035,14.9539 C119.3345,14.7489 120.2635,14.5619 121.1945,14.3989 C122.6755,16.0219 124.1565,17.6979 125.6375,19.4419 L125.6375,13.8029 C126.6175,13.7149 127.5975,13.6589 128.5775,13.6379 L128.5775,24.2939 C127.7035,24.3159 126.8305,24.3669 125.9565,24.4429 C124.4185,22.6269 122.8815,20.8849 121.3425,19.1989 L121.3425,25.0639 C120.3625,25.2389 119.3825,25.4379 118.4035,25.6589 L118.4035,14.9539 Z" id="Fill-57" fill="#3723FF" mask="url(#mask-4)"></path>
                        <path d="M130.4865,13.6434 C133.3705,13.7244 136.2535,14.1364 139.1375,14.9904 L139.1375,17.4894 C137.2345,16.9274 135.3305,16.5584 133.4265,16.3504 L133.4265,17.9604 C135.1505,18.1474 136.8745,18.4664 138.5985,18.9414 L138.5985,21.2594 C136.8745,20.7874 135.1505,20.4694 133.4265,20.2854 L133.4265,21.9704 C135.3565,22.1764 137.2865,22.5474 139.2155,23.1174 L139.2155,25.6164 C136.3055,24.7614 133.3955,24.3574 130.4865,24.2894 L130.4865,13.6434 Z" id="Fill-58" fill="#3723FF" mask="url(#mask-4)"></path>
                    </g>
                </g>
            </g>
        </g>
    </g>
</svg>