<?xml version="1.0" encoding="utf-8"?>
<!-- Generator: Adobe Illustrator 22.0.1, SVG Export Plug-In . SVG Version: 6.00 Build 0)  -->
<svg version="1.1" id="Layer_8" xmlns="http://www.w3.org/2000/svg" xmlns:xlink="http://www.w3.org/1999/xlink" x="0px" y="0px"
	 viewBox="0 0 768 1024" style="enable-background:new 0 0 768 1024;" xml:space="preserve">
<style type="text/css">
	.st0{fill:#3723FF;stroke:#3723FF;stroke-width:2;stroke-linecap:round;stroke-linejoin:round;stroke-miterlimit:10;}
	.st1{fill:#FFC8D7;stroke:#3723FF;stroke-width:2;stroke-linecap:round;stroke-linejoin:round;stroke-miterlimit:10;}
	.st2{fill:#FFFCF5;stroke:#3723FF;stroke-width:2;stroke-linecap:round;stroke-linejoin:round;stroke-miterlimit:10;}
	.st3{fill:none;stroke:#3723FF;stroke-width:2;stroke-linecap:round;stroke-linejoin:round;stroke-miterlimit:10;}
	.st4{fill:#3723FF;stroke:#3723FF;stroke-width:2;stroke-miterlimit:10;}
	.st5{fill:#FFFFFF;stroke:#3723FF;stroke-width:2;stroke-linecap:round;stroke-linejoin:round;stroke-miterlimit:10;}
	.st6{fill:#FFE9EF;stroke:#3723FF;stroke-width:2;stroke-linecap:round;stroke-linejoin:round;stroke-miterlimit:10;}
	.st7{fill:#3723FF;}
	.st8{fill:#FFFCF5;}
	.st9{fill:#FFC8D7;}
	.st10{fill:#E2F8FF;}
	.st11{fill:#8CE06E;}
	.st12{fill:#FFE9EF;}
	.st13{fill:#FFFFFF;}
	.st14{fill:#FFFCF5;stroke:#3723FF;stroke-width:2.5;stroke-linecap:round;stroke-linejoin:round;stroke-miterlimit:10;}
	.st15{fill:none;}
</style>
<g>
	<rect x="0" class="st8" width="768" height="1024"/>
	<path class="st9" d="M593.1,2c0.3-0.7,0.6-1.4,0.9-2h-23.8H404.7H293.1c-26.5,53.7-18.6,128.4,40.6,143.5c8.6,2.2,18.2,3.1,29,2.6
		c89-4.6,191.3,131.2,239.4,58.5c9.1-13.7,14.9-25.9,18.2-37C641.5,96.5,560.1,73.3,593.1,2z"/>
	<path class="st15" d="M0,626.9v5.5c1-0.8,2-1.5,3.1-2.2C2,629.1,1,628,0,626.9z"/>
	<path class="st10" d="M134.5,624.3c41.9-68.2,156.3-82.8,156.3-163.1c0-85.5-91.1-72-180-72c-42,0-81.1,8.5-110.8,26.5v211.2
		c1,1.1,2,2.2,3.1,3.3C51.9,594.8,96.5,575.2,134.5,624.3z"/>
	<path class="st8" d="M135.2,625.2c-0.2-0.3-0.5-0.6-0.7-0.9c-38-49.1-82.6-29.5-131.4,5.9c-1,0.7-2,1.5-3.1,2.2v285.2
		c7.4-9.4,15.5-18.1,24.3-25.4c27.2-22.8,55.5-41.8,83.4-52.6C112.8,763,181.8,686.7,135.2,625.2z"/>
	<path class="st12" d="M194.3,267.4c24.6-58.6,87.8-89.2,139.3-123.9c-59.1-15.1-67-89.8-40.6-143.5H0v219
		C57.7,301.6,155.1,360.6,194.3,267.4z"/>
	<path class="st15" d="M331.3,1024h4.9c-1.6-1-3.2-2-4.7-3.1C331.5,1022,331.4,1023,331.3,1024z"/>
	<path class="st12" d="M454.3,798.9c-25.4,10.4-52.7,9.2-80.1,4.6c-59.5-10.1-119.3-36.4-160.7,5c-10.2,10.2-16.5,20.2-19.8,30.1
		c14.9,6.8,29.2,17.8,42.8,34.1c44.5,53.3,95.5,102.6,94.9,148.3c1.6,1,3.1,2.1,4.7,3.1h30.2h119c2.9-2.5,5.8-5.1,8.7-8
		C554.5,955.6,558.3,756.5,454.3,798.9z"/>
	<path class="st9" d="M236.6,872.6c-13.6-16.2-27.9-27.3-42.8-34.1c-27.4-12.4-56.6-10.3-86.1,1.1c-27.9,10.8-56.2,29.9-83.4,52.6
		c-8.8,7.4-17,16-24.3,25.4v9.2v97.2h331.3c0.1-1,0.1-2,0.1-3.1C332.2,975.3,281.1,925.9,236.6,872.6z"/>
	<path class="st12" d="M659.7,201.9C558.8,220,417.9,365.6,531.9,413.6c94.7,39.8,107.6,192.3,208.1,192.3c10.5,0,19.8-1.2,27.9-3.4
		V268.6C725.1,271.2,693.8,235.5,659.7,201.9z"/>
	<path class="st10" d="M594,0c-0.3,0.7-0.6,1.4-0.9,2c-33,71.3,48.4,94.5,27.2,165.5c14,9.9,26.9,21.9,39.4,34.3
		c34.2,33.7,65.5,69.3,108.3,66.7v-36.2V0H594z"/>
	<path class="st10" d="M635.8,696.1c-111.1,1.6-210.8,35.7-261.5,107.4c27.3,4.6,54.6,5.8,80.1-4.6
		c103.9-42.4,100.2,156.7,39.7,217.1c-2.8,2.8-5.7,5.5-8.7,8H768V692.9C726,692.9,680.8,695.5,635.8,696.1z"/>
</g>
</svg>
