<?xml version="1.0" encoding="utf-8"?>
<!-- Generator: Adobe Illustrator 22.0.1, SVG Export Plug-In . SVG Version: 6.00 Build 0)  -->
<svg version="1.1" id="Layer_8" xmlns="http://www.w3.org/2000/svg" xmlns:xlink="http://www.w3.org/1999/xlink" x="0px" y="0px"
	 viewBox="0 0 835.9 325.3" style="enable-background:new 0 0 835.9 325.3;" xml:space="preserve">
<style type="text/css">
	.st0{fill:#3723FF;stroke:#3723FF;stroke-width:2;stroke-linecap:round;stroke-linejoin:round;stroke-miterlimit:10;}
	.st1{fill:#FFC8D7;stroke:#3723FF;stroke-width:2;stroke-linecap:round;stroke-linejoin:round;stroke-miterlimit:10;}
	.st2{fill:#FFFCF5;stroke:#3723FF;stroke-width:2;stroke-linecap:round;stroke-linejoin:round;stroke-miterlimit:10;}
	.st3{fill:none;stroke:#3723FF;stroke-width:2;stroke-linecap:round;stroke-linejoin:round;stroke-miterlimit:10;}
	.st4{fill:#3723FF;stroke:#3723FF;stroke-width:2;stroke-miterlimit:10;}
	.st5{fill:#FFFFFF;stroke:#3723FF;stroke-width:2;stroke-linecap:round;stroke-linejoin:round;stroke-miterlimit:10;}
	.st6{fill:#FFE9EF;stroke:#3723FF;stroke-width:2;stroke-linecap:round;stroke-linejoin:round;stroke-miterlimit:10;}
	.st7{fill:#3723FF;}
	.st8{fill:#FFFCF5;}
	.st9{fill:#FFC8D7;}
	.st10{fill:#E2F8FF;}
	.st11{fill:#8CE06E;}
	.st12{fill:#FFE9EF;}
	.st13{fill:#FFFFFF;}
	.st14{fill:#FFFCF5;stroke:#3723FF;stroke-width:2.5;stroke-linecap:round;stroke-linejoin:round;stroke-miterlimit:10;}
	.st15{fill:none;}
</style>
<g>
	<g>
		<g>
			<g>
				<g>
					<rect x="139.2" y="91.7" class="st10" width="68.7" height="233.7"/>
					<path class="st7" d="M207.9,326.3h-68.7c-0.6,0-1-0.4-1-1V91.7c0-0.6,0.4-1,1-1h68.7c0.6,0,1,0.4,1,1v233.7
						C208.9,325.9,208.5,326.3,207.9,326.3z M140.2,324.3h66.7V92.7h-66.7V324.3z"/>
				</g>
				<g>
					<g>
						<path class="st7" d="M157.4,247.5c-0.6,0-1-0.4-1-1V104.6c0-0.6,0.4-1,1-1s1,0.4,1,1v141.8C158.4,247,158,247.5,157.4,247.5z"
							/>
					</g>
					<g>
						<path class="st7" d="M173.5,247.5c-0.6,0-1-0.4-1-1V104.6c0-0.6,0.4-1,1-1s1,0.4,1,1v141.8C174.5,247,174.1,247.5,173.5,247.5
							z"/>
					</g>
					<g>
						<path class="st7" d="M189.7,247.5c-0.6,0-1-0.4-1-1V104.6c0-0.6,0.4-1,1-1s1,0.4,1,1v141.8C190.7,247,190.2,247.5,189.7,247.5
							z"/>
					</g>
				</g>
			</g>
			<g>
				<path class="st7" d="M153.6,91.5c-0.6,0-1-0.4-1-1V68.1c0-0.6,0.4-1,1-1s1,0.4,1,1v22.4C154.6,91.1,154.1,91.5,153.6,91.5z"/>
			</g>
		</g>
		<g>
			<g>
				<rect x="204.7" y="151.3" class="st10" width="64" height="173.5"/>
				<path class="st7" d="M268.7,325.9h-64c-0.6,0-1-0.4-1-1V151.3c0-0.6,0.4-1,1-1h64c0.6,0,1,0.4,1,1v173.5
					C269.7,325.4,269.2,325.9,268.7,325.9z M205.7,323.9h62V152.3h-62V323.9z"/>
			</g>
			<g>
				<g>
					<g>
						<rect x="213.6" y="294.4" class="st8" width="10.2" height="15"/>
						<path class="st7" d="M223.8,310.4h-10.2c-0.6,0-1-0.4-1-1v-15c0-0.6,0.4-1,1-1h10.2c0.6,0,1,0.4,1,1v15
							C224.8,310,224.4,310.4,223.8,310.4z M214.6,308.4h8.2v-13h-8.2V308.4z"/>
					</g>
					<g>
						<rect x="213.6" y="264.5" class="st8" width="10.2" height="15"/>
						<path class="st7" d="M223.8,280.4h-10.2c-0.6,0-1-0.4-1-1v-15c0-0.6,0.4-1,1-1h10.2c0.6,0,1,0.4,1,1v15
							C224.8,280,224.4,280.4,223.8,280.4z M214.6,278.4h8.2v-13h-8.2V278.4z"/>
					</g>
					<g>
						<rect x="213.6" y="234.5" class="st8" width="10.2" height="15"/>
						<path class="st7" d="M223.8,250.5h-10.2c-0.6,0-1-0.4-1-1v-15c0-0.6,0.4-1,1-1h10.2c0.6,0,1,0.4,1,1v15
							C224.8,250,224.4,250.5,223.8,250.5z M214.6,248.5h8.2v-13h-8.2V248.5z"/>
					</g>
					<g>
						<rect x="213.6" y="204.6" class="st8" width="10.2" height="15"/>
						<path class="st7" d="M223.8,220.5h-10.2c-0.6,0-1-0.4-1-1v-15c0-0.6,0.4-1,1-1h10.2c0.6,0,1,0.4,1,1v15
							C224.8,220.1,224.4,220.5,223.8,220.5z M214.6,218.5h8.2v-13h-8.2V218.5z"/>
					</g>
					<g>
						<rect x="213.6" y="174.6" class="st8" width="10.2" height="15"/>
						<path class="st7" d="M223.8,190.6h-10.2c-0.6,0-1-0.4-1-1v-15c0-0.6,0.4-1,1-1h10.2c0.6,0,1,0.4,1,1v15
							C224.8,190.1,224.4,190.6,223.8,190.6z M214.6,188.6h8.2v-13h-8.2V188.6z"/>
					</g>
				</g>
				<g>
					<g>
						<rect x="231.6" y="294.4" class="st8" width="10.2" height="15"/>
						<path class="st7" d="M241.8,310.4h-10.2c-0.6,0-1-0.4-1-1v-15c0-0.6,0.4-1,1-1h10.2c0.6,0,1,0.4,1,1v15
							C242.8,310,242.3,310.4,241.8,310.4z M232.6,308.4h8.2v-13h-8.2V308.4z"/>
					</g>
					<g>
						<rect x="231.6" y="264.5" class="st8" width="10.2" height="15"/>
						<path class="st7" d="M241.8,280.4h-10.2c-0.6,0-1-0.4-1-1v-15c0-0.6,0.4-1,1-1h10.2c0.6,0,1,0.4,1,1v15
							C242.8,280,242.3,280.4,241.8,280.4z M232.6,278.4h8.2v-13h-8.2V278.4z"/>
					</g>
					<g>
						<rect x="231.6" y="234.5" class="st8" width="10.2" height="15"/>
						<path class="st7" d="M241.8,250.5h-10.2c-0.6,0-1-0.4-1-1v-15c0-0.6,0.4-1,1-1h10.2c0.6,0,1,0.4,1,1v15
							C242.8,250,242.3,250.5,241.8,250.5z M232.6,248.5h8.2v-13h-8.2V248.5z"/>
					</g>
					<g>
						<rect x="231.6" y="204.6" class="st8" width="10.2" height="15"/>
						<path class="st7" d="M241.8,220.5h-10.2c-0.6,0-1-0.4-1-1v-15c0-0.6,0.4-1,1-1h10.2c0.6,0,1,0.4,1,1v15
							C242.8,220.1,242.3,220.5,241.8,220.5z M232.6,218.5h8.2v-13h-8.2V218.5z"/>
					</g>
					<g>
						<rect x="231.6" y="174.6" class="st8" width="10.2" height="15"/>
						<path class="st7" d="M241.8,190.6h-10.2c-0.6,0-1-0.4-1-1v-15c0-0.6,0.4-1,1-1h10.2c0.6,0,1,0.4,1,1v15
							C242.8,190.1,242.3,190.6,241.8,190.6z M232.6,188.6h8.2v-13h-8.2V188.6z"/>
					</g>
				</g>
				<g>
					<g>
						<rect x="249.5" y="294.4" class="st8" width="10.2" height="15"/>
						<path class="st7" d="M259.7,310.4h-10.2c-0.6,0-1-0.4-1-1v-15c0-0.6,0.4-1,1-1h10.2c0.6,0,1,0.4,1,1v15
							C260.7,310,260.2,310.4,259.7,310.4z M250.5,308.4h8.2v-13h-8.2V308.4z"/>
					</g>
					<g>
						<rect x="249.5" y="264.5" class="st8" width="10.2" height="15"/>
						<path class="st7" d="M259.7,280.4h-10.2c-0.6,0-1-0.4-1-1v-15c0-0.6,0.4-1,1-1h10.2c0.6,0,1,0.4,1,1v15
							C260.7,280,260.2,280.4,259.7,280.4z M250.5,278.4h8.2v-13h-8.2V278.4z"/>
					</g>
					<g>
						<rect x="249.5" y="234.5" class="st8" width="10.2" height="15"/>
						<path class="st7" d="M259.7,250.5h-10.2c-0.6,0-1-0.4-1-1v-15c0-0.6,0.4-1,1-1h10.2c0.6,0,1,0.4,1,1v15
							C260.7,250,260.2,250.5,259.7,250.5z M250.5,248.5h8.2v-13h-8.2V248.5z"/>
					</g>
					<g>
						<rect x="249.5" y="204.6" class="st8" width="10.2" height="15"/>
						<path class="st7" d="M259.7,220.5h-10.2c-0.6,0-1-0.4-1-1v-15c0-0.6,0.4-1,1-1h10.2c0.6,0,1,0.4,1,1v15
							C260.7,220.1,260.2,220.5,259.7,220.5z M250.5,218.5h8.2v-13h-8.2V218.5z"/>
					</g>
					<g>
						<rect x="249.5" y="174.6" class="st8" width="10.2" height="15"/>
						<path class="st7" d="M259.7,190.6h-10.2c-0.6,0-1-0.4-1-1v-15c0-0.6,0.4-1,1-1h10.2c0.6,0,1,0.4,1,1v15
							C260.7,190.1,260.2,190.6,259.7,190.6z M250.5,188.6h8.2v-13h-8.2V188.6z"/>
					</g>
				</g>
			</g>
			<g>
				<path class="st7" d="M267.8,161h-62.9c-0.6,0-1-0.4-1-1s0.4-1,1-1h62.9c0.6,0,1,0.4,1,1S268.4,161,267.8,161z"/>
			</g>
		</g>
		<g>
			<g>
				<polygon class="st7" points="681.1,324.1 681.1,104.7 716.6,50.2 753.5,105.6 753.5,324.1 753.5,324.1 				"/>
				<path class="st7" d="M753.5,324.6h-72.4c-0.3,0-0.5-0.2-0.5-0.5V104.7c0-0.1,0-0.2,0.1-0.3L716.2,50c0.1-0.1,0.2-0.2,0.4-0.2
					c0.2,0,0.3,0.1,0.4,0.2l36.9,55.4c0.1,0.1,0.1,0.2,0.1,0.3v218.5c0,0,0,0,0,0C754,324.4,753.8,324.6,753.5,324.6z M681.6,323.6
					H753V105.8l-36.4-54.6l-35,53.7V323.6z"/>
			</g>
			<g>
				<polygon class="st10" points="717.9,49 785.5,49 823.6,103.8 823.6,103.8 754.5,103.8 				"/>
				<path class="st10" d="M824.3,104.1l-70,0l-37.1-55.6h68.4l0.1,0.2L824.3,104.1z M754.7,103.4h68.2l-37.6-54.1h-66.6L754.7,103.4
					z"/>
			</g>
			<g>
				<path class="st8" d="M824,323.7h-69c0,0,0,0,0,0V106h68.6c0.2,0,0.3,0,0.4-0.1V323.7z"/>
				<path class="st8" d="M824.4,324.1h-69.7l0-218.5h68.9c0.1,0,0.2,0,0.3-0.1l0.5-0.2V324.1z M755.4,323.4h68.2v-217c0,0,0,0-0.1,0
					h-68.2V323.4z"/>
			</g>
			<g>
				<g>
					<path class="st10" d="M798.6,149.3c4,0,8.1,0,12.1,0c0-6.5,0-13,0-19.5c-2.1-5.6-10-5.6-12.1,0
						C798.6,136.3,798.6,142.8,798.6,149.3z"/>
					<path class="st7" d="M810.8,150.3h-12.1c-0.6,0-1-0.4-1-1v-19.5c0-0.1,0-0.2,0.1-0.4c1.1-3,3.8-4.8,7-4.8c3.2,0,5.9,1.9,7,4.8
						c0,0.1,0.1,0.2,0.1,0.4v19.5C811.8,149.9,811.3,150.3,810.8,150.3z M799.6,148.3h10.1V130c-1-2.5-3.3-3.4-5.1-3.4
						c-1.8,0-4,0.9-5.1,3.4V148.3z"/>
				</g>
				<g>
					<path class="st10" d="M770.9,149.3c4,0,8.1,0,12.1,0c0-6.5,0-13,0-19.5c-2.1-5.6-10-5.6-12.1,0
						C770.9,136.3,770.9,142.8,770.9,149.3z"/>
					<path class="st7" d="M783,150.3h-12.1c-0.6,0-1-0.4-1-1v-19.5c0-0.1,0-0.2,0.1-0.4c1.1-3,3.8-4.8,7-4.8c3.2,0,5.9,1.9,7,4.8
						c0,0.1,0.1,0.2,0.1,0.4v19.5C784,149.9,783.6,150.3,783,150.3z M771.9,148.3H782V130c-1-2.5-3.3-3.4-5.1-3.4
						c-1.8,0-4,0.9-5.1,3.4V148.3z"/>
				</g>
			</g>
			<g>
				<g>
					<path class="st10" d="M798.6,187.4c4,0,8.1,0,12.1,0c0-6.5,0-13,0-19.5c-2.1-5.6-10-5.6-12.1,0
						C798.6,174.4,798.6,180.9,798.6,187.4z"/>
					<path class="st7" d="M810.8,188.4L810.8,188.4h-12.1c-0.3,0-0.5-0.1-0.7-0.3s-0.3-0.4-0.3-0.7v-19.5c0-0.1,0-0.2,0.1-0.4
						c1.1-3,3.8-4.8,7-4.8c3.2,0,5.9,1.9,7,4.8c0,0.1,0.1,0.2,0.1,0.4v19.5c0,0.3-0.1,0.5-0.3,0.7S811,188.4,810.8,188.4z
						 M799.6,186.4h10.1v-18.3c-1-2.5-3.3-3.4-5.1-3.4c-1.8,0-4,0.9-5.1,3.4V186.4z"/>
				</g>
				<g>
					<path class="st10" d="M770.9,187.4c4,0,8.1,0,12.1,0c0-6.5,0-13,0-19.5c-2.1-5.6-10-5.6-12.1,0
						C770.9,174.4,770.9,180.9,770.9,187.4z"/>
					<path class="st7" d="M783,188.4L783,188.4h-12.1c-0.3,0-0.5-0.1-0.7-0.3s-0.3-0.4-0.3-0.7v-19.5c0-0.1,0-0.2,0.1-0.4
						c1.1-3,3.8-4.8,7-4.8c3.2,0,5.9,1.9,7,4.8c0,0.1,0.1,0.2,0.1,0.4v19.5c0,0.3-0.1,0.5-0.3,0.7S783.3,188.4,783,188.4z
						 M771.9,186.4H782v-18.3c-1-2.5-3.3-3.4-5.1-3.4c-1.8,0-4,0.9-5.1,3.4V186.4z"/>
				</g>
			</g>
			<g>
				<g>
					<path class="st10" d="M798.6,225.5c4,0,8.1,0,12.1,0c0-6.5,0-13,0-19.5c-2.1-5.6-10-5.6-12.1,0
						C798.6,212.5,798.6,219,798.6,225.5z"/>
					<path class="st7" d="M810.8,226.5h-12.1c-0.6,0-1-0.4-1-1V206c0-0.1,0-0.2,0.1-0.4c1.1-3,3.8-4.8,7-4.8c3.2,0,5.9,1.9,7,4.8
						c0,0.1,0.1,0.2,0.1,0.4v19.5C811.8,226,811.3,226.5,810.8,226.5z M799.6,224.5h10.1v-18.3c-1-2.5-3.3-3.4-5.1-3.4
						c-1.8,0-4,0.9-5.1,3.4V224.5z"/>
				</g>
				<g>
					<path class="st10" d="M770.9,225.5c4,0,8.1,0,12.1,0c0-6.5,0-13,0-19.5c-2.1-5.6-10-5.6-12.1,0
						C770.9,212.5,770.9,219,770.9,225.5z"/>
					<path class="st7" d="M783,226.5h-12.1c-0.6,0-1-0.4-1-1V206c0-0.1,0-0.2,0.1-0.4c1.1-3,3.8-4.8,7-4.8c3.2,0,5.9,1.9,7,4.8
						c0,0.1,0.1,0.2,0.1,0.4v19.5C784,226,783.6,226.5,783,226.5z M771.9,224.5H782v-18.3c-1-2.5-3.3-3.4-5.1-3.4
						c-1.8,0-4,0.9-5.1,3.4V224.5z"/>
				</g>
			</g>
			<g>
				<g>
					<path class="st10" d="M798.6,263.5c4,0,8.1,0,12.1,0c0-6.5,0-13,0-19.5c-2.1-5.6-10-5.6-12.1,0
						C798.6,250.6,798.6,257.1,798.6,263.5z"/>
					<path class="st7" d="M810.8,264.5h-12.1c-0.6,0-1-0.4-1-1v-19.5c0-0.1,0-0.2,0.1-0.4c1.1-3,3.8-4.8,7-4.8c3.2,0,5.9,1.9,7,4.8
						c0,0.1,0.1,0.2,0.1,0.4v19.5C811.8,264.1,811.3,264.5,810.8,264.5z M799.6,262.5h10.1v-18.3c-1-2.5-3.3-3.4-5.1-3.4
						c-1.8,0-4,0.9-5.1,3.4V262.5z"/>
				</g>
				<g>
					<path class="st10" d="M770.9,263.5c4,0,8.1,0,12.1,0c0-6.5,0-13,0-19.5c-2.1-5.6-10-5.6-12.1,0
						C770.9,250.6,770.9,257.1,770.9,263.5z"/>
					<path class="st7" d="M783,264.5h-12.1c-0.6,0-1-0.4-1-1v-19.5c0-0.1,0-0.2,0.1-0.4c1.1-3,3.8-4.8,7-4.8c3.2,0,5.9,1.9,7,4.8
						c0,0.1,0.1,0.2,0.1,0.4v19.5C784,264.1,783.6,264.5,783,264.5z M771.9,262.5H782v-18.3c-1-2.5-3.3-3.4-5.1-3.4
						c-1.8,0-4,0.9-5.1,3.4V262.5z"/>
				</g>
			</g>
			<g>
				<g>
					<path class="st10" d="M798.6,301.6c4,0,8.1,0,12.1,0c0-6.5,0-13,0-19.5c-2.1-5.6-10-5.6-12.1,0
						C798.6,288.6,798.6,295.1,798.6,301.6z"/>
					<path class="st7" d="M810.8,302.6h-12.1c-0.6,0-1-0.4-1-1v-19.5c0-0.1,0-0.2,0.1-0.4c1.1-3,3.8-4.8,7-4.8c3.2,0,5.9,1.9,7,4.8
						c0,0.1,0.1,0.2,0.1,0.4v19.5C811.8,302.2,811.3,302.6,810.8,302.6z M799.6,300.6h10.1v-18.3c-1-2.5-3.3-3.4-5.1-3.4
						c-1.8,0-4,0.9-5.1,3.4V300.6z"/>
				</g>
				<g>
					<path class="st10" d="M770.9,301.6c4,0,8.1,0,12.1,0c0-6.5,0-13,0-19.5c-2.1-5.6-10-5.6-12.1,0
						C770.9,288.6,770.9,295.1,770.9,301.6z"/>
					<path class="st7" d="M783,302.6h-12.1c-0.6,0-1-0.4-1-1v-19.5c0-0.1,0-0.2,0.1-0.4c1.1-3,3.8-4.8,7-4.8c3.2,0,5.9,1.9,7,4.8
						c0,0.1,0.1,0.2,0.1,0.4v19.5C784,302.2,783.6,302.6,783,302.6z M771.9,300.6H782v-18.3c-1-2.5-3.3-3.4-5.1-3.4
						c-1.8,0-4,0.9-5.1,3.4V300.6z"/>
				</g>
			</g>
			<g>
				<g>
					<g>
						<path class="st10" d="M724.3,149.3c4,0,8.1,0,12.1,0c0-6.5,0-13,0-19.5c-2.1-5.6-10-5.6-12.1,0
							C724.3,136.3,724.3,142.8,724.3,149.3z"/>
						<path class="st7" d="M736.4,149.7h-12.1c-0.2,0-0.4-0.2-0.4-0.4v-19.5c0,0,0-0.1,0-0.1c1-2.7,3.5-4.4,6.4-4.4s5.4,1.7,6.4,4.4
							c0,0,0,0.1,0,0.1v19.5C736.8,149.5,736.6,149.7,736.4,149.7z M724.7,148.9H736v-19c-0.9-2.4-3.1-3.9-5.7-3.9s-4.7,1.5-5.7,3.9
							V148.9z"/>
					</g>
					<g>
						<path class="st10" d="M696.6,149.3c4,0,8.1,0,12.1,0c0-6.5,0-13,0-19.5c-2.1-5.6-10-5.6-12.1,0
							C696.6,136.3,696.6,142.8,696.6,149.3z"/>
						<path class="st7" d="M708.7,149.7h-12.1c-0.2,0-0.4-0.2-0.4-0.4v-19.5c0,0,0-0.1,0-0.1c1-2.7,3.5-4.4,6.4-4.4s5.4,1.7,6.4,4.4
							c0,0,0,0.1,0,0.1v19.5C709.1,149.5,708.9,149.7,708.7,149.7z M697,148.9h11.4v-19c-0.9-2.4-3.1-3.9-5.7-3.9s-4.7,1.5-5.7,3.9
							V148.9z"/>
					</g>
				</g>
				<g>
					<g>
						<path class="st10" d="M724.3,187.4c4,0,8.1,0,12.1,0c0-6.5,0-13,0-19.5c-2.1-5.6-10-5.6-12.1,0
							C724.3,174.4,724.3,180.9,724.3,187.4z"/>
						<path class="st7" d="M736.4,187.8L736.4,187.8h-12.1c-0.1,0-0.2,0-0.3-0.1c-0.1-0.1-0.1-0.2-0.1-0.3v-19.5c0,0,0-0.1,0-0.1
							c1-2.7,3.5-4.4,6.4-4.4s5.4,1.7,6.4,4.4c0,0,0,0.1,0,0.1v19.5c0,0.1,0,0.2-0.1,0.3C736.6,187.7,736.5,187.8,736.4,187.8z
							 M724.7,187H736v-19c-0.9-2.4-3.1-3.9-5.7-3.9s-4.7,1.5-5.7,3.9V187z"/>
					</g>
					<g>
						<path class="st10" d="M696.6,187.4c4,0,8.1,0,12.1,0c0-6.5,0-13,0-19.5c-2.1-5.6-10-5.6-12.1,0
							C696.6,174.4,696.6,180.9,696.6,187.4z"/>
						<path class="st7" d="M708.7,187.8L708.7,187.8h-12.1c-0.1,0-0.2,0-0.3-0.1c-0.1-0.1-0.1-0.2-0.1-0.3v-19.5c0,0,0-0.1,0-0.1
							c1-2.7,3.5-4.4,6.4-4.4s5.4,1.7,6.4,4.4c0,0,0,0.1,0,0.1v19.5c0,0.1,0,0.2-0.1,0.3C708.9,187.7,708.8,187.8,708.7,187.8z
							 M697,187h11.4v-19c-0.9-2.4-3.1-3.9-5.7-3.9s-4.7,1.5-5.7,3.9V187z"/>
					</g>
				</g>
				<g>
					<g>
						<path class="st10" d="M724.3,225.5c4,0,8.1,0,12.1,0c0-6.5,0-13,0-19.5c-2.1-5.6-10-5.6-12.1,0
							C724.3,212.5,724.3,219,724.3,225.5z"/>
						<path class="st7" d="M736.4,225.8h-12.1c-0.2,0-0.4-0.2-0.4-0.4V206c0,0,0-0.1,0-0.1c1-2.7,3.5-4.4,6.4-4.4s5.4,1.7,6.4,4.4
							c0,0,0,0.1,0,0.1v19.5C736.8,225.7,736.6,225.8,736.4,225.8z M724.7,225.1H736v-19c-0.9-2.4-3.1-3.9-5.7-3.9s-4.7,1.5-5.7,3.9
							V225.1z"/>
					</g>
					<g>
						<path class="st10" d="M696.6,225.5c4,0,8.1,0,12.1,0c0-6.5,0-13,0-19.5c-2.1-5.6-10-5.6-12.1,0
							C696.6,212.5,696.6,219,696.6,225.5z"/>
						<path class="st7" d="M708.7,225.8h-12.1c-0.2,0-0.4-0.2-0.4-0.4V206c0,0,0-0.1,0-0.1c1-2.7,3.5-4.4,6.4-4.4s5.4,1.7,6.4,4.4
							c0,0,0,0.1,0,0.1v19.5C709.1,225.7,708.9,225.8,708.7,225.8z M697,225.1h11.4v-19c-0.9-2.4-3.1-3.9-5.7-3.9s-4.7,1.5-5.7,3.9
							V225.1z"/>
					</g>
				</g>
				<g>
					<g>
						<path class="st10" d="M724.3,263.5c4,0,8.1,0,12.1,0c0-6.5,0-13,0-19.5c-2.1-5.6-10-5.6-12.1,0
							C724.3,250.6,724.3,257.1,724.3,263.5z"/>
						<path class="st7" d="M736.4,263.9h-12.1c-0.2,0-0.4-0.2-0.4-0.4v-19.5c0,0,0-0.1,0-0.1c1-2.7,3.5-4.4,6.4-4.4s5.4,1.7,6.4,4.4
							c0,0,0,0.1,0,0.1v19.5C736.8,263.7,736.6,263.9,736.4,263.9z M724.7,263.2H736v-19c-0.9-2.4-3.1-3.9-5.7-3.9s-4.7,1.5-5.7,3.9
							V263.2z"/>
					</g>
					<g>
						<path class="st10" d="M696.6,263.5c4,0,8.1,0,12.1,0c0-6.5,0-13,0-19.5c-2.1-5.6-10-5.6-12.1,0
							C696.6,250.6,696.6,257.1,696.6,263.5z"/>
						<path class="st7" d="M708.7,263.9h-12.1c-0.2,0-0.4-0.2-0.4-0.4v-19.5c0,0,0-0.1,0-0.1c1-2.7,3.5-4.4,6.4-4.4s5.4,1.7,6.4,4.4
							c0,0,0,0.1,0,0.1v19.5C709.1,263.7,708.9,263.9,708.7,263.9z M697,263.2h11.4v-19c-0.9-2.4-3.1-3.9-5.7-3.9s-4.7,1.5-5.7,3.9
							V263.2z"/>
					</g>
				</g>
				<g>
					<g>
						<path class="st10" d="M724.3,301.6c4,0,8.1,0,12.1,0c0-6.5,0-13,0-19.5c-2.1-5.6-10-5.6-12.1,0
							C724.3,288.6,724.3,295.1,724.3,301.6z"/>
						<path class="st7" d="M736.4,302h-12.1c-0.2,0-0.4-0.2-0.4-0.4v-19.5c0,0,0-0.1,0-0.1c1-2.7,3.5-4.4,6.4-4.4s5.4,1.7,6.4,4.4
							c0,0,0,0.1,0,0.1v19.5C736.8,301.8,736.6,302,736.4,302z M724.7,301.2H736v-19c-0.9-2.4-3.1-3.9-5.7-3.9s-4.7,1.5-5.7,3.9
							V301.2z"/>
					</g>
					<g>
						<path class="st10" d="M696.6,301.6c4,0,8.1,0,12.1,0c0-6.5,0-13,0-19.5c-2.1-5.6-10-5.6-12.1,0
							C696.6,288.6,696.6,295.1,696.6,301.6z"/>
						<path class="st7" d="M708.7,302h-12.1c-0.2,0-0.4-0.2-0.4-0.4v-19.5c0,0,0-0.1,0-0.1c1-2.7,3.5-4.4,6.4-4.4s5.4,1.7,6.4,4.4
							c0,0,0,0.1,0,0.1v19.5C709.1,301.8,708.9,302,708.7,302z M697,301.2h11.4v-19c-0.9-2.4-3.1-3.9-5.7-3.9s-4.7,1.5-5.7,3.9
							V301.2z"/>
					</g>
				</g>
			</g>
			<g>
				<path class="st7" d="M825.9,325.9H680c-0.6,0-1-0.4-1-1V104c0-0.2,0.1-0.4,0.2-0.5l36.6-56.2c0.2-0.3,0.5-0.5,0.8-0.5h70.2
					c0.3,0,0.6,0.2,0.8,0.4l39.1,56.2c0.1,0.2,0.2,0.4,0.2,0.6v220.8C826.9,325.4,826.4,325.9,825.9,325.9z M681,323.9h143.9V104.3
					l-38.6-55.5h-69.2L681,104.3V323.9z"/>
			</g>
			<g>
				<path class="st7" d="M824.3,105.9h-69.7c-0.3,0-0.6-0.2-0.8-0.4l-38.1-57.1c-0.3-0.5-0.2-1.1,0.3-1.4c0.5-0.3,1.1-0.2,1.4,0.3
					l37.8,56.6h69.2c0.6,0,1,0.4,1,1S824.9,105.9,824.3,105.9z"/>
			</g>
			<g>
				<path class="st7" d="M754.6,324.7c-0.6,0-1-0.4-1-1V104.9c0-0.6,0.4-1,1-1s1,0.4,1,1v218.8C755.6,324.3,755.2,324.7,754.6,324.7
					z"/>
			</g>
		</g>
		<g>
			<g>
				<path class="st7" d="M592.6,92.5c-0.6,0-1-0.4-1-1V75.8c0-0.6,0.4-1,1-1s1,0.4,1,1v15.7C593.6,92.1,593.1,92.5,592.6,92.5z"/>
			</g>
			<g>
				<g>
					<rect x="579.9" y="91.6" class="st8" width="51.8" height="15.6"/>
					<path class="st7" d="M631.7,108.2h-51.8c-0.6,0-1-0.4-1-1V91.6c0-0.6,0.4-1,1-1h51.8c0.6,0,1,0.4,1,1v15.6
						C632.7,107.7,632.3,108.2,631.7,108.2z M580.9,106.2h49.8V92.6h-49.8V106.2z"/>
				</g>
				<g>
					<rect x="572.7" y="102.5" class="st8" width="66.2" height="222.4"/>
					<path class="st7" d="M638.9,325.9h-66.2c-0.6,0-1-0.4-1-1V102.5c0-0.6,0.4-1,1-1h66.2c0.6,0,1,0.4,1,1v222.4
						C639.9,325.4,639.4,325.9,638.9,325.9z M573.7,323.9h64.2V103.5h-64.2V323.9z"/>
				</g>
				<g>
					<g>
						<path class="st10" d="M591.6,131.1c-3,0-6.1,0-9.1,0c0-5.4,0-10.8,0-16.2c1.9-3.4,7.2-3.4,9.1,0
							C591.6,120.3,591.6,125.7,591.6,131.1z"/>
						<path class="st7" d="M591.6,132.1h-9.1c-0.6,0-1-0.4-1-1v-16.2c0-0.2,0-0.3,0.1-0.5c1-1.9,3.1-3.1,5.4-3.1c0,0,0,0,0,0
							c2.3,0,4.4,1.2,5.4,3.1c0.1,0.1,0.1,0.3,0.1,0.5v16.2C592.6,131.6,592.1,132.1,591.6,132.1z M583.5,130.1h7.1v-15
							c-0.7-1.2-2-1.9-3.5-1.9h0c-1.5,0-2.8,0.7-3.5,1.9V130.1z"/>
					</g>
					<g>
						<path class="st10" d="M610.3,131.1c-3,0-6.1,0-9.1,0c0-5.4,0-10.8,0-16.2c1.9-3.4,7.2-3.4,9.1,0
							C610.3,120.3,610.3,125.7,610.3,131.1z"/>
						<path class="st7" d="M610.3,132.1h-9.1c-0.6,0-1-0.4-1-1v-16.2c0-0.2,0-0.3,0.1-0.5c1-1.9,3.1-3.1,5.4-3.1h0
							c2.3,0,4.4,1.2,5.4,3.1c0.1,0.1,0.1,0.3,0.1,0.5v16.2C611.3,131.6,610.9,132.1,610.3,132.1z M602.3,130.1h7.1v-15
							c-0.7-1.2-2-1.9-3.5-1.9c-1.5,0-2.8,0.7-3.5,1.9V130.1z"/>
					</g>
					<g>
						<path class="st10" d="M629.1,131.1c-3,0-6.1,0-9.1,0c0-5.4,0-10.8,0-16.2c1.9-3.4,7.2-3.4,9.1,0
							C629.1,120.3,629.1,125.7,629.1,131.1z"/>
						<path class="st7" d="M629.1,132.1H620c-0.6,0-1-0.4-1-1v-16.2c0-0.2,0-0.3,0.1-0.5c1-1.9,3.1-3.1,5.4-3.1s4.4,1.2,5.4,3.1
							c0.1,0.1,0.1,0.3,0.1,0.5v16.2C630.1,131.6,629.7,132.1,629.1,132.1z M621,130.1h7.1v-15c-0.7-1.2-2-1.9-3.5-1.9
							s-2.8,0.7-3.5,1.9V130.1z"/>
					</g>
				</g>
				<g>
					<g>
						<path class="st10" d="M591.6,160c-3,0-6.1,0-9.1,0c0-5.4,0-10.8,0-16.2c1.9-3.4,7.2-3.4,9.1,0
							C591.6,149.1,591.6,154.5,591.6,160z"/>
						<path class="st7" d="M591.6,161h-9.1c-0.6,0-1-0.4-1-1v-16.2c0-0.2,0-0.3,0.1-0.5c1-1.9,3.1-3.1,5.4-3.1c0,0,0,0,0,0
							c2.3,0,4.4,1.2,5.4,3.1c0.1,0.1,0.1,0.3,0.1,0.5V160C592.6,160.5,592.1,161,591.6,161z M583.5,159h7.1v-15
							c-0.7-1.2-2-1.9-3.5-1.9h0c-1.5,0-2.8,0.7-3.5,1.9V159z"/>
					</g>
					<g>
						<path class="st10" d="M610.3,160c-3,0-6.1,0-9.1,0c0-5.4,0-10.8,0-16.2c1.9-3.4,7.2-3.4,9.1,0
							C610.3,149.1,610.3,154.5,610.3,160z"/>
						<path class="st7" d="M610.3,161h-9.1c-0.6,0-1-0.4-1-1v-16.2c0-0.2,0-0.3,0.1-0.5c1-1.9,3.1-3.1,5.4-3.1c0,0,0,0,0,0
							c2.3,0,4.4,1.2,5.4,3.1c0.1,0.1,0.1,0.3,0.1,0.5V160C611.3,160.5,610.9,161,610.3,161z M602.3,159h7.1v-15
							c-0.7-1.2-2-1.9-3.5-1.9c-1.5,0-2.8,0.7-3.5,1.9V159z"/>
					</g>
					<g>
						<path class="st10" d="M629.1,160c-3,0-6.1,0-9.1,0c0-5.4,0-10.8,0-16.2c1.9-3.4,7.2-3.4,9.1,0
							C629.1,149.1,629.1,154.5,629.1,160z"/>
						<path class="st7" d="M629.1,161H620c-0.6,0-1-0.4-1-1v-16.2c0-0.2,0-0.3,0.1-0.5c1-1.9,3.1-3.1,5.4-3.1s4.4,1.2,5.4,3.1
							c0.1,0.1,0.1,0.3,0.1,0.5V160C630.1,160.5,629.7,161,629.1,161z M621,159h7.1v-15c-0.7-1.2-2-1.9-3.5-1.9s-2.8,0.7-3.5,1.9
							V159z"/>
					</g>
				</g>
				<g>
					<g>
						<path class="st10" d="M591.6,188.8c-3,0-6.1,0-9.1,0c0-5.4,0-10.8,0-16.2c1.9-3.4,7.2-3.4,9.1,0
							C591.6,178,591.6,183.4,591.6,188.8z"/>
						<path class="st7" d="M591.6,189.8h-9.1c-0.6,0-1-0.4-1-1v-16.2c0-0.2,0-0.3,0.1-0.5c1-1.9,3.1-3.1,5.4-3.1c0,0,0,0,0,0
							c2.3,0,4.4,1.2,5.4,3.1c0.1,0.1,0.1,0.3,0.1,0.5v16.2C592.6,189.4,592.1,189.8,591.6,189.8z M583.5,187.8h7.1v-15
							c-0.7-1.2-2-1.9-3.5-1.9h0c-1.5,0-2.8,0.7-3.5,1.9V187.8z"/>
					</g>
					<g>
						<path class="st10" d="M610.3,188.8c-3,0-6.1,0-9.1,0c0-5.4,0-10.8,0-16.2c1.9-3.4,7.2-3.4,9.1,0
							C610.3,178,610.3,183.4,610.3,188.8z"/>
						<path class="st7" d="M610.3,189.8h-9.1c-0.6,0-1-0.4-1-1v-16.2c0-0.2,0-0.3,0.1-0.5c1-1.9,3.1-3.1,5.4-3.1h0
							c2.3,0,4.4,1.2,5.4,3.1c0.1,0.1,0.1,0.3,0.1,0.5v16.2C611.3,189.4,610.9,189.8,610.3,189.8z M602.3,187.8h7.1v-15
							c-0.7-1.2-2-1.9-3.5-1.9c-1.5,0-2.8,0.7-3.5,1.9V187.8z"/>
					</g>
					<g>
						<path class="st10" d="M629.1,188.8c-3,0-6.1,0-9.1,0c0-5.4,0-10.8,0-16.2c1.9-3.4,7.2-3.4,9.1,0
							C629.1,178,629.1,183.4,629.1,188.8z"/>
						<path class="st7" d="M629.1,189.8H620c-0.6,0-1-0.4-1-1v-16.2c0-0.2,0-0.3,0.1-0.5c1-1.9,3.1-3.1,5.4-3.1s4.4,1.2,5.4,3.1
							c0.1,0.1,0.1,0.3,0.1,0.5v16.2C630.1,189.4,629.7,189.8,629.1,189.8z M621,187.8h7.1v-15c-0.7-1.2-2-1.9-3.5-1.9
							s-2.8,0.7-3.5,1.9V187.8z"/>
					</g>
				</g>
				<g>
					<g>
						<path class="st10" d="M591.6,217.7c-3,0-6.1,0-9.1,0c0-5.4,0-10.8,0-16.2c1.9-3.4,7.2-3.4,9.1,0
							C591.6,206.9,591.6,212.3,591.6,217.7z"/>
						<path class="st7" d="M591.6,218.7h-9.1c-0.6,0-1-0.4-1-1v-16.2c0-0.2,0-0.3,0.1-0.5c1-1.9,3.1-3.1,5.4-3.1c0,0,0,0,0,0
							c2.3,0,4.4,1.2,5.4,3.1c0.1,0.1,0.1,0.3,0.1,0.5v16.2C592.6,218.2,592.1,218.7,591.6,218.7z M583.5,216.7h7.1v-15
							c-0.7-1.2-2-1.9-3.5-1.9h0c-1.5,0-2.8,0.7-3.5,1.9V216.7z"/>
					</g>
					<g>
						<path class="st10" d="M610.3,217.7c-3,0-6.1,0-9.1,0c0-5.4,0-10.8,0-16.2c1.9-3.4,7.2-3.4,9.1,0
							C610.3,206.9,610.3,212.3,610.3,217.7z"/>
						<path class="st7" d="M610.3,218.7h-9.1c-0.6,0-1-0.4-1-1v-16.2c0-0.2,0-0.3,0.1-0.5c1-1.9,3.1-3.1,5.4-3.1c0,0,0,0,0,0
							c2.3,0,4.4,1.2,5.4,3.1c0.1,0.1,0.1,0.3,0.1,0.5v16.2C611.3,218.2,610.9,218.7,610.3,218.7z M602.3,216.7h7.1v-15
							c-0.7-1.2-2-1.9-3.5-1.9c-1.5,0-2.8,0.7-3.5,1.9V216.7z"/>
					</g>
					<g>
						<path class="st10" d="M629.1,217.7c-3,0-6.1,0-9.1,0c0-5.4,0-10.8,0-16.2c1.9-3.4,7.2-3.4,9.1,0
							C629.1,206.9,629.1,212.3,629.1,217.7z"/>
						<path class="st7" d="M629.1,218.7H620c-0.6,0-1-0.4-1-1v-16.2c0-0.2,0-0.3,0.1-0.5c1-1.9,3.1-3.1,5.4-3.1s4.4,1.2,5.4,3.1
							c0.1,0.1,0.1,0.3,0.1,0.5v16.2C630.1,218.2,629.7,218.7,629.1,218.7z M621,216.7h7.1v-15c-0.7-1.2-2-1.9-3.5-1.9
							s-2.8,0.7-3.5,1.9V216.7z"/>
					</g>
				</g>
				<g>
					<g>
						<path class="st10" d="M591.6,246.6c-3,0-6.1,0-9.1,0c0-5.4,0-10.8,0-16.2c1.9-3.4,7.2-3.4,9.1,0
							C591.6,235.8,591.6,241.2,591.6,246.6z"/>
						<path class="st7" d="M591.6,247.6h-9.1c-0.6,0-1-0.4-1-1v-16.2c0-0.2,0-0.3,0.1-0.5c1-1.9,3.1-3.1,5.4-3.1c0,0,0,0,0,0
							c2.3,0,4.4,1.2,5.4,3.1c0.1,0.1,0.1,0.3,0.1,0.5v16.2C592.6,247.2,592.1,247.6,591.6,247.6z M583.5,245.6h7.1v-15
							c-0.7-1.2-2-1.9-3.5-1.9h0c-1.5,0-2.8,0.7-3.5,1.9V245.6z"/>
					</g>
					<g>
						<path class="st10" d="M610.3,246.6c-3,0-6.1,0-9.1,0c0-5.4,0-10.8,0-16.2c1.9-3.4,7.2-3.4,9.1,0
							C610.3,235.8,610.3,241.2,610.3,246.6z"/>
						<path class="st7" d="M610.3,247.6h-9.1c-0.6,0-1-0.4-1-1v-16.2c0-0.2,0-0.3,0.1-0.5c1-1.9,3.1-3.1,5.4-3.1c0,0,0,0,0,0
							c2.3,0,4.4,1.2,5.4,3.1c0.1,0.1,0.1,0.3,0.1,0.5v16.2C611.3,247.2,610.9,247.6,610.3,247.6z M602.3,245.6h7.1v-15
							c-0.7-1.2-2-1.9-3.5-1.9c-1.5,0-2.8,0.7-3.5,1.9V245.6z"/>
					</g>
					<g>
						<path class="st10" d="M629.1,246.6c-3,0-6.1,0-9.1,0c0-5.4,0-10.8,0-16.2c1.9-3.4,7.2-3.4,9.1,0
							C629.1,235.8,629.1,241.2,629.1,246.6z"/>
						<path class="st7" d="M629.1,247.6H620c-0.6,0-1-0.4-1-1v-16.2c0-0.2,0-0.3,0.1-0.5c1-1.9,3.1-3.1,5.4-3.1s4.4,1.2,5.4,3.1
							c0.1,0.1,0.1,0.3,0.1,0.5v16.2C630.1,247.2,629.7,247.6,629.1,247.6z M621,245.6h7.1v-15c-0.7-1.2-2-1.9-3.5-1.9
							s-2.8,0.7-3.5,1.9V245.6z"/>
					</g>
				</g>
				<g>
					<g>
						<path class="st10" d="M591.6,275.5c-3,0-6.1,0-9.1,0c0-5.4,0-10.8,0-16.2c1.9-3.4,7.2-3.4,9.1,0
							C591.6,264.7,591.6,270.1,591.6,275.5z"/>
						<path class="st7" d="M591.6,276.5h-9.1c-0.6,0-1-0.4-1-1v-16.2c0-0.2,0-0.3,0.1-0.5c1-1.9,3.1-3.1,5.4-3.1c0,0,0,0,0,0
							c2.3,0,4.4,1.2,5.4,3.1c0.1,0.1,0.1,0.3,0.1,0.5v16.2C592.6,276,592.1,276.5,591.6,276.5z M583.5,274.5h7.1v-15
							c-0.7-1.2-2-1.9-3.5-1.9h0c-1.5,0-2.8,0.7-3.5,1.9V274.5z"/>
					</g>
					<g>
						<path class="st10" d="M610.3,275.5c-3,0-6.1,0-9.1,0c0-5.4,0-10.8,0-16.2c1.9-3.4,7.2-3.4,9.1,0
							C610.3,264.7,610.3,270.1,610.3,275.5z"/>
						<path class="st7" d="M610.3,276.5h-9.1c-0.6,0-1-0.4-1-1v-16.2c0-0.2,0-0.3,0.1-0.5c1-1.9,3.1-3.1,5.4-3.1c0,0,0,0,0,0
							c2.3,0,4.4,1.2,5.4,3.1c0.1,0.1,0.1,0.3,0.1,0.5v16.2C611.3,276,610.9,276.5,610.3,276.5z M602.3,274.5h7.1v-15
							c-0.7-1.2-2-1.9-3.5-1.9c-1.5,0-2.8,0.7-3.5,1.9V274.5z"/>
					</g>
					<g>
						<path class="st10" d="M629.1,275.5c-3,0-6.1,0-9.1,0c0-5.4,0-10.8,0-16.2c1.9-3.4,7.2-3.4,9.1,0
							C629.1,264.7,629.1,270.1,629.1,275.5z"/>
						<path class="st7" d="M629.1,276.5H620c-0.6,0-1-0.4-1-1v-16.2c0-0.2,0-0.3,0.1-0.5c1-1.9,3.1-3.1,5.4-3.1s4.4,1.2,5.4,3.1
							c0.1,0.1,0.1,0.3,0.1,0.5v16.2C630.1,276,629.7,276.5,629.1,276.5z M621,274.5h7.1v-15c-0.7-1.2-2-1.9-3.5-1.9
							s-2.8,0.7-3.5,1.9V274.5z"/>
					</g>
				</g>
				<g>
					<g>
						<path class="st10" d="M591.6,304.3c-3,0-6.1,0-9.1,0c0-5.4,0-10.8,0-16.2c1.9-3.4,7.2-3.4,9.1,0
							C591.6,293.5,591.6,298.9,591.6,304.3z"/>
						<path class="st7" d="M591.6,305.3h-9.1c-0.6,0-1-0.4-1-1v-16.2c0-0.2,0-0.3,0.1-0.5c1-1.9,3.1-3.1,5.4-3.1c0,0,0,0,0,0
							c2.3,0,4.4,1.2,5.4,3.1c0.1,0.1,0.1,0.3,0.1,0.5v16.2C592.6,304.9,592.1,305.3,591.6,305.3z M583.5,303.3h7.1v-15
							c-0.7-1.2-2-1.9-3.5-1.9h0c-1.5,0-2.8,0.7-3.5,1.9V303.3z"/>
					</g>
					<g>
						<path class="st10" d="M610.3,304.3c-3,0-6.1,0-9.1,0c0-5.4,0-10.8,0-16.2c1.9-3.4,7.2-3.4,9.1,0
							C610.3,293.5,610.3,298.9,610.3,304.3z"/>
						<path class="st7" d="M610.3,305.3h-9.1c-0.6,0-1-0.4-1-1v-16.2c0-0.2,0-0.3,0.1-0.5c1-1.9,3.1-3.1,5.4-3.1h0
							c2.3,0,4.4,1.2,5.4,3.1c0.1,0.1,0.1,0.3,0.1,0.5v16.2C611.3,304.9,610.9,305.3,610.3,305.3z M602.3,303.3h7.1v-15
							c-0.7-1.2-2-1.9-3.5-1.9c-1.5,0-2.8,0.7-3.5,1.9V303.3z"/>
					</g>
					<g>
						<path class="st10" d="M629.1,304.3c-3,0-6.1,0-9.1,0c0-5.4,0-10.8,0-16.2c1.9-3.4,7.2-3.4,9.1,0
							C629.1,293.5,629.1,298.9,629.1,304.3z"/>
						<path class="st7" d="M629.1,305.3H620c-0.6,0-1-0.4-1-1v-16.2c0-0.2,0-0.3,0.1-0.5c1-1.9,3.1-3.1,5.4-3.1s4.4,1.2,5.4,3.1
							c0.1,0.1,0.1,0.3,0.1,0.5v16.2C630.1,304.9,629.7,305.3,629.1,305.3z M621,303.3h7.1v-15c-0.7-1.2-2-1.9-3.5-1.9
							s-2.8,0.7-3.5,1.9V303.3z"/>
					</g>
				</g>
			</g>
		</g>
		<g>
			<g>
				<rect x="301.7" y="106.6" class="st10" width="77.3" height="218.7"/>
				<path class="st7" d="M379,326.3h-77.3c-0.6,0-1-0.4-1-1V106.6c0-0.6,0.4-1,1-1H379c0.6,0,1,0.4,1,1v218.7
					C380,325.9,379.6,326.3,379,326.3z M302.7,324.3H378V107.6h-75.3V324.3z"/>
			</g>
			<g>
				<g>
					<path class="st7" d="M322.2,153.2c-0.6,0-1-0.4-1-1v-33.8c0-0.6,0.4-1,1-1s1,0.4,1,1v33.8C323.2,152.7,322.8,153.2,322.2,153.2
						z"/>
				</g>
				<g>
					<path class="st7" d="M340.4,153.2c-0.6,0-1-0.4-1-1v-33.8c0-0.6,0.4-1,1-1s1,0.4,1,1v33.8C341.4,152.7,340.9,153.2,340.4,153.2
						z"/>
				</g>
				<g>
					<path class="st7" d="M358.5,153.2c-0.6,0-1-0.4-1-1v-33.8c0-0.6,0.4-1,1-1s1,0.4,1,1v33.8C359.5,152.7,359.1,153.2,358.5,153.2
						z"/>
				</g>
			</g>
			<g>
				<g>
					<path class="st7" d="M322.2,196.5c-0.6,0-1-0.4-1-1v-33.8c0-0.6,0.4-1,1-1s1,0.4,1,1v33.8C323.2,196,322.8,196.5,322.2,196.5z"
						/>
				</g>
				<g>
					<path class="st7" d="M340.4,196.5c-0.6,0-1-0.4-1-1v-33.8c0-0.6,0.4-1,1-1s1,0.4,1,1v33.8C341.4,196,340.9,196.5,340.4,196.5z"
						/>
				</g>
				<g>
					<path class="st7" d="M358.5,196.5c-0.6,0-1-0.4-1-1v-33.8c0-0.6,0.4-1,1-1s1,0.4,1,1v33.8C359.5,196,359.1,196.5,358.5,196.5z"
						/>
				</g>
			</g>
			<g>
				<g>
					<path class="st7" d="M322.2,239.8c-0.6,0-1-0.4-1-1V205c0-0.6,0.4-1,1-1s1,0.4,1,1v33.8C323.2,239.3,322.8,239.8,322.2,239.8z"
						/>
				</g>
				<g>
					<path class="st7" d="M340.4,239.8c-0.6,0-1-0.4-1-1V205c0-0.6,0.4-1,1-1s1,0.4,1,1v33.8C341.4,239.3,340.9,239.8,340.4,239.8z"
						/>
				</g>
				<g>
					<path class="st7" d="M358.5,239.8c-0.6,0-1-0.4-1-1V205c0-0.6,0.4-1,1-1s1,0.4,1,1v33.8C359.5,239.3,359.1,239.8,358.5,239.8z"
						/>
				</g>
			</g>
			<g>
				<g>
					<path class="st7" d="M322.2,283c-0.6,0-1-0.4-1-1v-33.8c0-0.6,0.4-1,1-1s1,0.4,1,1V282C323.2,282.6,322.8,283,322.2,283z"/>
				</g>
				<g>
					<path class="st7" d="M340.4,283c-0.6,0-1-0.4-1-1v-33.8c0-0.6,0.4-1,1-1s1,0.4,1,1V282C341.4,282.6,340.9,283,340.4,283z"/>
				</g>
				<g>
					<path class="st7" d="M358.5,283c-0.6,0-1-0.4-1-1v-33.8c0-0.6,0.4-1,1-1s1,0.4,1,1V282C359.5,282.6,359.1,283,358.5,283z"/>
				</g>
			</g>
			<g>
				<g>
					<path class="st7" d="M322.2,326.3c-0.6,0-1-0.4-1-1v-33.8c0-0.6,0.4-1,1-1s1,0.4,1,1v33.8C323.2,325.9,322.8,326.3,322.2,326.3
						z"/>
				</g>
				<g>
					<path class="st7" d="M340.4,326.3c-0.6,0-1-0.4-1-1v-33.8c0-0.6,0.4-1,1-1s1,0.4,1,1v33.8C341.4,325.9,340.9,326.3,340.4,326.3
						z"/>
				</g>
				<g>
					<path class="st7" d="M358.5,326.3c-0.6,0-1-0.4-1-1v-33.8c0-0.6,0.4-1,1-1s1,0.4,1,1v33.8C359.5,325.9,359.1,326.3,358.5,326.3
						z"/>
				</g>
			</g>
			<g>
				<path class="st7" d="M379,117.7h-77.3c-0.6,0-1-0.4-1-1s0.4-1,1-1H379c0.6,0,1,0.4,1,1S379.6,117.7,379,117.7z"/>
			</g>
		</g>
		<g>
			<g>
				<rect x="23" y="35.8" class="st8" width="87.5" height="289.5"/>
				<path class="st7" d="M110.5,326.3H23c-0.6,0-1-0.4-1-1V35.8c0-0.6,0.4-1,1-1h87.5c0.6,0,1,0.4,1,1v289.5
					C111.5,325.9,111.1,326.3,110.5,326.3z M24,324.3h85.5V36.8H24V324.3z"/>
			</g>
			<g>
				<g>
					<path class="st7" d="M49.1,120.8H35.6c-0.6,0-1-0.4-1-1v-18.7c0-0.6,0.4-1,1-1h13.5c0.6,0,1,0.4,1,1v18.7
						C50.1,120.4,49.7,120.8,49.1,120.8z M36.6,118.8h11.5v-16.7H36.6V118.8z"/>
				</g>
				<g>
					<path class="st7" d="M73.5,120.8H60c-0.6,0-1-0.4-1-1v-18.7c0-0.6,0.4-1,1-1h13.5c0.6,0,1,0.4,1,1v18.7
						C74.5,120.4,74.1,120.8,73.5,120.8z M61,118.8h11.5v-16.7H61V118.8z"/>
				</g>
				<g>
					<path class="st7" d="M97.9,120.8H84.4c-0.6,0-1-0.4-1-1v-18.7c0-0.6,0.4-1,1-1h13.5c0.6,0,1,0.4,1,1v18.7
						C98.9,120.4,98.5,120.8,97.9,120.8z M85.4,118.8h11.5v-16.7H85.4V118.8z"/>
				</g>
			</g>
			<g>
				<g>
					<path class="st7" d="M49.1,147.7H35.6c-0.6,0-1-0.4-1-1V128c0-0.6,0.4-1,1-1h13.5c0.6,0,1,0.4,1,1v18.7
						C50.1,147.2,49.7,147.7,49.1,147.7z M36.6,145.7h11.5V129H36.6V145.7z"/>
				</g>
				<g>
					<path class="st7" d="M73.5,147.7H60c-0.6,0-1-0.4-1-1V128c0-0.6,0.4-1,1-1h13.5c0.6,0,1,0.4,1,1v18.7
						C74.5,147.2,74.1,147.7,73.5,147.7z M61,145.7h11.5V129H61V145.7z"/>
				</g>
				<g>
					<path class="st7" d="M97.9,147.7H84.4c-0.6,0-1-0.4-1-1V128c0-0.6,0.4-1,1-1h13.5c0.6,0,1,0.4,1,1v18.7
						C98.9,147.2,98.5,147.7,97.9,147.7z M85.4,145.7h11.5V129H85.4V145.7z"/>
				</g>
			</g>
			<g>
				<g>
					<path class="st7" d="M49.1,174.5H35.6c-0.6,0-1-0.4-1-1v-18.7c0-0.6,0.4-1,1-1h13.5c0.6,0,1,0.4,1,1v18.7
						C50.1,174.1,49.7,174.5,49.1,174.5z M36.6,172.5h11.5v-16.7H36.6V172.5z"/>
				</g>
				<g>
					<path class="st7" d="M73.5,174.5H60c-0.6,0-1-0.4-1-1v-18.7c0-0.6,0.4-1,1-1h13.5c0.6,0,1,0.4,1,1v18.7
						C74.5,174.1,74.1,174.5,73.5,174.5z M61,172.5h11.5v-16.7H61V172.5z"/>
				</g>
				<g>
					<path class="st7" d="M97.9,174.5H84.4c-0.6,0-1-0.4-1-1v-18.7c0-0.6,0.4-1,1-1h13.5c0.6,0,1,0.4,1,1v18.7
						C98.9,174.1,98.5,174.5,97.9,174.5z M85.4,172.5h11.5v-16.7H85.4V172.5z"/>
				</g>
			</g>
			<g>
				<g>
					<path class="st7" d="M49.1,67.1H35.6c-0.6,0-1-0.4-1-1V47.5c0-0.6,0.4-1,1-1h13.5c0.6,0,1,0.4,1,1v18.7
						C50.1,66.7,49.7,67.1,49.1,67.1z M36.6,65.1h11.5V48.5H36.6V65.1z"/>
				</g>
				<g>
					<path class="st7" d="M73.5,67.1H60c-0.6,0-1-0.4-1-1V47.5c0-0.6,0.4-1,1-1h13.5c0.6,0,1,0.4,1,1v18.7
						C74.5,66.7,74.1,67.1,73.5,67.1z M61,65.1h11.5V48.5H61V65.1z"/>
				</g>
				<g>
					<path class="st7" d="M97.9,67.1H84.4c-0.6,0-1-0.4-1-1V47.5c0-0.6,0.4-1,1-1h13.5c0.6,0,1,0.4,1,1v18.7
						C98.9,66.7,98.5,67.1,97.9,67.1z M85.4,65.1h11.5V48.5H85.4V65.1z"/>
				</g>
			</g>
			<g>
				<g>
					<path class="st7" d="M49.1,94H35.6c-0.6,0-1-0.4-1-1V74.3c0-0.6,0.4-1,1-1h13.5c0.6,0,1,0.4,1,1V93C50.1,93.5,49.7,94,49.1,94z
						 M36.6,92h11.5V75.3H36.6V92z"/>
				</g>
				<g>
					<path class="st7" d="M73.5,94H60c-0.6,0-1-0.4-1-1V74.3c0-0.6,0.4-1,1-1h13.5c0.6,0,1,0.4,1,1V93C74.5,93.5,74.1,94,73.5,94z
						 M61,92h11.5V75.3H61V92z"/>
				</g>
				<g>
					<path class="st7" d="M97.9,94H84.4c-0.6,0-1-0.4-1-1V74.3c0-0.6,0.4-1,1-1h13.5c0.6,0,1,0.4,1,1V93C98.9,93.5,98.5,94,97.9,94z
						 M85.4,92h11.5V75.3H85.4V92z"/>
				</g>
			</g>
			<g>
				<g>
					<path class="st7" d="M49.1,201.4H35.6c-0.6,0-1-0.4-1-1v-18.7c0-0.6,0.4-1,1-1h13.5c0.6,0,1,0.4,1,1v18.7
						C50.1,200.9,49.7,201.4,49.1,201.4z M36.6,199.4h11.5v-16.7H36.6V199.4z"/>
				</g>
				<g>
					<path class="st7" d="M73.5,201.4H60c-0.6,0-1-0.4-1-1v-18.7c0-0.6,0.4-1,1-1h13.5c0.6,0,1,0.4,1,1v18.7
						C74.5,200.9,74.1,201.4,73.5,201.4z M61,199.4h11.5v-16.7H61V199.4z"/>
				</g>
				<g>
					<path class="st7" d="M97.9,201.4H84.4c-0.6,0-1-0.4-1-1v-18.7c0-0.6,0.4-1,1-1h13.5c0.6,0,1,0.4,1,1v18.7
						C98.9,200.9,98.5,201.4,97.9,201.4z M85.4,199.4h11.5v-16.7H85.4V199.4z"/>
				</g>
			</g>
			<g>
				<g>
					<path class="st7" d="M49.1,228.2H35.6c-0.6,0-1-0.4-1-1v-18.7c0-0.6,0.4-1,1-1h13.5c0.6,0,1,0.4,1,1v18.7
						C50.1,227.8,49.7,228.2,49.1,228.2z M36.6,226.2h11.5v-16.7H36.6V226.2z"/>
				</g>
				<g>
					<path class="st7" d="M73.5,228.2H60c-0.6,0-1-0.4-1-1v-18.7c0-0.6,0.4-1,1-1h13.5c0.6,0,1,0.4,1,1v18.7
						C74.5,227.8,74.1,228.2,73.5,228.2z M61,226.2h11.5v-16.7H61V226.2z"/>
				</g>
				<g>
					<path class="st7" d="M97.9,228.2H84.4c-0.6,0-1-0.4-1-1v-18.7c0-0.6,0.4-1,1-1h13.5c0.6,0,1,0.4,1,1v18.7
						C98.9,227.8,98.5,228.2,97.9,228.2z M85.4,226.2h11.5v-16.7H85.4V226.2z"/>
				</g>
			</g>
			<g>
				<g>
					<path class="st7" d="M49.1,255H35.6c-0.6,0-1-0.4-1-1v-18.7c0-0.6,0.4-1,1-1h13.5c0.6,0,1,0.4,1,1V254
						C50.1,254.5,49.7,255,49.1,255z M36.6,253h11.5v-16.7H36.6V253z"/>
				</g>
				<g>
					<path class="st7" d="M73.5,255H60c-0.6,0-1-0.4-1-1v-18.7c0-0.6,0.4-1,1-1h13.5c0.6,0,1,0.4,1,1V254
						C74.5,254.5,74.1,255,73.5,255z M61,253h11.5v-16.7H61V253z"/>
				</g>
				<g>
					<path class="st7" d="M97.9,255H84.4c-0.6,0-1-0.4-1-1v-18.7c0-0.6,0.4-1,1-1h13.5c0.6,0,1,0.4,1,1V254
						C98.9,254.5,98.5,255,97.9,255z M85.4,253h11.5v-16.7H85.4V253z"/>
				</g>
			</g>
			<g>
				<g>
					<path class="st7" d="M49.1,281.8H35.6c-0.6,0-1-0.4-1-1v-18.7c0-0.6,0.4-1,1-1h13.5c0.6,0,1,0.4,1,1v18.7
						C50.1,281.4,49.7,281.8,49.1,281.8z M36.6,279.8h11.5v-16.7H36.6V279.8z"/>
				</g>
				<g>
					<path class="st7" d="M73.5,281.8H60c-0.6,0-1-0.4-1-1v-18.7c0-0.6,0.4-1,1-1h13.5c0.6,0,1,0.4,1,1v18.7
						C74.5,281.4,74.1,281.8,73.5,281.8z M61,279.8h11.5v-16.7H61V279.8z"/>
				</g>
				<g>
					<path class="st7" d="M97.9,281.8H84.4c-0.6,0-1-0.4-1-1v-18.7c0-0.6,0.4-1,1-1h13.5c0.6,0,1,0.4,1,1v18.7
						C98.9,281.4,98.5,281.8,97.9,281.8z M85.4,279.8h11.5v-16.7H85.4V279.8z"/>
				</g>
			</g>
			<g>
				<g>
					<path class="st7" d="M49.1,308.7H35.6c-0.6,0-1-0.4-1-1V289c0-0.6,0.4-1,1-1h13.5c0.6,0,1,0.4,1,1v18.7
						C50.1,308.2,49.7,308.7,49.1,308.7z M36.6,306.7h11.5V290H36.6V306.7z"/>
				</g>
				<g>
					<path class="st7" d="M73.5,308.7H60c-0.6,0-1-0.4-1-1V289c0-0.6,0.4-1,1-1h13.5c0.6,0,1,0.4,1,1v18.7
						C74.5,308.2,74.1,308.7,73.5,308.7z M61,306.7h11.5V290H61V306.7z"/>
				</g>
				<g>
					<path class="st7" d="M97.9,308.7H84.4c-0.6,0-1-0.4-1-1V289c0-0.6,0.4-1,1-1h13.5c0.6,0,1,0.4,1,1v18.7
						C98.9,308.2,98.5,308.7,97.9,308.7z M85.4,306.7h11.5V290H85.4V306.7z"/>
				</g>
			</g>
			<g>
				<polyline class="st7" points="59.1,325 59.1,288.9 74.4,288.9 74.4,325 				"/>
				<path class="st7" d="M74.4,326c-0.6,0-1-0.4-1-1v-35.2H60.1V325c0,0.6-0.4,1-1,1s-1-0.4-1-1v-36.2c0-0.6,0.4-1,1-1h15.3
					c0.6,0,1,0.4,1,1V325C75.4,325.6,75,326,74.4,326z"/>
			</g>
		</g>
	</g>
	<g>
		<g>
			<g>
				<g>
					<rect x="629.3" y="197.5" class="st10" width="62.7" height="127.8"/>
					<path class="st7" d="M692,326.3h-62.7c-0.6,0-1-0.4-1-1V197.5c0-0.6,0.4-1,1-1H692c0.6,0,1,0.4,1,1v127.8
						C693,325.9,692.6,326.3,692,326.3z M630.3,324.3H691V198.5h-60.7V324.3z"/>
				</g>
				<g>
					<g>
						<g>
							<path class="st7" d="M648.1,315.5h-10c-0.6,0-1-0.4-1-1V304c0-0.6,0.4-1,1-1h10c0.6,0,1,0.4,1,1v10.5
								C649.1,315.1,648.6,315.5,648.1,315.5z M639.1,313.5h8V305h-8V313.5z"/>
						</g>
						<g>
							<path class="st7" d="M648.1,294.5h-10c-0.6,0-1-0.4-1-1v-10.5c0-0.6,0.4-1,1-1h10c0.6,0,1,0.4,1,1v10.5
								C649.1,294.1,648.6,294.5,648.1,294.5z M639.1,292.5h8v-8.5h-8V292.5z"/>
						</g>
						<g>
							<path class="st7" d="M648.1,273.6h-10c-0.6,0-1-0.4-1-1v-10.5c0-0.6,0.4-1,1-1h10c0.6,0,1,0.4,1,1v10.5
								C649.1,273.1,648.6,273.6,648.1,273.6z M639.1,271.6h8v-8.5h-8V271.6z"/>
						</g>
						<g>
							<path class="st7" d="M648.1,252.6h-10c-0.6,0-1-0.4-1-1v-10.5c0-0.6,0.4-1,1-1h10c0.6,0,1,0.4,1,1v10.5
								C649.1,252.1,648.6,252.6,648.1,252.6z M639.1,250.6h8v-8.5h-8V250.6z"/>
						</g>
						<g>
							<path class="st7" d="M648.1,231.6h-10c-0.6,0-1-0.4-1-1v-10.5c0-0.6,0.4-1,1-1h10c0.6,0,1,0.4,1,1v10.5
								C649.1,231.2,648.6,231.6,648.1,231.6z M639.1,229.6h8v-8.5h-8V229.6z"/>
						</g>
					</g>
					<g>
						<g>
							<path class="st7" d="M665.6,315.5h-10c-0.6,0-1-0.4-1-1V304c0-0.6,0.4-1,1-1h10c0.6,0,1,0.4,1,1v10.5
								C666.6,315.1,666.2,315.5,665.6,315.5z M656.6,313.5h8V305h-8V313.5z"/>
						</g>
						<g>
							<path class="st7" d="M665.6,294.5h-10c-0.6,0-1-0.4-1-1v-10.5c0-0.6,0.4-1,1-1h10c0.6,0,1,0.4,1,1v10.5
								C666.6,294.1,666.2,294.5,665.6,294.5z M656.6,292.5h8v-8.5h-8V292.5z"/>
						</g>
						<g>
							<path class="st7" d="M665.6,273.6h-10c-0.6,0-1-0.4-1-1v-10.5c0-0.6,0.4-1,1-1h10c0.6,0,1,0.4,1,1v10.5
								C666.6,273.1,666.2,273.6,665.6,273.6z M656.6,271.6h8v-8.5h-8V271.6z"/>
						</g>
						<g>
							<path class="st7" d="M665.6,252.6h-10c-0.6,0-1-0.4-1-1v-10.5c0-0.6,0.4-1,1-1h10c0.6,0,1,0.4,1,1v10.5
								C666.6,252.1,666.2,252.6,665.6,252.6z M656.6,250.6h8v-8.5h-8V250.6z"/>
						</g>
						<g>
							<path class="st7" d="M665.6,231.6h-10c-0.6,0-1-0.4-1-1v-10.5c0-0.6,0.4-1,1-1h10c0.6,0,1,0.4,1,1v10.5
								C666.6,231.2,666.2,231.6,665.6,231.6z M656.6,229.6h8v-8.5h-8V229.6z"/>
						</g>
					</g>
					<g>
						<g>
							<path class="st7" d="M683.2,315.5h-10c-0.6,0-1-0.4-1-1V304c0-0.6,0.4-1,1-1h10c0.6,0,1,0.4,1,1v10.5
								C684.2,315.1,683.7,315.5,683.2,315.5z M674.2,313.5h8V305h-8V313.5z"/>
						</g>
						<g>
							<path class="st7" d="M683.2,294.5h-10c-0.6,0-1-0.4-1-1v-10.5c0-0.6,0.4-1,1-1h10c0.6,0,1,0.4,1,1v10.5
								C684.2,294.1,683.7,294.5,683.2,294.5z M674.2,292.5h8v-8.5h-8V292.5z"/>
						</g>
						<g>
							<path class="st7" d="M683.2,273.6h-10c-0.6,0-1-0.4-1-1v-10.5c0-0.6,0.4-1,1-1h10c0.6,0,1,0.4,1,1v10.5
								C684.2,273.1,683.7,273.6,683.2,273.6z M674.2,271.6h8v-8.5h-8V271.6z"/>
						</g>
						<g>
							<path class="st7" d="M683.2,252.6h-10c-0.6,0-1-0.4-1-1v-10.5c0-0.6,0.4-1,1-1h10c0.6,0,1,0.4,1,1v10.5
								C684.2,252.1,683.7,252.6,683.2,252.6z M674.2,250.6h8v-8.5h-8V250.6z"/>
						</g>
						<g>
							<path class="st7" d="M683.2,231.6h-10c-0.6,0-1-0.4-1-1v-10.5c0-0.6,0.4-1,1-1h10c0.6,0,1,0.4,1,1v10.5
								C684.2,231.2,683.7,231.6,683.2,231.6z M674.2,229.6h8v-8.5h-8V229.6z"/>
						</g>
					</g>
				</g>
			</g>
			<g>
				<path class="st7" d="M691.2,206.8h-61.7c-0.6,0-1-0.4-1-1s0.4-1,1-1h61.7c0.6,0,1,0.4,1,1S691.7,206.8,691.2,206.8z"/>
			</g>
		</g>
		<g>
			<g>
				<rect x="448.8" y="146.3" class="st8" width="43.5" height="178.5"/>
				<path class="st7" d="M492.3,325.9h-43.5c-0.6,0-1-0.4-1-1V146.3c0-0.6,0.4-1,1-1h43.5c0.6,0,1,0.4,1,1v178.5
					C493.3,325.4,492.9,325.9,492.3,325.9z M449.8,323.9h41.5V147.3h-41.5V323.9z"/>
			</g>
			<g>
				<g>
					<path class="st7" d="M460.3,265.6c-0.6,0-1-0.4-1-1V156.2c0-0.6,0.4-1,1-1s1,0.4,1,1v108.3
						C461.3,265.1,460.9,265.6,460.3,265.6z"/>
				</g>
				<g>
					<path class="st7" d="M470.5,265.6c-0.6,0-1-0.4-1-1V156.2c0-0.6,0.4-1,1-1s1,0.4,1,1v108.3
						C471.5,265.1,471.1,265.6,470.5,265.6z"/>
				</g>
				<g>
					<path class="st7" d="M480.8,265.6c-0.6,0-1-0.4-1-1V156.2c0-0.6,0.4-1,1-1s1,0.4,1,1v108.3
						C481.8,265.1,481.3,265.6,480.8,265.6z"/>
				</g>
			</g>
		</g>
		<g>
			<rect x="488.6" y="173.9" class="st10" width="93.4" height="151.3"/>
			<path class="st7" d="M582,326.2h-93.4c-0.6,0-1-0.4-1-1V173.9c0-0.6,0.4-1,1-1H582c0.6,0,1,0.4,1,1v151.3
				C583,325.7,582.5,326.2,582,326.2z M489.6,324.2H581V174.9h-91.4V324.2z"/>
		</g>
		<g>
			<g>
				<path class="st7" d="M516.3,207.6h-14.4c-0.6,0-1-0.4-1-1v-17.7c0-0.6,0.4-1,1-1h14.4c0.6,0,1,0.4,1,1v17.7
					C517.3,207.2,516.9,207.6,516.3,207.6z M502.9,205.6h12.4v-15.7h-12.4V205.6z"/>
			</g>
			<g>
				<path class="st7" d="M542.4,207.6H528c-0.6,0-1-0.4-1-1v-17.7c0-0.6,0.4-1,1-1h14.4c0.6,0,1,0.4,1,1v17.7
					C543.4,207.2,543,207.6,542.4,207.6z M529,205.6h12.4v-15.7H529V205.6z"/>
			</g>
			<g>
				<path class="st7" d="M568.5,207.6H554c-0.6,0-1-0.4-1-1v-17.7c0-0.6,0.4-1,1-1h14.4c0.6,0,1,0.4,1,1v17.7
					C569.5,207.2,569,207.6,568.5,207.6z M555,205.6h12.4v-15.7H555V205.6z"/>
			</g>
		</g>
		<g>
			<g>
				<path class="st7" d="M516.3,241.2h-14.4c-0.6,0-1-0.4-1-1v-17.7c0-0.6,0.4-1,1-1h14.4c0.6,0,1,0.4,1,1v17.7
					C517.3,240.8,516.9,241.2,516.3,241.2z M502.9,239.2h12.4v-15.7h-12.4V239.2z"/>
			</g>
			<g>
				<path class="st7" d="M542.4,241.2H528c-0.6,0-1-0.4-1-1v-17.7c0-0.6,0.4-1,1-1h14.4c0.6,0,1,0.4,1,1v17.7
					C543.4,240.8,543,241.2,542.4,241.2z M529,239.2h12.4v-15.7H529V239.2z"/>
			</g>
			<g>
				<path class="st7" d="M568.5,241.2H554c-0.6,0-1-0.4-1-1v-17.7c0-0.6,0.4-1,1-1h14.4c0.6,0,1,0.4,1,1v17.7
					C569.5,240.8,569,241.2,568.5,241.2z M555,239.2h12.4v-15.7H555V239.2z"/>
			</g>
		</g>
		<g>
			<g>
				<path class="st7" d="M516.3,274.9h-14.4c-0.6,0-1-0.4-1-1v-17.7c0-0.6,0.4-1,1-1h14.4c0.6,0,1,0.4,1,1v17.7
					C517.3,274.4,516.9,274.9,516.3,274.9z M502.9,272.9h12.4v-15.7h-12.4V272.9z"/>
			</g>
			<g>
				<path class="st7" d="M542.4,274.9H528c-0.6,0-1-0.4-1-1v-17.7c0-0.6,0.4-1,1-1h14.4c0.6,0,1,0.4,1,1v17.7
					C543.4,274.4,543,274.9,542.4,274.9z M529,272.9h12.4v-15.7H529V272.9z"/>
			</g>
			<g>
				<path class="st7" d="M568.5,274.9H554c-0.6,0-1-0.4-1-1v-17.7c0-0.6,0.4-1,1-1h14.4c0.6,0,1,0.4,1,1v17.7
					C569.5,274.4,569,274.9,568.5,274.9z M555,272.9h12.4v-15.7H555V272.9z"/>
			</g>
		</g>
		<g>
			<path class="st7" d="M516.3,308.5h-14.4c-0.6,0-1-0.4-1-1v-17.7c0-0.6,0.4-1,1-1h14.4c0.6,0,1,0.4,1,1v17.7
				C517.3,308,516.9,308.5,516.3,308.5z M502.9,306.5h12.4v-15.7h-12.4V306.5z"/>
		</g>
		<g>
			<path class="st7" d="M568.5,308.5H554c-0.6,0-1-0.4-1-1v-14.4c0-0.6,0.4-1,1-1h14.4c0.6,0,1,0.4,1,1v14.4
				C569.5,308,569,308.5,568.5,308.5z M555,306.5h12.4v-12.4H555V306.5z"/>
		</g>
		<g>
			<polyline class="st7" points="526.9,325.3 526.9,289.9 543.3,289.9 543.3,325.3 			"/>
			<path class="st7" d="M543.3,326.3c-0.6,0-1-0.4-1-1v-34.4h-14.4v34.4c0,0.6-0.4,1-1,1s-1-0.4-1-1v-35.4c0-0.6,0.4-1,1-1h16.4
				c0.6,0,1,0.4,1,1v35.4C544.3,325.9,543.8,326.3,543.3,326.3z"/>
		</g>
		<g>
			<g>
				<rect x="238" y="186.2" class="st8" width="68.9" height="139.1"/>
				<path class="st7" d="M306.9,326.3H238c-0.6,0-1-0.4-1-1V186.2c0-0.6,0.4-1,1-1h68.9c0.6,0,1,0.4,1,1v139.1
					C307.9,325.9,307.5,326.3,306.9,326.3z M239,324.3h66.9V187.2H239V324.3z"/>
			</g>
			<g>
				<g>
					<g>
						<path class="st7" d="M258.7,313.3h-11c-0.6,0-1-0.4-1-1v-12.6c0-0.6,0.4-1,1-1h11c0.6,0,1,0.4,1,1v12.6
							C259.7,312.9,259.2,313.3,258.7,313.3z M248.7,311.3h9v-10.6h-9V311.3z"/>
					</g>
					<g>
						<path class="st7" d="M258.7,288.2h-11c-0.6,0-1-0.4-1-1v-12.6c0-0.6,0.4-1,1-1h11c0.6,0,1,0.4,1,1v12.6
							C259.7,287.7,259.2,288.2,258.7,288.2z M248.7,286.2h9v-10.6h-9V286.2z"/>
					</g>
					<g>
						<path class="st7" d="M258.7,263h-11c-0.6,0-1-0.4-1-1v-12.6c0-0.6,0.4-1,1-1h11c0.6,0,1,0.4,1,1V262
							C259.7,262.6,259.2,263,258.7,263z M248.7,261h9v-10.6h-9V261z"/>
					</g>
					<g>
						<path class="st7" d="M258.7,237.9h-11c-0.6,0-1-0.4-1-1v-12.6c0-0.6,0.4-1,1-1h11c0.6,0,1,0.4,1,1v12.6
							C259.7,237.4,259.2,237.9,258.7,237.9z M248.7,235.9h9v-10.6h-9V235.9z"/>
					</g>
					<g>
						<path class="st7" d="M258.7,212.7h-11c-0.6,0-1-0.4-1-1v-12.6c0-0.6,0.4-1,1-1h11c0.6,0,1,0.4,1,1v12.6
							C259.7,212.3,259.2,212.7,258.7,212.7z M248.7,210.7h9v-10.6h-9V210.7z"/>
					</g>
				</g>
				<g>
					<g>
						<path class="st7" d="M278,313.3h-11c-0.6,0-1-0.4-1-1v-12.6c0-0.6,0.4-1,1-1h11c0.6,0,1,0.4,1,1v12.6
							C279,312.9,278.5,313.3,278,313.3z M268,311.3h9v-10.6h-9V311.3z"/>
					</g>
					<g>
						<path class="st7" d="M278,288.2h-11c-0.6,0-1-0.4-1-1v-12.6c0-0.6,0.4-1,1-1h11c0.6,0,1,0.4,1,1v12.6
							C279,287.7,278.5,288.2,278,288.2z M268,286.2h9v-10.6h-9V286.2z"/>
					</g>
					<g>
						<path class="st7" d="M278,263h-11c-0.6,0-1-0.4-1-1v-12.6c0-0.6,0.4-1,1-1h11c0.6,0,1,0.4,1,1V262
							C279,262.6,278.5,263,278,263z M268,261h9v-10.6h-9V261z"/>
					</g>
					<g>
						<path class="st7" d="M278,237.9h-11c-0.6,0-1-0.4-1-1v-12.6c0-0.6,0.4-1,1-1h11c0.6,0,1,0.4,1,1v12.6
							C279,237.4,278.5,237.9,278,237.9z M268,235.9h9v-10.6h-9V235.9z"/>
					</g>
					<g>
						<path class="st7" d="M278,212.7h-11c-0.6,0-1-0.4-1-1v-12.6c0-0.6,0.4-1,1-1h11c0.6,0,1,0.4,1,1v12.6
							C279,212.3,278.5,212.7,278,212.7z M268,210.7h9v-10.6h-9V210.7z"/>
					</g>
				</g>
				<g>
					<g>
						<path class="st7" d="M297.3,313.3h-11c-0.6,0-1-0.4-1-1v-12.6c0-0.6,0.4-1,1-1h11c0.6,0,1,0.4,1,1v12.6
							C298.3,312.9,297.8,313.3,297.3,313.3z M287.3,311.3h9v-10.6h-9V311.3z"/>
					</g>
					<g>
						<path class="st7" d="M297.3,288.2h-11c-0.6,0-1-0.4-1-1v-12.6c0-0.6,0.4-1,1-1h11c0.6,0,1,0.4,1,1v12.6
							C298.3,287.7,297.8,288.2,297.3,288.2z M287.3,286.2h9v-10.6h-9V286.2z"/>
					</g>
					<g>
						<path class="st7" d="M297.3,263h-11c-0.6,0-1-0.4-1-1v-12.6c0-0.6,0.4-1,1-1h11c0.6,0,1,0.4,1,1V262
							C298.3,262.6,297.8,263,297.3,263z M287.3,261h9v-10.6h-9V261z"/>
					</g>
					<g>
						<path class="st7" d="M297.3,237.9h-11c-0.6,0-1-0.4-1-1v-12.6c0-0.6,0.4-1,1-1h11c0.6,0,1,0.4,1,1v12.6
							C298.3,237.4,297.8,237.9,297.3,237.9z M287.3,235.9h9v-10.6h-9V235.9z"/>
					</g>
					<g>
						<path class="st7" d="M297.3,212.7h-11c-0.6,0-1-0.4-1-1v-12.6c0-0.6,0.4-1,1-1h11c0.6,0,1,0.4,1,1v12.6
							C298.3,212.3,297.8,212.7,297.3,212.7z M287.3,210.7h9v-10.6h-9V210.7z"/>
					</g>
				</g>
			</g>
		</g>
		<g>
			<g>
				<rect x="359" y="174.9" class="st7" width="79.5" height="150.4"/>
				<path class="st7" d="M438.5,326.3H359c-0.6,0-1-0.4-1-1V174.9c0-0.6,0.4-1,1-1h79.5c0.6,0,1,0.4,1,1v150.4
					C439.5,325.9,439.1,326.3,438.5,326.3z M360,324.3h77.5V175.9H360V324.3z"/>
			</g>
			<g>
				<rect x="367.6" y="159.3" class="st10" width="62.3" height="14.2"/>
				<path class="st7" d="M429.9,174.6h-62.3c-0.6,0-1-0.4-1-1v-14.2c0-0.6,0.4-1,1-1h62.3c0.6,0,1,0.4,1,1v14.2
					C430.9,174.1,430.5,174.6,429.9,174.6z M368.6,172.6h60.3v-12.2h-60.3V172.6z"/>
			</g>
			<g>
				<g>
					<path class="st8" d="M381.7,209.3c-3.6,0-7.3,0-10.9,0c0-6.5,0-13,0-19.5c2.2-4.1,8.7-4.1,10.9,0
						C381.7,196.3,381.7,202.8,381.7,209.3z"/>
				</g>
				<g>
					<path class="st8" d="M404.2,209.3c-3.6,0-7.3,0-10.9,0c0-6.5,0-13,0-19.5c2.2-4.1,8.7-4.1,10.9,0
						C404.2,196.3,404.2,202.8,404.2,209.3z"/>
				</g>
				<g>
					<path class="st8" d="M426.8,209.3c-3.6,0-7.3,0-10.9,0c0-6.5,0-13,0-19.5c2.2-4.1,8.7-4.1,10.9,0
						C426.8,196.3,426.8,202.8,426.8,209.3z"/>
				</g>
			</g>
			<g>
				<g>
					<path class="st8" d="M381.7,244c-3.6,0-7.3,0-10.9,0c0-6.5,0-13,0-19.5c2.2-4.1,8.7-4.1,10.9,0
						C381.7,231,381.7,237.5,381.7,244z"/>
				</g>
				<g>
					<path class="st8" d="M404.2,244c-3.6,0-7.3,0-10.9,0c0-6.5,0-13,0-19.5c2.2-4.1,8.7-4.1,10.9,0
						C404.2,231,404.2,237.5,404.2,244z"/>
				</g>
				<g>
					<path class="st8" d="M426.8,244c-3.6,0-7.3,0-10.9,0c0-6.5,0-13,0-19.5c2.2-4.1,8.7-4.1,10.9,0
						C426.8,231,426.8,237.5,426.8,244z"/>
				</g>
			</g>
			<g>
				<g>
					<path class="st8" d="M381.7,278.6c-3.6,0-7.3,0-10.9,0c0-6.5,0-13,0-19.5c2.2-4.1,8.7-4.1,10.9,0
						C381.7,265.6,381.7,272.1,381.7,278.6z"/>
				</g>
				<g>
					<path class="st8" d="M404.2,278.6c-3.6,0-7.3,0-10.9,0c0-6.5,0-13,0-19.5c2.2-4.1,8.7-4.1,10.9,0
						C404.2,265.6,404.2,272.1,404.2,278.6z"/>
				</g>
				<g>
					<path class="st8" d="M426.8,278.6c-3.6,0-7.3,0-10.9,0c0-6.5,0-13,0-19.5c2.2-4.1,8.7-4.1,10.9,0
						C426.8,265.6,426.8,272.1,426.8,278.6z"/>
				</g>
			</g>
			<g>
				<g>
					<path class="st8" d="M381.7,313.3c-3.6,0-7.3,0-10.9,0c0-6.5,0-13,0-19.5c2.2-4.1,8.7-4.1,10.9,0
						C381.7,300.3,381.7,306.8,381.7,313.3z"/>
				</g>
				<g>
					<path class="st8" d="M404.2,313.3c-3.6,0-7.3,0-10.9,0c0-6.5,0-13,0-19.5c2.2-4.1,8.7-4.1,10.9,0
						C404.2,300.3,404.2,306.8,404.2,313.3z"/>
				</g>
				<g>
					<path class="st8" d="M426.8,313.3c-3.6,0-7.3,0-10.9,0c0-6.5,0-13,0-19.5c2.2-4.1,8.7-4.1,10.9,0
						C426.8,300.3,426.8,306.8,426.8,313.3z"/>
				</g>
			</g>
		</g>
		<g>
			<g>
				<path class="st10" d="M152.7,173.5c-0.1-0.2-0.2-0.2-0.4-0.2h-42.3c-0.2,0-0.3,0.1-0.4,0.2l-23.9,34.3c-0.1,0.1-0.1,0.3,0,0.5
					c0.1,0.2,0.2,0.2,0.4,0.2h43.3c0.2,0,0.3-0.1,0.4-0.2l22.9-34.3C152.8,173.9,152.8,173.7,152.7,173.5z"/>
			</g>
			<g>
				<path class="st8" d="M128.9,210.1H85.5c-0.3,0-0.5,0.2-0.5,0.5v113.6c0,0.3,0.2,0.5,0.5,0.5h43.4c0.3,0,0.5-0.2,0.5-0.5V210.5
					C129.4,210.3,129.1,210.1,128.9,210.1z"/>
			</g>
			<g>
				<polygon class="st7" points="154.6,172.8 130.3,209.3 130.3,325.2 178.1,325.2 178.1,208.8 				"/>
			</g>
			<g>
				<g>
					<g>
						<path class="st10" d="M101.6,237.9c-2.6,0-5.2,0-7.8,0c0-4.2,0-8.4,0-12.5c1.4-3.6,6.4-3.6,7.8,0
							C101.6,229.5,101.6,233.7,101.6,237.9z"/>
						<path class="st7" d="M101.6,238.9h-7.8c-0.6,0-1-0.4-1-1v-12.5c0-0.1,0-0.2,0.1-0.4c0.8-2,2.7-3.3,4.8-3.3
							c2.2,0,4.1,1.3,4.8,3.3c0,0.1,0.1,0.2,0.1,0.4v12.5C102.6,238.4,102.2,238.9,101.6,238.9z M94.8,236.9h5.8v-11.3
							c-0.6-1.4-1.9-1.9-2.9-1.9c-1,0-2.3,0.5-2.9,1.9V236.9z"/>
					</g>
					<g>
						<path class="st10" d="M119.5,237.9c-2.6,0-5.2,0-7.8,0c0-4.2,0-8.4,0-12.5c1.4-3.6,6.4-3.6,7.8,0
							C119.5,229.5,119.5,233.7,119.5,237.9z"/>
						<path class="st7" d="M119.5,238.9h-7.8c-0.6,0-1-0.4-1-1v-12.5c0-0.1,0-0.2,0.1-0.4c0.8-2,2.7-3.3,4.8-3.3
							c2.2,0,4.1,1.3,4.8,3.3c0,0.1,0.1,0.2,0.1,0.4v12.5C120.5,238.4,120,238.9,119.5,238.9z M112.7,236.9h5.8v-11.3
							c-0.6-1.4-1.9-1.9-2.9-1.9c-1,0-2.3,0.5-2.9,1.9V236.9z"/>
					</g>
				</g>
				<g>
					<g>
						<path class="st10" d="M101.6,262.5c-2.6,0-5.2,0-7.8,0c0-4.2,0-8.4,0-12.5c1.4-3.6,6.4-3.6,7.8,0
							C101.6,254.2,101.6,258.3,101.6,262.5z"/>
						<path class="st7" d="M101.6,263.5C101.6,263.5,101.6,263.5,101.6,263.5h-7.8h0c-0.3,0-0.5-0.1-0.7-0.3s-0.3-0.4-0.3-0.7V250
							c0-0.1,0-0.2,0.1-0.4c0.8-2,2.7-3.3,4.8-3.3c2.2,0,4.1,1.3,4.8,3.3c0,0.1,0.1,0.2,0.1,0.4v12.5c0,0.3-0.1,0.5-0.3,0.7
							S101.9,263.5,101.6,263.5z M94.8,261.5h5.8v-11.3c-0.6-1.4-1.9-1.9-2.9-1.9c-1,0-2.3,0.5-2.9,1.9V261.5z"/>
					</g>
					<g>
						<path class="st10" d="M119.5,262.5c-2.6,0-5.2,0-7.8,0c0-4.2,0-8.4,0-12.5c1.4-3.6,6.4-3.6,7.8,0
							C119.5,254.2,119.5,258.3,119.5,262.5z"/>
						<path class="st7" d="M119.5,263.5C119.5,263.5,119.5,263.5,119.5,263.5h-7.8h0c-0.3,0-0.5-0.1-0.7-0.3s-0.3-0.4-0.3-0.7V250
							c0-0.1,0-0.2,0.1-0.4c0.8-2,2.7-3.3,4.8-3.3c2.2,0,4.1,1.3,4.8,3.3c0,0.1,0.1,0.2,0.1,0.4v12.5c0,0.3-0.1,0.5-0.3,0.7
							S119.7,263.5,119.5,263.5z M112.7,261.5h5.8v-11.3c-0.6-1.4-1.9-1.9-2.9-1.9c-1,0-2.3,0.5-2.9,1.9V261.5z"/>
					</g>
				</g>
				<g>
					<g>
						<path class="st10" d="M101.6,287.1c-2.6,0-5.2,0-7.8,0c0-4.2,0-8.4,0-12.5c1.4-3.6,6.4-3.6,7.8,0
							C101.6,278.8,101.6,283,101.6,287.1z"/>
						<path class="st7" d="M101.6,288.1h-7.8c-0.6,0-1-0.4-1-1v-12.5c0-0.1,0-0.2,0.1-0.4c0.8-2,2.7-3.3,4.8-3.3
							c2.2,0,4.1,1.3,4.8,3.3c0,0.1,0.1,0.2,0.1,0.4v12.5C102.6,287.7,102.2,288.1,101.6,288.1z M94.8,286.1h5.8v-11.3
							c-0.6-1.4-1.9-1.9-2.9-1.9c-1,0-2.3,0.5-2.9,1.9V286.1z"/>
					</g>
					<g>
						<path class="st10" d="M119.5,287.1c-2.6,0-5.2,0-7.8,0c0-4.2,0-8.4,0-12.5c1.4-3.6,6.4-3.6,7.8,0
							C119.5,278.8,119.5,283,119.5,287.1z"/>
						<path class="st7" d="M119.5,288.1h-7.8c-0.6,0-1-0.4-1-1v-12.5c0-0.1,0-0.2,0.1-0.4c0.8-2,2.7-3.3,4.8-3.3
							c2.2,0,4.1,1.3,4.8,3.3c0,0.1,0.1,0.2,0.1,0.4v12.5C120.5,287.7,120,288.1,119.5,288.1z M112.7,286.1h5.8v-11.3
							c-0.6-1.4-1.9-1.9-2.9-1.9c-1,0-2.3,0.5-2.9,1.9V286.1z"/>
					</g>
				</g>
				<g>
					<g>
						<path class="st10" d="M101.6,311.8c-2.6,0-5.2,0-7.8,0c0-4.2,0-8.4,0-12.5c1.4-3.6,6.4-3.6,7.8,0
							C101.6,303.4,101.6,307.6,101.6,311.8z"/>
						<path class="st7" d="M101.6,312.8C101.6,312.8,101.6,312.8,101.6,312.8h-7.8h0c-0.3,0-0.5-0.1-0.7-0.3s-0.3-0.4-0.3-0.7v-12.5
							c0-0.1,0-0.2,0.1-0.4c0.8-2,2.7-3.3,4.8-3.3c2.2,0,4.1,1.3,4.8,3.3c0,0.1,0.1,0.2,0.1,0.4v12.5c0,0.3-0.1,0.5-0.3,0.7
							S101.9,312.8,101.6,312.8z M94.8,310.8h5.8v-11.3c-0.6-1.4-1.9-1.9-2.9-1.9c-1,0-2.3,0.5-2.9,1.9V310.8z"/>
					</g>
					<g>
						<path class="st10" d="M119.5,311.8c-2.6,0-5.2,0-7.8,0c0-4.2,0-8.4,0-12.5c1.4-3.6,6.4-3.6,7.8,0
							C119.5,303.4,119.5,307.6,119.5,311.8z"/>
						<path class="st7" d="M119.5,312.8C119.5,312.8,119.5,312.8,119.5,312.8h-7.8h0c-0.3,0-0.5-0.1-0.7-0.3s-0.3-0.4-0.3-0.7v-12.5
							c0-0.1,0-0.2,0.1-0.4c0.8-2,2.7-3.3,4.8-3.3c2.2,0,4.1,1.3,4.8,3.3c0,0.1,0.1,0.2,0.1,0.4v12.5c0,0.3-0.1,0.5-0.3,0.7
							S119.7,312.8,119.5,312.8z M112.7,310.8h5.8v-11.3c-0.6-1.4-1.9-1.9-2.9-1.9c-1,0-2.3,0.5-2.9,1.9V310.8z"/>
					</g>
				</g>
			</g>
			<g>
				<g>
					<g>
						<path class="st10" d="M148.8,237.9c-2.6,0-5.2,0-7.8,0c0-4.2,0-8.4,0-12.5c1.4-3.6,6.4-3.6,7.8,0
							C148.8,229.5,148.8,233.7,148.8,237.9z"/>
						<path class="st10" d="M148.8,238.4H141c-0.3,0-0.5-0.2-0.5-0.5v-12.5c0-0.1,0-0.1,0-0.2c0.7-1.9,2.4-3,4.4-3
							c2,0,3.7,1.2,4.4,3c0,0.1,0,0.1,0,0.2v12.5C149.3,238.2,149.1,238.4,148.8,238.4z M141.5,237.4h6.8v-11.9
							c-0.7-1.7-2.2-2.3-3.4-2.3c-1.2,0-2.7,0.6-3.4,2.3V237.4z"/>
					</g>
					<g>
						<path class="st10" d="M166.7,237.9c-2.6,0-5.2,0-7.8,0c0-4.2,0-8.4,0-12.5c1.4-3.6,6.4-3.6,7.8,0
							C166.7,229.5,166.7,233.7,166.7,237.9z"/>
						<path class="st10" d="M166.7,238.4h-7.8c-0.3,0-0.5-0.2-0.5-0.5v-12.5c0-0.1,0-0.1,0-0.2c0.7-1.9,2.4-3,4.4-3
							c2,0,3.7,1.2,4.4,3c0,0.1,0,0.1,0,0.2v12.5C167.2,238.2,166.9,238.4,166.7,238.4z M159.4,237.4h6.8v-11.9
							c-0.7-1.7-2.2-2.3-3.4-2.3c-1.2,0-2.7,0.6-3.4,2.3V237.4z"/>
					</g>
				</g>
				<g>
					<g>
						<path class="st10" d="M148.8,262.5c-2.6,0-5.2,0-7.8,0c0-4.2,0-8.4,0-12.5c1.4-3.6,6.4-3.6,7.8,0
							C148.8,254.2,148.8,258.3,148.8,262.5z"/>
						<path class="st10" d="M148.8,263L148.8,263H141c-0.1,0-0.3-0.1-0.4-0.1s-0.1-0.2-0.1-0.4V250c0-0.1,0-0.1,0-0.2
							c0.7-1.9,2.4-3,4.4-3c2,0,3.7,1.2,4.4,3c0,0.1,0,0.1,0,0.2v12.5c0,0.1-0.1,0.3-0.1,0.4S148.9,263,148.8,263z M141.5,262h6.8
							v-11.9c-0.7-1.7-2.2-2.3-3.4-2.3c-1.2,0-2.7,0.6-3.4,2.3V262z"/>
					</g>
					<g>
						<path class="st10" d="M166.7,262.5c-2.6,0-5.2,0-7.8,0c0-4.2,0-8.4,0-12.5c1.4-3.6,6.4-3.6,7.8,0
							C166.7,254.2,166.7,258.3,166.7,262.5z"/>
						<path class="st10" d="M166.7,263L166.7,263h-7.8c-0.1,0-0.3-0.1-0.4-0.1s-0.1-0.2-0.1-0.4V250c0-0.1,0-0.1,0-0.2
							c0.7-1.9,2.4-3,4.4-3c2,0,3.7,1.2,4.4,3c0,0.1,0,0.1,0,0.2v12.5c0,0.1-0.1,0.3-0.1,0.4S166.8,263,166.7,263z M159.4,262h6.8
							v-11.9c-0.7-1.7-2.2-2.3-3.4-2.3c-1.2,0-2.7,0.6-3.4,2.3V262z"/>
					</g>
				</g>
				<g>
					<g>
						<path class="st10" d="M148.8,287.1c-2.6,0-5.2,0-7.8,0c0-4.2,0-8.4,0-12.5c1.4-3.6,6.4-3.6,7.8,0
							C148.8,278.8,148.8,283,148.8,287.1z"/>
						<path class="st10" d="M148.8,287.6H141c-0.3,0-0.5-0.2-0.5-0.5v-12.5c0-0.1,0-0.1,0-0.2c0.7-1.9,2.4-3,4.4-3
							c2,0,3.7,1.2,4.4,3c0,0.1,0,0.1,0,0.2v12.5C149.3,287.4,149.1,287.6,148.8,287.6z M141.5,286.6h6.8v-11.9
							c-0.7-1.7-2.2-2.3-3.4-2.3c-1.2,0-2.7,0.6-3.4,2.3V286.6z"/>
					</g>
					<g>
						<path class="st10" d="M166.7,287.1c-2.6,0-5.2,0-7.8,0c0-4.2,0-8.4,0-12.5c1.4-3.6,6.4-3.6,7.8,0
							C166.7,278.8,166.7,283,166.7,287.1z"/>
						<path class="st10" d="M166.7,287.6h-7.8c-0.3,0-0.5-0.2-0.5-0.5v-12.5c0-0.1,0-0.1,0-0.2c0.7-1.9,2.4-3,4.4-3
							c2,0,3.7,1.2,4.4,3c0,0.1,0,0.1,0,0.2v12.5C167.2,287.4,166.9,287.6,166.7,287.6z M159.4,286.6h6.8v-11.9
							c-0.7-1.7-2.2-2.3-3.4-2.3c-1.2,0-2.7,0.6-3.4,2.3V286.6z"/>
					</g>
				</g>
				<g>
					<g>
						<path class="st10" d="M148.8,311.8c-2.6,0-5.2,0-7.8,0c0-4.2,0-8.4,0-12.5c1.4-3.6,6.4-3.6,7.8,0
							C148.8,303.4,148.8,307.6,148.8,311.8z"/>
						<path class="st10" d="M148.8,312.3L148.8,312.3H141c-0.1,0-0.3-0.1-0.4-0.1s-0.1-0.2-0.1-0.4v-12.5c0-0.1,0-0.1,0-0.2
							c0.7-1.9,2.4-3,4.4-3c2,0,3.7,1.2,4.4,3c0,0.1,0,0.1,0,0.2v12.5c0,0.1-0.1,0.3-0.1,0.4S148.9,312.3,148.8,312.3z M141.5,311.3
							h6.8v-11.9c-0.7-1.7-2.2-2.3-3.4-2.3c-1.2,0-2.7,0.6-3.4,2.3V311.3z"/>
					</g>
					<g>
						<path class="st10" d="M166.7,311.8c-2.6,0-5.2,0-7.8,0c0-4.2,0-8.4,0-12.5c1.4-3.6,6.4-3.6,7.8,0
							C166.7,303.4,166.7,307.6,166.7,311.8z"/>
						<path class="st10" d="M166.7,312.3L166.7,312.3h-7.8c-0.1,0-0.3-0.1-0.4-0.1s-0.1-0.2-0.1-0.4v-12.5c0-0.1,0-0.1,0-0.2
							c0.7-1.9,2.4-3,4.4-3c2,0,3.7,1.2,4.4,3c0,0.1,0,0.1,0,0.2v12.5c0,0.1-0.1,0.3-0.1,0.4S166.8,312.3,166.7,312.3z M159.4,311.3
							h6.8v-11.9c-0.7-1.7-2.2-2.3-3.4-2.3c-1.2,0-2.7,0.6-3.4,2.3V311.3z"/>
					</g>
				</g>
			</g>
			<g>
				<path class="st7" d="M178,326.3h-94c-0.6,0-1-0.4-1-1V208.7c0-0.2,0.1-0.4,0.2-0.6l25.2-36.2c0.2-0.3,0.5-0.4,0.8-0.4h45.2
					c0.3,0,0.7,0.2,0.8,0.5l23.6,36.2c0.1,0.2,0.2,0.4,0.2,0.5v116.6C179,325.9,178.6,326.3,178,326.3z M85.1,324.3h92V209
					l-23.1-35.5h-44.2L85.1,209V324.3z"/>
			</g>
			<g>
				<path class="st7" d="M129.9,210.3H85.1c-0.6,0-1-0.4-1-1s0.4-1,1-1h44.4l24.2-36.3c0.3-0.5,0.9-0.6,1.4-0.3
					c0.5,0.3,0.6,0.9,0.3,1.4l-24.5,36.8C130.6,210.1,130.3,210.3,129.9,210.3z"/>
			</g>
			<g>
				<path class="st7" d="M129.9,325.5c-0.6,0-1-0.4-1-1V209.3c0-0.6,0.4-1,1-1s1,0.4,1,1v115.2C130.9,325.1,130.5,325.5,129.9,325.5
					z"/>
			</g>
		</g>
	</g>
	<g>
		<g>
			<path class="st10" d="M486.3,241.4l-20.2,30.3v8.3v36.8v8.3h12v-8.3v-15.6c0-0.6,0.5-1.1,1.1-1.1h13.6c0.6,0,1.1,0.5,1.1,1.1
				v15.6v8.3h11.8v-8.3v-37.3v-8.3L486.3,241.4z"/>
			<path class="st10" d="M506,325.5h-12.6v-24.3c0-0.4-0.3-0.7-0.7-0.7h-13.6c-0.4,0-0.7,0.3-0.7,0.7v24.3h-12.8v-53.9l0.1-0.1
				l20.5-30.8l19.8,30.4V325.5z M494.2,324.8h11.1v-53.4l-19-29.2l-19.8,29.7v52.9h11.3v-23.5c0-0.8,0.6-1.4,1.4-1.4h13.6
				c0.8,0,1.4,0.6,1.4,1.4V324.8z"/>
		</g>
		<g>
			<path class="st10" d="M239.1,241.4l-20.2,30.3v8.3v36.8v8.3h12v-8.3v-15.6c0-0.6,0.5-1.1,1.1-1.1h13.6c0.6,0,1.1,0.5,1.1,1.1
				v15.6v8.3h11.8v-8.3v-37.3v-8.3L239.1,241.4z"/>
			<path class="st10" d="M258.9,325.5h-12.6v-24.3c0-0.4-0.3-0.7-0.7-0.7H232c-0.4,0-0.7,0.3-0.7,0.7v24.3h-12.8v-53.9l0.1-0.1
				l20.5-30.8l19.8,30.4V325.5z M247,324.8h11.1v-53.4l-19-29.2l-19.8,29.7v52.9h11.3v-23.5c0-0.8,0.6-1.4,1.4-1.4h13.6
				c0.8,0,1.4,0.6,1.4,1.4V324.8z"/>
		</g>
		<g>
			<rect x="232.9" y="296.6" class="st8" width="11.5" height="28.2"/>
			<path class="st8" d="M244.7,325.3h-12.2v-29h12.2V325.3z M233.2,324.5H244V297h-10.7V324.5z"/>
		</g>
		<g>
			<polygon class="st8" points="179.1,272.4 179.1,280.8 179.1,316.8 179.1,325.1 216.8,325.1 216.8,316.8 216.8,280.8 216.8,272.4 
							"/>
			<path class="st8" d="M217.1,325.5h-38.4v-53.4h38.4V325.5z M179.5,324.8h36.9v-51.9h-36.9V324.8z"/>
		</g>
		<g>
			<path class="st7" d="M217.8,272.4h-38.9c-0.6,0-1-0.4-1-1s0.4-1,1-1h38.4l21-31.4c0.3-0.5,0.9-0.6,1.4-0.3
				c0.5,0.3,0.6,0.9,0.3,1.4l-21.3,31.9C218.5,272.2,218.2,272.4,217.8,272.4z"/>
		</g>
		<g>
			<path class="st7" d="M217.8,325.6c-0.6,0-1-0.4-1-1v-53.3c0-0.6,0.4-1,1-1s1,0.4,1,1v53.3C218.8,325.2,218.4,325.6,217.8,325.6z"
				/>
		</g>
		<g>
			<path class="st7" d="M245.6,326.1c-0.6,0-1-0.4-1-1v-27.8H233v27.8c0,0.6-0.4,1-1,1s-1-0.4-1-1v-28.8c0-0.6,0.4-1,1-1h13.6
				c0.6,0,1,0.4,1,1v28.8C246.6,325.7,246.1,326.1,245.6,326.1z"/>
		</g>
		<g>
			<path class="st7" d="M206.3,292.4H189c-0.6,0-1-0.4-1-1v-8.9c0-0.6,0.4-1,1-1h17.4c0.6,0,1,0.4,1,1v8.9
				C207.3,292,206.9,292.4,206.3,292.4z M190,290.4h15.4v-6.9H190V290.4z"/>
		</g>
		<g>
			<path class="st7" d="M206.3,308.3H189c-0.6,0-1-0.4-1-1v-8.9c0-0.6,0.4-1,1-1h17.4c0.6,0,1,0.4,1,1v8.9
				C207.3,307.9,206.9,308.3,206.3,308.3z M190,306.3h15.4v-6.9H190V306.3z"/>
		</g>
		<g>
			<polygon class="st7" points="200.4,240.6 237.1,240.6 217.3,270.3 179.7,270.3 			"/>
			<path class="st7" d="M217.3,270.7h-37.5c-0.1,0-0.3-0.1-0.3-0.2c-0.1-0.1-0.1-0.3,0-0.4l20.7-29.8c0.1-0.1,0.2-0.2,0.3-0.2h36.7
				c0.1,0,0.3,0.1,0.3,0.2c0.1,0.1,0.1,0.3,0,0.4l-19.8,29.8C217.5,270.6,217.4,270.7,217.3,270.7z M180.4,269.9h36.6l19.3-29h-35.8
				L180.4,269.9z"/>
		</g>
		<g>
			<rect x="480" y="297" class="st8" width="11.5" height="27.9"/>
			<path class="st8" d="M491.9,325.3h-12.2v-28.6h12.2V325.3z M480.4,324.5h10.7v-27.1h-10.7V324.5z"/>
		</g>
		<g>
			<polygon class="st8" points="426.3,272.4 426.3,280.8 426.3,316.8 426.3,325.1 463.9,325.1 463.9,316.8 463.9,280.8 463.9,272.4 
							"/>
			<path class="st8" d="M464.3,325.5h-38.4v-53.4h38.4V325.5z M426.6,324.8h36.9v-51.9h-36.9V324.8z"/>
		</g>
		<g>
			<path class="st7" d="M465,272.4h-38.9c-0.6,0-1-0.4-1-1s0.4-1,1-1h38.4l21-31.4c0.3-0.5,0.9-0.6,1.4-0.3c0.5,0.3,0.6,0.9,0.3,1.4
				l-21.3,31.9C465.7,272.2,465.3,272.4,465,272.4z"/>
		</g>
		<g>
			<path class="st7" d="M465,325.6c-0.6,0-1-0.4-1-1v-53.3c0-0.6,0.4-1,1-1s1,0.4,1,1v53.3C466,325.2,465.6,325.6,465,325.6z"/>
		</g>
		<g>
			<path class="st7" d="M492.8,326.1c-0.6,0-1-0.4-1-1v-27.8h-11.6v27.8c0,0.6-0.4,1-1,1s-1-0.4-1-1v-28.8c0-0.6,0.4-1,1-1h13.6
				c0.6,0,1,0.4,1,1v28.8C493.8,325.7,493.3,326.1,492.8,326.1z"/>
		</g>
		<g>
			<path class="st7" d="M449.2,292.4h-10.7c-0.6,0-1-0.4-1-1v-8.9c0-0.6,0.4-1,1-1h10.7c0.6,0,1,0.4,1,1v8.9
				C450.2,292,449.8,292.4,449.2,292.4z M439.5,290.4h8.7v-6.9h-8.7V290.4z"/>
		</g>
		<g>
			<path class="st7" d="M449.2,308.3h-10.7c-0.6,0-1-0.4-1-1v-8.9c0-0.6,0.4-1,1-1h10.7c0.6,0,1,0.4,1,1v8.9
				C450.2,307.9,449.8,308.3,449.2,308.3z M439.5,306.3h8.7v-6.9h-8.7V306.3z"/>
		</g>
		<g>
			<polygon class="st7" points="447.6,240.6 484.3,240.6 464.4,270.3 426.9,270.3 			"/>
			<path class="st7" d="M464.4,270.7h-37.5c-0.1,0-0.3-0.1-0.3-0.2c-0.1-0.1-0.1-0.3,0-0.4l20.7-29.8c0.1-0.1,0.2-0.2,0.3-0.2h36.7
				c0.1,0,0.3,0.1,0.3,0.2c0.1,0.1,0.1,0.3,0,0.4l-19.8,29.8C464.7,270.6,464.6,270.7,464.4,270.7z M427.6,269.9h36.6l19.3-29h-35.8
				L427.6,269.9z"/>
		</g>
		<g>
			<rect x="309.4" y="300" class="st8" width="10.1" height="24.7"/>
			<path class="st8" d="M319.8,325.1H309v-25.5h10.8V325.1z M309.8,324.3h9.3v-24h-9.3V324.3z"/>
		</g>
		<g>
			<path class="st8" d="M314,251L297,277v8.3v31.6v8.3h10.3v-8.3v-12.6c0-0.5,0.4-0.9,0.9-0.9h11.9c0.5,0,0.9,0.4,0.9,0.9v12.6v8.3
				h10.5v-8.3v-31.1v-8.3L314,251z"/>
			<path class="st8" d="M332,325.6h-11.3v-21.3c0-0.3-0.3-0.6-0.6-0.6h-11.9c-0.3,0-0.6,0.3-0.6,0.6v21.3h-11.1v-48.7l0.1-0.1
				l17.3-26.5l18,27.1V325.6z M321.5,324.9h9.8v-47.3L314,251.7l-16.6,25.5v47.7h9.6v-20.5c0-0.7,0.6-1.3,1.3-1.3h11.9
				c0.7,0,1.3,0.6,1.3,1.3V324.9z"/>
		</g>
		<g>
			<polygon class="st10" points="333.5,278.1 333.5,286.5 333.5,316.9 333.5,325.3 366.5,325.3 366.5,316.9 366.5,286.5 
				366.5,278.1 			"/>
			<path class="st10" d="M366.9,325.6h-33.7v-47.9h33.7V325.6z M333.9,324.9h32.2v-46.4h-32.2V324.9z"/>
		</g>
		<g>
			<path class="st7" d="M366.7,278.2h-34.1c-0.3,0-0.6-0.2-0.8-0.4l-18.6-27.9c-0.3-0.5-0.2-1.1,0.3-1.4c0.5-0.3,1.1-0.2,1.4,0.3
				l18.3,27.5h33.5c0.6,0,1,0.4,1,1S367.2,278.2,366.7,278.2z"/>
		</g>
		<g>
			<path class="st7" d="M332.6,325.3c-0.6,0-1-0.4-1-1v-47.1c0-0.6,0.4-1,1-1s1,0.4,1,1v47.1C333.6,324.8,333.1,325.3,332.6,325.3z"
				/>
		</g>
		<g>
			<path class="st7" d="M320.2,325.7c-0.6,0-1-0.4-1-1v-24.5h-9.9v24.5c0,0.6-0.4,1-1,1s-1-0.4-1-1v-25.5c0-0.6,0.4-1,1-1h11.9
				c0.6,0,1,0.4,1,1v25.5C321.2,325.3,320.8,325.7,320.2,325.7z"/>
		</g>
		<g>
			<path class="st7" d="M357.9,295.7h-15.2c-0.6,0-1-0.4-1-1v-7.8c0-0.6,0.4-1,1-1h15.2c0.6,0,1,0.4,1,1v7.8
				C358.9,295.3,358.4,295.7,357.9,295.7z M343.7,293.7h13.2v-5.8h-13.2V293.7z"/>
		</g>
		<g>
			<path class="st7" d="M357.9,309.6h-15.2c-0.6,0-1-0.4-1-1v-7.8c0-0.6,0.4-1,1-1h15.2c0.6,0,1,0.4,1,1v7.8
				C358.9,309.2,358.4,309.6,357.9,309.6z M343.7,307.6h13.2v-5.8h-13.2V307.6z"/>
		</g>
		<g>
			<polygon class="st7" points="365.9,276.3 333.1,276.3 315.7,250.2 347.8,250.2 			"/>
			<path class="st7" d="M365.9,276.6h-32.9c-0.1,0-0.2-0.1-0.3-0.2l-17.4-26c-0.1-0.1-0.1-0.3,0-0.4c0.1-0.1,0.2-0.2,0.3-0.2h32.1
				c0.1,0,0.2,0.1,0.3,0.2l18.1,26c0.1,0.1,0.1,0.3,0,0.4C366.2,276.6,366.1,276.6,365.9,276.6z M333.3,275.9h31.9l-17.6-25.3h-31.2
				L333.3,275.9z"/>
		</g>
		<g>
			<rect x="611.1" y="301.4" class="st8" width="10.1" height="23.6"/>
			<path class="st8" d="M621.6,325.4h-10.9v-24.4h10.9V325.4z M611.4,324.7h9.4v-22.9h-9.4V324.7z"/>
		</g>
		<g>
			<path class="st8" d="M615.7,255.1l-17.1,24.4v8.3V317v8.3H609V317v-11.3c0-0.5,0.4-0.9,0.9-0.9h12c0.5,0,0.9,0.4,0.9,0.9V317v8.3
				h10.6V317v-28.7V280L615.7,255.1z"/>
			<path class="st8" d="M633.8,325.7h-11.3v-20c0-0.3-0.3-0.5-0.6-0.5h-12c-0.3,0-0.6,0.2-0.6,0.5v20h-11.2v-46.2l17.5-25l18.2,25.4
				V325.7z M623.3,324.9h9.8v-44.8l-17.4-24.3L599,279.7v45.2h9.7v-19.2c0-0.7,0.6-1.3,1.3-1.3h12c0.7,0,1.3,0.6,1.3,1.3V324.9z"/>
		</g>
		<g>
			<polygon class="st10" points="635.4,280.6 635.4,288.9 635.4,317 635.4,325.3 668.5,325.3 668.5,317 668.5,288.9 668.5,280.6 			
				"/>
			<path class="st10" d="M668.9,325.7H635v-45.5h33.9V325.7z M635.7,324.9h32.4v-44h-32.4V324.9z"/>
		</g>
		<g>
			<path class="st7" d="M259.6,326.2H178c-0.6,0-1-0.4-1-1v-54.3c0-0.2,0.1-0.4,0.2-0.6l21.8-31.4c0.2-0.3,0.5-0.4,0.8-0.4h39.2
				c0.3,0,0.7,0.2,0.8,0.5l20.5,31.4c0.1,0.2,0.2,0.4,0.2,0.5v54.3C260.6,325.7,260.1,326.2,259.6,326.2z M179,324.2h79.5v-53
				l-20-30.7h-38.2L179,271.2V324.2z"/>
		</g>
		<g>
			<path class="st7" d="M506.7,326.2h-81.5c-0.6,0-1-0.4-1-1v-54.3c0-0.2,0.1-0.4,0.2-0.6l21.8-31.4c0.2-0.3,0.5-0.4,0.8-0.4h39.2
				c0.3,0,0.7,0.2,0.8,0.5l20.5,31.4c0.1,0.2,0.2,0.4,0.2,0.5v54.3C507.7,325.7,507.3,326.2,506.7,326.2z M426.2,324.2h79.5v-53
				l-20-30.7h-38.2l-21.4,30.7V324.2z"/>
		</g>
		<g>
			<path class="st7" d="M367.4,326.2h-71.4c-0.6,0-1-0.4-1-1v-48.4c0-0.2,0.1-0.4,0.2-0.5l17.9-27.5c0.2-0.3,0.5-0.5,0.8-0.5h34.3
				c0.3,0,0.6,0.2,0.8,0.4l19.1,27.5c0.1,0.2,0.2,0.4,0.2,0.6v48.4C368.4,325.7,368,326.2,367.4,326.2z M297.1,324.2h69.4v-47.1
				l-18.6-26.8h-33.3l-17.4,26.8V324.2z"/>
		</g>
		<g>
			<path class="st7" d="M669.5,326.2h-71.8c-0.6,0-1-0.4-1-1v-45.9c0-0.2,0.1-0.4,0.2-0.6l18-25.8c0.2-0.3,0.5-0.4,0.8-0.4h34.6
				c0.3,0,0.6,0.1,0.8,0.4l19.2,25.8c0.1,0.2,0.2,0.4,0.2,0.6v45.9C670.5,325.7,670,326.2,669.5,326.2z M598.7,324.2h69.8v-44.5
				l-18.7-25.1h-33.5l-17.5,25.1V324.2z"/>
		</g>
		<g>
			<path class="st7" d="M668.7,280.7h-34.3c-0.3,0-0.6-0.2-0.8-0.4l-18.7-26.2c-0.3-0.4-0.2-1.1,0.2-1.4c0.5-0.3,1.1-0.2,1.4,0.2
				l18.4,25.8h33.8c0.6,0,1,0.4,1,1S669.3,280.7,668.7,280.7z"/>
		</g>
		<g>
			<path class="st7" d="M634.4,325.5c-0.6,0-1-0.4-1-1v-44.7c0-0.6,0.4-1,1-1s1,0.4,1,1v44.7C635.4,325,635,325.5,634.4,325.5z"/>
		</g>
		<g>
			<path class="st7" d="M622,325.9c-0.6,0-1-0.4-1-1v-23.2h-10v23.2c0,0.6-0.4,1-1,1s-1-0.4-1-1v-24.2c0-0.6,0.4-1,1-1h12
				c0.6,0,1,0.4,1,1v24.2C623,325.4,622.5,325.9,622,325.9z"/>
		</g>
		<g>
			<path class="st7" d="M659.8,297.1h-15.3c-0.6,0-1-0.4-1-1v-7.3c0-0.6,0.4-1,1-1h15.3c0.6,0,1,0.4,1,1v7.3
				C660.8,296.7,660.4,297.1,659.8,297.1z M645.5,295.1h13.3v-5.3h-13.3V295.1z"/>
		</g>
		<g>
			<path class="st7" d="M659.8,310.2h-15.3c-0.6,0-1-0.4-1-1v-7.3c0-0.6,0.4-1,1-1h15.3c0.6,0,1,0.4,1,1v7.3
				C660.8,309.8,660.4,310.2,659.8,310.2z M645.5,308.2h13.3v-5.3h-13.3V308.2z"/>
		</g>
		<g>
			<polygon class="st7" points="668,278.8 634.9,278.8 617.4,254.4 649.8,254.4 			"/>
			<path class="st7" d="M668,279.2h-33.1c-0.1,0-0.2-0.1-0.3-0.2l-17.5-24.4c-0.1-0.1-0.1-0.3,0-0.4c0.1-0.1,0.2-0.2,0.3-0.2h32.3
				c0.1,0,0.2,0.1,0.3,0.2l18.2,24.4c0.1,0.1,0.1,0.3,0,0.4S668.1,279.2,668,279.2z M635.1,278.5h32.1l-17.7-23.7h-31.4L635.1,278.5
				z"/>
		</g>
	</g>
</g>
</svg>
