<?xml version="1.0" encoding="utf-8"?>
<!-- Generator: Adobe Illustrator 22.0.1, SVG Export Plug-In . SVG Version: 6.00 Build 0)  -->
<svg version="1.1" id="Layer_8" xmlns="http://www.w3.org/2000/svg" xmlns:xlink="http://www.w3.org/1999/xlink" x="0px" y="0px"
	 viewBox="0 0 190 150" style="enable-background:new 0 0 190 150;" xml:space="preserve">
<style type="text/css">
	.st0{fill:#3723FF;stroke:#3723FF;stroke-width:2;stroke-linecap:round;stroke-linejoin:round;stroke-miterlimit:10;}
	.st1{fill:#FFC8D7;stroke:#3723FF;stroke-width:2;stroke-linecap:round;stroke-linejoin:round;stroke-miterlimit:10;}
	.st2{fill:#FFFCF5;stroke:#3723FF;stroke-width:2;stroke-linecap:round;stroke-linejoin:round;stroke-miterlimit:10;}
	.st3{fill:none;stroke:#3723FF;stroke-width:2;stroke-linecap:round;stroke-linejoin:round;stroke-miterlimit:10;}
	.st4{fill:#3723FF;stroke:#3723FF;stroke-width:2;stroke-miterlimit:10;}
	.st5{fill:#FFFFFF;stroke:#3723FF;stroke-width:2;stroke-linecap:round;stroke-linejoin:round;stroke-miterlimit:10;}
	.st6{fill:#FFE9EF;stroke:#3723FF;stroke-width:2;stroke-linecap:round;stroke-linejoin:round;stroke-miterlimit:10;}
	.st7{fill:#3723FF;}
	.st8{fill:#FFFCF5;}
	.st9{fill:#FFC8D7;}
	.st10{fill:#E2F8FF;}
	.st11{fill:#8CE06E;}
	.st12{fill:#FFE9EF;}
	.st13{fill:#FFFFFF;}
	.st14{fill:#FFFCF5;stroke:#3723FF;stroke-width:2.5;stroke-linecap:round;stroke-linejoin:round;stroke-miterlimit:10;}
	.st15{fill:none;}
</style>
<g>
	<path class="st9" d="M53.4,63.7H36.8l3.3-2.2c2.4-1.6,4.5-3.1,6.1-4.3c1.6-1.3,2.9-2.5,3.9-3.6c1-1.1,1.7-2.3,2.1-3.4
		c0.4-1.1,0.6-2.2,0.6-3.4c0-1.5-0.3-3-0.9-4.4c-0.6-1.4-1.5-2.6-2.7-3.6c-1.2-1-2.7-1.8-4.5-2.4c-1.8-0.6-3.9-0.9-6.4-0.9
		c-2.8,0-5.4,0.4-8,1.1c-2.5,0.7-4.9,1.8-7,3.1c-0.3,0.2-0.4,0.5-0.2,0.8l3.2,5.2c0.2,0.3,0.5,0.4,0.8,0.2c1.9-1.1,3.7-1.9,5.5-2.4
		c1.8-0.5,3.6-0.8,5.4-0.8c1.2,0,2.3,0.1,3.1,0.3c0.8,0.2,1.5,0.5,2.1,0.9c0.5,0.4,0.9,0.8,1.1,1.3c0.2,0.5,0.4,1,0.4,1.6
		c0,0.5-0.1,1-0.3,1.5c-0.2,0.5-0.6,1.1-1.2,1.8c-0.6,0.7-1.5,1.5-2.6,2.4c-1.1,0.9-2.6,2-4.4,3.2L24,63.9c-0.2,0.1-0.2,0.3-0.2,0.5
		v5.9c0,0.3,0.3,0.6,0.6,0.6h29.1c0.3,0,0.6-0.3,0.6-0.6v-6C54,64,53.7,63.7,53.4,63.7z"/>
	<path class="st9" d="M63.5,45.8c0.2,0.3,0.5,0.3,0.8,0.1c0.7-0.5,1.5-0.9,2.4-1.3c0.7-0.3,1.4-0.5,2.1-0.7v19.7h-7.1
		c-0.3,0-0.6,0.3-0.6,0.6v6c0,0.3,0.3,0.6,0.6,0.6h21.9c0.3,0,0.6-0.3,0.6-0.6v-6c0-0.3-0.3-0.6-0.6-0.6h-6.8V36.5c0,0,0,0,0,0
		c0-0.1,0-0.2-0.1-0.3c-0.1-0.2-0.3-0.3-0.5-0.3c-1.3,0-2.7,0.1-4.1,0.2c-1.4,0.1-2.7,0.4-4.1,0.7c-1.3,0.3-2.7,0.8-4,1.3
		c-1.3,0.5-2.6,1.2-3.9,2c-0.1,0.1-0.2,0.2-0.3,0.4c0,0.2,0,0.3,0.1,0.4L63.5,45.8z"/>
	<path class="st9" d="M53.4,107.2H36.8l3.3-2.2c2.4-1.6,4.5-3.1,6.1-4.3c1.6-1.3,2.9-2.5,3.9-3.6c1-1.1,1.7-2.3,2.1-3.4
		c0.4-1.1,0.6-2.2,0.6-3.4c0-1.5-0.3-3-0.9-4.4c-0.6-1.4-1.5-2.6-2.7-3.6c-1.2-1-2.7-1.8-4.5-2.4c-1.8-0.6-3.9-0.9-6.4-0.9
		c-2.8,0-5.4,0.4-8,1.1c-2.5,0.7-4.9,1.8-7,3.1c-0.3,0.2-0.4,0.5-0.2,0.8l3.2,5.2c0.2,0.3,0.5,0.4,0.8,0.2c1.9-1.1,3.7-1.9,5.5-2.4
		c1.8-0.5,3.6-0.8,5.4-0.8c1.2,0,2.3,0.1,3.1,0.3c0.8,0.2,1.5,0.5,2.1,0.9c0.5,0.4,0.9,0.8,1.1,1.3c0.2,0.5,0.4,1,0.4,1.6
		c0,0.5-0.1,1-0.3,1.5c-0.2,0.5-0.6,1.1-1.2,1.8c-0.6,0.7-1.5,1.5-2.6,2.4c-1.1,0.9-2.6,2-4.4,3.2L24,107.4
		c-0.2,0.1-0.2,0.3-0.2,0.5v5.9c0,0.3,0.3,0.6,0.6,0.6h29.1c0.3,0,0.6-0.3,0.6-0.6v-6C54,107.5,53.7,107.2,53.4,107.2z"/>
	<path class="st9" d="M88,83.6c-1.6-1.6-3.5-2.8-5.7-3.6c-2.2-0.8-4.7-1.2-7.5-1.2c-2.7,0-5.2,0.4-7.5,1.2c-2.2,0.8-4.2,2-5.7,3.6
		c-1.6,1.6-2.8,3.5-3.6,5.7c-0.8,2.2-1.3,4.8-1.3,7.5c0,2.8,0.4,5.3,1.3,7.5c0.8,2.2,2.1,4.1,3.6,5.7c1.6,1.6,3.5,2.8,5.7,3.6
		c2.2,0.8,4.7,1.2,7.5,1.2c2.7,0,5.2-0.4,7.5-1.2c2.2-0.8,4.2-2,5.7-3.6c1.6-1.5,2.8-3.5,3.6-5.7c0.8-2.2,1.3-4.8,1.3-7.5
		c0-2.8-0.4-5.3-1.3-7.5C90.8,87,89.6,85.1,88,83.6z M84.2,101.5c-0.5,1.3-1.1,2.5-2,3.3c-0.9,0.9-1.9,1.6-3.1,2
		c-1.2,0.5-2.7,0.7-4.2,0.7s-3-0.2-4.2-0.7c-1.2-0.5-2.3-1.2-3.1-2c-0.9-0.9-1.5-2-2-3.3c-0.5-1.3-0.7-2.9-0.7-4.7
		c0-1.8,0.2-3.3,0.7-4.7c0.5-1.3,1.1-2.4,2-3.4c0.9-0.9,1.9-1.6,3.1-2.1c1.2-0.5,2.7-0.7,4.2-0.7s3,0.2,4.2,0.7
		c1.2,0.5,2.3,1.2,3.1,2.1c0.9,0.9,1.5,2,2,3.4c0.5,1.3,0.7,2.9,0.7,4.7C84.9,98.6,84.7,100.1,84.2,101.5z"/>
	<path class="st9" d="M122.9,94.3c-1.3-1-3-1.8-4.9-2.3c-1.9-0.5-4.1-0.8-6.5-0.8c-1.5,0-2.8,0.1-4,0.3c-0.9,0.1-1.9,0.3-2.7,0.5
		v-5.3h19c0.3,0,0.6-0.3,0.6-0.6V80c0-0.3-0.3-0.6-0.6-0.6H97.7c-0.3,0-0.6,0.3-0.6,0.6v19.4c0,0.2,0.1,0.4,0.2,0.5
		c0.1,0.1,0.3,0.1,0.5,0.1c1.1-0.4,2.3-0.7,3.4-0.9c1.1-0.2,2.2-0.4,3.2-0.6c1-0.1,2-0.2,2.9-0.3c0.9-0.1,1.7-0.1,2.4-0.1
		c1.6,0,3,0.1,4.2,0.4c1.2,0.3,2.1,0.6,2.9,1c0.7,0.4,1.3,0.9,1.6,1.5c0.4,0.6,0.5,1.2,0.5,1.9c0,0.7-0.2,1.3-0.5,1.8
		c-0.3,0.6-0.9,1-1.6,1.5c-0.8,0.4-1.7,0.8-2.9,1c-1.9,0.4-4.6,0.5-7.3,0.2c-1-0.1-2-0.2-3-0.4c-1-0.2-2-0.4-2.9-0.7
		c-0.9-0.3-1.8-0.6-2.6-1c-0.3-0.1-0.6,0-0.7,0.2l-3.2,5.2c-0.1,0.1-0.1,0.3-0.1,0.5c0,0.2,0.1,0.3,0.3,0.4c1,0.5,2.2,1,3.4,1.4
		c1.2,0.4,2.4,0.8,3.8,1.1c1.3,0.3,2.7,0.5,4,0.7c1.4,0.2,2.8,0.2,4.2,0.2c2.7,0,5.2-0.3,7.3-0.8c2.1-0.5,3.9-1.3,5.4-2.4
		c1.5-1,2.6-2.3,3.4-3.8c0.8-1.5,1.2-3.2,1.2-5c0-1.8-0.4-3.4-1.1-4.8C125.3,96.6,124.2,95.3,122.9,94.3z"/>
	<path class="st9" d="M165.7,89.3c-0.8-2.2-2.1-4.1-3.6-5.7c-1.6-1.6-3.5-2.8-5.7-3.6c-2.2-0.8-4.7-1.2-7.5-1.2
		c-2.7,0-5.2,0.4-7.5,1.2c-2.2,0.8-4.2,2-5.7,3.6c-1.6,1.6-2.8,3.5-3.6,5.7c-0.8,2.2-1.3,4.8-1.3,7.5c0,2.8,0.4,5.3,1.3,7.5
		c0.8,2.2,2.1,4.1,3.6,5.7c1.6,1.6,3.5,2.8,5.7,3.6c2.2,0.8,4.7,1.2,7.5,1.2c2.7,0,5.2-0.4,7.5-1.2c2.2-0.8,4.2-2,5.7-3.6
		c1.6-1.5,2.8-3.5,3.6-5.7c0.8-2.2,1.3-4.8,1.3-7.5C167,94,166.6,91.5,165.7,89.3z M158.3,101.5c-0.5,1.3-1.1,2.5-2,3.3
		c-0.9,0.9-1.9,1.6-3.1,2c-1.2,0.5-2.7,0.7-4.2,0.7c-1.6,0-3-0.2-4.2-0.7c-1.2-0.5-2.3-1.2-3.1-2c-0.9-0.9-1.5-2-2-3.3
		c-0.5-1.3-0.7-2.9-0.7-4.7c0-1.8,0.2-3.3,0.7-4.7c0.5-1.3,1.1-2.4,2-3.4c0.9-0.9,1.9-1.6,3.1-2.1c1.2-0.5,2.7-0.7,4.2-0.7
		s3,0.2,4.2,0.7c1.2,0.5,2.3,1.2,3.1,2.1c0.9,0.9,1.5,2,2,3.4c0.5,1.3,0.7,2.9,0.7,4.7C159,98.6,158.8,100.1,158.3,101.5z"/>
	<path class="st9" d="M131.7,76.1c-0.8,1.3-2,2.8-3.6,4.5l1.6,1.3l8.8-11.1l10.7-21v-1.3h-9.2l-0.8,1.7l5.6,4.1l-5.9,12.3L133.6,54
		l-1.6-6.4l-7.2,3.5v1.3l3.9,2.3l5.3,12.8c0,1.8-0.2,3.3-0.5,4.7C133.1,73.5,132.6,74.8,131.7,76.1z"/>
	<path class="st9" d="M121.3,53.4c-0.7-1.7-1.6-3-2.9-3.9c-1.2-1-2.6-1.5-4.1-1.5c-1.3,0-2.3,0.1-3.2,0.3l-5.6,4.5v-5.2v-1.1V35.2
		h-1.6l-7.2,2.7v1.3l3.7,2.6v4.7v1.1v23.2h1.6l1.8-2.5c0.8,0.9,1.6,1.6,2.6,2.1c1,0.5,2.1,0.8,3.2,0.8c1.9,0,3.8-0.6,5.7-1.7
		c2-1.1,3.6-2.7,4.9-4.5c1.3-1.9,2-3.9,2-6.1C122.4,56.9,122,55.1,121.3,53.4z M112.1,67.7c-2.1,0-3.8-0.5-4.9-1.6
		c-1.2-1-1.7-2.3-1.7-3.9v-7.5c1.4-1.2,2.6-2.1,3.6-2.5c1-0.4,2-0.6,3.1-0.6c1.5,0,2.6,0.9,3.5,2.7c0.8,1.8,1.2,4,1.2,6.6
		C116.9,65.4,115.3,67.7,112.1,67.7z"/>
</g>
</svg>
