<?xml version="1.0" encoding="UTF-8"?>
<svg width="477px" height="338px" viewBox="0 0 477 338" version="1.1" xmlns="http://www.w3.org/2000/svg" xmlns:xlink="http://www.w3.org/1999/xlink">
    <!-- Generator: Sketch 47.1 (45422) - http://www.bohemiancoding.com/sketch -->
    <title>Group 163</title>
    <desc>Created with Sketch.</desc>
    <defs>
        <polygon id="path-1" points="0 339 501.664 339 501.664 0.426 0 0.426"></polygon>
    </defs>
    <g id="Page-1" stroke="none" stroke-width="1" fill="none" fill-rule="evenodd">
        <g id="21-by-2050" transform="translate(-133.000000, -9836.000000)">
            <g id="Group-163" transform="translate(133.000000, 9835.574000)">
                <path d="M184.8163,305.2871 C184.8163,322.8771 170.5573,337.1361 152.9673,337.1361 C135.3783,337.1361 121.1193,322.8771 121.1193,305.2871 C121.1193,287.6971 135.3783,273.4371 152.9673,273.4371 C170.5573,273.4371 184.8163,287.6971 184.8163,305.2871 Z" id="Fill-4" fill="#FFFCF5"></path>
                <path d="M184.8163,305.2871 C184.8163,322.8771 170.5573,337.1361 152.9673,337.1361 C135.3783,337.1361 121.1193,322.8771 121.1193,305.2871 C121.1193,287.6971 135.3783,273.4371 152.9673,273.4371 C170.5573,273.4371 184.8163,287.6971 184.8163,305.2871 Z" id="Stroke-6" stroke="#3723FF" stroke-width="2.5" stroke-linecap="round" stroke-linejoin="round"></path>
                <path d="M152.9676,327.4736 C147.0496,327.4736 141.4806,325.1636 137.2846,320.9696 C133.0896,316.7746 130.7806,311.2046 130.7806,305.2866 C130.7806,293.0526 140.7336,283.1006 152.9676,283.1006 C158.8866,283.1006 164.4566,285.4106 168.6506,289.6046 C172.8446,293.7976 175.1546,299.3686 175.1546,305.2866 C175.1546,317.5216 165.2006,327.4736 152.9676,327.4736" id="Fill-8" fill="#FFFCF5"></path>
                <path d="M152.9676,327.4736 C147.0496,327.4736 141.4806,325.1636 137.2846,320.9696 C133.0896,316.7746 130.7806,311.2046 130.7806,305.2866 C130.7806,293.0526 140.7336,283.1006 152.9676,283.1006 C158.8866,283.1006 164.4566,285.4106 168.6506,289.6046 C172.8446,293.7976 175.1546,299.3686 175.1546,305.2866 C175.1546,317.5216 165.2006,327.4736 152.9676,327.4736 Z" id="Stroke-10" stroke="#3723FF" stroke-width="2.5" stroke-linecap="round" stroke-linejoin="round"></path>
                <path d="M164.5477,293.707 C161.5807,290.74 157.4847,288.903 152.9667,288.903 C143.9337,288.903 136.5837,296.253 136.5837,305.287 C136.5837,309.804 138.4207,313.899 141.3877,316.866 C144.3547,319.833 148.4507,321.671 152.9667,321.671 C162.0017,321.671 169.3517,314.32 169.3517,305.287 C169.3517,300.769 167.5147,296.674 164.5477,293.707" id="Fill-12" fill="#FFFCF5"></path>
                <path d="M164.5477,293.707 C161.5807,290.74 157.4847,288.903 152.9667,288.903 C143.9337,288.903 136.5837,296.253 136.5837,305.287 C136.5837,309.804 138.4207,313.899 141.3877,316.866 C144.3547,319.833 148.4507,321.671 152.9667,321.671 C162.0017,321.671 169.3517,314.32 169.3517,305.287 C169.3517,300.769 167.5147,296.674 164.5477,293.707 Z" id="Stroke-14" stroke="#3723FF" stroke-width="2.5" stroke-linecap="round" stroke-linejoin="round"></path>
                <g id="Group-19" transform="translate(152.000000, 289.000000)">
                    <path d="M0.9676,0.1211 L0.9676,32.4531" id="Fill-16" fill="#E2F8FF"></path>
                    <path d="M0.9676,0.1211 L0.9676,32.4531" id="Stroke-18" stroke="#3723FF" stroke-width="2.5" stroke-linecap="round" stroke-linejoin="round"></path>
                </g>
                <g id="Group-23" transform="translate(136.000000, 305.000000)">
                    <path d="M0.8016,0.2871 L33.1336,0.2871" id="Fill-20" fill="#E2F8FF"></path>
                    <path d="M0.8016,0.2871 L33.1336,0.2871" id="Stroke-22" stroke="#3723FF" stroke-width="2.5" stroke-linecap="round" stroke-linejoin="round"></path>
                </g>
                <path d="M153.6942,265.6748 C171.2982,265.9488 186.1012,277.5818 191.2502,293.4658 L354.2562,293.4658 C359.5442,277.1278 375.0272,265.3948 393.0702,265.6748 C410.6732,265.9488 425.4762,277.5818 430.6262,293.4658 L470.1632,293.4658 L469.0052,208.3758 L421.2542,181.0588 L385.2152,80.0808 L79.9732,80.0808 L79.9732,293.4658 L80.9622,293.4658 L114.8802,293.4658 C120.1692,277.1278 135.6512,265.3948 153.6942,265.6748" id="Fill-24" fill="#FFC8D7"></path>
                <path d="M153.6942,265.6748 C171.2982,265.9488 186.1012,277.5818 191.2502,293.4658 L354.2562,293.4658 C359.5442,277.1278 375.0272,265.3948 393.0702,265.6748 C410.6732,265.9488 425.4762,277.5818 430.6262,293.4658 L470.1632,293.4658 L469.0052,208.3758 L421.2542,181.0588 L385.2152,80.0808 L79.9732,80.0808 L79.9732,293.4658 L80.9622,293.4658 L114.8802,293.4658 C120.1692,277.1278 135.6512,265.3948 153.6942,265.6748 Z" id="Stroke-26" stroke="#3723FF" stroke-width="2.5" stroke-linecap="round" stroke-linejoin="round"></path>
                <polygon id="Fill-28" fill="#FFFCF5" points="359.8719 135.9307 287.5489 135.9307 287.5489 292.7467 338.5139 292.7467 359.8719 263.2537"></polygon>
                <polygon id="Stroke-30" stroke="#3723FF" stroke-width="2.5" stroke-linecap="round" stroke-linejoin="round" points="359.8719 135.9307 287.5489 135.9307 287.5489 292.7467 338.5139 292.7467 359.8719 263.2537"></polygon>
                <mask id="mask-2" fill="white">
                    <use xlink:href="#path-1"></use>
                </mask>
                <g id="Clip-33"></g>
                <polygon id="Fill-32" fill="#FFFFFF" mask="url(#mask-2)" points="78.527 272.814 97.004 272.814 97.004 260.315 78.527 260.315"></polygon>
                <polygon id="Stroke-34" stroke="#3723FF" stroke-width="2.5" stroke-linecap="round" stroke-linejoin="round" mask="url(#mask-2)" points="78.527 272.814 97.004 272.814 97.004 260.315 78.527 260.315"></polygon>
                <polygon id="Fill-35" fill="#FFFFFF" mask="url(#mask-2)" points="452.011 230.195 470.488 230.195 470.488 215.83 452.011 215.83"></polygon>
                <polygon id="Stroke-36" stroke="#3723FF" stroke-width="2.5" stroke-linecap="round" stroke-linejoin="round" mask="url(#mask-2)" points="452.011 230.195 470.488 230.195 470.488 215.83 452.011 215.83"></polygon>
                <path d="M345.4471,147.7803 L336.1131,147.7803 L310.8651,147.7803 L301.5331,147.7803 C299.7001,147.7803 298.2011,149.2793 298.2011,151.1113 L298.2011,194.6363 C298.2011,196.4683 299.7001,197.9683 301.5331,197.9683 L310.8651,197.9683 L336.1131,197.9683 L345.4471,197.9683 C347.2791,197.9683 348.7781,196.4683 348.7781,194.6363 L348.7781,151.1113 C348.7781,149.2793 347.2791,147.7803 345.4471,147.7803" id="Fill-37" fill="#E2F8FF" mask="url(#mask-2)"></path>
                <path d="M345.4471,147.7803 L336.1131,147.7803 L310.8651,147.7803 L301.5331,147.7803 C299.7001,147.7803 298.2011,149.2793 298.2011,151.1113 L298.2011,194.6363 C298.2011,196.4683 299.7001,197.9683 301.5331,197.9683 L310.8651,197.9683 L336.1131,197.9683 L345.4471,197.9683 C347.2791,197.9683 348.7781,196.4683 348.7781,194.6363 L348.7781,151.1113 C348.7781,149.2793 347.2791,147.7803 345.4471,147.7803 Z" id="Stroke-38" stroke="#3723FF" stroke-width="2.5" stroke-linecap="round" stroke-linejoin="round" mask="url(#mask-2)"></path>
                <polygon id="Fill-39" fill="#FFFCF5" mask="url(#mask-2)" points="135.055 229.317 252.262 229.317 252.262 149.415 135.055 149.415"></polygon>
                <polygon id="Stroke-40" stroke="#3723FF" stroke-width="2.5" stroke-linecap="round" stroke-linejoin="round" mask="url(#mask-2)" points="135.055 229.317 252.262 229.317 252.262 149.415 135.055 149.415"></polygon>
                <polygon id="Fill-41" fill="#FFFCF5" mask="url(#mask-2)" points="128.955 237.062 258.361 237.062 258.361 223.44 128.955 223.44"></polygon>
                <polygon id="Stroke-42" stroke="#3723FF" stroke-width="2.5" stroke-linecap="round" stroke-linejoin="round" mask="url(#mask-2)" points="128.955 237.062 258.361 237.062 258.361 223.44 128.955 223.44"></polygon>
                <path d="M141.3299,167.375 C139.4999,180.398 119.9659,180.398 121.7959,167.375 C123.9359,152.146 126.0769,136.917 128.2169,121.687 L147.7519,121.687 C145.6099,136.917 143.4709,152.146 141.3299,167.375" id="Fill-43" fill="#E2F8FF" mask="url(#mask-2)"></path>
                <path d="M141.3299,167.375 C139.4999,180.398 119.9659,180.398 121.7959,167.375 C123.9359,152.146 126.0769,136.917 128.2169,121.687 L147.7519,121.687 C145.6099,136.917 143.4709,152.146 141.3299,167.375 Z" id="Stroke-44" stroke="#3723FF" stroke-width="2.5" stroke-linecap="round" stroke-linejoin="round" mask="url(#mask-2)"></path>
                <path d="M160.8641,167.375 C159.0341,180.398 139.5001,180.398 141.3311,167.375 C143.4701,152.146 145.6111,136.917 147.7521,121.687 L167.2861,121.687 C165.1451,136.917 163.0051,152.146 160.8641,167.375" id="Fill-45" fill="#3723FF" mask="url(#mask-2)"></path>
                <path d="M160.8641,167.375 C159.0341,180.398 139.5001,180.398 141.3311,167.375 C143.4701,152.146 145.6111,136.917 147.7521,121.687 L167.2861,121.687 C165.1451,136.917 163.0051,152.146 160.8641,167.375 Z" id="Stroke-46" stroke="#3723FF" stroke-width="2.5" stroke-linecap="round" stroke-linejoin="round" mask="url(#mask-2)"></path>
                <path d="M180.3993,167.375 C178.5683,180.398 159.0353,180.398 160.8653,167.375 C163.0053,152.146 165.1453,136.917 167.2863,121.687 L186.8203,121.687 C184.6793,136.917 182.5393,152.146 180.3993,167.375" id="Fill-47" fill="#E2F8FF" mask="url(#mask-2)"></path>
                <path d="M180.3993,167.375 C178.5683,180.398 159.0353,180.398 160.8653,167.375 C163.0053,152.146 165.1453,136.917 167.2863,121.687 L186.8203,121.687 C184.6793,136.917 182.5393,152.146 180.3993,167.375 Z" id="Stroke-48" stroke="#3723FF" stroke-width="2.5" stroke-linecap="round" stroke-linejoin="round" mask="url(#mask-2)"></path>
                <path d="M199.9334,167.375 C198.1034,180.398 178.5694,180.398 180.3994,167.375 C182.5394,152.146 184.6804,136.917 186.8204,121.687 L206.3554,121.687 C204.2134,136.917 202.0744,152.146 199.9334,167.375" id="Fill-49" fill="#3723FF" mask="url(#mask-2)"></path>
                <path d="M199.9334,167.375 C198.1034,180.398 178.5694,180.398 180.3994,167.375 C182.5394,152.146 184.6804,136.917 186.8204,121.687 L206.3554,121.687 C204.2134,136.917 202.0744,152.146 199.9334,167.375 Z" id="Stroke-50" stroke="#3723FF" stroke-width="2.5" stroke-linecap="round" stroke-linejoin="round" mask="url(#mask-2)"></path>
                <path d="M219.4676,167.375 C217.6376,180.398 198.1036,180.398 199.9346,167.375 C202.0736,152.146 204.2146,136.917 206.3556,121.687 L225.8896,121.687 C223.7486,136.917 221.6086,152.146 219.4676,167.375" id="Fill-51" fill="#E2F8FF" mask="url(#mask-2)"></path>
                <path d="M219.4676,167.375 C217.6376,180.398 198.1036,180.398 199.9346,167.375 C202.0736,152.146 204.2146,136.917 206.3556,121.687 L225.8896,121.687 C223.7486,136.917 221.6086,152.146 219.4676,167.375 Z" id="Stroke-52" stroke="#3723FF" stroke-width="2.5" stroke-linecap="round" stroke-linejoin="round" mask="url(#mask-2)"></path>
                <path d="M239.0028,167.375 C237.1718,180.398 217.6388,180.398 219.4688,167.375 C221.6088,152.146 223.7488,136.917 225.8898,121.687 L245.4238,121.687 C243.2828,136.917 241.1428,152.146 239.0028,167.375" id="Fill-53" fill="#3723FF" mask="url(#mask-2)"></path>
                <path d="M239.0028,167.375 C237.1718,180.398 217.6388,180.398 219.4688,167.375 C221.6088,152.146 223.7488,136.917 225.8898,121.687 L245.4238,121.687 C243.2828,136.917 241.1428,152.146 239.0028,167.375 Z" id="Stroke-54" stroke="#3723FF" stroke-width="2.5" stroke-linecap="round" stroke-linejoin="round" mask="url(#mask-2)"></path>
                <path d="M258.537,167.375 C256.707,180.398 237.173,180.398 239.003,167.375 C241.143,152.146 243.284,136.917 245.424,121.687 L264.959,121.687 C262.817,136.917 260.678,152.146 258.537,167.375" id="Fill-55" fill="#E2F8FF" mask="url(#mask-2)"></path>
                <path d="M258.537,167.375 C256.707,180.398 237.173,180.398 239.003,167.375 C241.143,152.146 243.284,136.917 245.424,121.687 L264.959,121.687 C262.817,136.917 260.678,152.146 258.537,167.375 Z" id="Stroke-56" stroke="#3723FF" stroke-width="2.5" stroke-linecap="round" stroke-linejoin="round" mask="url(#mask-2)"></path>
                <path d="M127.0438,130.0391 L263.7848,130.0391" id="Stroke-57" stroke="#3723FF" stroke-width="2.5" stroke-linecap="round" stroke-linejoin="round" mask="url(#mask-2)"></path>
                <path d="M359.8719,137.0596 L359.8719,80.0806" id="Stroke-58" stroke="#3723FF" stroke-width="2.5" stroke-linecap="round" stroke-linejoin="round" mask="url(#mask-2)"></path>
                <path d="M80.9618,293.4658 C78.3018,293.4658 76.1258,295.6418 76.1258,298.3008 L76.1258,300.0418 C76.1258,302.7018 78.3018,304.8778 80.9618,304.8778 L112.9518,304.8778 C113.0438,300.9028 113.7118,297.0718 114.8798,293.4658 L80.9618,293.4658 Z" id="Fill-59" fill="#3723FF" mask="url(#mask-2)"></path>
                <path d="M80.9618,293.4658 C78.3018,293.4658 76.1258,295.6418 76.1258,298.3008 L76.1258,300.0418 C76.1258,302.7018 78.3018,304.8778 80.9618,304.8778 L112.9518,304.8778 C113.0438,300.9028 113.7118,297.0718 114.8798,293.4658 L80.9618,293.4658 Z" id="Stroke-60" stroke="#3723FF" stroke-width="2.5" stroke-linecap="round" stroke-linejoin="round" mask="url(#mask-2)"></path>
                <path d="M470.1747,293.4658 L470.1627,293.4658 L430.6257,293.4658 C431.7967,297.0778 432.4687,300.9078 432.5597,304.8778 L470.1747,304.8778 C472.8347,304.8778 475.0107,302.7018 475.0107,300.0418 L475.0107,298.3008 C475.0107,295.6418 472.8347,293.4658 470.1747,293.4658" id="Fill-61" fill="#3723FF" mask="url(#mask-2)"></path>
                <path d="M470.1747,293.4658 L470.1627,293.4658 L430.6257,293.4658 C431.7967,297.0778 432.4687,300.9078 432.5597,304.8778 L470.1747,304.8778 C472.8347,304.8778 475.0107,302.7018 475.0107,300.0418 L475.0107,298.3008 C475.0107,295.6418 472.8347,293.4658 470.1747,293.4658 Z" id="Stroke-62" stroke="#3723FF" stroke-width="2.5" stroke-linecap="round" stroke-linejoin="round" mask="url(#mask-2)"></path>
                <path d="M191.2498,293.4658 C192.4208,297.0778 193.0938,300.9078 193.1838,304.8778 L352.3278,304.8778 C352.4198,300.9028 353.0878,297.0718 354.2558,293.4658 L191.2498,293.4658 Z" id="Fill-63" fill="#3723FF" mask="url(#mask-2)"></path>
                <path d="M191.2498,293.4658 C192.4208,297.0778 193.0938,300.9078 193.1838,304.8778 L352.3278,304.8778 C352.4198,300.9028 353.0878,297.0718 354.2558,293.4658 L191.2498,293.4658 Z" id="Stroke-64" stroke="#3723FF" stroke-width="2.5" stroke-linecap="round" stroke-linejoin="round" mask="url(#mask-2)"></path>
                <path d="M157.5243,305.2871 C157.5243,307.8041 155.4843,309.8441 152.9673,309.8441 C150.4513,309.8441 148.4113,307.8041 148.4113,305.2871 C148.4113,302.7701 150.4513,300.7301 152.9673,300.7301 C155.4843,300.7301 157.5243,302.7701 157.5243,305.2871" id="Fill-65" fill="#E2F8FF" mask="url(#mask-2)"></path>
                <path d="M157.5243,305.2871 C157.5243,307.8041 155.4843,309.8441 152.9673,309.8441 C150.4513,309.8441 148.4113,307.8041 148.4113,305.2871 C148.4113,302.7701 150.4513,300.7301 152.9673,300.7301 C155.4843,300.7301 157.5243,302.7701 157.5243,305.2871 Z" id="Stroke-66" stroke="#3723FF" stroke-width="2.5" stroke-linecap="round" stroke-linejoin="round" mask="url(#mask-2)"></path>
                <path d="M424.6541,305.2871 C424.6541,322.8771 410.3941,337.1361 392.8051,337.1361 C375.2161,337.1361 360.9561,322.8771 360.9561,305.2871 C360.9561,287.6971 375.2161,273.4371 392.8051,273.4371 C410.3941,273.4371 424.6541,287.6971 424.6541,305.2871" id="Fill-67" fill="#FFFCF5" mask="url(#mask-2)"></path>
                <path d="M424.6541,305.2871 C424.6541,322.8771 410.3941,337.1361 392.8051,337.1361 C375.2161,337.1361 360.9561,322.8771 360.9561,305.2871 C360.9561,287.6971 375.2161,273.4371 392.8051,273.4371 C410.3941,273.4371 424.6541,287.6971 424.6541,305.2871 Z" id="Stroke-68" stroke="#3723FF" stroke-width="2.5" stroke-linecap="round" stroke-linejoin="round" mask="url(#mask-2)"></path>
                <path d="M392.8045,327.4736 C386.8865,327.4736 381.3185,325.1636 377.1225,320.9696 C372.9275,316.7746 370.6175,311.2046 370.6175,305.2866 C370.6175,293.0526 380.5715,283.1006 392.8045,283.1006 C398.7245,283.1006 404.2945,285.4106 408.4885,289.6046 C412.6815,293.7976 414.9915,299.3686 414.9915,305.2866 C414.9915,317.5216 405.0385,327.4736 392.8045,327.4736" id="Fill-69" fill="#FFFCF5" mask="url(#mask-2)"></path>
                <path d="M392.8045,327.4736 C386.8865,327.4736 381.3185,325.1636 377.1225,320.9696 C372.9275,316.7746 370.6175,311.2046 370.6175,305.2866 C370.6175,293.0526 380.5715,283.1006 392.8045,283.1006 C398.7245,283.1006 404.2945,285.4106 408.4885,289.6046 C412.6815,293.7976 414.9915,299.3686 414.9915,305.2866 C414.9915,317.5216 405.0385,327.4736 392.8045,327.4736 Z" id="Stroke-70" stroke="#3723FF" stroke-width="2.5" stroke-linecap="round" stroke-linejoin="round" mask="url(#mask-2)"></path>
                <path d="M404.3846,293.707 C401.4176,290.74 397.3216,288.903 392.8046,288.903 C383.7716,288.903 376.4206,296.253 376.4206,305.287 C376.4206,309.804 378.2586,313.899 381.2256,316.866 C384.1926,319.833 388.2876,321.671 392.8046,321.671 C401.8386,321.671 409.1896,314.32 409.1896,305.287 C409.1896,300.769 407.3516,296.674 404.3846,293.707" id="Fill-71" fill="#FFFCF5" mask="url(#mask-2)"></path>
                <path d="M404.3846,293.707 C401.4176,290.74 397.3216,288.903 392.8046,288.903 C383.7716,288.903 376.4206,296.253 376.4206,305.287 C376.4206,309.804 378.2586,313.899 381.2256,316.866 C384.1926,319.833 388.2876,321.671 392.8046,321.671 C401.8386,321.671 409.1896,314.32 409.1896,305.287 C409.1896,300.769 407.3516,296.674 404.3846,293.707 Z" id="Stroke-72" stroke="#3723FF" stroke-width="2.5" stroke-linecap="round" stroke-linejoin="round" mask="url(#mask-2)"></path>
                <g id="Group-75" mask="url(#mask-2)">
                    <g transform="translate(392.000000, 289.000000)">
                        <path d="M0.8055,0.1211 L0.8055,32.4531" id="Fill-73" stroke="none" fill="#E2F8FF" fill-rule="evenodd"></path>
                        <path d="M0.8055,0.1211 L0.8055,32.4531" id="Stroke-74" stroke="#3723FF" stroke-width="2.5" fill="none" stroke-linecap="round" stroke-linejoin="round"></path>
                    </g>
                </g>
                <g id="Group-78" mask="url(#mask-2)">
                    <g transform="translate(376.000000, 305.000000)">
                        <path d="M0.6395,0.2871 L32.9705,0.2871" id="Fill-76" stroke="none" fill="#E2F8FF" fill-rule="evenodd"></path>
                        <path d="M0.6395,0.2871 L32.9705,0.2871" id="Stroke-77" stroke="#3723FF" stroke-width="2.5" fill="none" stroke-linecap="round" stroke-linejoin="round"></path>
                    </g>
                </g>
                <path d="M397.3622,305.2871 C397.3622,307.8041 395.3222,309.8441 392.8052,309.8441 C390.2892,309.8441 388.2482,307.8041 388.2482,305.2871 C388.2482,302.7701 390.2892,300.7301 392.8052,300.7301 C395.3222,300.7301 397.3622,302.7701 397.3622,305.2871" id="Fill-79" fill="#E2F8FF" mask="url(#mask-2)"></path>
                <path d="M397.3622,305.2871 C397.3622,307.8041 395.3222,309.8441 392.8052,309.8441 C390.2892,309.8441 388.2482,307.8041 388.2482,305.2871 C388.2482,302.7701 390.2892,300.7301 392.8052,300.7301 C395.3222,300.7301 397.3622,302.7701 397.3622,305.2871 Z" id="Stroke-80" stroke="#3723FF" stroke-width="2.5" stroke-linecap="round" stroke-linejoin="round" mask="url(#mask-2)"></path>
                <polygon id="Fill-81" fill="#E2F8FF" mask="url(#mask-2)" points="381.9305 96.6025 378.7945 87.8185 368.0045 87.8185 368.0045 96.6025 368.0045 181.0615 412.0735 181.0615"></polygon>
                <polygon id="Stroke-82" stroke="#3723FF" stroke-width="2.5" stroke-linecap="round" stroke-linejoin="round" mask="url(#mask-2)" points="381.9305 96.6025 378.7945 87.8185 368.0045 87.8185 368.0045 96.6025 368.0045 181.0615 412.0735 181.0615"></polygon>
                <polygon id="Fill-83" fill="#FFFCF5" mask="url(#mask-2)" points="79.9735 80.0811 79.9735 87.8181 388.0985 87.8181 385.4365 80.0811"></polygon>
                <polygon id="Stroke-84" stroke="#3723FF" stroke-width="2.5" stroke-linecap="round" stroke-linejoin="round" mask="url(#mask-2)" points="79.9735 80.0811 79.9735 87.8181 388.0985 87.8181 385.4365 80.0811"></polygon>
                <polygon id="Fill-85" fill="#FFC8D7" mask="url(#mask-2)" points="171.062 80.081 245.98 80.081 245.98 68.364 171.062 68.364"></polygon>
                <polygon id="Stroke-86" stroke="#3723FF" stroke-width="2.5" stroke-linecap="round" stroke-linejoin="round" mask="url(#mask-2)" points="171.062 80.081 245.98 80.081 245.98 68.364 171.062 68.364"></polygon>
                <path d="M44.325,161.7197 L1.25,161.7197" id="Stroke-87" stroke="#3723FF" stroke-width="2.5" stroke-linecap="round" stroke-linejoin="round" mask="url(#mask-2)"></path>
                <path d="M67.9344,161.7197 L53.4634,161.7197" id="Stroke-88" stroke="#3723FF" stroke-width="2.5" stroke-linecap="round" stroke-linejoin="round" mask="url(#mask-2)"></path>
                <path d="M100.5487,184.4463 L20.5487,184.4463" id="Stroke-89" stroke="#3723FF" stroke-width="2.5" stroke-linecap="round" stroke-linejoin="round" mask="url(#mask-2)"></path>
                <path d="M133.7987,110.7871 L52.5637,110.7871" id="Stroke-90" stroke="#3723FF" stroke-width="2.5" stroke-linecap="round" stroke-linejoin="round" mask="url(#mask-2)"></path>
                <path d="M111.5204,122.4727 L93.2154,122.4727" id="Stroke-91" stroke="#3723FF" stroke-width="2.5" stroke-linecap="round" stroke-linejoin="round" mask="url(#mask-2)"></path>
                <path d="M40.9579,110.7871 L26.1299,110.7871" id="Stroke-92" stroke="#3723FF" stroke-width="2.5" stroke-linecap="round" stroke-linejoin="round" mask="url(#mask-2)"></path>
                <polygon id="Fill-93" fill="#FFFCF5" mask="url(#mask-2)" points="120.827 49.465 291.284 49.465 291.284 7.692 120.827 7.692"></polygon>
                <polygon id="Stroke-94" stroke="#3723FF" stroke-width="2.5" stroke-linecap="round" stroke-linejoin="round" mask="url(#mask-2)" points="120.827 49.465 291.284 49.465 291.284 7.692 120.827 7.692"></polygon>
                <path d="M200.5506,16.8848 L195.1536,16.8848 C194.6756,16.8848 194.1276,17.1918 193.8776,17.5978 L189.1016,25.3478 C189.0686,25.4018 189.0396,25.4198 189.0426,25.4228 C189.0346,25.4198 189.0056,25.4018 188.9726,25.3468 L184.1966,17.5978 C183.9466,17.1918 183.3986,16.8848 182.9206,16.8848 L177.5236,16.8848 C176.9826,16.8848 176.5416,17.3248 176.5416,17.8658 L176.5416,39.4538 C176.5416,39.9948 176.9826,40.4348 177.5236,40.4348 L182.4626,40.4348 C183.0036,40.4348 183.4446,39.9948 183.4446,39.4538 L183.4446,28.1238 L188.2906,35.5518 C188.7456,36.2478 188.8476,36.2478 188.9876,36.2478 C189.1286,36.2478 189.2316,36.2478 189.6846,35.5518 L194.5656,28.0608 L194.5656,39.4538 C194.5656,39.9948 195.0046,40.4348 195.5466,40.4348 L200.5506,40.4348 C201.0916,40.4348 201.5306,39.9948 201.5306,39.4538 L201.5306,17.8658 C201.5306,17.3248 201.0916,16.8848 200.5506,16.8848" id="Fill-95" fill="#3723FF" mask="url(#mask-2)"></path>
                <path d="M225.412,34.3838 L214.423,34.3838 C214.242,34.3838 214.096,34.2378 214.096,34.0568 L214.096,31.7348 C214.096,31.5548 214.242,31.4068 214.423,31.4068 L224.104,31.4068 C224.645,31.4068 225.085,30.9678 225.085,30.4268 L225.085,26.7308 C225.085,26.1898 224.645,25.7488 224.104,25.7488 L214.423,25.7488 C214.242,25.7488 214.096,25.6018 214.096,25.4218 L214.096,23.2638 C214.096,23.0828 214.242,22.9368 214.423,22.9368 L225.249,22.9368 C225.79,22.9368 226.23,22.4958 226.23,21.9548 L226.23,17.8658 C226.23,17.3248 225.79,16.8848 225.249,16.8848 L208.175,16.8848 C207.634,16.8848 207.193,17.3248 207.193,17.8658 L207.193,39.4538 C207.193,39.9948 207.634,40.4348 208.175,40.4348 L225.412,40.4348 C225.953,40.4348 226.393,39.9948 226.393,39.4538 L226.393,35.3648 C226.393,34.8238 225.953,34.3838 225.412,34.3838" id="Fill-96" fill="#3723FF" mask="url(#mask-2)"></path>
                <path d="M244.9784,30.75 C244.9664,30.769 244.9234,30.786 244.8574,30.786 L241.0304,30.786 C240.9634,30.786 240.9204,30.769 240.9094,30.751 C240.8974,30.733 240.8964,30.688 240.9204,30.626 L242.9574,25.495 L244.9684,30.624 C244.9924,30.687 244.9914,30.731 244.9784,30.75 L244.9784,30.75 Z M246.6234,17.523 C246.4324,17.073 245.9014,16.722 245.4134,16.722 L240.6054,16.722 C240.1174,16.722 239.5854,17.073 239.3954,17.523 L230.1574,39.378 C230.0464,39.639 230.0614,39.906 230.1984,40.111 C230.3334,40.316 230.5754,40.435 230.8574,40.435 L236.2214,40.435 C236.7124,40.435 237.2404,40.078 237.4224,39.622 L238.5724,36.748 C238.6564,36.538 238.9394,36.347 239.1664,36.347 L246.6884,36.347 C246.9154,36.347 247.2014,36.538 247.2874,36.748 L248.4604,39.626 C248.6464,40.08 249.1744,40.435 249.6654,40.435 L255.1604,40.435 C255.4434,40.435 255.6834,40.316 255.8204,40.111 C255.9564,39.906 255.9704,39.639 255.8614,39.378 L246.6234,17.523 Z" id="Fill-97" fill="#3723FF" mask="url(#mask-2)"></path>
                <path d="M276.3143,16.8848 L257.5403,16.8848 C256.9993,16.8848 256.5583,17.3248 256.5583,17.8658 L256.5583,22.1178 C256.5583,22.6588 256.9993,23.0998 257.5403,23.0998 L263.1003,23.0998 C263.2803,23.0998 263.4273,23.2468 263.4273,23.4268 L263.4273,39.4538 C263.4273,39.9948 263.8683,40.4348 264.4093,40.4348 L269.4453,40.4348 C269.9863,40.4348 270.4263,39.9948 270.4263,39.4538 L270.4263,23.4268 C270.4263,23.2468 270.5733,23.0998 270.7533,23.0998 L276.3143,23.0998 C276.8553,23.0998 277.2953,22.6588 277.2953,22.1178 L277.2953,17.8658 C277.2953,17.3248 276.8553,16.8848 276.3143,16.8848" id="Fill-98" fill="#3723FF" mask="url(#mask-2)"></path>
                <path d="M82.5907,49.6738 C79.6167,49.6738 76.4157,47.7408 76.4157,43.4978 L76.4157,40.8498 L76.4157,39.5318 C76.4157,29.4408 80.0367,21.0728 86.8877,15.3348 C93.2787,9.9838 102.0557,7.3878 110.8857,8.1268 C106.5047,9.5178 102.5107,11.7478 99.1607,14.7258 C92.3867,20.7468 88.8067,29.3248 88.8067,39.5128 L88.7777,40.6548 C88.7707,40.6968 88.7667,40.7408 88.7667,40.7848 L88.7667,43.4978 C88.7667,47.7408 85.5657,49.6738 82.5907,49.6738" id="Fill-99" fill="#FFFCF5" mask="url(#mask-2)"></path>
                <path d="M82.5907,49.6738 C79.6167,49.6738 76.4157,47.7408 76.4157,43.4978 L76.4157,40.8498 L76.4157,39.5318 C76.4157,29.4408 80.0367,21.0728 86.8877,15.3348 C93.2787,9.9838 102.0557,7.3878 110.8857,8.1268 C106.5047,9.5178 102.5107,11.7478 99.1607,14.7258 C92.3867,20.7468 88.8067,29.3248 88.8067,39.5128 L88.7777,40.6548 C88.7707,40.6968 88.7667,40.7408 88.7667,40.7848 L88.7667,43.4978 C88.7667,47.7408 85.5657,49.6738 82.5907,49.6738 Z" id="Stroke-100" stroke="#3723FF" stroke-width="2.5" stroke-linecap="round" stroke-linejoin="round" mask="url(#mask-2)"></path>
                <path d="M154.0809,48.1621 C154.2599,47.9351 154.7959,46.6981 154.9729,46.4201 C156.2239,44.4461 157.7959,41.6261 157.7969,39.2151 C157.7959,36.4501 154.8049,34.0181 154.2319,31.4261 C153.6389,28.7361 155.3269,25.3731 154.1849,22.9371 C153.0149,20.4371 149.2339,19.3701 147.5599,17.2121 C145.8569,15.0161 145.9019,11.2881 143.7579,9.5241 C141.5959,7.7461 137.7039,8.3151 135.1739,7.0581 C132.6569,5.8071 130.9379,2.4481 128.1389,1.7921 C125.4099,1.1531 122.2399,3.3481 119.3179,3.3481 C116.3949,3.3481 113.2259,1.1531 110.4979,1.7921 C107.6969,2.4481 105.9779,5.8071 103.4619,7.0581 C100.9329,8.3151 97.0409,7.7461 94.8789,9.5241 C92.7339,11.2871 92.7779,15.0161 91.0759,17.2121 C89.4019,19.3701 85.6219,20.4371 84.4499,22.9361 C83.3089,25.3731 84.9969,28.7351 84.4029,31.4261 C83.8309,34.0181 80.8399,36.4501 80.8399,39.2161 C80.8399,41.9801 83.8309,44.4121 84.4029,47.0051 C84.5939,47.8651 84.3929,48.5271 84.2839,49.4731 C84.3159,49.1981 99.3339,49.5331 100.2469,49.5361 C111.2289,49.5801 122.2129,49.6241 133.1959,49.6681 C138.0489,49.6871 142.8499,49.6671 147.6899,49.4041 C150.7349,49.2391 152.3059,50.4111 154.0809,48.1621" id="Fill-101" fill="#FFC8D7" mask="url(#mask-2)"></path>
                <path d="M154.0809,48.1621 C154.2599,47.9351 154.7959,46.6981 154.9729,46.4201 C156.2239,44.4461 157.7959,41.6261 157.7969,39.2151 C157.7959,36.4501 154.8049,34.0181 154.2319,31.4261 C153.6389,28.7361 155.3269,25.3731 154.1849,22.9371 C153.0149,20.4371 149.2339,19.3701 147.5599,17.2121 C145.8569,15.0161 145.9019,11.2881 143.7579,9.5241 C141.5959,7.7461 137.7039,8.3151 135.1739,7.0581 C132.6569,5.8071 130.9379,2.4481 128.1389,1.7921 C125.4099,1.1531 122.2399,3.3481 119.3179,3.3481 C116.3949,3.3481 113.2259,1.1531 110.4979,1.7921 C107.6969,2.4481 105.9779,5.8071 103.4619,7.0581 C100.9329,8.3151 97.0409,7.7461 94.8789,9.5241 C92.7339,11.2871 92.7779,15.0161 91.0759,17.2121 C89.4019,19.3701 85.6219,20.4371 84.4499,22.9361 C83.3089,25.3731 84.9969,28.7351 84.4029,31.4261 C83.8309,34.0181 80.8399,36.4501 80.8399,39.2161 C80.8399,41.9801 83.8309,44.4121 84.4029,47.0051 C84.5939,47.8651 84.3929,48.5271 84.2839,49.4731 C84.3159,49.1981 99.3339,49.5331 100.2469,49.5361 C111.2289,49.5801 122.2129,49.6241 133.1959,49.6681 C138.0489,49.6871 142.8499,49.6671 147.6899,49.4041 C150.7349,49.2391 152.3059,50.4111 154.0809,48.1621 Z" id="Stroke-102" stroke="#3723FF" stroke-width="2.5" stroke-linecap="round" stroke-linejoin="round" mask="url(#mask-2)"></path>
                <path d="M151.4911,48.748 L87.7961,48.748 C89.5271,47.402 90.4701,45.319 90.5791,43.204 C90.5861,43.163 90.5901,43.12 90.5901,43.077 L90.5901,40.468 L90.6281,38.959 C90.6281,24.302 100.1501,8.527 121.0591,8.527 C141.9681,8.527 151.4911,24.302 151.4911,38.959 L151.4911,48.748 Z" id="Fill-103" fill="#FFFCF5" mask="url(#mask-2)"></path>
                <path d="M151.4911,48.748 L87.7961,48.748 C89.5271,47.402 90.4701,45.319 90.5791,43.204 C90.5861,43.163 90.5901,43.12 90.5901,43.077 L90.5901,40.468 L90.6281,38.959 C90.6281,24.302 100.1501,8.527 121.0591,8.527 C141.9681,8.527 151.4911,24.302 151.4911,38.959 L151.4911,48.748 Z" id="Stroke-104" stroke="#FFFCF5" mask="url(#mask-2)"></path>
                <path d="M84.0516,49.6738 L152.2396,49.6738 L152.2396,39.1338 C152.2396,-2.4402 89.8776,-2.4402 89.8776,39.1338 L89.8396,40.6338 L89.8396,42.9628 C89.8396,48.1128 85.3926,50.2998 81.6166,49.5198" id="Stroke-105" stroke="#3723FF" stroke-width="2.5" stroke-linecap="round" stroke-linejoin="round" mask="url(#mask-2)"></path>
                <path d="M101.3387,26.0508 L101.3727,26.0868" id="Stroke-106" stroke="#3723FF" stroke-width="2.5" stroke-linecap="round" stroke-linejoin="round" mask="url(#mask-2)"></path>
                <path d="M118.8524,44.7559 L118.8864,44.7929" id="Stroke-107" stroke="#3723FF" stroke-width="2.5" stroke-linecap="round" stroke-linejoin="round" mask="url(#mask-2)"></path>
                <path d="M94.9237,34.8467 L94.9567,34.8837" id="Stroke-108" stroke="#3723FF" stroke-width="2.5" stroke-linecap="round" stroke-linejoin="round" mask="url(#mask-2)"></path>
                <path d="M104.1317,44.6826 L104.1657,44.7186" id="Stroke-109" stroke="#3723FF" stroke-width="2.5" stroke-linecap="round" stroke-linejoin="round" mask="url(#mask-2)"></path>
                <path d="M107.7303,18.4805 L107.7643,18.5175" id="Stroke-110" stroke="#3723FF" stroke-width="2.5" stroke-linecap="round" stroke-linejoin="round" mask="url(#mask-2)"></path>
                <path d="M120.3221,31.9297 L126.6511,38.6897" id="Stroke-111" stroke="#3723FF" stroke-width="2.5" stroke-linecap="round" stroke-linejoin="round" stroke-dasharray="0.074,18.374" mask="url(#mask-2)"></path>
                <path d="M132.9305,45.3965 L132.9645,45.4325" id="Stroke-112" stroke="#3723FF" stroke-width="2.5" stroke-linecap="round" stroke-linejoin="round" mask="url(#mask-2)"></path>
                <path d="M117.9627,14.9551 L117.9977,14.9921" id="Stroke-113" stroke="#3723FF" stroke-width="2.5" stroke-linecap="round" stroke-linejoin="round" mask="url(#mask-2)"></path>
                <path d="M129.0506,26.7969 L134.6136,32.7389" id="Stroke-114" stroke="#3723FF" stroke-width="2.5" stroke-linecap="round" stroke-linejoin="round" stroke-dasharray="0.054,16.172" mask="url(#mask-2)"></path>
                <path d="M140.1405,38.6416 L140.1745,38.6786" id="Stroke-115" stroke="#3723FF" stroke-width="2.5" stroke-linecap="round" stroke-linejoin="round" mask="url(#mask-2)"></path>
                <path d="M132.2079,16.0293 L132.2419,16.0663" id="Stroke-116" stroke="#3723FF" stroke-width="2.5" stroke-linecap="round" stroke-linejoin="round" mask="url(#mask-2)"></path>
                <path d="M144.3788,29.0283 L144.4118,29.0643" id="Stroke-117" stroke="#3723FF" stroke-width="2.5" stroke-linecap="round" stroke-linejoin="round" mask="url(#mask-2)"></path>
                <polygon id="Fill-118" fill="#8CE06E" mask="url(#mask-2)" points="148.3446 37.3779 148.4466 37.2759 148.3446 37.2759"></polygon>
                <polygon id="Stroke-119" stroke="#3723FF" stroke-width="2.5" stroke-linecap="round" stroke-linejoin="round" mask="url(#mask-2)" points="148.3446 37.3779 148.4466 37.2759 148.3446 37.2759"></polygon>
                <path d="M148.3446,37.3779 L148.2416,37.2759 L130.1396,37.2759 C130.1396,42.3289 132.1986,46.8999 135.5236,50.1979 L148.3446,37.3779 Z" id="Fill-122" fill="#8CE06E" mask="url(#mask-2)"></path>
                <path d="M148.3446,37.3779 L148.2416,37.2759 L130.1396,37.2759 C130.1396,42.3289 132.1986,46.8999 135.5236,50.1979 L148.3446,37.3779 Z" id="Stroke-123" stroke="#3723FF" stroke-width="2.5" stroke-linecap="round" stroke-linejoin="round" mask="url(#mask-2)"></path>
                <polygon id="Fill-124" fill="#8CE06E" mask="url(#mask-2)" points="148.3446 37.2764 148.2416 37.2764 148.3446 37.3784"></polygon>
                <polygon id="Stroke-125" stroke="#3723FF" stroke-width="2.5" stroke-linecap="round" stroke-linejoin="round" mask="url(#mask-2)" points="148.3446 37.2764 148.2416 37.2764 148.3446 37.3784"></polygon>
                <path d="M166.5497,37.2764 L148.4457,37.2764 L148.3447,37.3784 L161.1647,50.1984 C164.4887,46.9004 166.5497,42.3294 166.5497,37.2764" id="Fill-126" fill="#8CE06E" mask="url(#mask-2)"></path>
                <path d="M166.5497,37.2764 L148.4457,37.2764 L148.3447,37.3784 L161.1647,50.1984 C164.4887,46.9004 166.5497,42.3294 166.5497,37.2764 Z" id="Stroke-127" stroke="#3723FF" stroke-width="2.5" stroke-linecap="round" stroke-linejoin="round" mask="url(#mask-2)"></path>
                <path d="M148.3446,37.3779 L148.3446,55.4809 C153.3456,55.4809 157.8746,53.4629 161.1646,50.1979 L148.3446,37.3779 Z" id="Fill-128" fill="#8CE06E" mask="url(#mask-2)"></path>
                <path d="M148.3446,37.3779 L148.3446,55.4809 C153.3456,55.4809 157.8746,53.4629 161.1646,50.1979 L148.3446,37.3779 Z" id="Stroke-129" stroke="#3723FF" stroke-width="2.5" stroke-linecap="round" stroke-linejoin="round" mask="url(#mask-2)"></path>
                <path d="M135.5233,50.1982 C138.8143,53.4632 143.3423,55.4802 148.3443,55.4802 L148.3443,37.3782 L135.5233,50.1982 Z" id="Fill-130" fill="#8CE06E" mask="url(#mask-2)"></path>
                <path d="M135.5233,50.1982 C138.8143,53.4632 143.3423,55.4802 148.3443,55.4802 L148.3443,37.3782 L135.5233,50.1982 Z" id="Stroke-131" stroke="#3723FF" stroke-width="2.5" stroke-linecap="round" stroke-linejoin="round" mask="url(#mask-2)"></path>
                <path d="M167.8973,236.4961 C167.8973,238.8681 165.7943,240.8091 163.2253,240.8091 L109.4953,240.8091 C106.9243,240.8091 104.8223,238.8681 104.8223,236.4961 C104.8223,234.1241 106.9243,232.1841 109.4953,232.1841 L163.2253,232.1841 C165.7943,232.1841 167.8973,234.1241 167.8973,236.4961" id="Fill-132" fill="#3723FF" mask="url(#mask-2)"></path>
                <path d="M167.8973,236.4961 C167.8973,238.8681 165.7943,240.8091 163.2253,240.8091 L109.4953,240.8091 C106.9243,240.8091 104.8223,238.8681 104.8223,236.4961 C104.8223,234.1241 106.9243,232.1841 109.4953,232.1841 L163.2253,232.1841 C165.7943,232.1841 167.8973,234.1241 167.8973,236.4961 Z" id="Stroke-133" stroke="#3723FF" stroke-width="2.5" mask="url(#mask-2)"></path>
                <path d="M167.8973,236.4961 C167.8973,238.8681 165.7943,240.8091 163.2253,240.8091 L109.4953,240.8091 C106.9243,240.8091 104.8223,238.8681 104.8223,236.4961 C104.8223,234.1241 106.9243,232.1841 109.4953,232.1841 L163.2253,232.1841 C165.7943,232.1841 167.8973,234.1241 167.8973,236.4961 Z" id="Stroke-134" stroke="#3723FF" stroke-width="2.5" stroke-linecap="round" stroke-linejoin="round" mask="url(#mask-2)"></path>
                <path d="M164.3934,227.4385 C164.3934,230.1395 162.5244,232.3495 160.2404,232.3495 L112.4794,232.3495 C110.1954,232.3495 108.3264,230.1395 108.3264,227.4385 C108.3264,224.7375 110.1954,222.5265 112.4794,222.5265 L160.2404,222.5265 C162.5244,222.5265 164.3934,224.7375 164.3934,227.4385" id="Fill-135" fill="#FFC8D7" mask="url(#mask-2)"></path>
                <path d="M164.3934,227.4385 C164.3934,230.1395 162.5244,232.3495 160.2404,232.3495 L112.4794,232.3495 C110.1954,232.3495 108.3264,230.1395 108.3264,227.4385 C108.3264,224.7375 110.1954,222.5265 112.4794,222.5265 L160.2404,222.5265 C162.5244,222.5265 164.3934,224.7375 164.3934,227.4385 Z" id="Stroke-136" stroke="#3723FF" stroke-width="2.5" stroke-linecap="round" stroke-linejoin="round" mask="url(#mask-2)"></path>
                <path d="M164.3934,227.4385 C164.3934,230.1395 162.5244,232.3495 160.2404,232.3495 L112.4794,232.3495 C110.1954,232.3495 108.3264,230.1395 108.3264,227.4385 C108.3264,224.7375 110.1954,222.5265 112.4794,222.5265 L160.2404,222.5265 C162.5244,222.5265 164.3934,224.7375 164.3934,227.4385" id="Fill-137" fill="#FFC8D7" mask="url(#mask-2)"></path>
                <path d="M164.3934,227.4385 C164.3934,230.1395 162.5244,232.3495 160.2404,232.3495 L112.4794,232.3495 C110.1954,232.3495 108.3264,230.1395 108.3264,227.4385 C108.3264,224.7375 110.1954,222.5265 112.4794,222.5265 L160.2404,222.5265 C162.5244,222.5265 164.3934,224.7375 164.3934,227.4385 Z" id="Stroke-138" stroke="#3723FF" stroke-width="2.5" stroke-linecap="round" stroke-linejoin="round" mask="url(#mask-2)"></path>
                <path d="M107.2215,240.8379 C108.4135,245.0069 110.0565,248.6719 112.0685,251.7949 L160.6515,251.7949 C162.6625,248.6719 164.3055,245.0069 165.4975,240.8379 L107.2215,240.8379 Z" id="Fill-139" fill="#FFFCF5" mask="url(#mask-2)"></path>
                <path d="M107.2215,240.8379 C108.4135,245.0069 110.0565,248.6719 112.0685,251.7949 L160.6515,251.7949 C162.6625,248.6719 164.3055,245.0069 165.4975,240.8379 L107.2215,240.8379 Z" id="Stroke-140" stroke="#3723FF" stroke-width="2.5" stroke-linecap="round" stroke-linejoin="round" mask="url(#mask-2)"></path>
                <path d="M130.1952,221.7656 L154.5292,221.7656 C154.5292,221.7656 144.0172,236.6636 144.0172,237.8886 C144.0172,239.1126 130.1952,221.7656 130.1952,221.7656" id="Fill-141" fill="#8CE06E" mask="url(#mask-2)"></path>
                <path d="M130.1952,221.7656 L154.5292,221.7656 C154.5292,221.7656 144.0172,236.6636 144.0172,237.8886 C144.0172,239.1126 130.1952,221.7656 130.1952,221.7656 Z" id="Stroke-142" stroke="#3723FF" stroke-width="2.5" stroke-linecap="round" stroke-linejoin="round" mask="url(#mask-2)"></path>
                <path d="M105.1991,222.6387 L167.5201,222.6387 C165.1411,184.6777 107.5781,184.6777 105.1991,222.6387" id="Fill-143" fill="#FFFCF5" mask="url(#mask-2)"></path>
                <path d="M105.1991,222.6387 L167.5201,222.6387 C165.1411,184.6777 107.5781,184.6777 105.1991,222.6387 Z" id="Stroke-144" stroke="#3723FF" stroke-width="2.5" stroke-linecap="round" stroke-linejoin="round" mask="url(#mask-2)"></path>
                <path d="M126.1268,201.3115 L126.1758,201.3115" id="Stroke-145" stroke="#3723FF" stroke-width="2.5" stroke-linecap="round" stroke-linejoin="round" mask="url(#mask-2)"></path>
                <path d="M146.5428,201.3115 L146.5938,201.3115" id="Stroke-146" stroke="#3723FF" stroke-width="2.5" stroke-linecap="round" stroke-linejoin="round" mask="url(#mask-2)"></path>
                <path d="M118.1668,207.4512 L118.2168,207.4512" id="Stroke-147" stroke="#3723FF" stroke-width="2.5" stroke-linecap="round" stroke-linejoin="round" mask="url(#mask-2)"></path>
                <path d="M136.3299,207.4512 L145.4459,207.4512" id="Stroke-148" stroke="#3723FF" stroke-width="2.5" stroke-linecap="round" stroke-linejoin="round" stroke-dasharray="0.06,18.113" mask="url(#mask-2)"></path>
                <path d="M154.5028,207.4512 L154.5528,207.4512" id="Stroke-149" stroke="#3723FF" stroke-width="2.5" stroke-linecap="round" stroke-linejoin="round" mask="url(#mask-2)"></path>
                <path d="M368.8006,171.0684 L407.8066,171.0684" id="Stroke-150" stroke="#3723FF" stroke-width="2.5" stroke-linecap="round" stroke-linejoin="round" mask="url(#mask-2)"></path>
                <path d="M334.076,208.7852 L348.778,208.7852" id="Stroke-151" stroke="#3723FF" stroke-width="2.5" stroke-linecap="round" stroke-linejoin="round" mask="url(#mask-2)"></path>
                <path d="M468.7323,254.8828 L443.9113,254.8828" id="Stroke-152" stroke="#3723FF" stroke-width="2.5" stroke-linecap="round" stroke-linejoin="round" mask="url(#mask-2)"></path>
                <path d="M468.7323,263.1836 L443.9113,263.1836" id="Stroke-153" stroke="#3723FF" stroke-width="2.5" stroke-linecap="round" stroke-linejoin="round" mask="url(#mask-2)"></path>
                <path d="M468.7323,271.4844 L443.9113,271.4844" id="Stroke-154" stroke="#3723FF" stroke-width="2.5" stroke-linecap="round" stroke-linejoin="round" mask="url(#mask-2)"></path>
                <path d="M80.1209,285.9902 L116.8699,285.9902" id="Stroke-155" stroke="#3723FF" stroke-width="2.5" stroke-linecap="round" stroke-linejoin="round" mask="url(#mask-2)"></path>
                <path d="M188.4344,285.9902 L286.5484,285.9902" id="Stroke-156" stroke="#3723FF" stroke-width="2.5" stroke-linecap="round" stroke-linejoin="round" mask="url(#mask-2)"></path>
                <path d="M345.1024,285.9902 L357.6744,285.9902" id="Stroke-157" stroke="#3723FF" stroke-width="2.5" stroke-linecap="round" stroke-linejoin="round" mask="url(#mask-2)"></path>
                <path d="M427.7879,285.9902 L470.3399,285.9902" id="Stroke-158" stroke="#3723FF" stroke-width="2.5" stroke-linecap="round" stroke-linejoin="round" mask="url(#mask-2)"></path>
                <path d="M449.0643,241.9883 C449.0643,243.0513 448.1933,243.9233 447.1293,243.9233 L434.3163,243.9233 C433.2513,243.9233 432.3813,243.0513 432.3813,241.9883 L432.3813,240.0783 C432.3813,239.0133 433.2513,238.1433 434.3163,238.1433 L447.1293,238.1433 C448.1933,238.1433 449.0643,239.0133 449.0643,240.0783 L449.0643,241.9883 Z" id="Fill-159" fill="#FFFCF5" mask="url(#mask-2)"></path>
                <path d="M449.0643,241.9883 C449.0643,243.0513 448.1933,243.9233 447.1293,243.9233 L434.3163,243.9233 C433.2513,243.9233 432.3813,243.0513 432.3813,241.9883 L432.3813,240.0783 C432.3813,239.0133 433.2513,238.1433 434.3163,238.1433 L447.1293,238.1433 C448.1933,238.1433 449.0643,239.0133 449.0643,240.0783 L449.0643,241.9883 Z" id="Stroke-160" stroke="#3723FF" stroke-width="2.5" stroke-linecap="round" stroke-linejoin="round" mask="url(#mask-2)"></path>
                <path d="M449.0643,241.9883 C449.0643,243.0513 448.1933,243.9233 447.1293,243.9233 L434.3163,243.9233 C433.2513,243.9233 432.3813,243.0513 432.3813,241.9883 L432.3813,240.0783 C432.3813,239.0133 433.2513,238.1433 434.3163,238.1433 L447.1293,238.1433 C448.1933,238.1433 449.0643,239.0133 449.0643,240.0783 L449.0643,241.9883 Z" id="Fill-161" fill="#FFFCF5" mask="url(#mask-2)"></path>
                <path d="M449.0643,241.9883 C449.0643,243.0513 448.1933,243.9233 447.1293,243.9233 L434.3163,243.9233 C433.2513,243.9233 432.3813,243.0513 432.3813,241.9883 L432.3813,240.0783 C432.3813,239.0133 433.2513,238.1433 434.3163,238.1433 L447.1293,238.1433 C448.1933,238.1433 449.0643,239.0133 449.0643,240.0783 L449.0643,241.9883 Z" id="Stroke-162" stroke="#3723FF" stroke-width="2.5" stroke-linecap="round" stroke-linejoin="round" mask="url(#mask-2)"></path>
            </g>
        </g>
    </g>
</svg>