<?xml version="1.0" encoding="UTF-8"?>
<svg width="307px" height="275px" viewBox="0 0 307 275" version="1.1" xmlns="http://www.w3.org/2000/svg" xmlns:xlink="http://www.w3.org/1999/xlink">
    <!-- Generator: Sketch 47.1 (45422) - http://www.bohemiancoding.com/sketch -->
    <title>Group</title>
    <desc>Created with Sketch.</desc>
    <defs>
        <polygon id="path-1" points="0 137.5 0 275 307 275 307 137.5 307 0 0 0"></polygon>
        <polygon id="path-3" points="0 184.507 183.767 184.507 183.767 0 0 0"></polygon>
    </defs>
    <g id="Page-1" stroke="none" stroke-width="1" fill="none" fill-rule="evenodd">
        <g id="21-by-2050" transform="translate(-413.000000, -11966.000000)">
            <g id="Group" transform="translate(413.000000, 11966.000000)">
                <g id="Page-1-Copy-4">
                    <mask id="mask-2" fill="white">
                        <use xlink:href="#path-1"></use>
                    </mask>
                    <g id="Clip-2"></g>
                    <path d="M307,171.057134 C307,252.649132 244.629422,236.22148 167.160547,266.714543 C83.5802733,299.613295 0,229.326126 0,147.734127 C0,66.1421289 68.7241429,0 153.5,0 C238.275857,0 307,66.1421289 307,147.734127 L307,171.057134 Z" id="Fill-1" fill="#FFFCF5" mask="url(#mask-2)" transform="translate(153.500000, 137.500000) rotate(-180.000000) translate(-153.500000, -137.500000) "></path>
                </g>
                <g id="Milk-Illustration" transform="translate(62.000000, 37.000000)">
                    <path d="M161.7419,53.0021 C162.1339,53.3231 162.3839,53.8111 162.3839,54.3561 L162.3839,171.5501 C162.3839,172.5171 161.5999,173.3001 160.6339,173.3001 L49.4159,173.3001 C48.4489,173.3001 47.6659,172.5171 47.6659,171.5501 L47.6659,54.3561 C47.6659,53.8111 47.9159,53.3231 48.3069,53.0021 L71.3479,12.7731 L71.3479,3.0501 C71.3479,2.5851 71.5339,2.1391 71.8629,1.8111 C72.1919,1.4821 72.6409,1.3411 73.1039,1.3001 L136.9109,1.5311 C137.8759,1.5351 138.6549,2.3171 138.6549,3.2811 L138.6549,12.6911 L161.7419,53.0021 Z" id="Fill-1" fill="#FFFCF5"></path>
                    <path d="M161.7419,53.0021 L138.6549,12.6911 L138.6549,3.2811 C138.6549,2.3171 137.8759,1.5351 136.9109,1.5311 L73.1039,1.3001 C72.6409,1.3411 72.1919,1.4821 71.8629,1.8111 C71.5339,2.1391 71.3479,2.5851 71.3479,3.0501 L71.3479,12.7731 L48.3069,53.0021 C47.9159,53.3231 47.6659,53.8111 47.6659,54.3561 L47.6659,171.5501 C47.6659,172.5171 48.4489,173.3001 49.4159,173.3001 L160.6339,173.3001 C161.5999,173.3001 162.3839,172.5171 162.3839,171.5501 L162.3839,54.3561 C162.3839,53.8111 162.1339,53.3231 161.7419,53.0021 Z" id="Stroke-3" stroke="#3723FF" stroke-width="2.6" stroke-linecap="round" stroke-linejoin="round"></path>
                    <polyline id="Stroke-5" stroke="#3723FF" stroke-width="2.6" stroke-linecap="round" stroke-linejoin="round" points="96.78 171.55 96.78 54.357 96.647 54.357 73.097 13.238"></polyline>
                    <path d="M49.2546,54.3566 L161.8006,54.3566" id="Stroke-7" stroke="#3723FF" stroke-width="2.6" stroke-linecap="round" stroke-linejoin="round"></path>
                    <path d="M130.0495,25.3693 L130.0495,25.3683 C127.4865,21.1203 122.3585,19.3373 118.6215,21.3993 C117.8005,21.8513 117.0935,22.4643 116.5265,23.1993 C116.5115,23.2133 116.4945,23.2233 116.4805,23.2373 L112.0845,27.6333 C112.0285,27.6883 111.9765,27.7483 111.9295,27.8123 C110.1895,30.1813 110.4055,33.7703 112.4845,36.9573 C114.5075,40.0633 117.7145,41.9163 120.6195,41.9163 C121.5565,41.9163 122.4625,41.7233 123.2865,41.3183 C123.8165,41.0573 124.3035,40.7033 124.7265,40.2733 L128.1535,36.8453 C128.1855,36.8133 128.2085,36.7773 128.2375,36.7433 C129.6945,35.8143 130.7505,34.3623 131.2245,32.5993 C131.8485,30.2773 131.4195,27.6413 130.0495,25.3693" id="Fill-9" fill="#8CE06E"></path>
                    <mask id="mask-4" fill="white">
                        <use xlink:href="#path-3"></use>
                    </mask>
                    <g id="Clip-12"></g>
                    <polygon id="Fill-11" fill="#FFC8D7" mask="url(#mask-4)" points="59.966 108.153 86.3 108.153 86.3 66.558 59.966 66.558"></polygon>
                    <polygon id="Stroke-13" stroke="#3723FF" stroke-width="2.6" stroke-linecap="round" stroke-linejoin="round" mask="url(#mask-4)" points="59.966 108.153 86.3 108.153 86.3 66.558 59.966 66.558"></polygon>
                    <path d="M86.3005,132.6964 L51.9665,132.6964" id="Stroke-14" stroke="#3723FF" stroke-width="2.6" stroke-linecap="round" stroke-linejoin="round" mask="url(#mask-4)"></path>
                    <path d="M86.3005,140.9806 L51.9665,140.9806" id="Stroke-15" stroke="#3723FF" stroke-width="2.6" stroke-linecap="round" stroke-linejoin="round" mask="url(#mask-4)"></path>
                    <path d="M86.3005,149.2658 L51.9665,149.2658" id="Stroke-16" stroke="#3723FF" stroke-width="2.6" stroke-linecap="round" stroke-linejoin="round" mask="url(#mask-4)"></path>
                    <path d="M86.3005,157.55 L51.9665,157.55" id="Stroke-17" stroke="#3723FF" stroke-width="2.6" stroke-linecap="round" stroke-linejoin="round" mask="url(#mask-4)"></path>
                    <path d="M147.0563,128.4796 L110.2933,128.4796" id="Stroke-18" stroke="#3723FF" stroke-width="2.6" stroke-linecap="round" stroke-linejoin="round" mask="url(#mask-4)"></path>
                    <path d="M147.0563,138.0587 L110.2933,138.0587" id="Stroke-19" stroke="#3723FF" stroke-width="2.6" stroke-linecap="round" stroke-linejoin="round" mask="url(#mask-4)"></path>
                    <path d="M147.0563,147.6378 L110.2933,147.6378" id="Stroke-20" stroke="#3723FF" stroke-width="2.6" stroke-linecap="round" stroke-linejoin="round" mask="url(#mask-4)"></path>
                    <path d="M147.0563,157.2169 L110.2933,157.2169" id="Stroke-21" stroke="#3723FF" stroke-width="2.6" stroke-linecap="round" stroke-linejoin="round" mask="url(#mask-4)"></path>
                    <path d="M147.0563,109.5363 L110.2933,109.5363" id="Stroke-22" stroke="#3723FF" stroke-width="2.6" stroke-linecap="round" stroke-linejoin="round" mask="url(#mask-4)"></path>
                    <path d="M147.0563,119.1154 L110.2933,119.1154" id="Stroke-23" stroke="#3723FF" stroke-width="2.6" stroke-linecap="round" stroke-linejoin="round" mask="url(#mask-4)"></path>
                    <polyline id="Stroke-24" stroke="#3723FF" stroke-width="2.6" stroke-linecap="round" stroke-linejoin="round" mask="url(#mask-4)" points="59.9665 53.383 66.3005 41.133 72.6335 28.883 78.9665 41.133 85.3005 53.383"></polyline>
                    <path d="M129.5856,25.589 C127.2036,21.639 122.5476,19.939 119.1836,21.791 C115.8186,23.644 115.0226,28.348 117.4036,32.298 C119.7846,36.248 124.4426,37.948 127.8066,36.096 C131.1706,34.243 131.9676,29.539 129.5856,25.589 Z" id="Stroke-25" stroke="#3723FF" stroke-width="2.6" stroke-linecap="round" stroke-linejoin="round" mask="url(#mask-4)"></path>
                    <path d="M127.7331,36.2501 L123.9091,40.0731 C123.5851,40.4041 123.2091,40.6891 122.7691,40.9061 C119.8241,42.3541 115.4311,40.4521 112.9571,36.6561 C111.0111,33.6731 110.8391,30.4121 112.2841,28.4481 L117.1861,23.5461" id="Stroke-26" stroke="#3723FF" stroke-width="2.6" stroke-linecap="round" stroke-linejoin="round" mask="url(#mask-4)"></path>
                    <polygon id="Fill-27" fill="#3723FF" mask="url(#mask-4)" points="109.3 96.415 148.05 96.415 148.05 66.717 109.3 66.717"></polygon>
                    <polygon id="Stroke-28" stroke="#3723FF" stroke-width="2.6" stroke-linecap="round" stroke-linejoin="round" mask="url(#mask-4)" points="109.3 96.415 148.05 96.415 148.05 66.717 109.3 66.717"></polygon>
                    <path d="M97.3005,11.2169 L137.8005,11.2169" id="Stroke-29" stroke="#3723FF" stroke-width="2.6" stroke-linecap="round" stroke-linejoin="round" mask="url(#mask-4)"></path>
                    <path d="M72.5505,11.2169 L87.5505,11.2169" id="Stroke-30" stroke="#3723FF" stroke-width="2.6" stroke-linecap="round" stroke-linejoin="round" mask="url(#mask-4)"></path>
                    <path d="M49.4157,173.3 L1.3007,173.3" id="Stroke-31" stroke="#3723FF" stroke-width="2.6" stroke-linecap="round" stroke-linejoin="round" mask="url(#mask-4)"></path>
                    <path d="M182.4665,173.3 L154.4665,173.3" id="Stroke-32" stroke="#3723FF" stroke-width="2.6" stroke-linecap="round" stroke-linejoin="round" mask="url(#mask-4)"></path>
                    <path d="M58.8073,101.9884 C51.7973,105.4654 35.0363,105.5654 33.1493,105.5654 C31.2613,105.5654 14.5003,105.4654 7.4913,101.9884 L6.6313,101.5614 L9.7723,122.4614 L10.2693,122.3844 C10.6233,122.3284 10.9113,122.3024 11.1773,122.3024 C12.8723,122.3024 14.4553,123.2914 15.9893,124.2494 C17.3403,125.0934 18.7393,125.9674 19.9603,125.9674 C21.0093,125.9674 22.3193,125.1494 23.5903,124.3564 C25.1323,123.3934 26.8793,122.3024 28.7483,122.3024 C30.5673,122.3024 32.2133,123.3304 33.8113,124.3274 C35.1033,125.1334 36.4393,125.9674 37.5383,125.9674 C38.6923,125.9674 40.0563,125.1154 41.3753,124.2924 C42.9423,123.3134 44.5623,122.3024 46.3283,122.3024 C48.2713,122.3024 50.0573,123.4184 51.6333,124.4024 C52.9223,125.2074 54.1403,125.9674 55.1193,125.9674 C55.2743,125.9674 55.4433,125.9414 55.6583,125.9064 L56.0183,125.8484 L59.6663,101.5614 L58.8073,101.9884 Z" id="Fill-33" fill="#E2F8FF" mask="url(#mask-4)"></path>
                    <path d="M58.8073,101.9884 C51.7973,105.4654 35.0363,105.5654 33.1493,105.5654 C31.2613,105.5654 14.5003,105.4654 7.4913,101.9884 L6.6313,101.5614 L9.7723,122.4614 L10.2693,122.3844 C10.6233,122.3284 10.9113,122.3024 11.1773,122.3024 C12.8723,122.3024 14.4553,123.2914 15.9893,124.2494 C17.3403,125.0934 18.7393,125.9674 19.9603,125.9674 C21.0093,125.9674 22.3193,125.1494 23.5903,124.3564 C25.1323,123.3934 26.8793,122.3024 28.7483,122.3024 C30.5673,122.3024 32.2133,123.3304 33.8113,124.3274 C35.1033,125.1334 36.4393,125.9674 37.5383,125.9674 C38.6923,125.9674 40.0563,125.1154 41.3753,124.2924 C42.9423,123.3134 44.5623,122.3024 46.3283,122.3024 C48.2713,122.3024 50.0573,123.4184 51.6333,124.4024 C52.9223,125.2074 54.1403,125.9674 55.1193,125.9674 C55.2743,125.9674 55.4433,125.9414 55.6583,125.9064 L56.0183,125.8484 L59.6663,101.5614 L58.8073,101.9884 Z" id="Stroke-34" stroke="#E2F8FF" stroke-width="2" mask="url(#mask-4)"></path>
                    <path d="M7.155,98.8097 C8.402,100.5937 18.13,103.0657 33.149,103.0657 C48.169,103.0657 57.896,100.5937 59.143,98.8097 L59.233,98.6237 L59.336,98.0097 L58.936,97.8657 C42.307,91.8467 23.991,91.8467 7.362,97.8657 L6.963,98.0097 L7.077,98.6977 L7.155,98.8097 Z" id="Fill-35" fill="#E2F8FF" mask="url(#mask-4)"></path>
                    <path d="M61.1442,98.6671 C61.1442,101.7861 48.9092,104.3151 33.8162,104.3151 C18.7232,104.3151 6.4882,101.7861 6.4882,98.6671" id="Stroke-36" stroke="#3723FF" stroke-width="2.6" stroke-linecap="round" stroke-linejoin="round" mask="url(#mask-4)"></path>
                    <path d="M46.9958,123.5529 C44.1458,123.5529 41.1928,127.2169 38.2058,127.2169 C35.2868,127.2169 32.3358,123.5529 29.4158,123.5529 C26.4308,123.5529 23.4778,127.2169 20.6278,127.2169 C17.5518,127.2169 14.5958,123.5529 11.8458,123.5529 C11.0188,123.5529 10.2128,123.7869 9.4268,124.1369 C12.2328,142.8109 15.0398,161.4859 17.8458,180.1599 C22.8268,182.1319 28.0808,183.1479 33.3438,183.2039 C38.9218,183.2649 44.5088,182.2499 49.7868,180.1599 C52.4598,162.3709 55.1338,144.5829 57.8068,126.7939 C57.1458,127.0489 56.4738,127.2169 55.7858,127.2169 C53.0348,127.2169 50.0758,123.5529 46.9958,123.5529" id="Fill-37" fill="#FFFCF5" mask="url(#mask-4)"></path>
                    <path d="M46.9958,123.5529 C44.1458,123.5529 41.1928,127.2169 38.2058,127.2169 C35.2868,127.2169 32.3358,123.5529 29.4158,123.5529 C26.4308,123.5529 23.4778,127.2169 20.6278,127.2169 C17.5518,127.2169 14.5958,123.5529 11.8458,123.5529 C11.0188,123.5529 10.2128,123.7869 9.4268,124.1369 C12.2328,142.8109 15.0398,161.4859 17.8458,180.1599 C22.8268,182.1319 28.0808,183.1479 33.3438,183.2039 C38.9218,183.2649 44.5088,182.2499 49.7868,180.1599 C52.4598,162.3709 55.1338,144.5829 57.8068,126.7939 C57.1458,127.0489 56.4738,127.2169 55.7858,127.2169 C53.0348,127.2169 50.0758,123.5529 46.9958,123.5529 Z" id="Stroke-38" stroke="#3723FF" stroke-width="2.6" stroke-linecap="round" stroke-linejoin="round" mask="url(#mask-4)"></path>
                    <path d="M57.8063,126.7941 C59.2743,117.0291 60.7413,107.2651 62.2083,97.5001 C43.9693,90.2781 23.6623,90.2781 5.4233,97.5001 C6.7583,106.3791 8.0923,115.2581 9.4263,124.1371" id="Stroke-39" stroke="#3723FF" stroke-width="2.6" stroke-linecap="round" stroke-linejoin="round" mask="url(#mask-4)"></path>
                </g>
            </g>
        </g>
    </g>
</svg>