<?xml version="1.0" encoding="UTF-8"?>
<svg width="144px" height="80px" viewBox="0 0 144 80" version="1.1" xmlns="http://www.w3.org/2000/svg" xmlns:xlink="http://www.w3.org/1999/xlink">
    <!-- Generator: Sketch 47.1 (45422) - http://www.bohemiancoding.com/sketch -->
    <title>Page 1</title>
    <desc>Created with Sketch.</desc>
    <defs>
        <polygon id="path-1" points="0.434426087 0.4648125 25.7979913 0.4648125 25.7979913 36.8632156 0.434426087 36.8632156 0.434426087 0.4648125"></polygon>
    </defs>
    <g id="Page-1" stroke="none" stroke-width="1" fill="none" fill-rule="evenodd">
        <g id="Nav" transform="translate(-41.000000, -45.000000)">
            <g id="Page-1" transform="translate(41.000000, 45.000000)">
                <g id="Group-3" fill="#3723FF">
                    <path d="M30.3861714,29.2897781 L13.8147429,29.2897781 L17.1438857,27.0744031 C19.5713143,25.4510281 21.6067429,23.9825906 23.1953143,22.7095594 C24.8044571,21.4203406 26.1061714,20.1935594 27.0638857,19.0604344 C28.0398857,17.9053406 28.7358857,16.7664344 29.1313143,15.6737781 C29.5267429,14.5788094 29.7267429,13.4167781 29.7267429,12.2189031 C29.7267429,10.6753094 29.4284571,9.19530937 28.8387429,7.81821562 C28.2444571,6.43302812 27.3324571,5.20162187 26.1256,4.15752812 C24.9301714,3.12268437 23.4056,2.29596562 21.5918857,1.69934062 C19.7930286,1.10734063 17.6524571,0.807871875 15.2307429,0.807871875 C12.4684571,0.807871875 9.79531429,1.19059062 7.28445714,1.94562187 C4.78045714,2.69949687 2.42045714,3.76440312 0.270742857,5.11027813 C0.00445714286,5.27677812 -0.0801142857,5.63059062 0.0833142857,5.90115313 L3.23531429,11.1447469 C3.39874286,11.4153094 3.74731429,11.5054969 4.01702857,11.3401531 C5.86617143,10.2209031 7.70045714,9.39534062 9.47074286,8.88774687 C11.2398857,8.38130937 13.0387429,8.12346562 14.8204571,8.12346562 C16.0296,8.12346562 17.0798857,8.24255937 17.9427429,8.47612187 C18.7827429,8.70274687 19.4741714,9.01724687 19.9964571,9.40805937 C20.5004571,9.78615312 20.8730286,10.2278406 21.1050286,10.7192469 C21.3404571,11.2233719 21.4593143,11.7725906 21.4593143,12.3518719 C21.4593143,12.8513719 21.3518857,13.3635906 21.1381714,13.8723406 C20.9187429,14.3926531 20.5038857,14.9962156 19.9027429,15.6645281 C19.2821714,16.3548094 18.4044571,17.1607156 17.2924571,18.0591219 C16.1713143,18.9621531 14.7073143,20.0420906 12.9427429,21.2665594 L1.04674286,29.5221844 C0.891314286,29.6297156 0.798742857,29.8077781 0.798742857,29.9985594 L0.798742857,35.9405281 C0.798742857,36.2596531 1.0536,36.5186531 1.37017143,36.5186531 L30.3861714,36.5186531 C30.7016,36.5186531 30.9576,36.2596531 30.9576,35.9405281 L30.9576,29.8679031 C30.9576,29.5487781 30.7016,29.2897781 30.3861714,29.2897781" id="Fill-1"></path>
                </g>
                <path d="M40.4544386,10.9338269 C40.6353014,11.1952434 40.9890646,11.2571578 41.24614,11.0760008 C41.9661788,10.5703662 42.7772177,10.1312324 43.6576443,9.77235799 C44.3355955,9.49718273 45.0419843,9.25984407 45.766573,9.06378169 L45.766573,28.8316845 L38.7072355,28.8316845 C38.393285,28.8316845 38.1384845,29.0885147 38.1384845,29.4049663 L38.1384845,35.4267182 C38.1384845,35.7443163 38.393285,36 38.7072355,36 L60.431249,36 C60.7463371,36 61,35.7443163 61,35.4267182 L61,29.4049663 C61,29.0885147 60.7463371,28.8316845 60.431249,28.8316845 L53.7154371,28.8316845 L53.7154371,1.61685121 C53.7154371,1.60997183 53.7154371,1.60194588 53.7154371,1.5950665 C53.7199871,1.48270327 53.6904121,1.36804691 53.628987,1.26944244 C53.5254743,1.10204416 53.3434739,1 53.1466861,1 C51.8180837,1 50.4633188,1.07338007 49.1210665,1.22014021 C47.7719891,1.36690035 46.4160867,1.60882526 45.0931718,1.93788901 C43.761157,2.26695276 42.4245921,2.71411256 41.1187398,3.26560964 C39.8151625,3.81596017 38.5184102,4.4981655 37.2660205,5.28929437 C37.1340703,5.37299351 37.0419326,5.50828802 37.01122,5.66078097 C36.9805075,5.81556706 37.013495,5.97608596 37.1022202,6.10335452 L40.4544386,10.9338269 Z" id="Fill-4" fill="#3723FF"></path>
                <g id="Group-8" transform="translate(0.000000, 43.000000)" fill="#3723FF">
                    <path d="M30.3861714,29.2897781 L13.8147429,29.2897781 L17.1438857,27.0744031 C19.5713143,25.4510281 21.6067429,23.9825906 23.1953143,22.7095594 C24.8044571,21.4203406 26.1061714,20.1935594 27.0638857,19.0604344 C28.0398857,17.9053406 28.7358857,16.7664344 29.1313143,15.6737781 C29.5267429,14.5788094 29.7267429,13.4167781 29.7267429,12.2189031 C29.7267429,10.6753094 29.4284571,9.19530937 28.8387429,7.81821562 C28.2444571,6.43302812 27.3324571,5.20162187 26.1256,4.15752813 C24.9301714,3.12268437 23.4056,2.29596563 21.5918857,1.69934062 C19.7930286,1.10734063 17.6524571,0.807871875 15.2307429,0.807871875 C12.4684571,0.807871875 9.79531429,1.19059062 7.28445714,1.94562187 C4.78045714,2.69949687 2.42045714,3.76440312 0.270742857,5.11027812 C0.00445714286,5.27677812 -0.0801142857,5.63059063 0.0833142857,5.90115312 L3.23531429,11.1447469 C3.39874286,11.4164656 3.74731429,11.5054969 4.01702857,11.3401531 C5.86617143,10.2209031 7.70045714,9.39534063 9.47074286,8.88774688 C11.2398857,8.38130937 13.0387429,8.12346562 14.8204571,8.12346562 C16.0296,8.12346562 17.0798857,8.24255938 17.9427429,8.47612187 C18.7827429,8.70274687 19.4741714,9.01724687 19.9964571,9.40805937 C20.5004571,9.78615312 20.8730286,10.2278406 21.1050286,10.7192469 C21.3404571,11.2233719 21.4593143,11.7725906 21.4593143,12.3518719 C21.4593143,12.8513719 21.3518857,13.3635906 21.1381714,13.8723406 C20.9187429,14.3926531 20.5038857,14.9962156 19.9027429,15.6645281 C19.2821714,16.3548094 18.4044571,17.1607156 17.2924571,18.0591219 C16.1713143,18.9621531 14.7073143,20.0420906 12.9427429,21.2665594 L1.04674286,29.5221844 C0.891314286,29.6297156 0.798742857,29.8077781 0.798742857,29.9985594 L0.798742857,35.9405281 C0.798742857,36.2596531 1.0536,36.5186531 1.37017143,36.5186531 L30.3861714,36.5186531 C30.7016,36.5186531 30.9576,36.2596531 30.9576,35.9405281 L30.9576,29.8679031 C30.9576,29.5487781 30.7016,29.2897781 30.3861714,29.2897781" id="Fill-6"></path>
                </g>
                <path d="M61.3289245,66.6769494 C60.8641585,68.0022851 60.1932095,69.1288203 59.336582,70.0211368 C58.4822327,70.9111682 57.4296744,71.5989717 56.2096636,72.0628392 C54.973705,72.5324193 53.5577635,72.7712082 52.0005696,72.7712082 C50.4422365,72.7712082 49.026295,72.5324193 47.7903364,72.0628392 C46.5703256,71.5989717 45.5177673,70.9111682 44.663418,70.0211368 C43.8067905,69.1288203 43.1358415,68.0034276 42.6710755,66.6769494 C42.2006139,65.3356184 41.9613961,63.7577835 41.9613961,61.989146 C41.9613961,60.2353613 42.1994747,58.6689517 42.6710755,57.3344759 C43.1358415,56.0148529 43.8067905,54.8894602 44.6645572,53.989146 C45.5200456,53.0899743 46.5714647,52.3998857 47.7903364,51.9371608 C49.0274341,51.4664382 50.4433756,51.2287918 52.0005696,51.2287918 C53.5566244,51.2287918 54.9725659,51.4664382 56.2096636,51.9371608 C57.4285353,52.3998857 58.4799544,53.0899743 59.3354428,53.989146 C60.1932095,54.8894602 60.8641585,56.0159954 61.3289245,57.3344759 C61.8005253,58.6689517 62.0397431,60.2353613 62.0397431,61.989146 C62.0397431,63.7577835 61.8005253,65.3356184 61.3289245,66.6769494 M65.1188178,48.7963439 C63.5593456,47.2402171 61.6444641,46.0382748 59.4265734,45.2225079 C57.220074,44.4124536 54.7219568,44 52.0005696,44 C49.2780432,44 46.779926,44.4124536 44.5745657,45.2225079 C42.3555359,46.0382748 40.4406544,47.2402171 38.880043,48.7963439 C37.3228491,50.3513282 36.1062557,52.2673522 35.2644369,54.4907169 C34.4248964,56.7037989 34,59.2345044 34,62.010854 C34,64.7872037 34.4248964,67.3179092 35.2644369,69.5309911 C36.1073949,71.7554984 37.3239882,73.6680948 38.8811822,75.2162239 C40.4417935,76.764353 42.356675,77.9628678 44.5745657,78.7786347 C46.779926,79.5898315 49.2780432,80 52.0005696,80 C54.7219568,80 57.220074,79.5898315 59.4265734,78.7786347 C61.6444641,77.9628678 63.5593456,76.764353 65.1176787,75.2162239 C66.6760118,73.6692374 67.8926051,71.756641 68.7355631,69.5309911 C69.5751036,67.3179092 70,64.7872037 70,62.010854 C70,59.2345044 69.5751036,56.7037989 68.7355631,54.4907169 C67.8937443,52.2662097 66.6760118,50.3501857 65.1188178,48.7963439" id="Fill-9" fill="#3723FF"></path>
                <path d="M99.7881604,58.7162306 C98.4420256,57.7236038 96.7754373,56.9516864 94.8343386,56.4231155 C92.9127657,55.89794 90.7074938,55.6319568 88.2805461,55.6319568 C86.8000276,55.6319568 85.4366642,55.7168451 84.2306561,55.8832261 C83.2888213,56.0122562 82.3665122,56.1695825 81.4786606,56.3506775 L81.4786606,51.1408013 L100.561154,51.1408013 C100.879311,51.1408013 101.135444,50.8872684 101.135444,50.5748795 L101.135444,44.5659218 C101.135444,44.253533 100.879311,44 100.561154,44 L74.545837,44 C74.2288291,44 73.9715474,44.253533 73.9715474,44.5659218 L73.9715474,63.7880219 C73.9715474,63.9691168 74.0588394,64.1377615 74.2070061,64.2452867 C74.3540243,64.35168 74.5446884,64.3799761 74.7181238,64.3290431 C75.8494743,63.9793034 76.9877162,63.6771012 78.0995408,63.4314911 C79.2079196,63.1870129 80.287584,62.9923358 81.3086708,62.8519872 C82.3377977,62.7116386 83.3175357,62.607509 84.2203189,62.5463894 C85.1276964,62.4830062 85.9546734,62.4513146 86.6748325,62.4513146 C88.278249,62.4513146 89.6932984,62.5803447 90.8820778,62.8338777 C92.0536285,63.0840151 93.0345151,63.432623 93.7948745,63.8706464 C94.527668,64.2928241 95.0812831,64.7964945 95.4407884,65.3680755 C95.7991451,65.9396566 95.9737291,66.5485884 95.9737291,67.2299583 C95.9737291,67.8898231 95.8014422,68.498755 95.4626114,69.0386444 C95.1168891,69.5887204 94.5724626,70.0742813 93.845412,70.4806131 C93.0862012,70.9039226 92.0915317,71.2389484 90.8912665,71.4755037 C88.960505,71.8558031 86.2636412,71.9486143 83.5265771,71.7018724 C82.5169761,71.6124567 81.5016321,71.4675808 80.505814,71.2729037 C79.5054016,71.0759629 78.5245151,70.8326165 77.5907202,70.5496556 C76.6626683,70.2666947 75.7908967,69.9226142 75.0018229,69.5276008 C74.7353525,69.3929114 74.4068589,69.4857226 74.2506521,69.7369919 L71.0828709,74.8687708 C71.0001732,75.0045921 70.9783502,75.1664457 71.0219962,75.3181127 C71.0656422,75.4709116 71.1713115,75.5965463 71.3137353,75.6689843 C72.3623881,76.1907642 73.4994814,76.6650066 74.6928551,77.0758659 C75.8827831,77.4867251 77.1508144,77.8387285 78.459046,78.1216894 C79.7661291,78.4035184 81.1260468,78.6219642 82.4997474,78.7724994 C83.8757452,78.9241665 85.2873489,79 86.6966555,79 C89.4222338,79 91.8755988,78.7283575 93.9889844,78.1907318 C96.1207472,77.6508424 97.9504338,76.8596837 99.4263579,75.8398926 C100.920659,74.8087831 102.069238,73.5422501 102.839935,72.0765126 C103.609483,70.611907 104,68.9526243 104,67.14507 C104,65.3975035 103.637049,63.7902855 102.920336,62.3709537 C102.202474,60.9504899 101.149227,59.7201759 99.7881604,58.7162306" id="Fill-11" fill="#3723FF"></path>
                <path d="M135.328924,66.6769494 C134.864158,68.0022851 134.19321,69.1288203 133.336582,70.0211368 C132.482233,70.9111682 131.429674,71.5989717 130.209664,72.0628392 C128.973705,72.5324193 127.557764,72.7712082 126.00057,72.7712082 C124.442236,72.7712082 123.026295,72.5324193 121.790336,72.0628392 C120.570326,71.5989717 119.517767,70.9111682 118.663418,70.0211368 C117.80679,69.1288203 117.135842,68.0034276 116.671076,66.6769494 C116.200614,65.3356184 115.961396,63.7577835 115.961396,61.989146 C115.961396,60.2353613 116.199475,58.6689517 116.671076,57.3344759 C117.135842,56.0148529 117.80679,54.8894602 118.664557,53.989146 C119.520046,53.0899743 120.571465,52.3998857 121.790336,51.9371608 C123.027434,51.4664382 124.443376,51.2287918 126.00057,51.2287918 C127.556624,51.2287918 128.972566,51.4664382 130.209664,51.9371608 C131.428535,52.3998857 132.479954,53.0899743 133.335443,53.989146 C134.19321,54.8894602 134.864158,56.0159954 135.328924,57.3344759 C135.800525,58.6689517 136.039743,60.2353613 136.039743,61.989146 C136.039743,63.7577835 135.800525,65.3356184 135.328924,66.6769494 M142.735563,54.4907169 C141.893744,52.2662097 140.676012,50.3501857 139.118818,48.7963439 C137.559346,47.2402171 135.644464,46.0382748 133.426573,45.2225079 C131.220074,44.4124536 128.721957,44 126.00057,44 C123.278043,44 120.779926,44.4124536 118.574566,45.2225079 C116.355536,46.0382748 114.440654,47.2402171 112.880043,48.7963439 C111.322849,50.3513282 110.106256,52.2673522 109.264437,54.4907169 C108.424896,56.7037989 108,59.2345044 108,62.010854 C108,64.7872037 108.424896,67.3179092 109.264437,69.5309911 C110.107395,71.7554984 111.323988,73.6680948 112.881182,75.2162239 C114.441794,76.764353 116.356675,77.9628678 118.574566,78.7786347 C120.779926,79.5898315 123.278043,80 126.00057,80 C128.721957,80 131.220074,79.5898315 133.426573,78.7786347 C135.644464,77.9628678 137.559346,76.764353 139.117679,75.2162239 C140.676012,73.6692374 141.892605,71.756641 142.735563,69.5309911 C143.575104,67.3179092 144,64.7872037 144,62.010854 C144,59.2345044 143.575104,56.7037989 142.735563,54.4907169" id="Fill-13" fill="#3723FF"></path>
                <path d="M108.871496,41.2767443 C108.054186,42.5576634 106.857573,44.0475268 105.279398,45.74747 L106.857573,47 L115.494638,35.9725126 L126,15.088307 L126,13.7937611 L116.905738,13.7937611 L116.076011,15.4641796 L121.598495,19.5158812 L115.742992,31.7538826 L110.677705,19.306937 L109.09953,13 L102,16.5077653 L102,17.8034468 L105.860771,20.0586821 L111.093133,32.7974684 C111.093133,34.5814435 110.927187,36.1190007 110.594167,37.4135466 C110.262277,38.7080926 109.687676,39.9958251 108.871496,41.2767443" id="Fill-15" fill="#3723FF"></path>
                <g id="Group-19" transform="translate(73.000000, 0.000000)">
                    <mask id="mask-2" fill="white">
                        <use xlink:href="#path-1"></use>
                    </mask>
                    <g id="Clip-18"></g>
                    <path d="M15.6941652,33.2904031 C13.5870348,33.2904031 11.9659913,32.7654656 10.8299043,31.7167469 C9.69268696,30.6668719 9.12407826,29.3637781 9.12407826,27.8039969 L9.12407826,20.1912469 C10.5111217,18.9436531 11.7026,18.1065281 12.7007739,17.6821844 C13.6989478,17.2566844 14.7242522,17.0439344 15.7778174,17.0439344 C17.2462522,17.0439344 18.3823391,17.9515906 19.1872087,19.7657469 C19.9909478,21.5810594 20.3933826,23.8056844 20.3933826,26.4430906 C20.3933826,31.0079656 18.8266,33.2904031 15.6941652,33.2904031 M24.7794696,18.8719656 C24.1000783,17.2000281 23.1584261,15.8738094 21.9522522,14.8967781 C20.7460783,13.9174344 19.3952087,13.4283406 17.898513,13.4283406 C16.650513,13.4283406 15.5833826,13.5428094 14.6971217,13.7694344 L9.12407826,18.2776531 L9.12407826,13.0167156 L9.12407826,11.8604656 L9.12407826,0.464465625 L7.54486087,0.464465625 L0.434426087,3.18743437 L0.434426087,4.50555937 L4.13546957,7.14296563 L4.13546957,11.8604656 L4.13546957,13.0167156 L4.13546957,36.4377156 L5.71468696,36.4377156 L7.50303478,33.9286531 C8.25138261,34.8629031 9.11729565,35.5867156 10.1019043,36.0977781 C11.0853826,36.6076844 12.1457304,36.8632156 13.2829478,36.8632156 C15.1119913,36.8632156 17.0043391,36.2885594 18.9588609,35.1404031 C20.9122522,33.9910906 22.5412087,32.4602156 23.8434696,30.5466219 C25.1468609,28.6330281 25.7979913,26.5853094 25.7979913,24.4023094 C25.7979913,22.3881219 25.4588609,20.5462156 24.7794696,18.8719656" id="Fill-17" fill="#3723FF" mask="url(#mask-2)"></path>
                </g>
            </g>
        </g>
    </g>
</svg>