<?xml version="1.0" encoding="UTF-8"?>
<svg width="768px" height="409px" viewBox="0 0 768 409" version="1.1" xmlns="http://www.w3.org/2000/svg" xmlns:xlink="http://www.w3.org/1999/xlink">
    <!-- Generator: Sketch 47.1 (45422) - http://www.bohemiancoding.com/sketch -->
    <title>Page 1</title>
    <desc>Created with Sketch.</desc>
    <defs>
        <polygon id="path-1" points="0 408.517 856.593 408.517 856.593 0 0 0"></polygon>
    </defs>
    <g id="Page-1" stroke="none" stroke-width="1" fill="none" fill-rule="evenodd">
        <g id="21-by-2050" transform="translate(0.000000, -6679.000000)">
            <g id="Page-1" transform="translate(-45.000000, 6679.000000)">
                <path d="M376.5776,102.7289 C376.5776,124.4479 369.7666,144.5729 358.1726,161.0949 L191.5246,161.0949 C179.9306,144.5729 173.1196,124.4479 173.1196,102.7289 C173.1196,46.5459 218.6656,0.9999 274.8486,0.9999 C331.0316,0.9999 376.5776,46.5459 376.5776,102.7289 Z" id="Fill-1" fill="#FFFCF5"></path>
                <path d="M376.5776,102.7289 C376.5776,46.5459 331.0316,0.9999 274.8486,0.9999 C218.6656,0.9999 173.1196,46.5459 173.1196,102.7289 C173.1196,124.4479 179.9306,144.5729 191.5246,161.0949 L358.1726,161.0949 C369.7666,144.5729 376.5776,124.4479 376.5776,102.7289 Z" id="Stroke-3" stroke="#3723FF" stroke-width="2" stroke-linecap="round" stroke-linejoin="round"></path>
                <path d="M24.2544,236.1342 C23.4044,236.1342 22.7094,235.4392 22.7094,234.5892 L22.7094,198.0812 C22.7094,197.2322 23.4044,196.5362 24.2544,196.5362 L82.8464,196.5362 C83.6954,196.5362 84.6014,197.1982 84.8584,198.0082 L90.1414,214.6102 C90.3994,215.4192 91.2434,216.3652 92.0194,216.7122 L98.2774,219.5122 C99.0534,219.8592 99.6884,220.8382 99.6884,221.6872 L99.6884,234.5892 C99.6884,235.4392 98.9924,236.1342 98.1434,236.1342 L24.2544,236.1342 Z" id="Fill-5" fill="#FFFCF5"></path>
                <path d="M24.2544,236.1342 C23.4044,236.1342 22.7094,235.4392 22.7094,234.5892 L22.7094,198.0812 C22.7094,197.2322 23.4044,196.5362 24.2544,196.5362 L82.8464,196.5362 C83.6954,196.5362 84.6014,197.1982 84.8584,198.0082 L90.1414,214.6102 C90.3994,215.4192 91.2434,216.3652 92.0194,216.7122 L98.2774,219.5122 C99.0534,219.8592 99.6884,220.8382 99.6884,221.6872 L99.6884,234.5892 C99.6884,235.4392 98.9924,236.1342 98.1434,236.1342 L24.2544,236.1342 Z" id="Stroke-7" stroke="#3723FF" stroke-width="2" stroke-linecap="round" stroke-linejoin="round"></path>
                <polygon id="Fill-9" fill="#FFFCF5" points="84.5171 216.2084 78.6051 201.4344 65.1221 201.4344 65.1221 216.2084"></polygon>
                <polygon id="Stroke-11" stroke="#3723FF" stroke-width="2" stroke-linecap="round" stroke-linejoin="round" points="84.5171 216.2084 78.6051 201.4344 65.1221 201.4344 65.1221 216.2084"></polygon>
                <path d="M99.5796,223.9066 L96.4676,223.9066 C95.7936,223.9066 95.2426,224.4576 95.2426,225.1316 L95.2426,226.0226 C95.2426,226.6956 95.7936,227.2476 96.4676,227.2476 L99.5796,227.2476" id="Stroke-13" stroke="#3723FF" stroke-width="2" stroke-linecap="round" stroke-linejoin="round"></path>
                <path d="M728.1665,138.518 C727.7225,135.607 725.0015,133.607 722.0905,134.052 C721.1615,134.194 720.3275,134.569 719.6345,135.106 C717.2535,133.811 714.4515,133.244 711.5655,133.684 C706.9645,134.387 703.3205,137.455 701.6495,141.456 C698.3055,142.403 696.1065,145.709 696.6455,149.235 C697.2015,152.878 700.4765,155.425 704.0925,155.146 C706.8925,158.152 711.0805,159.769 715.4475,159.102 C722.4665,158.03 727.2875,151.471 726.2155,144.452 C726.1725,144.169 726.1055,143.897 726.0455,143.622 C727.5955,142.485 728.4775,140.549 728.1665,138.518" id="Fill-15" fill="#8CE06E"></path>
                <path d="M728.1665,138.518 C727.7225,135.607 725.0015,133.607 722.0905,134.052 C721.1615,134.194 720.3275,134.569 719.6345,135.106 C717.2535,133.811 714.4515,133.244 711.5655,133.684 C706.9645,134.387 703.3205,137.455 701.6495,141.456 C698.3055,142.403 696.1065,145.709 696.6455,149.235 C697.2015,152.878 700.4765,155.425 704.0925,155.146 C706.8925,158.152 711.0805,159.769 715.4475,159.102 C722.4665,158.03 727.2875,151.471 726.2155,144.452 C726.1725,144.169 726.1055,143.897 726.0455,143.622 C727.5955,142.485 728.4775,140.549 728.1665,138.518 Z" id="Stroke-17" stroke="#3723FF" stroke-width="2" stroke-linecap="round" stroke-linejoin="round"></path>
                <path d="M713.5151,178.4076 L713.5151,142.9756" id="Stroke-19" stroke="#3723FF" stroke-width="2" stroke-linecap="round" stroke-linejoin="round"></path>
                <path d="M713.3101,151.8315 L707.9351,146.3035" id="Stroke-21" stroke="#3723FF" stroke-width="2" stroke-linecap="round" stroke-linejoin="round"></path>
                <path d="M35.2368,179.2709 L825.2368,179.2709" id="Stroke-23" stroke="#3723FF" stroke-width="2" stroke-linecap="round" stroke-linejoin="round"></path>
                <path d="M198.6499,103.6899 C197.2639,103.6899 195.9909,104.1579 194.9669,104.9379 C194.1099,100.8209 190.4619,97.7279 186.0909,97.7279 C184.8619,97.7279 183.6909,97.9759 182.6219,98.4189 C181.0059,92.6169 175.6979,88.3539 169.3809,88.3539 C163.8339,88.3539 159.0659,91.6439 156.8899,96.3739 C155.4789,95.6489 153.8819,95.2319 152.1869,95.2319 C146.4889,95.2319 141.8699,99.8509 141.8699,105.5479 C141.8699,107.1479 142.2449,108.6559 142.8929,110.0059 L174.8369,110.0059 L204.7259,110.0059 C204.7289,109.9299 204.7379,109.8549 204.7379,109.7779 C204.7379,106.4159 202.0119,103.6899 198.6499,103.6899" id="Fill-25" fill="#E2F8FF"></path>
                <path d="M198.6499,103.6899 C197.2639,103.6899 195.9909,104.1579 194.9669,104.9379 C194.1099,100.8209 190.4619,97.7279 186.0909,97.7279 C184.8619,97.7279 183.6909,97.9759 182.6219,98.4189 C181.0059,92.6169 175.6979,88.3539 169.3809,88.3539 C163.8339,88.3539 159.0659,91.6439 156.8899,96.3739 C155.4789,95.6489 153.8819,95.2319 152.1869,95.2319 C146.4889,95.2319 141.8699,99.8509 141.8699,105.5479 C141.8699,107.1479 142.2449,108.6559 142.8929,110.0059 L174.8369,110.0059 L204.7259,110.0059 C204.7289,109.9299 204.7379,109.8549 204.7379,109.7779 C204.7379,106.4159 202.0119,103.6899 198.6499,103.6899 Z" id="Stroke-27" stroke="#3723FF" stroke-width="2" stroke-linecap="round" stroke-linejoin="round"></path>
                <path d="M146.3452,110.0063 L131.4262,110.0063" id="Stroke-29" stroke="#3723FF" stroke-width="2" stroke-linecap="round" stroke-linejoin="round"></path>
                <path d="M216.6753,110.0063 L201.7563,110.0063" id="Stroke-31" stroke="#3723FF" stroke-width="2" stroke-linecap="round" stroke-linejoin="round"></path>
                <polygon id="Fill-33" fill="#FFFCF5" points="206.3354 131.6801 223.8454 152.8991 223.8454 179.0141 198.0204 179.0141 188.8244 179.0141 163.0004 179.0141 163.0004 152.8991 180.5104 131.6801"></polygon>
                <polygon id="Stroke-35" stroke="#3723FF" stroke-width="2" stroke-linecap="round" stroke-linejoin="round" points="206.3354 131.6801 223.8454 152.8991 223.8454 179.0141 198.0204 179.0141 188.8244 179.0141 163.0004 179.0141 163.0004 152.8991 180.5104 131.6801"></polygon>
                <polyline id="Stroke-37" stroke="#3723FF" stroke-width="2" stroke-linecap="round" stroke-linejoin="round" points="223.8452 179.0141 223.8452 152.8991 206.3352 131.6801 188.8242 152.8991 188.8242 179.0141"></polyline>
                <path d="M188.8247,152.8988 L163.0007,152.8988" id="Stroke-39" stroke="#3723FF" stroke-width="2" stroke-linecap="round" stroke-linejoin="round"></path>
                <mask id="mask-2" fill="white">
                    <use xlink:href="#path-1"></use>
                </mask>
                <g id="Clip-42"></g>
                <polygon id="Stroke-41" stroke="#3723FF" stroke-width="2" stroke-linecap="round" stroke-linejoin="round" mask="url(#mask-2)" points="202.474 178.392 210.933 178.392 210.933 161.891 202.474 161.891"></polygon>
                <polygon id="Stroke-43" stroke="#3723FF" stroke-width="2" stroke-linecap="round" stroke-linejoin="round" mask="url(#mask-2)" points="170.606 170.087 180.202 170.087 180.202 161.575 170.606 161.575"></polygon>
                <polygon id="Fill-44" fill="#3723FF" mask="url(#mask-2)" points="181.4175 131.8637 206.3355 131.6797 189.0075 152.8607 163.8815 152.0317"></polygon>
                <polygon id="Stroke-45" stroke="#3723FF" stroke-width="2" stroke-linecap="round" stroke-linejoin="round" mask="url(#mask-2)" points="181.4175 131.8637 206.3355 131.6797 189.0075 152.8607 163.8815 152.0317"></polygon>
                <polygon id="Fill-46" fill="#E2F8FF" mask="url(#mask-2)" points="266.5825 131.6801 284.0935 152.8991 284.0935 179.0141 258.2685 179.0141 249.0725 179.0141 223.2475 179.0141 223.2475 152.8991 240.7575 131.6801"></polygon>
                <polygon id="Stroke-47" stroke="#3723FF" stroke-width="2" stroke-linecap="round" stroke-linejoin="round" mask="url(#mask-2)" points="266.5825 131.6801 284.0935 152.8991 284.0935 179.0141 258.2685 179.0141 249.0725 179.0141 223.2475 179.0141 223.2475 152.8991 240.7575 131.6801"></polygon>
                <polyline id="Stroke-48" stroke="#3723FF" stroke-width="2" stroke-linecap="round" stroke-linejoin="round" mask="url(#mask-2)" points="284.0933 179.0141 284.0933 152.8991 266.5823 131.6801 249.0723 152.8991 249.0723 179.0141"></polyline>
                <path d="M249.0728,152.8988 L223.2478,152.8988" id="Stroke-49" stroke="#3723FF" stroke-width="2" stroke-linecap="round" stroke-linejoin="round" mask="url(#mask-2)"></path>
                <polyline id="Stroke-50" stroke="#3723FF" stroke-width="2" stroke-linecap="round" stroke-linejoin="round" mask="url(#mask-2)" points="262.7222 178.392 262.7222 161.891 271.1812 161.891 271.1812 178.392"></polyline>
                <polygon id="Stroke-51" stroke="#3723FF" stroke-width="2" stroke-linecap="round" stroke-linejoin="round" mask="url(#mask-2)" points="230.853 170.087 240.449 170.087 240.449 161.575 230.853 161.575"></polygon>
                <polygon id="Fill-52" fill="#3723FF" mask="url(#mask-2)" points="241.6646 131.8637 266.5826 131.6797 249.2556 152.8607 224.1286 152.0317"></polygon>
                <polygon id="Stroke-53" stroke="#3723FF" stroke-width="2" stroke-linecap="round" stroke-linejoin="round" mask="url(#mask-2)" points="241.6646 131.8637 266.5826 131.6797 249.2556 152.8607 224.1286 152.0317"></polygon>
                <polygon id="Fill-54" fill="#FFFCF5" mask="url(#mask-2)" points="44.3354 131.6801 61.8454 152.8991 61.8454 179.0141 36.0204 179.0141 26.8244 179.0141 1.0004 179.0141 1.0004 152.8991 18.5104 131.6801"></polygon>
                <polygon id="Stroke-55" stroke="#3723FF" stroke-width="2" stroke-linecap="round" stroke-linejoin="round" mask="url(#mask-2)" points="44.3354 131.6801 61.8454 152.8991 61.8454 179.0141 36.0204 179.0141 26.8244 179.0141 1.0004 179.0141 1.0004 152.8991 18.5104 131.6801"></polygon>
                <polyline id="Stroke-56" stroke="#3723FF" stroke-width="2" stroke-linecap="round" stroke-linejoin="round" mask="url(#mask-2)" points="61.8452 179.0141 61.8452 152.8991 44.3352 131.6801 26.8242 152.8991 26.8242 179.0141"></polyline>
                <polygon id="Stroke-58" stroke="#3723FF" stroke-width="2" stroke-linecap="round" stroke-linejoin="round" mask="url(#mask-2)" points="40.474 178.392 48.933 178.392 48.933 161.891 40.474 161.891"></polygon>
                <polygon id="Fill-62" fill="#E2F8FF" mask="url(#mask-2)" points="104.5825 131.6801 122.0935 152.8991 122.0935 179.0141 96.2685 179.0141 87.0725 179.0141 61.2475 179.0141 61.2475 152.8991 78.7575 131.6801"></polygon>
                <polygon id="Stroke-63" stroke="#3723FF" stroke-width="2" stroke-linecap="round" stroke-linejoin="round" mask="url(#mask-2)" points="104.5825 131.6801 122.0935 152.8991 122.0935 179.0141 96.2685 179.0141 87.0725 179.0141 61.2475 179.0141 61.2475 152.8991 78.7575 131.6801"></polygon>
                <polyline id="Stroke-64" stroke="#3723FF" stroke-width="2" stroke-linecap="round" stroke-linejoin="round" mask="url(#mask-2)" points="122.0933 179.0141 122.0933 152.8991 104.5823 131.6801 87.0723 152.8991 87.0723 179.0141"></polyline>
                <path d="M87.0728,152.8988 L61.2478,152.8988" id="Stroke-65" stroke="#3723FF" stroke-width="2" stroke-linecap="round" stroke-linejoin="round" mask="url(#mask-2)"></path>
                <polyline id="Stroke-66" stroke="#3723FF" stroke-width="2" stroke-linecap="round" stroke-linejoin="round" mask="url(#mask-2)" points="100.7222 178.392 100.7222 161.891 109.1812 161.891 109.1812 178.392"></polyline>
                <polygon id="Stroke-67" stroke="#3723FF" stroke-width="2" stroke-linecap="round" stroke-linejoin="round" mask="url(#mask-2)" points="68.853 170.087 78.449 170.087 78.449 161.575 68.853 161.575"></polygon>
                <polygon id="Fill-68" fill="#3723FF" mask="url(#mask-2)" points="79.6646 131.8637 104.5826 131.6797 87.2556 152.8607 62.1286 152.0317"></polygon>
                <polygon id="Stroke-69" stroke="#3723FF" stroke-width="2" stroke-linecap="round" stroke-linejoin="round" mask="url(#mask-2)" points="79.6646 131.8637 104.5826 131.6797 87.2556 152.8607 62.1286 152.0317"></polygon>
                <polygon id="Fill-70" fill="#FFFCF5" mask="url(#mask-2)" points="777.8354 131.6801 795.3454 152.8991 795.3454 179.0141 769.5204 179.0141 760.3244 179.0141 734.5004 179.0141 734.5004 152.8991 752.0104 131.6801"></polygon>
                <polygon id="Stroke-71" stroke="#3723FF" stroke-width="2" stroke-linecap="round" stroke-linejoin="round" mask="url(#mask-2)" points="777.8354 131.6801 795.3454 152.8991 795.3454 179.0141 769.5204 179.0141 760.3244 179.0141 734.5004 179.0141 734.5004 152.8991 752.0104 131.6801"></polygon>
                <polyline id="Stroke-72" stroke="#3723FF" stroke-width="2" stroke-linecap="round" stroke-linejoin="round" mask="url(#mask-2)" points="795.3452 179.0141 795.3452 152.8991 777.8352 131.6801 760.3242 152.8991 760.3242 179.0141"></polyline>
                <path d="M760.3247,152.8988 L734.5007,152.8988" id="Stroke-73" stroke="#3723FF" stroke-width="2" stroke-linecap="round" stroke-linejoin="round" mask="url(#mask-2)"></path>
                <polygon id="Stroke-74" stroke="#3723FF" stroke-width="2" stroke-linecap="round" stroke-linejoin="round" mask="url(#mask-2)" points="773.974 178.392 782.433 178.392 782.433 161.891 773.974 161.891"></polygon>
                <polygon id="Stroke-75" stroke="#3723FF" stroke-width="2" stroke-linecap="round" stroke-linejoin="round" mask="url(#mask-2)" points="742.106 170.087 751.702 170.087 751.702 161.575 742.106 161.575"></polygon>
                <polygon id="Fill-76" fill="#3723FF" mask="url(#mask-2)" points="752.9175 131.8637 777.8355 131.6797 760.5075 152.8607 735.3815 152.0317"></polygon>
                <polygon id="Stroke-77" stroke="#3723FF" stroke-width="2" stroke-linecap="round" stroke-linejoin="round" mask="url(#mask-2)" points="752.9175 131.8637 777.8355 131.6797 760.5075 152.8607 735.3815 152.0317"></polygon>
                <polygon id="Fill-78" fill="#E2F8FF" mask="url(#mask-2)" points="838.0825 131.6801 855.5935 152.8991 855.5935 179.0141 829.7685 179.0141 820.5725 179.0141 794.7475 179.0141 794.7475 152.8991 812.2575 131.6801"></polygon>
                <polygon id="Stroke-79" stroke="#3723FF" stroke-width="2" stroke-linecap="round" stroke-linejoin="round" mask="url(#mask-2)" points="838.0825 131.6801 855.5935 152.8991 855.5935 179.0141 829.7685 179.0141 820.5725 179.0141 794.7475 179.0141 794.7475 152.8991 812.2575 131.6801"></polygon>
                <path d="M820.5728,152.8988 L794.7478,152.8988" id="Stroke-81" stroke="#3723FF" stroke-width="2" stroke-linecap="round" stroke-linejoin="round" mask="url(#mask-2)"></path>
                <polygon id="Stroke-83" stroke="#3723FF" stroke-width="2" stroke-linecap="round" stroke-linejoin="round" mask="url(#mask-2)" points="802.353 170.087 811.949 170.087 811.949 161.575 802.353 161.575"></polygon>
                <polygon id="Fill-84" fill="#3723FF" mask="url(#mask-2)" points="813.1646 131.8637 838.0826 131.6797 820.7556 152.8607 795.6286 152.0317"></polygon>
                <polygon id="Stroke-85" stroke="#3723FF" stroke-width="2" stroke-linecap="round" stroke-linejoin="round" mask="url(#mask-2)" points="813.1646 131.8637 838.0826 131.6797 820.7556 152.8607 795.6286 152.0317"></polygon>
                <path d="M290.9185,152.5365 L308.6755,152.5365" id="Stroke-86" stroke="#3723FF" stroke-width="2" stroke-linecap="round" stroke-linejoin="round" mask="url(#mask-2)"></path>
                <polygon id="Fill-87" fill="#3723FF" mask="url(#mask-2)" points="432.032 179.175 493.018 179.175 493.018 45.39 432.032 45.39"></polygon>
                <polygon id="Stroke-88" stroke="#3723FF" stroke-width="2" stroke-linecap="round" stroke-linejoin="round" mask="url(#mask-2)" points="432.032 179.175 493.018 179.175 493.018 45.39 432.032 45.39"></polygon>
                <polygon id="Fill-89" fill="#E2F8FF" mask="url(#mask-2)" points="409.327 179.175 467.131 179.175 467.131 71.936 409.327 71.936"></polygon>
                <polygon id="Stroke-90" stroke="#3723FF" stroke-width="2" stroke-linecap="round" stroke-linejoin="round" mask="url(#mask-2)" points="409.327 179.175 467.131 179.175 467.131 71.936 409.327 71.936"></polygon>
                <path d="M419.7739,81.5736 L419.7739,131.6136" id="Stroke-91" stroke="#3723FF" stroke-width="2" stroke-linecap="round" stroke-linejoin="round" mask="url(#mask-2)"></path>
                <path d="M429.0015,81.5736 L429.0015,131.6136" id="Stroke-92" stroke="#3723FF" stroke-width="2" stroke-linecap="round" stroke-linejoin="round" mask="url(#mask-2)"></path>
                <path d="M438.229,81.5736 L438.229,131.6136" id="Stroke-93" stroke="#3723FF" stroke-width="2" stroke-linecap="round" stroke-linejoin="round" mask="url(#mask-2)"></path>
                <path d="M447.4556,81.5736 L447.4556,131.6136" id="Stroke-94" stroke="#3723FF" stroke-width="2" stroke-linecap="round" stroke-linejoin="round" mask="url(#mask-2)"></path>
                <path d="M456.6831,81.5736 L456.6831,131.6136" id="Stroke-95" stroke="#3723FF" stroke-width="2" stroke-linecap="round" stroke-linejoin="round" mask="url(#mask-2)"></path>
                <polygon id="Fill-96" fill="#E2F8FF" mask="url(#mask-2)" points="283.41 179.176 347.986 179.176 347.986 74.617 283.41 74.617"></polygon>
                <polygon id="Stroke-97" stroke="#3723FF" stroke-width="2" stroke-linecap="round" stroke-linejoin="round" mask="url(#mask-2)" points="283.41 179.176 347.986 179.176 347.986 74.617 283.41 74.617"></polygon>
                <polygon id="Stroke-98" stroke="#3723FF" stroke-width="2" stroke-linecap="round" stroke-linejoin="round" mask="url(#mask-2)" points="292.642 97.21 302.625 97.21 302.625 84.996 292.642 84.996"></polygon>
                <polygon id="Stroke-99" stroke="#3723FF" stroke-width="2" stroke-linecap="round" stroke-linejoin="round" mask="url(#mask-2)" points="310.652 97.21 320.635 97.21 320.635 84.996 310.652 84.996"></polygon>
                <polygon id="Stroke-100" stroke="#3723FF" stroke-width="2" stroke-linecap="round" stroke-linejoin="round" mask="url(#mask-2)" points="328.663 97.21 338.646 97.21 338.646 84.996 328.663 84.996"></polygon>
                <polygon id="Stroke-101" stroke="#3723FF" stroke-width="2" stroke-linecap="round" stroke-linejoin="round" mask="url(#mask-2)" points="292.642 120.455 302.625 120.455 302.625 108.241 292.642 108.241"></polygon>
                <polygon id="Stroke-102" stroke="#3723FF" stroke-width="2" stroke-linecap="round" stroke-linejoin="round" mask="url(#mask-2)" points="310.652 120.455 320.635 120.455 320.635 108.241 310.652 108.241"></polygon>
                <polygon id="Stroke-103" stroke="#3723FF" stroke-width="2" stroke-linecap="round" stroke-linejoin="round" mask="url(#mask-2)" points="328.663 120.455 338.646 120.455 338.646 108.241 328.663 108.241"></polygon>
                <polygon id="Stroke-104" stroke="#3723FF" stroke-width="2" stroke-linecap="round" stroke-linejoin="round" mask="url(#mask-2)" points="292.642 143.702 302.625 143.702 302.625 131.488 292.642 131.488"></polygon>
                <polygon id="Stroke-105" stroke="#3723FF" stroke-width="2" stroke-linecap="round" stroke-linejoin="round" mask="url(#mask-2)" points="310.652 143.702 320.635 143.702 320.635 131.488 310.652 131.488"></polygon>
                <polygon id="Stroke-106" stroke="#3723FF" stroke-width="2" stroke-linecap="round" stroke-linejoin="round" mask="url(#mask-2)" points="328.663 143.702 338.646 143.702 338.646 131.488 328.663 131.488"></polygon>
                <polygon id="Stroke-107" stroke="#3723FF" stroke-width="2" stroke-linecap="round" stroke-linejoin="round" mask="url(#mask-2)" points="292.642 166.948 302.625 166.948 302.625 154.734 292.642 154.734"></polygon>
                <polygon id="Stroke-108" stroke="#3723FF" stroke-width="2" stroke-linecap="round" stroke-linejoin="round" mask="url(#mask-2)" points="328.663 166.948 338.646 166.948 338.646 156.969 328.663 156.969"></polygon>
                <g id="Group-111" mask="url(#mask-2)">
                    <g transform="translate(309.000000, 154.517000)">
                        <polyline id="Fill-109" stroke="none" fill="#3723FF" fill-rule="evenodd" points="0.9194 24.7539 0.9194 0.2729 12.2234 0.2729 12.2234 24.7539"></polyline>
                        <polyline id="Stroke-110" stroke="#3723FF" stroke-width="2" fill="none" stroke-linecap="round" stroke-linejoin="round" points="0.9194 24.7539 0.9194 0.2729 12.2234 0.2729 12.2234 24.7539"></polyline>
                    </g>
                </g>
                <polygon id="Fill-112" fill="#E2F8FF" mask="url(#mask-2)" points="510.436 179.176 556.761 179.176 556.761 17.537 510.436 17.537"></polygon>
                <polygon id="Stroke-113" stroke="#3723FF" stroke-width="2" stroke-linecap="round" stroke-linejoin="round" mask="url(#mask-2)" points="510.436 179.176 556.761 179.176 556.761 17.537 510.436 17.537"></polygon>
                <polygon id="Fill-114" fill="#E2F8FF" mask="url(#mask-2)" points="402.7358 93.7631 419.7738 117.1421 419.7738 179.1751 384.7888 179.1751 384.7888 117.1421"></polygon>
                <polygon id="Stroke-115" stroke="#3723FF" stroke-width="2" stroke-linecap="round" stroke-linejoin="round" mask="url(#mask-2)" points="402.7358 93.7631 419.7738 117.1421 419.7738 179.1751 384.7888 179.1751 384.7888 117.1421"></polygon>
                <polygon id="Fill-116" fill="#FFFCF5" mask="url(#mask-2)" points="402.7358 93.7631 385.2438 117.1421 385.2438 179.1751 347.9948 179.1751 347.9948 117.1421 365.4868 93.7631"></polygon>
                <polygon id="Stroke-117" stroke="#3723FF" stroke-width="2" stroke-linecap="round" stroke-linejoin="round" mask="url(#mask-2)" points="402.7358 93.7631 385.2438 117.1421 385.2438 179.1751 347.9948 179.1751 347.9948 117.1421 365.4868 93.7631"></polygon>
                <polygon id="Fill-118" fill="#3723FF" mask="url(#mask-2)" points="347.9946 117.142 384.3406 117.142 402.0476 94.478 365.4866 93.763"></polygon>
                <polygon id="Stroke-119" stroke="#3723FF" stroke-width="2" stroke-linecap="round" stroke-linejoin="round" mask="url(#mask-2)" points="347.9946 117.142 384.3406 117.142 402.0476 94.478 365.4866 93.763"></polygon>
                <polygon id="Stroke-120" stroke="#3723FF" stroke-width="2" stroke-linecap="round" stroke-linejoin="round" mask="url(#mask-2)" points="355.282 134.964 362.734 134.964 362.734 123.655 355.282 123.655"></polygon>
                <polygon id="Stroke-121" stroke="#3723FF" stroke-width="2" stroke-linecap="round" stroke-linejoin="round" mask="url(#mask-2)" points="370.22 134.964 377.672 134.964 377.672 123.655 370.22 123.655"></polygon>
                <polygon id="Stroke-122" stroke="#3723FF" stroke-width="2" stroke-linecap="round" stroke-linejoin="round" mask="url(#mask-2)" points="355.282 152.94 362.734 152.94 362.734 141.631 355.282 141.631"></polygon>
                <polygon id="Stroke-123" stroke="#3723FF" stroke-width="2" stroke-linecap="round" stroke-linejoin="round" mask="url(#mask-2)" points="370.22 152.94 377.672 152.94 377.672 141.631 370.22 141.631"></polygon>
                <polygon id="Stroke-124" stroke="#3723FF" stroke-width="2" stroke-linecap="round" stroke-linejoin="round" mask="url(#mask-2)" points="355.282 170.916 362.734 170.916 362.734 159.606 355.282 159.606"></polygon>
                <polygon id="Stroke-125" stroke="#3723FF" stroke-width="2" stroke-linecap="round" stroke-linejoin="round" mask="url(#mask-2)" points="370.22 170.916 377.672 170.916 377.672 159.606 370.22 159.606"></polygon>
                <polygon id="Stroke-126" stroke="#3723FF" stroke-width="2" stroke-linecap="round" stroke-linejoin="round" mask="url(#mask-2)" points="391.548 134.964 398.686 134.964 398.686 123.655 391.548 123.655"></polygon>
                <polygon id="Stroke-127" stroke="#3723FF" stroke-width="2" stroke-linecap="round" stroke-linejoin="round" mask="url(#mask-2)" points="405.856 134.964 412.994 134.964 412.994 123.655 405.856 123.655"></polygon>
                <polygon id="Stroke-128" stroke="#3723FF" stroke-width="2" stroke-linecap="round" stroke-linejoin="round" mask="url(#mask-2)" points="391.548 152.94 398.686 152.94 398.686 141.631 391.548 141.631"></polygon>
                <polygon id="Stroke-129" stroke="#3723FF" stroke-width="2" stroke-linecap="round" stroke-linejoin="round" mask="url(#mask-2)" points="405.856 152.94 412.994 152.94 412.994 141.631 405.856 141.631"></polygon>
                <polygon id="Stroke-130" stroke="#3723FF" stroke-width="2" stroke-linecap="round" stroke-linejoin="round" mask="url(#mask-2)" points="391.548 170.916 398.686 170.916 398.686 159.606 391.548 159.606"></polygon>
                <polygon id="Stroke-131" stroke="#3723FF" stroke-width="2" stroke-linecap="round" stroke-linejoin="round" mask="url(#mask-2)" points="405.856 170.916 412.994 170.916 412.994 159.606 405.856 159.606"></polygon>
                <polygon id="Fill-132" fill="#FFFCF5" mask="url(#mask-2)" points="467.26 179.176 510.57 179.176 510.57 91.781 467.26 91.781"></polygon>
                <polygon id="Stroke-133" stroke="#3723FF" stroke-width="2" stroke-linecap="round" stroke-linejoin="round" mask="url(#mask-2)" points="467.26 179.176 510.57 179.176 510.57 91.781 467.26 91.781"></polygon>
                <polygon id="Stroke-134" stroke="#3723FF" stroke-width="2" stroke-linecap="round" stroke-linejoin="round" mask="url(#mask-2)" points="473.339 171.022 480.232 171.022 480.232 163.131 473.339 163.131"></polygon>
                <polygon id="Stroke-135" stroke="#3723FF" stroke-width="2" stroke-linecap="round" stroke-linejoin="round" mask="url(#mask-2)" points="473.339 155.222 480.232 155.222 480.232 147.332 473.339 147.332"></polygon>
                <polygon id="Stroke-136" stroke="#3723FF" stroke-width="2" stroke-linecap="round" stroke-linejoin="round" mask="url(#mask-2)" points="473.339 139.423 480.232 139.423 480.232 131.532 473.339 131.532"></polygon>
                <polygon id="Stroke-137" stroke="#3723FF" stroke-width="2" stroke-linecap="round" stroke-linejoin="round" mask="url(#mask-2)" points="473.339 123.623 480.232 123.623 480.232 115.732 473.339 115.732"></polygon>
                <polygon id="Stroke-138" stroke="#3723FF" stroke-width="2" stroke-linecap="round" stroke-linejoin="round" mask="url(#mask-2)" points="473.339 107.824 480.232 107.824 480.232 99.934 473.339 99.934"></polygon>
                <polygon id="Stroke-139" stroke="#3723FF" stroke-width="2" stroke-linecap="round" stroke-linejoin="round" mask="url(#mask-2)" points="485.468 171.022 492.362 171.022 492.362 163.131 485.468 163.131"></polygon>
                <polygon id="Stroke-140" stroke="#3723FF" stroke-width="2" stroke-linecap="round" stroke-linejoin="round" mask="url(#mask-2)" points="485.468 155.222 492.362 155.222 492.362 147.332 485.468 147.332"></polygon>
                <polygon id="Stroke-141" stroke="#3723FF" stroke-width="2" stroke-linecap="round" stroke-linejoin="round" mask="url(#mask-2)" points="485.468 139.423 492.362 139.423 492.362 131.532 485.468 131.532"></polygon>
                <polygon id="Stroke-142" stroke="#3723FF" stroke-width="2" stroke-linecap="round" stroke-linejoin="round" mask="url(#mask-2)" points="485.468 123.623 492.362 123.623 492.362 115.732 485.468 115.732"></polygon>
                <polygon id="Stroke-143" stroke="#3723FF" stroke-width="2" stroke-linecap="round" stroke-linejoin="round" mask="url(#mask-2)" points="485.468 107.824 492.362 107.824 492.362 99.934 485.468 99.934"></polygon>
                <polygon id="Stroke-144" stroke="#3723FF" stroke-width="2" stroke-linecap="round" stroke-linejoin="round" mask="url(#mask-2)" points="497.598 171.022 504.491 171.022 504.491 163.131 497.598 163.131"></polygon>
                <polygon id="Stroke-145" stroke="#3723FF" stroke-width="2" stroke-linecap="round" stroke-linejoin="round" mask="url(#mask-2)" points="497.598 155.222 504.491 155.222 504.491 147.332 497.598 147.332"></polygon>
                <polygon id="Stroke-146" stroke="#3723FF" stroke-width="2" stroke-linecap="round" stroke-linejoin="round" mask="url(#mask-2)" points="497.598 139.423 504.491 139.423 504.491 131.532 497.598 131.532"></polygon>
                <polygon id="Stroke-147" stroke="#3723FF" stroke-width="2" stroke-linecap="round" stroke-linejoin="round" mask="url(#mask-2)" points="497.598 123.623 504.491 123.623 504.491 115.732 497.598 115.732"></polygon>
                <polygon id="Stroke-148" stroke="#3723FF" stroke-width="2" stroke-linecap="round" stroke-linejoin="round" mask="url(#mask-2)" points="497.598 107.824 504.491 107.824 504.491 99.934 497.598 99.934"></polygon>
                <path d="M522.7261,26.5141 L522.7261,109.8121" id="Stroke-149" stroke="#3723FF" stroke-width="2" stroke-linecap="round" stroke-linejoin="round" mask="url(#mask-2)"></path>
                <path d="M533.5981,26.5141 L533.5981,109.8121" id="Stroke-150" stroke="#3723FF" stroke-width="2" stroke-linecap="round" stroke-linejoin="round" mask="url(#mask-2)"></path>
                <path d="M544.4712,26.5141 L544.4712,109.8121" id="Stroke-151" stroke="#3723FF" stroke-width="2" stroke-linecap="round" stroke-linejoin="round" mask="url(#mask-2)"></path>
                <path d="M671.6138,96.4047 C669.8298,96.4047 668.1908,97.0077 666.8738,98.0107 C665.7688,92.7127 661.0738,88.7307 655.4468,88.7307 C653.8638,88.7307 652.3558,89.0497 650.9788,89.6197 C648.9008,82.1507 642.0658,76.6627 633.9338,76.6627 C626.7938,76.6627 620.6558,80.8977 617.8538,86.9867 C616.0368,86.0527 613.9828,85.5157 611.7998,85.5157 C604.4648,85.5157 598.5178,91.4627 598.5178,98.7977 C598.5178,100.8557 598.9998,102.7977 599.8358,104.5367 L679.4358,104.5367 C679.4388,104.4377 679.4508,104.3417 679.4508,104.2417 C679.4508,99.9137 675.9418,96.4047 671.6138,96.4047" id="Fill-152" fill="#E2F8FF" mask="url(#mask-2)"></path>
                <path d="M671.6138,96.4047 C669.8298,96.4047 668.1908,97.0077 666.8738,98.0107 C665.7688,92.7127 661.0738,88.7307 655.4468,88.7307 C653.8638,88.7307 652.3558,89.0497 650.9788,89.6197 C648.9008,82.1507 642.0658,76.6627 633.9338,76.6627 C626.7938,76.6627 620.6558,80.8977 617.8538,86.9867 C616.0368,86.0527 613.9828,85.5157 611.7998,85.5157 C604.4648,85.5157 598.5178,91.4627 598.5178,98.7977 C598.5178,100.8557 598.9998,102.7977 599.8358,104.5367 L679.4358,104.5367 C679.4388,104.4377 679.4508,104.3417 679.4508,104.2417 C679.4508,99.9137 675.9418,96.4047 671.6138,96.4047 Z" id="Stroke-153" stroke="#3723FF" stroke-width="2" stroke-linecap="round" stroke-linejoin="round" mask="url(#mask-2)"></path>
                <path d="M604.2788,104.5365 L585.0738,104.5365" id="Stroke-154" stroke="#3723FF" stroke-width="2" stroke-linecap="round" stroke-linejoin="round" mask="url(#mask-2)"></path>
                <path d="M694.8179,104.5365 L675.6129,104.5365" id="Stroke-155" stroke="#3723FF" stroke-width="2" stroke-linecap="round" stroke-linejoin="round" mask="url(#mask-2)"></path>
                <path d="M693.6724,172.1986 C693.2304,172.1986 692.7994,172.2386 692.3724,172.2966 C690.1844,168.1166 685.8134,165.2606 680.7674,165.2606 C673.5324,165.2606 667.6674,171.1246 667.6674,178.3596 C667.6674,178.5806 667.6904,178.7966 667.7004,179.0136 L702.8824,179.0136 C701.6784,175.0696 698.0114,172.1986 693.6724,172.1986" id="Fill-156" fill="#8CE06E" mask="url(#mask-2)"></path>
                <path d="M693.6724,172.1986 C693.2304,172.1986 692.7994,172.2386 692.3724,172.2966 C690.1844,168.1166 685.8134,165.2606 680.7674,165.2606 C673.5324,165.2606 667.6674,171.1246 667.6674,178.3596 C667.6674,178.5806 667.6904,178.7966 667.7004,179.0136 L702.8824,179.0136 C701.6784,175.0696 698.0114,172.1986 693.6724,172.1986 Z" id="Stroke-157" stroke="#3723FF" stroke-width="2" stroke-linecap="round" stroke-linejoin="round" mask="url(#mask-2)"></path>
                <path d="M733.0054,172.1986 C732.5644,172.1986 732.1324,172.2386 731.7054,172.2966 C729.5184,168.1166 725.1464,165.2606 720.1004,165.2606 C712.8654,165.2606 707.0014,171.1246 707.0014,178.3596 C707.0014,178.5806 707.0244,178.7966 707.0344,179.0136 L742.2154,179.0136 C741.0114,175.0696 737.3444,172.1986 733.0054,172.1986" id="Fill-158" fill="#8CE06E" mask="url(#mask-2)"></path>
                <path d="M733.0054,172.1986 C732.5644,172.1986 732.1324,172.2386 731.7054,172.2966 C729.5184,168.1166 725.1464,165.2606 720.1004,165.2606 C712.8654,165.2606 707.0014,171.1246 707.0014,178.3596 C707.0014,178.5806 707.0244,178.7966 707.0344,179.0136 L742.2154,179.0136 C741.0114,175.0696 737.3444,172.1986 733.0054,172.1986 Z" id="Stroke-159" stroke="#3723FF" stroke-width="2" stroke-linecap="round" stroke-linejoin="round" mask="url(#mask-2)"></path>
                <path d="M158.98,139.4789 C158.539,136.5899 155.839,134.6069 152.952,135.0479 C152.031,135.1889 151.203,135.5609 150.515,136.0939 C148.153,134.8089 145.374,134.2459 142.51,134.6829 C137.946,135.3799 134.332,138.4229 132.673,142.3939 C129.354,143.3329 127.174,146.6129 127.709,150.1109 C128.26,153.7249 131.509,156.2519 135.096,155.9749 C137.874,158.9579 142.029,160.5609 146.362,159.8989 C153.325,158.8349 158.108,152.3289 157.044,145.3659 C157.001,145.0849 156.935,144.8149 156.876,144.5419 C158.413,143.4149 159.288,141.4939 158.98,139.4789" id="Fill-160" fill="#8CE06E" mask="url(#mask-2)"></path>
                <path d="M158.98,139.4789 C158.539,136.5899 155.839,134.6069 152.952,135.0479 C152.031,135.1889 151.203,135.5609 150.515,136.0939 C148.153,134.8089 145.374,134.2459 142.51,134.6829 C137.946,135.3799 134.332,138.4229 132.673,142.3939 C129.354,143.3329 127.174,146.6129 127.709,150.1109 C128.26,153.7249 131.509,156.2519 135.096,155.9749 C137.874,158.9579 142.029,160.5609 146.362,159.8989 C153.325,158.8349 158.108,152.3289 157.044,145.3659 C157.001,145.0849 156.935,144.8149 156.876,144.5419 C158.413,143.4149 159.288,141.4939 158.98,139.4789 Z" id="Stroke-161" stroke="#3723FF" stroke-width="2" stroke-linecap="round" stroke-linejoin="round" mask="url(#mask-2)"></path>
                <path d="M144.4438,179.0522 L144.4438,143.9012" id="Stroke-162" stroke="#3723FF" stroke-width="2" stroke-linecap="round" stroke-linejoin="round" mask="url(#mask-2)"></path>
                <path d="M144.2407,152.6859 L138.9087,147.2019" id="Stroke-163" stroke="#3723FF" stroke-width="2" stroke-linecap="round" stroke-linejoin="round" mask="url(#mask-2)"></path>
                <path d="M38.7368,245.1957 L821.7368,245.1957" id="Stroke-164" stroke="#3723FF" stroke-width="2" stroke-linecap="round" stroke-linejoin="round" mask="url(#mask-2)"></path>
                <path d="M84.1685,236.6752 C84.1685,241.3802 80.3545,245.1952 75.6485,245.1952 C70.9435,245.1952 67.1295,241.3802 67.1295,236.6752 C67.1295,231.9702 70.9435,228.1552 75.6485,228.1552 C80.3545,228.1552 84.1685,231.9702 84.1685,236.6752" id="Fill-165" fill="#3723FF" mask="url(#mask-2)"></path>
                <path d="M84.1685,236.6752 C84.1685,241.3802 80.3545,245.1952 75.6485,245.1952 C70.9435,245.1952 67.1295,241.3802 67.1295,236.6752 C67.1295,231.9702 70.9435,228.1552 75.6485,228.1552 C80.3545,228.1552 84.1685,231.9702 84.1685,236.6752 Z" id="Stroke-166" stroke="#3723FF" stroke-width="2" stroke-linecap="round" stroke-linejoin="round" mask="url(#mask-2)"></path>
                <path d="M75.6489,232.5922 C73.3969,232.5922 71.5659,234.4242 71.5659,236.6752 C71.5659,238.9272 73.3969,240.7592 75.6489,240.7592 C77.9009,240.7592 79.7329,238.9272 79.7329,236.6752 C79.7329,234.4242 77.9009,232.5922 75.6489,232.5922" id="Fill-167" fill="#E2F8FF" mask="url(#mask-2)"></path>
                <path d="M394.5806,230.1723 C393.3706,230.5363 392.0366,230.3723 390.8816,229.8603 C389.7266,229.3483 388.7386,228.5043 387.9266,227.5363 C387.5196,227.0523 387.1796,226.5163 386.8386,225.9843 C386.2716,225.1013 385.7556,224.1123 385.8136,223.0653 C385.8726,222.0183 386.7256,220.9523 387.7706,221.0263 C388.4986,221.0783 389.1116,221.6693 389.3456,222.3603 C389.5786,223.0513 389.4826,223.8163 389.2486,224.5053 C388.5596,226.5313 386.6096,228.0673 384.4786,228.2613 C382.3476,228.4543 380.1526,227.2973 379.1086,225.4293" id="Stroke-168" stroke="#3723FF" stroke-width="2" stroke-linecap="round" stroke-linejoin="round" mask="url(#mask-2)"></path>
                <path d="M502.9263,234.06 C502.9263,235.16 502.0263,236.06 500.9263,236.06 L401.9263,236.06 C400.8263,236.06 399.9263,235.16 399.9263,234.06 L399.9263,194.896 C399.9263,193.795 400.8263,192.896 401.9263,192.896 L493.0743,192.896 C494.1743,192.896 495.3623,193.748 495.7133,194.79 L502.2873,214.295 C502.6393,215.337 502.9263,217.09 502.9263,218.191 L502.9263,234.06 Z" id="Fill-169" fill="#FFFCF5" mask="url(#mask-2)"></path>
                <path d="M502.9263,234.06 C502.9263,235.16 502.0263,236.06 500.9263,236.06 L401.9263,236.06 C400.8263,236.06 399.9263,235.16 399.9263,234.06 L399.9263,194.896 C399.9263,193.795 400.8263,192.896 401.9263,192.896 L493.0743,192.896 C494.1743,192.896 495.3623,193.748 495.7133,194.79 L502.2873,214.295 C502.6393,215.337 502.9263,217.09 502.9263,218.191 L502.9263,234.06 Z" id="Stroke-170" stroke="#3723FF" stroke-width="2" stroke-linecap="round" stroke-linejoin="round" mask="url(#mask-2)"></path>
                <polygon id="Stroke-171" stroke="#3723FF" stroke-width="2" stroke-linecap="round" stroke-linejoin="round" mask="url(#mask-2)" points="406.193 213.958 425.849 213.958 425.849 198.45 406.193 198.45"></polygon>
                <polygon id="Stroke-172" stroke="#3723FF" stroke-width="2" stroke-linecap="round" stroke-linejoin="round" mask="url(#mask-2)" points="432.641 213.958 452.284 213.958 452.284 198.45 432.641 198.45"></polygon>
                <polygon id="Stroke-173" stroke="#3723FF" stroke-width="2" stroke-linecap="round" stroke-linejoin="round" mask="url(#mask-2)" points="459.062 213.958 478.718 213.958 478.718 198.45 459.062 198.45"></polygon>
                <polyline id="Stroke-174" stroke="#3723FF" stroke-width="2" stroke-linecap="round" stroke-linejoin="round" mask="url(#mask-2)" points="501.5552 213.9584 485.5692 213.9584 485.5692 198.4504 495.7692 198.4504"></polyline>
                <polygon id="Stroke-175" stroke="#3723FF" stroke-width="2" stroke-linecap="round" stroke-linejoin="round" mask="url(#mask-2)" points="496.074 226.456 502.926 226.456 502.926 220.072 496.074 220.072"></polygon>
                <path d="M491.9849,237.8295 C491.3469,242.4915 487.0509,245.7535 482.3899,245.1165 C477.7279,244.4785 474.4649,240.1835 475.1029,235.5205 C475.7409,230.8595 480.0369,227.5975 484.6979,228.2345 C489.3599,228.8725 492.6219,233.1675 491.9849,237.8295" id="Fill-176" fill="#3723FF" mask="url(#mask-2)"></path>
                <path d="M491.9849,237.8295 C491.3469,242.4915 487.0509,245.7535 482.3899,245.1165 C477.7279,244.4785 474.4649,240.1835 475.1029,235.5205 C475.7409,230.8595 480.0369,227.5975 484.6979,228.2345 C489.3599,228.8725 492.6219,233.1675 491.9849,237.8295 Z" id="Stroke-177" stroke="#3723FF" stroke-width="2" stroke-linecap="round" stroke-linejoin="round" mask="url(#mask-2)"></path>
                <path d="M429.1685,236.6752 C429.1685,241.3802 425.3545,245.1952 420.6485,245.1952 C415.9435,245.1952 412.1295,241.3802 412.1295,236.6752 C412.1295,231.9702 415.9435,228.1552 420.6485,228.1552 C425.3545,228.1552 429.1685,231.9702 429.1685,236.6752" id="Fill-178" fill="#3723FF" mask="url(#mask-2)"></path>
                <path d="M429.1685,236.6752 C429.1685,241.3802 425.3545,245.1952 420.6485,245.1952 C415.9435,245.1952 412.1295,241.3802 412.1295,236.6752 C412.1295,231.9702 415.9435,228.1552 420.6485,228.1552 C425.3545,228.1552 429.1685,231.9702 429.1685,236.6752 Z" id="Stroke-179" stroke="#3723FF" stroke-width="2" stroke-linecap="round" stroke-linejoin="round" mask="url(#mask-2)"></path>
                <path d="M420.6489,232.5922 C418.3969,232.5922 416.5659,234.4242 416.5659,236.6752 C416.5659,238.9272 418.3969,240.7592 420.6489,240.7592 C422.9009,240.7592 424.7329,238.9272 424.7329,236.6752 C424.7329,234.4242 422.9009,232.5922 420.6489,232.5922" id="Fill-180" fill="#E2F8FF" mask="url(#mask-2)"></path>
                <path d="M483.5444,232.5922 C481.2914,232.5922 479.4604,234.4242 479.4604,236.6752 C479.4604,238.9272 481.2914,240.7592 483.5444,240.7592 C485.7954,240.7592 487.6274,238.9272 487.6274,236.6752 C487.6274,234.4242 485.7954,232.5922 483.5444,232.5922" id="Fill-181" fill="#E2F8FF" mask="url(#mask-2)"></path>
                <path d="M96.8452,387.5199 L96.8452,363.5499" id="Stroke-182" stroke="#3723FF" stroke-width="2" stroke-linecap="round" stroke-linejoin="round" mask="url(#mask-2)"></path>
                <polyline id="Stroke-183" stroke="#3723FF" stroke-width="2" stroke-linecap="round" stroke-linejoin="round" mask="url(#mask-2)" points="103.1938 370.099 96.6648 373.515 90.1348 370.099"></polyline>
                <polyline id="Stroke-184" stroke="#3723FF" stroke-width="2" stroke-linecap="round" stroke-linejoin="round" mask="url(#mask-2)" points="101.8218 364.8383 96.6648 367.5363 91.5078 364.8383"></polyline>
                <path d="M115.8774,387.5199 L115.8774,363.5499" id="Stroke-185" stroke="#3723FF" stroke-width="2" stroke-linecap="round" stroke-linejoin="round" mask="url(#mask-2)"></path>
                <polyline id="Stroke-186" stroke="#3723FF" stroke-width="2" stroke-linecap="round" stroke-linejoin="round" mask="url(#mask-2)" points="122.2261 370.099 115.6971 373.515 109.1671 370.099"></polyline>
                <polyline id="Stroke-187" stroke="#3723FF" stroke-width="2" stroke-linecap="round" stroke-linejoin="round" mask="url(#mask-2)" points="120.854 364.8383 115.697 367.5363 110.54 364.8383"></polyline>
                <path d="M134.9097,387.5199 L134.9097,363.5499" id="Stroke-188" stroke="#3723FF" stroke-width="2" stroke-linecap="round" stroke-linejoin="round" mask="url(#mask-2)"></path>
                <polyline id="Stroke-189" stroke="#3723FF" stroke-width="2" stroke-linecap="round" stroke-linejoin="round" mask="url(#mask-2)" points="141.2583 370.099 134.7293 373.515 128.1993 370.099"></polyline>
                <polyline id="Stroke-190" stroke="#3723FF" stroke-width="2" stroke-linecap="round" stroke-linejoin="round" mask="url(#mask-2)" points="139.8862 364.8383 134.7292 367.5363 129.5722 364.8383"></polyline>
                <path d="M153.9419,387.5199 L153.9419,363.5499" id="Stroke-191" stroke="#3723FF" stroke-width="2" stroke-linecap="round" stroke-linejoin="round" mask="url(#mask-2)"></path>
                <polyline id="Stroke-192" stroke="#3723FF" stroke-width="2" stroke-linecap="round" stroke-linejoin="round" mask="url(#mask-2)" points="160.2905 370.099 153.7615 373.515 147.2315 370.099"></polyline>
                <polyline id="Stroke-193" stroke="#3723FF" stroke-width="2" stroke-linecap="round" stroke-linejoin="round" mask="url(#mask-2)" points="158.9185 364.8383 153.7615 367.5363 148.6045 364.8383"></polyline>
                <path d="M172.9741,387.5199 L172.9741,363.5499" id="Stroke-194" stroke="#3723FF" stroke-width="2" stroke-linecap="round" stroke-linejoin="round" mask="url(#mask-2)"></path>
                <polyline id="Stroke-195" stroke="#3723FF" stroke-width="2" stroke-linecap="round" stroke-linejoin="round" mask="url(#mask-2)" points="179.3228 370.099 172.7938 373.515 166.2638 370.099"></polyline>
                <polyline id="Stroke-196" stroke="#3723FF" stroke-width="2" stroke-linecap="round" stroke-linejoin="round" mask="url(#mask-2)" points="177.9507 364.8383 172.7937 367.5363 167.6367 364.8383"></polyline>
                <path d="M192.0063,387.5199 L192.0063,363.5499" id="Stroke-197" stroke="#3723FF" stroke-width="2" stroke-linecap="round" stroke-linejoin="round" mask="url(#mask-2)"></path>
                <polyline id="Stroke-198" stroke="#3723FF" stroke-width="2" stroke-linecap="round" stroke-linejoin="round" mask="url(#mask-2)" points="198.355 370.099 191.826 373.515 185.296 370.099"></polyline>
                <polyline id="Stroke-199" stroke="#3723FF" stroke-width="2" stroke-linecap="round" stroke-linejoin="round" mask="url(#mask-2)" points="196.9829 364.8383 191.8259 367.5363 186.6689 364.8383"></polyline>
                <polyline id="Stroke-201" stroke="#3723FF" stroke-width="2" stroke-linecap="round" stroke-linejoin="round" mask="url(#mask-2)" points="46.0972 370.099 39.5682 373.515 33.0382 370.099"></polyline>
                <path d="M58.7808,387.5199 L58.7808,363.5499" id="Stroke-203" stroke="#3723FF" stroke-width="2" stroke-linecap="round" stroke-linejoin="round" mask="url(#mask-2)"></path>
                <polyline id="Stroke-204" stroke="#3723FF" stroke-width="2" stroke-linecap="round" stroke-linejoin="round" mask="url(#mask-2)" points="65.1294 370.099 58.6004 373.515 52.0704 370.099"></polyline>
                <polyline id="Stroke-205" stroke="#3723FF" stroke-width="2" stroke-linecap="round" stroke-linejoin="round" mask="url(#mask-2)" points="63.7573 364.8383 58.6003 367.5363 53.4433 364.8383"></polyline>
                <path d="M77.813,387.5199 L77.813,363.5499" id="Stroke-206" stroke="#3723FF" stroke-width="2" stroke-linecap="round" stroke-linejoin="round" mask="url(#mask-2)"></path>
                <polyline id="Stroke-207" stroke="#3723FF" stroke-width="2" stroke-linecap="round" stroke-linejoin="round" mask="url(#mask-2)" points="84.1616 370.099 77.6326 373.515 71.1026 370.099"></polyline>
                <polyline id="Stroke-208" stroke="#3723FF" stroke-width="2" stroke-linecap="round" stroke-linejoin="round" mask="url(#mask-2)" points="82.7896 364.8383 77.6326 367.5363 72.4756 364.8383"></polyline>
                <path d="M211.0386,387.5199 L211.0386,363.5499" id="Stroke-209" stroke="#3723FF" stroke-width="2" stroke-linecap="round" stroke-linejoin="round" mask="url(#mask-2)"></path>
                <polyline id="Stroke-210" stroke="#3723FF" stroke-width="2" stroke-linecap="round" stroke-linejoin="round" mask="url(#mask-2)" points="217.3872 370.099 210.8582 373.515 204.3282 370.099"></polyline>
                <polyline id="Stroke-211" stroke="#3723FF" stroke-width="2" stroke-linecap="round" stroke-linejoin="round" mask="url(#mask-2)" points="216.0151 364.8383 210.8581 367.5363 205.7011 364.8383"></polyline>
                <path d="M230.0708,387.5199 L230.0708,363.5499" id="Stroke-212" stroke="#3723FF" stroke-width="2" stroke-linecap="round" stroke-linejoin="round" mask="url(#mask-2)"></path>
                <polyline id="Stroke-213" stroke="#3723FF" stroke-width="2" stroke-linecap="round" stroke-linejoin="round" mask="url(#mask-2)" points="236.4194 370.099 229.8904 373.515 223.3604 370.099"></polyline>
                <polyline id="Stroke-214" stroke="#3723FF" stroke-width="2" stroke-linecap="round" stroke-linejoin="round" mask="url(#mask-2)" points="235.0474 364.8383 229.8904 367.5363 224.7334 364.8383"></polyline>
                <path d="M249.103,387.5199 L249.103,363.5499" id="Stroke-215" stroke="#3723FF" stroke-width="2" stroke-linecap="round" stroke-linejoin="round" mask="url(#mask-2)"></path>
                <polyline id="Stroke-216" stroke="#3723FF" stroke-width="2" stroke-linecap="round" stroke-linejoin="round" mask="url(#mask-2)" points="255.4517 370.099 248.9227 373.515 242.3927 370.099"></polyline>
                <polyline id="Stroke-217" stroke="#3723FF" stroke-width="2" stroke-linecap="round" stroke-linejoin="round" mask="url(#mask-2)" points="254.0796 364.8383 248.9226 367.5363 243.7656 364.8383"></polyline>
                <path d="M268.1353,387.5199 L268.1353,363.5499" id="Stroke-218" stroke="#3723FF" stroke-width="2" stroke-linecap="round" stroke-linejoin="round" mask="url(#mask-2)"></path>
                <polyline id="Stroke-219" stroke="#3723FF" stroke-width="2" stroke-linecap="round" stroke-linejoin="round" mask="url(#mask-2)" points="274.4839 370.099 267.9549 373.515 261.4249 370.099"></polyline>
                <polyline id="Stroke-220" stroke="#3723FF" stroke-width="2" stroke-linecap="round" stroke-linejoin="round" mask="url(#mask-2)" points="273.1118 364.8383 267.9548 367.5363 262.7978 364.8383"></polyline>
                <path d="M287.1675,387.5199 L287.1675,363.5499" id="Stroke-221" stroke="#3723FF" stroke-width="2" stroke-linecap="round" stroke-linejoin="round" mask="url(#mask-2)"></path>
                <polyline id="Stroke-222" stroke="#3723FF" stroke-width="2" stroke-linecap="round" stroke-linejoin="round" mask="url(#mask-2)" points="293.5161 370.099 286.9871 373.515 280.4571 370.099"></polyline>
                <polyline id="Stroke-223" stroke="#3723FF" stroke-width="2" stroke-linecap="round" stroke-linejoin="round" mask="url(#mask-2)" points="292.144 364.8383 286.987 367.5363 281.83 364.8383"></polyline>
                <path d="M306.1997,387.5199 L306.1997,363.5499" id="Stroke-224" stroke="#3723FF" stroke-width="2" stroke-linecap="round" stroke-linejoin="round" mask="url(#mask-2)"></path>
                <polyline id="Stroke-225" stroke="#3723FF" stroke-width="2" stroke-linecap="round" stroke-linejoin="round" mask="url(#mask-2)" points="312.5483 370.099 306.0193 373.515 299.4893 370.099"></polyline>
                <polyline id="Stroke-226" stroke="#3723FF" stroke-width="2" stroke-linecap="round" stroke-linejoin="round" mask="url(#mask-2)" points="311.1763 364.8383 306.0193 367.5363 300.8623 364.8383"></polyline>
                <path d="M325.2319,387.5199 L325.2319,363.5499" id="Stroke-227" stroke="#3723FF" stroke-width="2" stroke-linecap="round" stroke-linejoin="round" mask="url(#mask-2)"></path>
                <polyline id="Stroke-228" stroke="#3723FF" stroke-width="2" stroke-linecap="round" stroke-linejoin="round" mask="url(#mask-2)" points="331.5806 370.099 325.0516 373.515 318.5216 370.099"></polyline>
                <polyline id="Stroke-229" stroke="#3723FF" stroke-width="2" stroke-linecap="round" stroke-linejoin="round" mask="url(#mask-2)" points="330.2085 364.8383 325.0515 367.5363 319.8945 364.8383"></polyline>
                <path d="M344.2642,387.5199 L344.2642,363.5499" id="Stroke-230" stroke="#3723FF" stroke-width="2" stroke-linecap="round" stroke-linejoin="round" mask="url(#mask-2)"></path>
                <polyline id="Stroke-231" stroke="#3723FF" stroke-width="2" stroke-linecap="round" stroke-linejoin="round" mask="url(#mask-2)" points="350.6128 370.099 344.0838 373.515 337.5538 370.099"></polyline>
                <polyline id="Stroke-232" stroke="#3723FF" stroke-width="2" stroke-linecap="round" stroke-linejoin="round" mask="url(#mask-2)" points="349.2407 364.8383 344.0837 367.5363 338.9267 364.8383"></polyline>
                <path d="M363.2964,387.5199 L363.2964,363.5499" id="Stroke-233" stroke="#3723FF" stroke-width="2" stroke-linecap="round" stroke-linejoin="round" mask="url(#mask-2)"></path>
                <polyline id="Stroke-234" stroke="#3723FF" stroke-width="2" stroke-linecap="round" stroke-linejoin="round" mask="url(#mask-2)" points="369.645 370.099 363.116 373.515 356.586 370.099"></polyline>
                <polyline id="Stroke-235" stroke="#3723FF" stroke-width="2" stroke-linecap="round" stroke-linejoin="round" mask="url(#mask-2)" points="368.2729 364.8383 363.1159 367.5363 357.9589 364.8383"></polyline>
                <path d="M382.3286,387.5199 L382.3286,363.5499" id="Stroke-236" stroke="#3723FF" stroke-width="2" stroke-linecap="round" stroke-linejoin="round" mask="url(#mask-2)"></path>
                <polyline id="Stroke-237" stroke="#3723FF" stroke-width="2" stroke-linecap="round" stroke-linejoin="round" mask="url(#mask-2)" points="388.6772 370.099 382.1482 373.515 375.6182 370.099"></polyline>
                <polyline id="Stroke-238" stroke="#3723FF" stroke-width="2" stroke-linecap="round" stroke-linejoin="round" mask="url(#mask-2)" points="387.3052 364.8383 382.1482 367.5363 376.9912 364.8383"></polyline>
                <path d="M401.3608,387.5199 L401.3608,363.5499" id="Stroke-239" stroke="#3723FF" stroke-width="2" stroke-linecap="round" stroke-linejoin="round" mask="url(#mask-2)"></path>
                <polyline id="Stroke-240" stroke="#3723FF" stroke-width="2" stroke-linecap="round" stroke-linejoin="round" mask="url(#mask-2)" points="407.7095 370.099 401.1805 373.515 394.6505 370.099"></polyline>
                <polyline id="Stroke-241" stroke="#3723FF" stroke-width="2" stroke-linecap="round" stroke-linejoin="round" mask="url(#mask-2)" points="406.3374 364.8383 401.1804 367.5363 396.0234 364.8383"></polyline>
                <path d="M420.3931,387.5199 L420.3931,363.5499" id="Stroke-242" stroke="#3723FF" stroke-width="2" stroke-linecap="round" stroke-linejoin="round" mask="url(#mask-2)"></path>
                <polyline id="Stroke-243" stroke="#3723FF" stroke-width="2" stroke-linecap="round" stroke-linejoin="round" mask="url(#mask-2)" points="426.7417 370.099 420.2127 373.515 413.6827 370.099"></polyline>
                <polyline id="Stroke-244" stroke="#3723FF" stroke-width="2" stroke-linecap="round" stroke-linejoin="round" mask="url(#mask-2)" points="425.3696 364.8383 420.2126 367.5363 415.0556 364.8383"></polyline>
                <path d="M439.4253,387.5199 L439.4253,363.5499" id="Stroke-245" stroke="#3723FF" stroke-width="2" stroke-linecap="round" stroke-linejoin="round" mask="url(#mask-2)"></path>
                <polyline id="Stroke-246" stroke="#3723FF" stroke-width="2" stroke-linecap="round" stroke-linejoin="round" mask="url(#mask-2)" points="445.7739 370.099 439.2449 373.515 432.7149 370.099"></polyline>
                <polyline id="Stroke-247" stroke="#3723FF" stroke-width="2" stroke-linecap="round" stroke-linejoin="round" mask="url(#mask-2)" points="444.4019 364.8383 439.2449 367.5363 434.0879 364.8383"></polyline>
                <path d="M458.4575,387.5199 L458.4575,363.5499" id="Stroke-248" stroke="#3723FF" stroke-width="2" stroke-linecap="round" stroke-linejoin="round" mask="url(#mask-2)"></path>
                <polyline id="Stroke-249" stroke="#3723FF" stroke-width="2" stroke-linecap="round" stroke-linejoin="round" mask="url(#mask-2)" points="464.8062 370.099 458.2772 373.515 451.7472 370.099"></polyline>
                <polyline id="Stroke-250" stroke="#3723FF" stroke-width="2" stroke-linecap="round" stroke-linejoin="round" mask="url(#mask-2)" points="463.4341 364.8383 458.2771 367.5363 453.1201 364.8383"></polyline>
                <path d="M26.2563,387.5199 L471.5893,387.5199" id="Stroke-251" stroke="#3723FF" stroke-width="2" stroke-linecap="round" stroke-linejoin="round" mask="url(#mask-2)"></path>
                <path d="M42.9263,346.766 L530.9263,346.766" id="Stroke-252" stroke="#3723FF" stroke-width="2" stroke-linecap="round" stroke-linejoin="round" mask="url(#mask-2)"></path>
                <path d="M163.5962,247.224 C162.6302,240.898 156.7182,236.553 150.3932,237.519 C148.3752,237.828 146.5622,238.643 145.0552,239.811 C139.8812,236.996 133.7942,235.762 127.5242,236.72 C117.5252,238.246 109.6082,244.911 105.9772,253.61 C98.7072,255.665 93.9322,262.851 95.1022,270.511 C96.3112,278.428 103.4262,283.963 111.2832,283.356 C117.3672,289.888 126.4682,293.401 135.9582,291.952 C151.2102,289.622 161.6862,275.37 159.3572,260.119 C159.2632,259.504 159.1182,258.912 158.9882,258.315 C162.3542,255.844 164.2702,251.638 163.5962,247.224" id="Fill-253" fill="#8CE06E" mask="url(#mask-2)"></path>
                <path d="M163.5962,247.224 C162.6302,240.898 156.7182,236.553 150.3932,237.519 C148.3752,237.828 146.5622,238.643 145.0552,239.811 C139.8812,236.996 133.7942,235.762 127.5242,236.72 C117.5252,238.246 109.6082,244.911 105.9772,253.61 C98.7072,255.665 93.9322,262.851 95.1022,270.511 C96.3112,278.428 103.4262,283.963 111.2832,283.356 C117.3672,289.888 126.4682,293.401 135.9582,291.952 C151.2102,289.622 161.6862,275.37 159.3572,260.119 C159.2632,259.504 159.1182,258.912 158.9882,258.315 C162.3542,255.844 164.2702,251.638 163.5962,247.224 Z" id="Stroke-254" stroke="#3723FF" stroke-width="2" stroke-linecap="round" stroke-linejoin="round" mask="url(#mask-2)"></path>
                <path d="M131.7583,333.9027 L131.7583,256.9107" id="Stroke-255" stroke="#3723FF" stroke-width="2" stroke-linecap="round" stroke-linejoin="round" mask="url(#mask-2)"></path>
                <path d="M131.314,276.1537 L119.634,264.1407" id="Stroke-256" stroke="#3723FF" stroke-width="2" stroke-linecap="round" stroke-linejoin="round" mask="url(#mask-2)"></path>
                <path d="M119.6802,333.6869 C120.5002,333.6869 121.3032,333.7609 122.0952,333.8689 C126.1602,326.1009 134.2842,320.7929 143.6602,320.7929 C157.1042,320.7929 168.0022,331.6909 168.0022,345.1349 C168.0022,345.5449 167.9612,345.9459 167.9412,346.3519 L102.5662,346.3519 C104.8032,339.0209 111.6172,333.6869 119.6802,333.6869" id="Fill-257" fill="#8CE06E" mask="url(#mask-2)"></path>
                <path d="M119.6802,333.6869 C120.5002,333.6869 121.3032,333.7609 122.0952,333.8689 C126.1602,326.1009 134.2842,320.7929 143.6602,320.7929 C157.1042,320.7929 168.0022,331.6909 168.0022,345.1349 C168.0022,345.5449 167.9612,345.9459 167.9412,346.3519 L102.5662,346.3519 C104.8032,339.0209 111.6172,333.6869 119.6802,333.6869 Z" id="Stroke-258" stroke="#3723FF" stroke-width="2" stroke-linecap="round" stroke-linejoin="round" mask="url(#mask-2)"></path>
                <path d="M68.9116,337.6889 C68.3496,337.6889 67.8016,337.7399 67.2596,337.8129 C64.4776,332.5009 58.9216,328.8699 52.5096,328.8699 C43.3136,328.8699 35.8596,336.3239 35.8596,345.5189 C35.8596,345.7999 35.8886,346.0749 35.9016,346.3519 L80.6176,346.3519 C79.0876,341.3369 74.4266,337.6889 68.9116,337.6889" id="Fill-259" fill="#8CE06E" mask="url(#mask-2)"></path>
                <path d="M68.9116,337.6889 C68.3496,337.6889 67.8016,337.7399 67.2596,337.8129 C64.4776,332.5009 58.9216,328.8699 52.5096,328.8699 C43.3136,328.8699 35.8596,336.3239 35.8596,345.5189 C35.8596,345.7999 35.8886,346.0749 35.9016,346.3519 L80.6176,346.3519 C79.0876,341.3369 74.4266,337.6889 68.9116,337.6889 Z" id="Stroke-260" stroke="#3723FF" stroke-width="2" stroke-linecap="round" stroke-linejoin="round" mask="url(#mask-2)"></path>
                <polygon id="Fill-261" fill="#E2F8FF" mask="url(#mask-2)" points="316.284 346.352 370.059 346.352 370.059 184.879 316.284 184.879"></polygon>
                <polygon id="Stroke-262" stroke="#3723FF" stroke-width="2" stroke-linecap="round" stroke-linejoin="round" mask="url(#mask-2)" points="316.284 346.352 370.059 346.352 370.059 184.879 316.284 184.879"></polygon>
                <path d="M370.0591,177.2289 C370.0591,144.3059 316.2841,144.3059 316.2841,177.2289 L316.2841,185.6649 L370.0591,185.6649 L370.0591,177.2289 Z" id="Fill-263" fill="#E2F8FF" mask="url(#mask-2)"></path>
                <path d="M370.0591,177.2289 C370.0591,144.3059 316.2841,144.3059 316.2841,177.2289 L316.2841,185.6649 L370.0591,185.6649 L370.0591,177.2289 Z" id="Stroke-264" stroke="#3723FF" stroke-width="2" stroke-linecap="round" stroke-linejoin="round" mask="url(#mask-2)"></path>
                <path d="M370.0591,177.2289 C370.0591,144.3059 316.2841,144.3059 316.2841,177.2289 L316.2841,185.6649 L370.0591,185.6649 L370.0591,177.2289 Z" id="Fill-265" fill="#FFFCF5" mask="url(#mask-2)"></path>
                <path d="M370.0591,177.2289 C370.0591,144.3059 316.2841,144.3059 316.2841,177.2289 L316.2841,185.6649 L370.0591,185.6649 L370.0591,177.2289 Z" id="Stroke-266" stroke="#3723FF" stroke-width="2" stroke-linecap="round" stroke-linejoin="round" mask="url(#mask-2)"></path>
                <path d="M354.3159,185.018 L354.3159,175.751 C354.3159,164.674 350.3159,156.99 344.7659,152.699" id="Stroke-267" stroke="#3723FF" stroke-width="2" stroke-linecap="round" stroke-linejoin="round" mask="url(#mask-2)"></path>
                <path d="M330.8687,185.018 L330.8687,175.751" id="Stroke-268" stroke="#3723FF" stroke-width="2" stroke-linecap="round" stroke-linejoin="round" mask="url(#mask-2)"></path>
                <path d="M330.8687,185.018 L330.8687,175.751 C330.8687,164.611 334.9147,156.903 340.5137,152.625" id="Stroke-269" stroke="#3723FF" stroke-width="2" stroke-linecap="round" stroke-linejoin="round" mask="url(#mask-2)"></path>
                <path d="M369.6694,198.5238 L317.4524,198.5238" id="Stroke-270" stroke="#3723FF" stroke-width="2" stroke-linecap="round" stroke-linejoin="round" mask="url(#mask-2)"></path>
                <polygon id="Fill-271" fill="#E2F8FF" mask="url(#mask-2)" points="178.104 218.8149 148.966 253.5219 148.966 346.3519 173.793 346.3519 208.372 346.3519 208.372 253.5219"></polygon>
                <polygon id="Stroke-272" stroke="#3723FF" stroke-width="2" stroke-linecap="round" stroke-linejoin="round" mask="url(#mask-2)" points="178.104 218.8149 148.966 253.5219 148.966 346.3519 173.793 346.3519 208.372 346.3519 208.372 253.5219"></polygon>
                <polygon id="Fill-273" fill="#FFFCF5" mask="url(#mask-2)" points="198.5034 218.5365 219.1104 218.5365 239.7184 218.5365 241.1464 218.5365 261.7534 218.5365 282.3604 218.5365 302.9674 218.5365 332.6704 253.5215 332.6704 346.3515 312.0634 346.3515 291.4554 346.3515 270.8494 346.3515 269.4204 346.3515 248.8134 346.3515 228.2064 346.3515 207.5994 346.3515 207.5994 253.5215 177.8974 218.5365"></polygon>
                <polygon id="Stroke-274" stroke="#3723FF" stroke-width="2" stroke-linecap="round" stroke-linejoin="round" mask="url(#mask-2)" points="198.5034 218.5365 219.1104 218.5365 239.7184 218.5365 241.1464 218.5365 261.7534 218.5365 282.3604 218.5365 302.9674 218.5365 332.6704 253.5215 332.6704 346.3515 312.0634 346.3515 291.4554 346.3515 270.8494 346.3515 269.4204 346.3515 248.8134 346.3515 228.2064 346.3515 207.5994 346.3515 207.5994 253.5215 177.8974 218.5365"></polygon>
                <polygon id="Fill-275" fill="#3723FF" mask="url(#mask-2)" points="241.146 218.5365 241.518 218.9735 266.905 218.5365 267.404 219.1245 301.496 218.5365 331.199 253.5215 296.608 253.5215 270.849 253.5215 269.482 253.5215 234.892 253.5215 209.132 253.5215 179.067 219.6065"></polygon>
                <polygon id="Stroke-276" stroke="#3723FF" stroke-width="2" stroke-linecap="round" stroke-linejoin="round" mask="url(#mask-2)" points="241.146 218.5365 241.518 218.9735 266.905 218.5365 267.404 219.1245 301.496 218.5365 331.199 253.5215 296.608 253.5215 270.849 253.5215 269.482 253.5215 234.892 253.5215 209.132 253.5215 179.067 219.6065"></polygon>
                <polyline id="Stroke-277" stroke="#3723FF" stroke-width="2" stroke-linecap="round" stroke-linejoin="round" mask="url(#mask-2)" points="230.3813 346.016 230.3813 289.807 289.6113 289.807 289.6113 346.016"></polyline>
                <path d="M287.8618,290.5482 L232.2638,345.7702" id="Stroke-278" stroke="#3723FF" stroke-width="2" stroke-linecap="round" stroke-linejoin="round" mask="url(#mask-2)"></path>
                <path d="M232.2642,290.5482 L287.8622,345.7702" id="Stroke-279" stroke="#3723FF" stroke-width="2" stroke-linecap="round" stroke-linejoin="round" mask="url(#mask-2)"></path>
                <polygon id="Fill-280" fill="#FFFCF5" mask="url(#mask-2)" points="164.421 312.128 188.525 312.128 188.525 270.869 164.421 270.869"></polygon>
                <polygon id="Stroke-281" stroke="#3723FF" stroke-width="2" stroke-linecap="round" stroke-linejoin="round" mask="url(#mask-2)" points="164.421 312.128 188.525 312.128 188.525 270.869 164.421 270.869"></polygon>
                <path d="M385.9019,334.7455 L385.2889,335.1025 C385.2709,334.7785 385.2619,334.4495 385.2619,334.1225 C385.2619,332.4155 385.5029,330.8525 385.9049,329.9245 C386.3099,330.8495 386.5499,332.4135 386.5499,334.1225 C386.5499,334.4515 386.5409,334.7815 386.5219,335.1055 L385.9019,334.7455 Z M386.7559,335.2405 L386.7559,335.2395 L386.7559,335.2405 Z M395.9059,344.9805 L395.9059,330.8285 L395.3979,326.6865 L394.4199,326.3335 C392.9339,325.7955 391.8219,324.2775 391.3679,322.1705 L389.4119,313.0935 C389.3809,312.9545 389.3559,312.8145 389.3379,312.6675 L389.0489,310.5455 L389.3449,310.4725 L389.6549,309.6215 C389.9359,308.8515 390.3569,308.1195 390.9079,307.4405 C392.7569,305.1605 395.8959,303.6875 398.9029,303.6875 L420.1119,303.6875 C420.2839,303.6875 421.5169,303.7115 421.5169,303.7115 C422.1259,303.7245 422.8019,303.7385 423.4909,303.7385 C424.3659,303.7385 425.1009,303.7155 425.7359,303.6675 C426.6929,303.5985 427.4359,303.4775 428.0139,303.2995 L430.0319,302.6695 L428.9799,300.8375 C428.9069,300.7085 428.8349,300.5745 428.7619,300.4335 L427.4599,297.9115 C426.3829,295.8195 426.5629,293.9895 427.0169,293.7285 C427.0479,293.7125 427.0939,293.6915 427.1469,293.6915 C427.2859,293.6915 427.5299,293.8415 427.8009,294.2665 C428.6199,295.5295 431.5009,297.3835 433.8469,298.1565 L434.3839,298.3335 L434.9199,298.1515 C435.2019,298.0575 435.4739,297.9615 435.7329,297.8665 C436.4669,297.5945 437.3139,297.3725 438.0659,297.1765 C440.5939,296.5165 443.2089,295.8325 444.8169,293.3415 C445.0869,292.9205 445.3329,292.7705 445.4719,292.7705 C445.5259,292.7705 445.5749,292.7915 445.6019,292.8075 C446.0679,293.0735 446.2509,294.8645 445.1579,296.9895 L443.8609,299.5055 L449.2359,303.7455 C450.9919,305.1305 451.2709,305.7015 451.2289,307.8195 C451.1919,309.6835 449.7359,310.9355 447.6069,310.9355 C446.8669,310.9355 446.1199,310.7575 445.3109,310.5625 C444.7969,310.4425 444.3449,310.3385 443.9229,310.2725 C443.5669,310.2205 443.2509,310.1945 442.9669,310.1945 C442.6509,310.1945 442.3629,310.2255 442.0819,310.2895 C438.7919,311.0595 436.9359,312.8735 436.4059,315.8425 L436.3779,316.0035 C436.2939,316.5265 436.2519,317.1035 436.2519,317.7225 L436.2519,321.9865 C436.2519,323.4155 435.5609,324.7835 434.4009,325.6485 L433.7279,326.1545 L433.6899,332.6465 C433.6869,333.3575 433.3359,334.0165 432.7539,334.4075 L431.8929,334.9845 L433.0609,344.9805 L421.8899,344.9805 L421.8899,330.8295 L421.3709,326.5595 L416.2419,326.5595 L415.8879,327.7875 C415.3939,329.5055 414.4119,331.0335 413.0469,332.2055 C412.3289,332.8215 411.5259,333.3205 410.6669,333.6875 L409.5009,334.1805 L410.6979,344.9805 L406.2869,344.9805 L405.8739,341.4505 L405.1189,334.2985 L404.0889,333.9475 C403.8849,333.8785 403.6809,333.8035 403.4799,333.7185 L402.4519,333.2955 L401.6509,334.0705 C401.5029,334.2155 401.3349,334.3415 401.1519,334.4495 L400.3159,334.9435 L400.3349,341.5165 L401.2729,344.9805 L395.9059,344.9805 Z" id="Fill-282" fill="#FFC8D7" mask="url(#mask-2)"></path>
                <path d="M390.1714,311.9154 C390.1594,311.5224 390.1944,311.1114 390.2734,310.7284 L390.3034,310.5824 C390.5114,309.6814 390.9514,308.8114 391.6104,307.9984 C393.2964,305.9214 396.1574,304.5784 398.9014,304.5784 L420.1104,304.5784 C420.4284,304.5784 420.8104,304.5854 421.2484,304.5954 L421.4274,304.6004 C422.9304,304.6304 424.7984,304.6734 426.4174,304.5034 C427.3854,304.3994 429.9534,304.1264 430.2734,302.2954 C430.5574,300.6654 432.2854,299.9714 434.6944,299.1684 L434.8324,299.1224 C435.2564,298.9794 435.6584,298.8484 436.0524,298.7004 C436.7374,298.4444 437.5164,298.2414 438.3434,298.0254 C440.1204,297.5614 442.1354,297.0344 443.7714,295.7804 L444.4704,296.3494 L443.1214,298.9724 C442.8904,299.4224 443.0124,299.9774 443.4084,300.2904 L448.7344,304.4904 L448.1774,304.8384 C446.2934,306.0194 444.7234,307.4584 443.5114,309.1154 L443.3674,309.3114 L443.1254,309.3054 C442.6584,309.2934 442.2604,309.3314 441.8704,309.4234 C439.0834,310.0754 437.1774,311.4554 436.1524,313.6104 C436.0274,313.7884 435.7344,314.7924 435.4264,316.3304 C435.3744,316.7714 435.3494,317.2414 435.3494,317.7234 L435.3494,321.9864 C435.3494,324.0174 433.6924,325.6674 431.6534,325.6674 L429.2654,325.6674 C428.7274,325.6674 428.2704,326.0684 428.2044,326.6024 L427.4784,332.5194 C427.4034,333.1414 426.8684,333.7174 426.2344,333.8604 C425.7454,333.9704 425.4024,334.3964 425.4024,334.8964 L425.4024,340.3694 L422.7914,340.3694 L422.7914,330.8284 C422.7914,330.7844 422.7884,330.7414 422.7834,330.6994 L422.2814,326.6024 C422.2154,326.0684 421.7594,325.6674 421.2214,325.6674 L403.2794,325.6674 C402.7404,325.6674 402.2844,326.0684 402.2194,326.6024 L401.4934,332.5194 C401.4164,333.1414 400.8814,333.7184 400.2484,333.8604 C399.7594,333.9704 399.4164,334.3964 399.4164,334.8964 L399.4164,340.3694 L396.8054,340.3694 L396.8054,330.8284 C396.8054,330.7834 396.8034,330.7404 396.7984,330.6994 L396.2914,326.5704 C396.2324,326.0834 395.8484,325.7024 395.3614,325.6444 C393.1474,325.3774 392.4184,322.7764 392.2484,321.9854 L390.8084,315.3014 L390.1714,311.9154 Z M403.6094,332.8114 L404.2244,327.7934 L414.9774,327.7934 L414.7144,328.4324 C413.7824,330.6934 411.8274,332.4674 409.4444,333.1874 C409.3984,333.1974 409.3544,333.2094 409.2774,333.2364 C408.5464,333.4384 407.7924,333.5384 407.0404,333.5384 C405.9794,333.5384 404.9224,333.3394 403.9394,332.9434 L403.6094,332.8114 Z M406.1584,335.6164 L406.7044,335.6514 C407.1754,335.6804 407.6884,335.6594 408.2784,335.5904 L408.7424,335.5334 L409.2794,340.3694 L406.6524,340.3694 L406.1584,335.6164 Z M427.5384,335.6444 L427.7664,335.5104 C428.7634,334.9254 429.4644,333.8774 429.5994,332.7764 L430.2104,327.7924 L431.6534,327.7924 C431.8714,327.7924 432.0884,327.7814 432.3014,327.7574 L432.8174,327.7004 L432.7894,332.6434 C432.7854,333.2174 432.3734,333.7284 431.8104,333.8604 C431.2794,333.9834 430.9274,334.4804 430.9894,335.0194 L431.6144,340.3694 L427.5384,340.3694 L427.5384,335.6444 Z M445.6784,309.7594 L446.2474,309.1474 C447.2004,308.1264 448.3364,307.2194 449.6194,306.4514 L450.2684,306.0634 L450.3184,306.8174 C450.3374,307.0774 450.3354,307.3924 450.3284,307.8044 C450.2964,309.4554 448.9004,310.0434 447.6054,310.0434 C447.2924,310.0434 446.9424,310.0044 446.4984,309.9184 L445.6784,309.7594 Z M431.4204,298.1184 L430.7274,298.5264 C430.3734,298.7354 430.0524,298.9624 429.7744,299.1984 L429.3294,299.5764 L428.2654,297.5074 C428.1704,297.3254 428.0854,297.1444 428.0104,296.9624 L427.3184,295.3424 L428.7174,296.4144 C429.3064,296.8674 429.9984,297.3204 430.7194,297.7244 L431.4204,298.1184 Z M384.7964,329.3784 C384.3094,330.4674 384.0274,332.1944 384.0274,334.1224 C384.0274,334.5714 384.0434,335.0234 384.0734,335.4644 C384.1144,336.0394 384.6574,336.4644 385.2174,336.4484 C385.3764,336.4364 385.5324,336.3894 385.6714,336.3084 L385.9024,336.1734 L386.1354,336.3084 C386.2754,336.3894 386.4334,336.4364 386.5864,336.4484 C386.8804,336.4644 387.1544,336.3784 387.3704,336.1914 C387.5854,336.0074 387.7144,335.7494 387.7344,335.4644 C387.7674,335.0254 387.7844,334.5734 387.7844,334.1224 C387.7844,332.1974 387.5034,330.4684 387.0134,329.3794 L386.9724,313.7534 C386.9724,313.3784 387.0674,313.0054 387.2484,312.6744 L387.9244,311.4374 L388.1134,312.8334 C388.1364,313.0084 388.1674,313.1824 388.2044,313.3544 L390.1604,322.4314 C390.7064,324.9624 392.1054,326.8084 393.9984,327.4934 L394.2644,327.5904 L394.6704,330.9044 L394.6704,345.1524 C394.6704,345.7384 395.1494,346.2154 395.7384,346.2154 L401.4934,346.2154 C401.8234,346.2154 402.1404,346.0604 402.3404,345.7994 C402.5404,345.5384 402.6084,345.1934 402.5234,344.8764 L401.5674,341.3514 L401.5524,335.6464 L401.7794,335.5124 C402.0444,335.3554 402.2894,335.1694 402.5104,334.9544 L402.7294,334.7434 L403.0094,334.8594 C403.2324,334.9524 403.4624,335.0384 403.6934,335.1164 L403.9734,335.2114 L404.6464,341.5814 L405.0784,345.2744 C405.1414,345.8114 405.5974,346.2154 406.1394,346.2154 L410.8854,346.2154 C411.1884,346.2154 411.4784,346.0864 411.6814,345.8604 C411.8834,345.6364 411.9804,345.3364 411.9444,345.0354 L410.8284,334.9584 L411.1464,334.8244 C412.1264,334.4064 413.0364,333.8404 413.8504,333.1424 C415.3994,331.8114 416.5134,330.0784 417.0734,328.1284 L417.1704,327.7934 L420.2764,327.7934 L420.6554,330.9044 L420.6554,345.1524 C420.6554,345.7384 421.1354,346.2154 421.7254,346.2154 L433.2484,346.2154 C433.5524,346.2154 433.8434,346.0844 434.0454,345.8574 C434.2474,345.6314 434.3444,345.3304 434.3094,345.0304 L433.2064,335.5904 L433.4404,335.4334 C434.3634,334.8114 434.9174,333.7724 434.9244,332.6544 L434.9574,326.7734 L435.1424,326.6354 C436.6094,325.5414 437.4844,323.8034 437.4844,321.9864 L437.4844,317.7224 C437.4844,317.1684 437.5224,316.6564 437.5964,316.1984 L437.6214,316.0514 C438.0604,313.5954 439.5654,312.1454 442.3624,311.4914 C442.7324,311.4064 443.1724,311.4094 443.7404,311.4934 C444.1324,311.5544 444.5564,311.6534 445.0414,311.7684 C445.8684,311.9664 446.7214,312.1694 447.6064,312.1694 C450.4154,312.1694 452.4124,310.3914 452.4634,307.8444 C452.5124,305.3414 452.0514,304.3944 449.9994,302.7764 L445.4234,299.1674 L446.2534,297.5544 C447.5244,295.0874 447.5074,292.4784 446.2164,291.7364 C445.5674,291.3664 444.5854,291.4194 443.7784,292.6724 C442.4314,294.7614 440.1574,295.3534 437.7504,295.9824 C436.9304,296.1974 436.0834,296.4204 435.3034,296.7094 C435.0584,296.8004 434.7954,296.8924 434.5244,296.9824 L434.3784,297.0324 L434.2314,296.9844 C432.0414,296.2624 429.4354,294.5194 428.8374,293.5954 C428.0324,292.3394 427.0504,292.2864 426.4014,292.6584 C425.1094,293.3984 425.0924,296.0094 426.3614,298.4764 L427.6654,301.0004 C427.7454,301.1564 427.8264,301.3064 427.9084,301.4494 L428.1954,301.9494 L427.6454,302.1224 C427.1694,302.2694 426.4974,302.3754 425.6464,302.4364 C424.2994,302.5374 422.7404,302.5034 421.4854,302.4764 L421.4954,302.0144 L421.3604,302.4734 L421.1714,302.4694 C420.7714,302.4604 420.4194,302.4534 420.1104,302.4534 L398.9014,302.4534 C395.5384,302.4534 392.0244,304.1054 389.9484,306.6634 C389.3104,307.4484 388.8214,308.3024 388.4954,309.2004 L388.4104,309.4324 L388.1724,309.4904 C386.2404,309.9754 384.8374,311.7684 384.8374,313.7534 L384.8374,329.1884 L384.7964,329.3784 Z" id="Fill-283" fill="#3723FF" mask="url(#mask-2)"></path>
                <path d="M439.939,303.3022 C439.939,303.9392 440.455,304.4542 441.09,304.4542 C441.727,304.4542 442.243,303.9392 442.243,303.3022 C442.243,302.6662 441.727,302.1512 441.09,302.1512 C440.455,302.1512 439.939,302.6662 439.939,303.3022" id="Fill-284" fill="#3723FF" mask="url(#mask-2)"></path>
                <polygon id="Fill-285" fill="#FFFCF5" mask="url(#mask-2)" points="592.0063 131.6801 609.5163 152.8991 609.5163 179.0141 583.6923 179.0141 574.4953 179.0141 548.6713 179.0141 548.6713 152.8991 566.1813 131.6801"></polygon>
                <polygon id="Stroke-286" stroke="#3723FF" stroke-width="2" stroke-linecap="round" stroke-linejoin="round" mask="url(#mask-2)" points="592.0063 131.6801 609.5163 152.8991 609.5163 179.0141 583.6923 179.0141 574.4953 179.0141 548.6713 179.0141 548.6713 152.8991 566.1813 131.6801"></polygon>
                <polyline id="Stroke-287" stroke="#3723FF" stroke-width="2" stroke-linecap="round" stroke-linejoin="round" mask="url(#mask-2)" points="609.5161 179.0141 609.5161 152.8991 592.0061 131.6801 574.4961 152.8991 574.4961 179.0141"></polyline>
                <path d="M574.4966,152.8988 L548.6716,152.8988" id="Stroke-288" stroke="#3723FF" stroke-width="2" stroke-linecap="round" stroke-linejoin="round" mask="url(#mask-2)"></path>
                <polygon id="Stroke-289" stroke="#3723FF" stroke-width="2" stroke-linecap="round" stroke-linejoin="round" mask="url(#mask-2)" points="588.146 178.392 596.604 178.392 596.604 161.891 588.146 161.891"></polygon>
                <polygon id="Stroke-290" stroke="#3723FF" stroke-width="2" stroke-linecap="round" stroke-linejoin="round" mask="url(#mask-2)" points="556.277 170.087 565.873 170.087 565.873 161.575 556.277 161.575"></polygon>
                <polygon id="Fill-291" fill="#3723FF" mask="url(#mask-2)" points="567.0884 131.8637 592.0064 131.6797 574.6794 152.8607 549.5524 152.0317"></polygon>
                <polygon id="Stroke-292" stroke="#3723FF" stroke-width="2" stroke-linecap="round" stroke-linejoin="round" mask="url(#mask-2)" points="567.0884 131.8637 592.0064 131.6797 574.6794 152.8607 549.5524 152.0317"></polygon>
                <polygon id="Fill-293" fill="#E2F8FF" mask="url(#mask-2)" points="652.2534 131.6801 669.7644 152.8991 669.7644 179.0141 643.9394 179.0141 634.7434 179.0141 608.9184 179.0141 608.9184 152.8991 626.4294 131.6801"></polygon>
                <polygon id="Stroke-294" stroke="#3723FF" stroke-width="2" stroke-linecap="round" stroke-linejoin="round" mask="url(#mask-2)" points="652.2534 131.6801 669.7644 152.8991 669.7644 179.0141 643.9394 179.0141 634.7434 179.0141 608.9184 179.0141 608.9184 152.8991 626.4294 131.6801"></polygon>
                <polyline id="Stroke-295" stroke="#3723FF" stroke-width="2" stroke-linecap="round" stroke-linejoin="round" mask="url(#mask-2)" points="669.7642 179.0141 669.7642 152.8991 652.2532 131.6801 634.7432 152.8991 634.7432 179.0141"></polyline>
                <path d="M634.7437,152.8988 L608.9187,152.8988" id="Stroke-296" stroke="#3723FF" stroke-width="2" stroke-linecap="round" stroke-linejoin="round" mask="url(#mask-2)"></path>
                <polyline id="Stroke-297" stroke="#3723FF" stroke-width="2" stroke-linecap="round" stroke-linejoin="round" mask="url(#mask-2)" points="648.3931 178.392 648.3931 161.891 656.8521 161.891 656.8521 178.392"></polyline>
                <polygon id="Stroke-298" stroke="#3723FF" stroke-width="2" stroke-linecap="round" stroke-linejoin="round" mask="url(#mask-2)" points="616.525 170.087 626.12 170.087 626.12 161.575 616.525 161.575"></polygon>
                <polygon id="Fill-299" fill="#3723FF" mask="url(#mask-2)" points="627.3364 131.8637 652.2534 131.6797 634.9264 152.8607 609.8004 152.0317"></polygon>
                <polygon id="Stroke-300" stroke="#3723FF" stroke-width="2" stroke-linecap="round" stroke-linejoin="round" mask="url(#mask-2)" points="627.3364 131.8637 652.2534 131.6797 634.9264 152.8607 609.8004 152.0317"></polygon>
                <path d="M763.3052,203.5365 L721.3052,203.5365 L692.5932,203.5365 L650.5932,203.5365 L538.9932,203.5365 C527.9932,203.5365 518.9932,212.5365 518.9932,223.5365 L518.9932,312.2005 C508.2562,321.4185 490.0242,328.3195 463.0732,311.0005 C483.2372,339.4595 505.7282,339.5535 518.9932,336.1405 L518.9932,387.5165 C518.9932,398.5165 527.9932,407.5165 538.9932,407.5165 L650.5932,407.5165 L692.5932,407.5165 L721.3052,407.5165 L763.3052,407.5165 C774.3052,407.5165 783.3052,398.5165 783.3052,387.5165 L783.3052,223.5365 C783.3052,212.5365 774.3052,203.5365 763.3052,203.5365" id="Fill-301" fill="#FFFCF5" mask="url(#mask-2)"></path>
                <path d="M763.3052,203.5365 L721.3052,203.5365 L692.5932,203.5365 L650.5932,203.5365 L538.9932,203.5365 C527.9932,203.5365 518.9932,212.5365 518.9932,223.5365 L518.9932,312.2005 C508.2562,321.4185 490.0242,328.3195 463.0732,311.0005 C483.2372,339.4595 505.7282,339.5535 518.9932,336.1405 L518.9932,387.5165 C518.9932,398.5165 527.9932,407.5165 538.9932,407.5165 L650.5932,407.5165 L692.5932,407.5165 L721.3052,407.5165 L763.3052,407.5165 C774.3052,407.5165 783.3052,398.5165 783.3052,387.5165 L783.3052,223.5365 C783.3052,212.5365 774.3052,203.5365 763.3052,203.5365 Z" id="Stroke-302" stroke="#3723FF" stroke-width="2" stroke-linecap="round" stroke-linejoin="round" mask="url(#mask-2)"></path>
            </g>
        </g>
    </g>
</svg>