<?xml version="1.0" encoding="UTF-8"?>
<svg width="322px" height="289px" viewBox="0 0 322 289" version="1.1" xmlns="http://www.w3.org/2000/svg" xmlns:xlink="http://www.w3.org/1999/xlink">
    <!-- Generator: Sketch 47.1 (45422) - http://www.bohemiancoding.com/sketch -->
    <title>Group 5</title>
    <desc>Created with Sketch.</desc>
    <defs>
        <polygon id="path-1" points="0 144.03445 0 288.068 322 288.068 322 144.03445 322 0.0009 0 0.0009"></polygon>
    </defs>
    <g id="Page-1" stroke="none" stroke-width="1" fill="none" fill-rule="evenodd">
        <g id="21-by-2050" transform="translate(-406.000000, -13441.000000)">
            <g id="Group-5" transform="translate(406.000000, 13441.000000)">
                <g id="Page-1-Copy-3">
                    <mask id="mask-2" fill="white">
                        <use xlink:href="#path-1"></use>
                    </mask>
                    <g id="Clip-2"></g>
                    <path d="M322,154.7549 C322,240.2239 256.582,247.4469 175.328,279.3889 C87.664,313.8509 0,240.2239 0,154.7549 C0,69.2859 72.082,0.0009 161,0.0009 C249.918,0.0009 322,69.2859 322,154.7549" id="Fill-1" fill="#FFE9EF" mask="url(#mask-2)"></path>
                </g>
                <g id="Page-1" transform="translate(62.000000, 49.000000)">
                    <path d="M186.7894,168.2327 C186.7894,177.0697 145.6004,184.2327 94.7894,184.2327 C43.9794,184.2327 2.7894,177.0697 2.7894,168.2327 C2.7894,159.3967 43.9794,152.2327 94.7894,152.2327 C145.6004,152.2327 186.7894,159.3967 186.7894,168.2327" id="Fill-1" fill="#3723FF"></path>
                    <path d="M186.7894,168.2327 C186.7894,177.0697 145.6004,184.2327 94.7894,184.2327 C43.9794,184.2327 2.7894,177.0697 2.7894,168.2327 C2.7894,159.3967 43.9794,152.2327 94.7894,152.2327 C145.6004,152.2327 186.7894,159.3967 186.7894,168.2327 Z" id="Stroke-3" stroke="#3723FF" stroke-width="2.6" stroke-linecap="round" stroke-linejoin="round"></path>
                    <path d="M95.013,169.2327 C47.579,169.2327 8.99,131.3087 8.99,84.6947 C8.99,84.6487 8.998,84.5907 9.015,84.5197 L9.066,84.3187 L9.029,84.1147 C8.99,83.8947 8.99,83.6897 8.99,83.5087 C8.99,79.9577 17.61,77.0067 34.612,74.7407 C50.75,72.5867 72.201,71.4017 95.013,71.4017 C117.826,71.4017 139.278,72.5867 155.416,74.7407 C172.417,77.0067 181.038,79.9577 181.038,83.5087 C181.038,83.6897 181.038,83.8947 180.998,84.1147 L180.962,84.3187 L181.012,84.5197 C181.03,84.5907 181.038,84.6487 181.038,84.6947 C181.038,131.3087 142.449,169.2327 95.013,169.2327" id="Fill-5" fill="#FFC8D7"></path>
                    <path d="M180.7366,84.5003 C180.7366,131.8493 142.2336,170.2323 94.7376,170.2323 C47.2426,170.2323 8.7396,131.8493 8.7396,84.5003" id="Stroke-7" stroke="#3723FF" stroke-width="2.6" stroke-linecap="round" stroke-linejoin="round"></path>
                    <path d="M179.4134,96.5149 C173.1904,98.9789 165.0864,100.3159 156.8894,101.4239 C140.2164,103.6799 118.1434,104.9219 94.7384,104.9219 C71.3334,104.9219 49.2604,103.6799 32.5874,101.4239 C24.2114,100.2909 15.9344,98.9209 9.6604,96.3539" id="Stroke-9" stroke="#3723FF" stroke-width="2.6" stroke-linecap="round" stroke-linejoin="round"></path>
                    <path d="M180.7366,83.2874 C180.7366,89.7134 142.2336,94.9234 94.7376,94.9234 C47.2426,94.9234 8.7396,89.7134 8.7396,83.2874 C8.7396,76.8614 47.2426,71.6514 94.7376,71.6514 C142.2336,71.6514 180.7366,76.8614 180.7366,83.2874" id="Fill-11" fill="#FFFCF5"></path>
                    <path d="M180.7366,83.2874 C180.7366,89.7134 142.2336,94.9234 94.7376,94.9234 C47.2426,94.9234 8.7396,89.7134 8.7396,83.2874 C8.7396,76.8614 47.2426,71.6514 94.7376,71.6514 C142.2336,71.6514 180.7366,76.8614 180.7366,83.2874 Z" id="Stroke-13" stroke="#3723FF" stroke-width="2.6" stroke-linecap="round" stroke-linejoin="round"></path>
                    <path d="M38.1566,73.3255 C36.0386,71.9015 36.2756,67.5055 34.4596,65.9115 C32.5266,64.2165 28.1946,64.9905 26.6346,63.1715 C24.9416,61.1985 26.4156,57.0585 25.1996,55.0265 C23.8456,52.7625 19.5106,51.9715 18.8026,49.7475 C17.9936,47.2035 21.1716,44.2665 21.2886,41.9475 C21.4186,39.3735 18.8256,35.8885 20.2106,33.8295 C21.5946,31.7695 25.8016,32.8575 28.1366,31.7665 C30.2406,30.7845 31.7626,26.7345 34.4256,26.5245 C36.7506,26.3425 39.1176,30.0595 41.7236,30.4595 C44.0656,30.8185 47.3446,27.8935 49.8086,28.7185 C52.0826,29.4775 52.9976,33.7815 55.2966,34.9315 C57.4576,36.0145 61.4406,34.1375 63.5576,35.5615 C65.6756,36.9865 65.4376,41.3825 67.2556,42.9755 C69.1876,44.6715 73.5186,43.8975 75.0806,45.7165 C76.7726,47.6885 75.2996,51.8285 76.5146,53.8615 C77.8686,56.1255 82.2036,56.9175 82.9116,59.1395 C83.7196,61.6835 80.5436,64.6205 80.4266,66.9395 C80.2956,69.5135 82.8886,72.9995 81.5046,75.0585 C80.1186,77.1175 75.9136,76.0295 73.5776,77.1205 C71.4726,78.1035 69.9506,82.1535 67.2896,82.3625 C64.9636,82.5455 62.5966,78.8285 59.9896,78.4285 C57.6486,78.0685 54.3706,80.9935 51.9056,80.1705 C49.6326,79.4095 48.7166,75.1065 46.4186,73.9555 C44.2566,72.8735 40.2736,74.7505 38.1566,73.3255" id="Fill-15" fill="#8CE06E"></path>
                    <path d="M38.1566,73.3255 C36.0386,71.9015 36.2756,67.5055 34.4596,65.9115 C32.5266,64.2165 28.1946,64.9905 26.6346,63.1715 C24.9416,61.1985 26.4156,57.0585 25.1996,55.0265 C23.8456,52.7625 19.5106,51.9715 18.8026,49.7475 C17.9936,47.2035 21.1716,44.2665 21.2886,41.9475 C21.4186,39.3735 18.8256,35.8885 20.2106,33.8295 C21.5946,31.7695 25.8016,32.8575 28.1366,31.7665 C30.2406,30.7845 31.7626,26.7345 34.4256,26.5245 C36.7506,26.3425 39.1176,30.0595 41.7236,30.4595 C44.0656,30.8185 47.3446,27.8935 49.8086,28.7185 C52.0826,29.4775 52.9976,33.7815 55.2966,34.9315 C57.4576,36.0145 61.4406,34.1375 63.5576,35.5615 C65.6756,36.9865 65.4376,41.3825 67.2556,42.9755 C69.1876,44.6715 73.5186,43.8975 75.0806,45.7165 C76.7726,47.6885 75.2996,51.8285 76.5146,53.8615 C77.8686,56.1255 82.2036,56.9175 82.9116,59.1395 C83.7196,61.6835 80.5436,64.6205 80.4266,66.9395 C80.2956,69.5135 82.8886,72.9995 81.5046,75.0585 C80.1186,77.1175 75.9136,76.0295 73.5776,77.1205 C71.4726,78.1035 69.9506,82.1535 67.2896,82.3625 C64.9636,82.5455 62.5966,78.8285 59.9896,78.4285 C57.6486,78.0685 54.3706,80.9935 51.9056,80.1705 C49.6326,79.4095 48.7166,75.1065 46.4186,73.9555 C44.2566,72.8735 40.2736,74.7505 38.1566,73.3255 Z" id="Stroke-17" stroke="#3723FF" stroke-width="2.6" stroke-linecap="round" stroke-linejoin="round"></path>
                    <path d="M124.4398,92.8948 C122.5038,91.6268 118.4648,93.1918 116.1958,92.1088 C114.0618,91.0898 113.2868,87.2048 110.8998,86.3958 C108.5118,85.5858 105.0648,88.0418 102.7128,87.5408 C100.2118,87.0078 98.3358,83.4398 95.9488,83.2438 C93.3618,83.0298 90.8388,86.2558 88.4778,86.4218 C85.8478,86.6078 82.6938,83.8498 80.4708,84.4868 C77.9278,85.2148 77.3738,89.0618 75.5498,90.3518 C73.5358,91.7768 69.2248,91.6998 68.3208,93.7518 C76.6458,94.0788 85.5188,94.2558 94.7378,94.2558 C105.4518,94.2558 115.6988,94.0168 125.1588,93.5818 C124.9578,93.3158 124.7238,93.0808 124.4398,92.8948" id="Fill-19" fill="#8CE06E"></path>
                    <path d="M124.4398,92.8948 C122.5038,91.6268 118.4648,93.1918 116.1958,92.1088 C114.0618,91.0898 113.2868,87.2048 110.8998,86.3958 C108.5118,85.5858 105.0648,88.0418 102.7128,87.5408 C100.2118,87.0078 98.3358,83.4398 95.9488,83.2438 C93.3618,83.0298 90.8388,86.2558 88.4778,86.4218 C85.8478,86.6078 82.6938,83.8498 80.4708,84.4868 C77.9278,85.2148 77.3738,89.0618 75.5498,90.3518 C73.5358,91.7768 69.2248,91.6998 68.3208,93.7518 C76.6458,94.0788 85.5188,94.2558 94.7378,94.2558 C105.4518,94.2558 115.6988,94.0168 125.1588,93.5818 C124.9578,93.3158 124.7238,93.0808 124.4398,92.8948 Z" id="Stroke-21" stroke="#3723FF" stroke-width="2.6" stroke-linecap="round" stroke-linejoin="round"></path>
                    <path d="M149.9183,83.5589 C147.5163,84.4189 144.1173,81.6209 141.7563,82.1379 C139.2453,82.6879 137.2993,86.6339 134.9083,86.8119 C132.3163,87.0039 129.8573,83.3629 127.5003,83.1349 C124.8743,82.8819 121.6663,85.9029 119.4563,85.1539 C116.9283,84.2959 116.4483,79.9959 114.6513,78.5269 C112.6553,76.8949 108.3123,76.9149 107.4763,74.5789 C106.6403,72.2419 110.0103,69.5009 110.5183,66.9739 C110.9743,64.6969 108.6163,61.0689 110.0273,58.8019 C111.2603,56.8219 115.6553,57.1209 117.5243,55.2589 C119.2023,53.5879 118.7923,49.2129 120.9183,47.7179 C122.8783,46.3379 126.8863,48.1539 129.1763,46.9859 C131.3293,45.8879 132.1813,41.5689 134.5833,40.7079 C136.9863,39.8479 140.3853,42.6479 142.7463,42.1299 C145.2573,41.5799 147.2023,37.6329 149.5933,37.4549 C152.1853,37.2629 154.6443,40.9049 157.0013,41.1319 C159.6273,41.3849 162.8363,38.3649 165.0453,39.1139 C167.5733,39.9709 168.0533,44.2709 169.8513,45.7409 C171.8463,47.3729 176.1893,47.3529 177.0263,49.6889 C177.8623,52.0259 174.4913,54.7659 173.9843,57.2939 C173.5273,59.5709 175.8853,63.1989 174.4753,65.4649 C173.2423,67.4459 168.8463,67.1469 166.9783,69.0079 C165.2993,70.6799 165.7093,75.0539 163.5843,76.5499 C161.6243,77.9289 157.6163,76.1139 155.3263,77.2819 C153.1733,78.3789 152.3213,82.6999 149.9183,83.5589" id="Fill-23" fill="#8CE06E"></path>
                    <path d="M149.9183,83.5589 C147.5163,84.4189 144.1173,81.6209 141.7563,82.1379 C139.2453,82.6879 137.2993,86.6339 134.9083,86.8119 C132.3163,87.0039 129.8573,83.3629 127.5003,83.1349 C124.8743,82.8819 121.6663,85.9029 119.4563,85.1539 C116.9283,84.2959 116.4483,79.9959 114.6513,78.5269 C112.6553,76.8949 108.3123,76.9149 107.4763,74.5789 C106.6403,72.2419 110.0103,69.5009 110.5183,66.9739 C110.9743,64.6969 108.6163,61.0689 110.0273,58.8019 C111.2603,56.8219 115.6553,57.1209 117.5243,55.2589 C119.2023,53.5879 118.7923,49.2129 120.9183,47.7179 C122.8783,46.3379 126.8863,48.1539 129.1763,46.9859 C131.3293,45.8879 132.1813,41.5689 134.5833,40.7079 C136.9863,39.8479 140.3853,42.6479 142.7463,42.1299 C145.2573,41.5799 147.2023,37.6329 149.5933,37.4549 C152.1853,37.2629 154.6443,40.9049 157.0013,41.1319 C159.6273,41.3849 162.8363,38.3649 165.0453,39.1139 C167.5733,39.9709 168.0533,44.2709 169.8513,45.7409 C171.8463,47.3729 176.1893,47.3529 177.0263,49.6889 C177.8623,52.0259 174.4913,54.7659 173.9843,57.2939 C173.5273,59.5709 175.8853,63.1989 174.4753,65.4649 C173.2423,67.4459 168.8463,67.1469 166.9783,69.0079 C165.2993,70.6799 165.7093,75.0539 163.5843,76.5499 C161.6243,77.9289 157.6163,76.1139 155.3263,77.2819 C153.1733,78.3789 152.3213,82.6999 149.9183,83.5589 Z" id="Stroke-25" stroke="#3723FF" stroke-width="2.6" stroke-linecap="round" stroke-linejoin="round"></path>
                    <path d="M112.8783,38.8118 C114.0263,37.2778 117.4173,36.9868 118.5403,35.4418 C119.6863,33.8798 118.0193,31.0408 118.7273,29.3198 C119.4963,27.4638 123.1043,26.7288 123.6033,24.9878 C124.1473,23.0398 121.1243,20.2998 121.0343,18.3708 C120.9403,16.1798 124.0083,14.2378 123.3713,12.2398 C122.6093,9.8848 118.2323,8.6028 116.6273,6.9328 C114.8573,5.0408 114.4703,1.3488 111.7923,0.4628 C109.1063,-0.3942 106.6583,2.3678 104.1283,2.8548 C101.8613,3.2588 97.5653,1.7098 95.5883,3.1608 C93.9153,4.3948 95.2733,7.7748 93.9203,9.4848 C92.7243,10.9878 88.6943,11.4048 87.9973,13.2918 C87.3833,14.9888 89.8573,17.7258 89.3793,19.6768 C88.9393,21.4858 85.9383,22.7818 85.9343,24.7228 C85.9253,26.6408 88.4443,28.8888 88.4533,30.8108 C88.4483,32.8398 86.4243,34.7778 86.7303,36.6508 C87.0233,38.6868 89.2323,40.3048 89.5043,42.1658 C89.7833,44.2358 88.5003,47.0558 88.9403,48.7578 C89.3783,50.7178 91.3043,50.6978 91.9463,51.9438 C92.6473,53.3378 92.2643,56.7128 93.1963,57.0078 C94.1323,57.2908 95.8923,54.3568 97.3073,53.6398 C98.5863,53.0088 100.1433,54.1278 101.6943,52.8238 C103.0863,51.7248 103.7423,48.7368 105.2203,47.2488 C106.5653,45.9248 109.3373,45.9398 110.7943,44.4968 C112.1643,43.1888 111.6693,40.4368 112.8783,38.8118" id="Fill-27" fill="#8CE06E"></path>
                    <path d="M112.8783,38.8118 C114.0263,37.2778 117.4173,36.9868 118.5403,35.4418 C119.6863,33.8798 118.0193,31.0408 118.7273,29.3198 C119.4963,27.4638 123.1043,26.7288 123.6033,24.9878 C124.1473,23.0398 121.1243,20.2998 121.0343,18.3708 C120.9403,16.1798 124.0083,14.2378 123.3713,12.2398 C122.6093,9.8848 118.2323,8.6028 116.6273,6.9328 C114.8573,5.0408 114.4703,1.3488 111.7923,0.4628 C109.1063,-0.3942 106.6583,2.3678 104.1283,2.8548 C101.8613,3.2588 97.5653,1.7098 95.5883,3.1608 C93.9153,4.3948 95.2733,7.7748 93.9203,9.4848 C92.7243,10.9878 88.6943,11.4048 87.9973,13.2918 C87.3833,14.9888 89.8573,17.7258 89.3793,19.6768 C88.9393,21.4858 85.9383,22.7818 85.9343,24.7228 C85.9253,26.6408 88.4443,28.8888 88.4533,30.8108 C88.4483,32.8398 86.4243,34.7778 86.7303,36.6508 C87.0233,38.6868 89.2323,40.3048 89.5043,42.1658 C89.7833,44.2358 88.5003,47.0558 88.9403,48.7578 C89.3783,50.7178 91.3043,50.6978 91.9463,51.9438 C92.6473,53.3378 92.2643,56.7128 93.1963,57.0078 C94.1323,57.2908 95.8923,54.3568 97.3073,53.6398 C98.5863,53.0088 100.1433,54.1278 101.6943,52.8238 C103.0863,51.7248 103.7423,48.7368 105.2203,47.2488 C106.5653,45.9248 109.3373,45.9398 110.7943,44.4968 C112.1643,43.1888 111.6693,40.4368 112.8783,38.8118 Z" id="Stroke-29" stroke="#3723FF" stroke-width="2.6" stroke-linecap="round" stroke-linejoin="round"></path>
                    <path d="M59.3587,60.0735 L44.0387,49.8995" id="Stroke-31" stroke="#3723FF" stroke-width="2.6" stroke-linecap="round" stroke-linejoin="round"></path>
                    <path d="M86.7054,78.2327 L59.3584,60.0737" id="Stroke-33" stroke="#3723FF" stroke-width="2.6" stroke-linecap="round" stroke-linejoin="round"></path>
                    <path d="M99.596,76.0589 L150.701,59.3799" id="Stroke-35" stroke="#3723FF" stroke-width="2.6" stroke-linecap="round" stroke-linejoin="round"></path>
                    <path d="M103.3714,23.5667 L91.0384,63.8997" id="Stroke-37" stroke="#3723FF" stroke-width="2.6" stroke-linecap="round" stroke-linejoin="round"></path>
                    <path d="M67.6478,8.927 C69.0308,10.332 68.8528,11.948 67.2498,12.534 C65.6448,13.122 64.4658,12.004 64.6148,10.038 C64.7628,8.073 64.9408,6.457 65.0128,6.431 C65.0848,6.405 66.2638,7.523 67.6478,8.927" id="Fill-39" fill="#3723FF"></path>
                    <path d="M67.6478,8.927 C69.0308,10.332 68.8528,11.948 67.2498,12.534 C65.6448,13.122 64.4658,12.004 64.6148,10.038 C64.7628,8.073 64.9408,6.457 65.0128,6.431 C65.0848,6.405 66.2638,7.523 67.6478,8.927 Z" id="Stroke-41" stroke="#3723FF" stroke-width="2.6" stroke-linecap="round" stroke-linejoin="round"></path>
                    <path d="M46.2054,7.7327 C44.4174,6.9027 44.0174,5.3287 45.3114,4.2147 C46.6084,3.1017 48.1044,3.7347 48.6554,5.6277 C49.2064,7.5207 49.6064,9.0957 49.5484,9.1457 C49.4894,9.1957 47.9934,8.5627 46.2054,7.7327" id="Fill-43" fill="#3723FF"></path>
                    <path d="M46.2054,7.7327 C44.4174,6.9027 44.0174,5.3287 45.3114,4.2147 C46.6084,3.1017 48.1044,3.7347 48.6554,5.6277 C49.2064,7.5207 49.6064,9.0957 49.5484,9.1457 C49.4894,9.1957 47.9934,8.5627 46.2054,7.7327 Z" id="Stroke-45" stroke="#3723FF" stroke-width="2.6" stroke-linecap="round" stroke-linejoin="round"></path>
                    <path d="M142.0169,21.678 C142.4049,19.745 143.8419,18.988 145.2279,19.986 C146.6139,20.986 146.3489,22.588 144.6369,23.567 C142.9259,24.546 141.4889,25.304 141.4259,25.259 C141.3639,25.214 141.6279,23.611 142.0169,21.678" id="Fill-47" fill="#3723FF"></path>
                    <path d="M142.0169,21.678 C142.4049,19.745 143.8419,18.988 145.2279,19.986 C146.6139,20.986 146.3489,22.588 144.6369,23.567 C142.9259,24.546 141.4889,25.304 141.4259,25.259 C141.3639,25.214 141.6279,23.611 142.0169,21.678 Z" id="Stroke-49" stroke="#3723FF" stroke-width="2.6" stroke-linecap="round" stroke-linejoin="round"></path>
                    <path d="M187.2054,64.7337 C186.0224,66.3107 184.3994,66.3767 183.5784,64.8797 C182.7584,63.3807 183.6854,62.0477 185.6524,61.9007 C187.6184,61.7537 189.2414,61.6877 189.2784,61.7547 C189.3154,61.8217 188.3874,63.1557 187.2054,64.7337" id="Fill-51" fill="#3723FF"></path>
                    <path d="M187.2054,64.7337 C186.0224,66.3107 184.3994,66.3767 183.5784,64.8797 C182.7584,63.3807 183.6854,62.0477 185.6524,61.9007 C187.6184,61.7537 189.2414,61.6877 189.2784,61.7547 C189.3154,61.8217 188.3874,63.1557 187.2054,64.7337 Z" id="Stroke-53" stroke="#3723FF" stroke-width="2.6" stroke-linecap="round" stroke-linejoin="round"></path>
                    <path d="M2.5071,60.5462 C0.5611,60.2332 -0.2509,58.8252 0.6951,57.4022 C1.6401,55.9802 3.2511,56.1832 4.2951,57.8562 C5.3391,59.5272 6.1511,60.9352 6.1091,60.9992 C6.0661,61.0632 4.4541,60.8592 2.5071,60.5462" id="Fill-55" fill="#3723FF"></path>
                    <path d="M2.5071,60.5462 C0.5611,60.2332 -0.2509,58.8252 0.6951,57.4022 C1.6401,55.9802 3.2511,56.1832 4.2951,57.8562 C5.3391,59.5272 6.1511,60.9352 6.1091,60.9992 C6.0661,61.0632 4.4541,60.8592 2.5071,60.5462 Z" id="Stroke-57" stroke="#3723FF" stroke-width="2.6" stroke-linecap="round" stroke-linejoin="round"></path>
                    <path d="M161.2884,10.1741 C161.6774,8.2411 163.1134,7.4841 164.4994,8.4831 C165.8854,9.4821 165.6204,11.0841 163.9094,12.0641 C162.1974,13.0421 160.7604,13.8001 160.6984,13.7551 C160.6364,13.7101 160.9004,12.1081 161.2884,10.1741" id="Fill-59" fill="#3723FF"></path>
                    <path d="M161.2884,10.1741 C161.6774,8.2411 163.1134,7.4841 164.4994,8.4831 C165.8854,9.4821 165.6204,11.0841 163.9094,12.0641 C162.1974,13.0421 160.7604,13.8001 160.6984,13.7551 C160.6364,13.7101 160.9004,12.1081 161.2884,10.1741 Z" id="Stroke-61" stroke="#3723FF" stroke-width="2.6" stroke-linecap="round" stroke-linejoin="round"></path>
                </g>
            </g>
        </g>
    </g>
</svg>