<?xml version="1.0" encoding="UTF-8"?>
<svg width="424px" height="131px" viewBox="0 0 424 131" version="1.1" xmlns="http://www.w3.org/2000/svg" xmlns:xlink="http://www.w3.org/1999/xlink">
    <!-- Generator: Sketch 47.1 (45422) - http://www.bohemiancoding.com/sketch -->
    <title>Group</title>
    <desc>Created with Sketch.</desc>
    <defs></defs>
    <g id="Page-1" stroke="none" stroke-width="1" fill="none" fill-rule="evenodd">
        <g id="21-by-2050" transform="translate(-172.000000, -855.000000)">
            <g id="Group" transform="translate(172.000000, 855.000000)">
                <g id="Page-1" fill="#FFFFFF">
                    <path d="M10.0902607,91.7498439 C11.4061275,91.6341311 12.6995506,91.4559834 13.9696987,91.2145682 C15.240678,90.9739854 16.5016824,90.640999 17.753543,90.2156087 C19.0045724,89.791051 20.2605893,89.2599376 21.5224249,88.6222685 C22.7842605,87.9854318 24.0668773,87.217898 25.3727691,86.3213319 C26.9446605,85.2399584 28.2131461,84.216025 29.1757322,83.2495317 C30.137487,82.283871 30.8432172,81.3798127 31.2912603,80.5373569 C31.7393033,79.6957336 31.9504405,78.9132154 31.9238406,78.1922997 C31.8964094,77.471384 31.6811159,76.8145682 31.2746353,76.2226847 C30.6237675,75.2728408 29.7127189,74.7941727 28.5414894,74.7858481 C27.3710911,74.7766909 25.960462,75.3402706 24.3087707,76.474922 C23.5839218,76.9744017 22.8532541,77.5463059 22.1151052,78.1939646 C21.3769563,78.8407908 20.637145,79.5026015 19.8931773,80.1777315 C19.1500409,80.8528616 18.4127233,81.5121748 17.6795619,82.1556712 C16.9472317,82.7991675 16.229864,83.3619147 15.5274588,83.8455775 C14.3562293,84.6505723 13.1284749,85.2724246 11.8458581,85.7111342 C10.56241,86.1490114 9.29891191,86.3529657 8.05453252,86.3213319 C6.81015314,86.2888658 5.63227365,85.9891779 4.52172531,85.421436 C3.41034572,84.855359 2.44110967,83.9679501 1.61401716,82.7617066 C1.12441164,82.0466181 0.735387223,81.2699272 0.447775153,80.4316337 C0.160994332,79.5941727 0.0122008045,78.7067638 0.000563321945,77.7694069 C-0.0102429119,76.8320499 0.134394372,75.8522373 0.436968919,74.8316337 C0.737880969,73.8110302 1.23330523,72.7679501 1.92241045,71.7023933 C2.61068442,70.6376691 3.51009557,69.5546306 4.61898141,68.4557752 C5.72786725,67.3560874 7.09111522,66.2497399 8.7087253,65.137565 C9.87995479,64.3325702 11.100228,63.5883455 12.3703761,62.9032258 C13.6405242,62.2189386 14.9173223,61.6087409 16.1991078,61.0718002 C17.4808934,60.5365245 18.7535353,60.0761707 20.0162021,59.6924037 C21.2797002,59.3086368 22.4949859,59.0114464 23.6628904,58.8 L24.2780145,64.6880333 C23.3195847,64.8703434 22.3229174,65.1167534 21.2880127,65.4255983 C20.253108,65.7344433 19.2032408,66.1065557 18.1400737,66.542768 C17.075244,66.9773153 16.0104144,67.4759625 14.943091,68.0378772 C13.8757676,68.5989594 12.8283941,69.2324662 11.8026332,69.9383975 C10.3412979,70.9431842 9.21163079,71.8755463 8.41529448,72.7354839 C7.61812693,73.5954214 7.05454027,74.3829344 6.72204077,75.0955255 C6.39037251,75.808949 6.25571022,76.4432882 6.31722262,77.0002081 C6.37956628,77.5579605 6.54830978,78.037461 6.82345312,78.4395421 C7.36043981,79.2212279 8.15012613,79.6199792 9.19334332,79.6332986 C10.2373918,79.6474506 11.4776149,79.1596254 12.9165065,78.1706556 C13.4967181,77.7719043 14.1342859,77.2707596 14.8300411,76.6705515 C15.5249651,76.0686785 16.2539703,75.4318418 17.0162254,74.7600416 C17.7776492,74.0882414 18.5623481,73.4131113 19.3694906,72.7346514 C20.1766331,72.0570239 20.9871007,71.4385016 21.8017245,70.8782518 C23.3403659,69.8193548 24.8233137,69.0551509 26.2472428,68.5848075 C27.6728344,68.1144641 29.0078199,67.9246618 30.2513681,68.0137357 C31.494085,68.1044745 32.6345583,68.462435 33.6711255,69.089282 C34.7076927,69.716129 35.6129226,70.5935484 36.3868151,71.7215401 C37.4208886,73.2291363 37.9919565,74.812487 38.1033438,76.4707596 C38.2147312,78.1281998 37.9030129,79.8039542 37.1698515,81.4996878 C36.4366901,83.1962539 35.3045293,84.8778356 33.7742003,86.5469303 C32.2430401,88.216025 30.3627554,89.8176899 28.1316837,91.3510926 C26.6595422,92.3633715 25.1574757,93.2599376 23.6254842,94.0424558 C22.0934928,94.8241415 20.5673201,95.4876171 19.0453036,96.0337149 C17.5232871,96.5781478 16.0170644,97.01436 14.5266353,97.3406868 C13.0353751,97.6670135 11.5973147,97.8867846 10.214948,98 L10.0902607,91.7498439 Z" id="Fill-1"></path>
                    <path d="M39.6927509,69.7637417 C38.8486834,68.1807047 38.345746,66.5465471 38.1814365,64.8612688 C38.0171269,63.1768425 38.2139648,61.5273486 38.7694479,59.9161953 C39.324931,58.3050419 40.2398934,56.7739776 41.5151692,55.3230024 C42.789611,53.8720272 44.4402132,52.5829341 46.4669759,51.4557232 C47.3494101,50.9658167 48.2668747,50.5261789 49.2202038,50.1385137 C50.1718648,49.7508486 51.1160193,49.4270843 52.0518332,49.1672209 C52.9876471,48.9073574 53.8926008,48.7122469 54.7658603,48.5818891 C55.6391198,48.4515314 56.4314756,48.4021147 57.1437618,48.4319351 L56.8643521,53.8686192 C55.4164261,53.9640444 54.1069539,54.1702312 52.9401057,54.4871793 C51.7715895,54.8049796 50.657287,55.2599536 49.5963643,55.8495454 C48.3803066,56.5260424 47.3760999,57.2937045 46.582076,58.1533839 C45.7880521,59.0130633 45.2083813,59.9196033 44.8430636,60.8721519 C44.4777458,61.8264046 44.3284493,62.7925854 44.3960081,63.7749544 C44.4627328,64.7556194 44.7429765,65.70902 45.2359052,66.6343043 C45.7288339,67.5604405 46.3727273,68.3119145 47.1667512,68.8887261 C47.9607751,69.4646857 48.8515498,69.8463868 49.8390754,70.0304212 C50.8266009,70.2161597 51.8916939,70.2008235 53.0360225,69.9827086 C54.179517,69.7645937 55.3480333,69.3241039 56.5399032,68.6612391 C57.8510436,67.9327695 58.9878656,67.0551978 59.9487013,66.0319323 C60.910371,65.0078147 61.7227442,63.9002 62.387489,62.7107923 L67.0081744,65.4218922 C66.5836385,66.163142 66.0915438,66.9060959 65.5310564,67.6524577 C64.9705689,68.3988196 64.3341821,69.1272893 63.623564,69.8378667 C62.912946,70.5492961 62.132267,71.2317572 61.2831952,71.8852498 C60.4332894,72.5395945 59.5149907,73.1419665 58.524963,73.6915137 C56.5098771,74.8127606 54.5540094,75.5361182 52.6581939,75.8641425 C50.7615443,76.1930189 48.9941739,76.1691626 47.3560825,75.7925736 C45.7196593,75.4168366 44.2450434,74.7164833 42.9347372,73.6923657 C41.6227628,72.6691002 40.5434908,71.3595588 39.6927509,69.7637417" id="Fill-4"></path>
                    <path d="M61.2316076,43.7112417 L66.8456586,41.1922896 L68.3168389,44.3628107 C69.1348253,42.8992995 70.0791813,41.5289895 71.1516144,40.2518808 C72.2240476,38.9739324 73.3622271,37.8546781 74.5661528,36.8941176 L78.5613079,41.208243 C76.4975571,42.3896315 74.818038,43.7179589 73.5236043,45.1923856 C72.2300245,46.6668122 71.3830072,48.3049707 70.9816987,50.1068611 L77.0559738,63.1986949 L71.4427766,65.7176471 L61.2316076,43.7112417 Z" id="Fill-6"></path>
                    <path d="M88.8138262,44.4186899 C89.1508594,45.3092729 89.6559846,46.0858679 90.3275041,46.751755 C90.9990236,47.416002 91.8029793,47.9277182 92.7410691,48.2852635 C93.67831,48.6428088 94.7242165,48.8199413 95.8787886,48.8166611 C97.0325117,48.8133809 98.2583956,48.5821245 99.5555912,48.1237121 C100.853636,47.6644796 101.943688,47.0756779 102.826596,46.3581271 C103.709504,45.6405764 104.389513,44.8533207 104.865774,43.9947199 C105.342884,43.1377593 105.614548,42.2447161 105.682464,41.3180505 C105.75038,40.391385 105.616246,39.4827607 105.279213,38.5929977 C104.94133,37.7040548 104.435356,36.9225395 103.76129,36.2517321 C103.087223,35.5809246 102.28157,35.0659282 101.344329,34.7075628 C100.406239,34.3508376 99.3611817,34.173705 98.2066096,34.1769853 C97.0528865,34.1802655 95.8270026,34.4107018 94.5298069,34.8691142 C93.2317623,35.3291668 92.1417104,35.9171484 91.2588024,36.6346992 C90.3758943,37.35307 89.6958853,38.1403257 89.2196243,38.9989264 C88.7425144,39.8567071 88.4725483,40.7522105 88.4063302,41.6846165 C88.3401121,42.6178425 88.476793,43.528927 88.8138262,44.4186899 M82.7616612,46.5606815 C82.1580578,44.9689488 81.9262944,43.3591749 82.0672201,41.7321798 C82.2081458,40.1043647 82.7005368,38.5511748 83.5452421,37.0726102 C84.3890985,35.5940455 85.5767796,34.2425899 87.1065876,33.0190634 C88.6363956,31.7947167 90.4972942,30.7958861 92.6901321,30.0192911 C94.8829701,29.2435162 96.9722362,28.8457881 98.9587794,28.8244666 C100.944474,28.8047852 102.754435,29.0950857 104.388664,29.6970083 C106.022044,30.2989309 107.436395,31.177213 108.632565,32.3318547 C109.827887,33.4864964 110.726925,34.8600936 111.330529,36.4510062 C111.934132,38.0435589 112.165895,39.6525127 112.025819,41.2803279 C111.884893,42.908143 111.392502,44.4613329 110.547797,45.9390775 C109.703091,47.4184622 108.516259,48.7699178 106.985602,49.9934443 C105.456643,51.2169709 103.594896,52.2166216 101.402058,52.9923965 C99.2092196,53.7681714 97.1199535,54.1667196 95.1334104,54.1872211 C93.1468673,54.2077225 91.3377547,53.917422 89.7043748,53.3154994 C88.0709949,52.7135768 86.6557951,51.8352947 85.4604735,50.680653 C84.2651518,49.5260113 83.3652647,48.1524141 82.7616612,46.5606815" id="Fill-8"></path>
                    <polygon id="Fill-10" points="109.754768 14.3920215 115.457611 12.6823529 124.773842 45.5600741 119.071 47.2705882"></polygon>
                    <polygon id="Fill-12" points="122.463215 10.7152371 128.20421 9.22352941 136.326975 42.320057 130.585981 43.8117647"></polygon>
                    <polygon id="Fill-14" points="161.338817 17.4418444 155.47302 18.2797032 154.811989 13.7719055 160.677787 12.9340467 159.584019 5.48239827 165.676407 4.61176471 166.770174 12.0642535 172.635972 11.2263948 173.297003 15.7341925 167.431205 16.5720512 170.285734 36.0243245 164.193346 36.8941176"></polygon>
                    <path d="M181.988893,22.510968 C182.055968,23.4892418 182.313368,24.4021842 182.761092,25.2506437 C183.208817,26.0982547 183.825906,26.8296268 184.614036,27.4456084 C185.401327,28.0624384 186.342891,28.5290911 187.438727,28.846415 C188.534563,29.1645873 189.762872,29.2757355 191.124492,29.1798595 C192.486112,29.0848321 193.686752,28.8031435 194.728928,28.3356424 C195.770266,27.8681412 196.640562,27.2742195 197.336464,26.5547259 C198.032366,25.8343838 198.54465,25.0232565 198.873317,24.1204956 C199.201146,23.2194317 199.331942,22.2793386 199.264029,21.3010648 C199.197792,20.322791 198.940392,19.4064547 198.491829,18.552056 C198.043266,17.6976573 197.425338,16.962043 196.638047,16.3452129 C195.849917,15.7300798 194.908353,15.2625786 193.813356,14.9452548 C192.71752,14.6270825 191.488373,14.5159343 190.127591,14.6109617 C188.765971,14.7068376 187.564492,14.9885262 186.522316,15.4560274 C185.480979,15.9226801 184.612359,16.5174502 183.915619,17.2369438 C183.219717,17.9581344 182.707432,18.7726555 182.380442,19.6805071 C182.051776,20.5892073 181.921818,21.5335427 181.988893,22.510968 M175.63774,22.9555608 C175.517844,21.2068858 175.755959,19.5430567 176.352926,17.9649221 C176.949054,16.385939 177.858757,14.9800416 179.080358,13.7446846 C180.30196,12.5110245 181.812821,11.4979639 183.612943,10.7071996 C185.412227,9.91643539 187.461365,9.44129808 189.762872,9.27924232 C192.06354,9.11888348 194.158792,9.3046961 196.049465,9.8366802 C197.938461,10.3678158 199.573411,11.160277 200.950962,12.2123668 C202.329351,13.265305 203.420994,14.5312065 204.226731,16.0117683 C205.032468,17.4914817 205.496123,19.1061001 205.61602,20.856472 C205.735078,22.605147 205.496962,24.268976 204.899995,25.8479591 C204.303867,27.4260938 203.394164,28.8328396 202.172563,30.0664997 C200.950962,31.3018567 199.4401,32.3140689 197.640816,33.1048331 C195.840694,33.8955974 193.790718,34.3715831 191.490888,34.531942 C189.19022,34.6931493 187.09413,34.5081851 185.204295,33.976201 C183.31446,33.4442169 181.680348,32.6517558 180.30196,31.599666 C178.923571,30.5475762 177.831927,29.2808262 177.02619,27.8002644 C176.219615,26.3205511 175.757636,24.7059327 175.63774,22.9555608" id="Fill-16"></path>
                    <path d="M231.646771,14.4140947 L227.59673,14.161303 L227.866568,9.57202954 L231.915787,9.82482131 C232.012863,8.17149526 232.326303,6.71412526 232.85693,5.45355958 C233.386734,4.19299391 234.109045,3.14619845 235.023039,2.30978005 C235.937857,1.47505823 237.026259,0.861741279 238.289892,0.470677499 C239.553524,0.0796137199 240.960303,-0.0679895287 242.511872,0.028716048 C243.593693,0.095731316 244.650834,0.268783401 245.680826,0.547872302 C246.710818,0.826112908 247.614118,1.19087956 248.392371,1.64047566 L245.986039,6.65644123 C245.676712,6.4435193 245.23658,6.23568714 244.663996,6.03464134 C244.092236,5.83274724 243.458774,5.71059283 242.764434,5.66648151 C241.400435,5.58250035 240.278303,5.90994204 239.396393,6.65050317 C238.514483,7.39106429 237.999486,8.57189028 237.850582,10.1946777 L245.32872,10.6612397 L245.059704,15.2505131 L237.581566,14.7847994 L236.419123,34.5882353 L230.485151,34.2183789 L231.646771,14.4140947 Z" id="Fill-18"></path>
                    <path d="M256.824348,8.61532797 C256.233888,8.54779747 255.709866,8.40285396 255.25228,8.18132099 C254.795525,7.95978801 254.416002,7.68719538 254.113713,7.36189603 C253.811425,7.03659667 253.592182,6.6742379 253.455155,6.27399616 C253.318959,5.87375442 253.275775,5.460336 253.325603,5.0337409 C253.377922,4.59479265 253.515779,4.196198 253.741666,3.8371334 C253.967552,3.47889233 254.264028,3.17829926 254.632754,2.9378248 C255.00148,2.6965268 255.433321,2.52193575 255.929939,2.40993395 C256.426556,2.29793214 256.96968,2.27652003 257.56014,2.34487408 C258.163887,2.4148752 258.694554,2.55981871 259.152139,2.78135169 C259.609725,3.00370821 259.989247,3.27300667 260.292367,3.59089414 C260.594656,3.90878161 260.814729,4.26866976 260.951755,4.66891149 C261.088782,5.06915323 261.131135,5.48915999 261.079647,5.92810824 C261.028988,6.35470334 260.891131,6.74670965 260.666076,7.10577426 C260.440189,7.46401532 260.142053,7.76707902 259.773327,8.01496537 C259.40377,8.26202817 258.971098,8.44156047 258.474481,8.55356227 C257.979524,8.66474053 257.428926,8.6853291 256.824348,8.61532797 L256.824348,8.61532797 Z M253.466782,11.4870213 L259.428684,12.1746794 L256.664069,35.7411765 L250.702997,35.0535183 L253.466782,11.4870213 Z" id="Fill-20"></path>
                    <path d="M267.978001,12.6823529 L273.958337,13.8164017 L273.571612,15.8174677 C275.332517,15.2258264 276.972938,14.8870304 278.491192,14.8010797 C280.007761,14.7159635 281.460297,14.8044176 282.847114,15.0672766 C284.666154,15.4119139 286.298151,15.9960449 287.745631,16.8163318 C289.192269,17.6366187 290.381091,18.6755375 291.31041,19.9305848 C292.241415,21.1847976 292.875846,22.6501321 293.214546,24.3257537 C293.553247,26.0013753 293.526286,27.8589121 293.131135,29.9000329 L290.886614,41.5058824 L284.927341,40.3751715 L286.986504,29.7306349 C287.235896,28.4363674 287.274652,27.2439055 287.101932,26.1532494 C286.928369,25.0625933 286.56355,24.1012805 286.004947,23.269311 C285.446345,22.436507 284.708281,21.7438945 283.789915,21.18897 C282.870705,20.6348799 281.798154,20.2410087 280.572261,20.0081908 C279.926877,19.8863577 279.249476,19.8271102 278.544272,19.830448 C277.838225,19.8354549 277.134706,19.8988748 276.433714,20.0223768 C275.732722,20.1442099 275.044369,20.3319663 274.366968,20.5839771 C273.689567,20.8359879 273.055978,21.1480808 272.467887,21.5202557 L269.39178,37.4269787 L263.411444,36.29293 L267.978001,12.6823529 Z" id="Fill-22"></path>
                    <path d="M303.487252,33.6197647 C303.213181,34.556503 303.138661,35.496626 303.262862,36.44098 C303.387891,37.3844879 303.70419,38.2755316 304.210931,39.113265 C304.718499,39.9509984 305.405746,40.7007275 306.275154,41.3607598 C307.143734,42.0224846 308.185368,42.5378176 309.399227,42.9092974 C310.173415,43.1462321 310.969958,43.3070092 311.788858,43.3916287 C312.608586,43.4770944 313.416721,43.4906336 314.214093,43.4330923 C315.012292,43.3738586 315.782339,43.2426983 316.524234,43.0387652 C317.266129,42.8348322 317.940956,42.5589725 318.548713,42.2128786 L320.918472,34.1181738 C320.476316,33.464911 319.980339,32.8751128 319.43137,32.3479331 C318.882401,31.8207534 318.303623,31.3485764 317.693381,30.9322482 C317.083968,30.5159201 316.45137,30.1537485 315.796416,29.8457334 C315.140633,29.5377183 314.490647,29.2847059 313.844801,29.0875424 C312.528269,28.6847534 311.302817,28.5087447 310.170103,28.5578241 C309.037388,28.6060572 308.026391,28.8404533 307.137938,29.2584738 C306.248658,29.6764943 305.491859,30.2569843 304.865885,30.9999439 C304.239911,31.7437496 303.780367,32.6170232 303.487252,33.6197647 M297.464323,31.7784436 C298.009152,29.91766 298.842956,28.3437366 299.964907,27.0549811 C301.087685,25.7670718 302.40753,24.776177 303.926096,24.0822968 C305.443834,23.3892628 307.117238,23.0093211 308.944651,22.9424717 C310.771236,22.8756222 312.653298,23.1379428 314.590008,23.7302795 C315.415532,23.9824458 316.217044,24.2853837 316.993715,24.6382472 C317.769558,24.9902644 318.501517,25.3718985 319.190419,25.7831495 C319.878494,26.1960928 320.511092,26.6293448 321.088213,27.0854441 C321.664507,27.5423896 322.160483,27.9993351 322.575315,28.4562806 L325.841806,17.2941176 L331.574932,19.045742 L321.964246,51.8823529 L316.231948,50.1298824 L316.874482,47.9331592 C316.266724,48.1353999 315.57451,48.2902536 314.79701,48.3977205 C314.020339,48.5051873 313.203095,48.5568052 312.346107,48.5534204 C311.489119,48.5508818 310.617227,48.4891096 309.731259,48.369796 C308.84529,48.2487901 307.98913,48.0626271 307.16195,47.8104609 C305.226068,47.2181241 303.531964,46.3846217 302.082123,45.3082612 C300.631453,44.2327469 299.478866,42.9888397 298.626018,41.5782321 C297.77317,40.1676244 297.235793,38.6267026 297.014715,36.956313 C296.792809,35.2859234 296.943506,33.5596848 297.464323,31.7784436" id="Fill-24"></path>
                    <path d="M351.295697,49.9236539 C350.878228,50.8090265 350.661794,51.7298816 350.647251,52.687064 C350.633564,53.6434015 350.827755,54.5828427 351.229825,55.5028529 C351.632751,56.4245528 352.244412,57.2913394 353.067373,58.1023677 C353.890334,58.9142408 354.932295,59.6103735 356.194968,60.1907656 C357.455929,60.7728474 358.666418,61.1133104 359.824723,61.2146889 C360.983028,61.3160674 362.048087,61.2231371 363.021611,60.9350531 C363.995135,60.6478139 364.848037,60.1907656 365.581174,59.565598 C366.315167,58.9395855 366.890042,58.1843154 367.309222,57.2997876 C367.726691,56.4152598 367.94398,55.4910255 367.961089,54.5279293 C367.978198,53.565678 367.784862,52.6220127 367.383648,51.7011577 C366.980722,50.7803026 366.368206,49.9135161 365.545245,49.1024877 C364.722283,48.2906146 363.681177,47.5944819 362.418505,47.0140898 C361.156688,46.432008 359.9462,46.0907002 358.78875,45.9901665 C357.629589,45.888788 356.56453,45.9817183 355.591007,46.2698023 C354.618338,46.5578864 353.763725,47.0174691 353.027166,47.6493953 C352.290607,48.2813215 351.713165,49.0391261 351.295697,49.9236539 M345.409214,47.2117779 C346.156894,45.6294279 347.181746,44.2963001 348.485481,43.2123945 C349.78836,42.1284889 351.286286,41.3478742 352.980971,40.8680157 C354.673944,40.3890021 356.51748,40.2436929 358.509867,40.4337777 C360.501399,40.6221728 362.563935,41.2084787 364.696619,42.1910057 C366.828448,43.1735327 368.608679,44.3571272 370.036457,45.7434787 C371.463379,47.1281406 372.535282,48.6158707 373.252165,50.2058242 C373.968193,51.7957776 374.324923,53.4305066 374.321502,55.1142352 C374.31808,56.7962742 373.942529,58.4284687 373.195704,60.0108187 C372.448024,61.5940136 371.422317,62.9271414 370.119438,64.011047 C368.815703,65.0949526 367.317776,65.8764121 365.623948,66.3554258 C363.930974,66.8352842 362.087439,66.9789038 360.095051,66.7905087 C358.102664,66.6004239 356.040128,66.0149628 353.908299,65.0324358 C351.775615,64.0507536 349.994528,62.8663143 348.568461,61.4808076 C347.140683,60.094456 346.068781,58.6067259 345.352753,57.0176173 C344.63587,55.4285087 344.279139,53.7920901 344.283417,52.1100511 C344.286839,50.4271673 344.661534,48.7949728 345.409214,47.2117779" id="Fill-26"></path>
                    <path d="M383.067582,51.8823529 L388.295013,54.9486147 L382.253696,65.0661082 C381.68018,66.0257779 381.26438,66.962877 381.005455,67.8782414 C380.745686,68.7927699 380.705202,69.6830558 380.884004,70.5457554 C381.061963,71.409291 381.486196,72.2477481 382.158391,73.0602907 C382.828899,73.8736693 383.802189,74.6536099 385.079106,75.4026204 C385.681298,75.756227 386.33072,76.0496451 387.027374,76.2845469 C387.72487,76.5202846 388.425741,76.6899823 389.129141,76.79364 C389.832542,76.8981336 390.523292,76.9357513 391.202233,76.9073291 C391.881175,76.8780708 392.509513,76.7811007 393.088089,76.6147468 L401.426001,62.6518869 L406.6703,65.72818 L394.284882,86.4705882 L389.03974,83.3934591 L390.099058,81.6195749 C388.356582,81.6254265 386.738085,81.4114235 385.242727,80.9767299 C383.748211,80.5420363 382.41563,79.9819503 381.245825,79.296472 C379.332137,78.1729562 377.829188,76.9834004 376.73782,75.7261328 C375.64561,74.4697011 374.926184,73.1497373 374.579544,71.7687491 C374.231218,70.3869251 374.235435,68.9432408 374.593039,67.4368602 C374.9498,65.9313157 375.614404,64.3647468 376.586007,62.7363177 L383.067582,51.8823529 Z" id="Fill-28"></path>
                    <polygon id="Fill-30" points="411.90403 74.2429191 407.22217 70.967014 409.773747 67.3181748 414.455607 70.5957228 418.67347 64.5647059 423.536823 67.9671129 419.318139 73.9981298 424 77.2740349 421.449244 80.9228741 416.767384 77.6461475 405.756265 93.3882353 400.893733 89.9850069"></polygon>
                </g>
                <g id="Page-1" transform="translate(185.000000, 76.000000)" fill="#FFC8D7">
                    <g id="Group-3" transform="translate(0.000000, 0.880880)">
                        <path d="M26.8896857,50.81912 C13.7643796,50.81912 3.08560408,40.16122 3.08560408,27.05912 C3.08560408,13.95812 13.7643796,3.30022 26.8896857,3.30022 C40.0160939,3.30022 50.6937673,13.95812 50.6937673,27.05912 C50.6937673,40.16122 40.0160939,50.81912 26.8896857,50.81912 M26.8896857,0.21912 C12.0628286,0.21912 -0.000110204082,12.25972 -0.000110204082,27.05912 C-0.000110204082,41.85852 12.0628286,53.90022 26.8896857,53.90022 C41.7176449,53.90022 53.7805837,41.85852 53.7805837,27.05912 C53.7805837,12.25972 41.7176449,0.21912 26.8896857,0.21912" id="Fill-1"></path>
                    </g>
                    <path d="M37.1809837,28.0489 L28.4329837,38.4296 L28.4329837,13.2286 C28.4329837,12.3783 27.7420041,11.6886 26.8901265,11.6886 C26.0371469,11.6886 25.3472694,12.3783 25.3472694,13.2286 L25.3472694,38.4296 L16.5992694,28.0489 C16.0504531,27.3977 15.077351,27.3163 14.4249429,27.8619 C13.7725347,28.4097 13.6898816,29.381 14.2375959,30.0322 L25.7087388,43.6436 C26.0018816,43.9912 26.4349837,44.1925 26.8901265,44.1925 C27.3452694,44.1925 27.7772694,43.9912 28.0704122,43.6436 L39.5426571,30.0322 C40.0914735,29.381 40.0066163,28.4097 39.3553102,27.8619 C38.702902,27.3141 37.728698,27.3977 37.1809837,28.0489" id="Fill-4"></path>
                </g>
            </g>
        </g>
    </g>
</svg>