<?xml version="1.0" encoding="UTF-8"?>
<svg width="120px" height="80px" viewBox="0 0 120 80" version="1.1" xmlns="http://www.w3.org/2000/svg" xmlns:xlink="http://www.w3.org/1999/xlink">
    <!-- Generator: Sketch 47.1 (45422) - http://www.bohemiancoding.com/sketch -->
    <title>Group</title>
    <desc>Created with Sketch.</desc>
    <defs></defs>
    <g id="Page-1" stroke="none" stroke-width="1" fill="none" fill-rule="evenodd">
        <g id="Group">
            <rect id="Rectangle-6" fill="#FFFCF5" x="0" y="0" width="120" height="80"></rect>
            <g id="Page-1" transform="translate(24.000000, 16.000000)">
                <path d="M68.6017,18.8879 C64.4737,11.7009 57.2667,6.1369 48.9727,3.0229 C44.8457,1.4729 40.4517,0.5209 36.0047,0.1739 C14.5547,-1.4981 -1.0503,8.9959 0.2397,26.5859 C0.9277,35.9719 12.0447,40.5929 21.2837,40.1119 C26.3167,39.8489 30.6847,35.8489 35.5057,34.8849 C41.2897,33.7289 47.1227,36.3519 52.2757,38.9189 C56.4397,40.9939 61.4407,42.0859 65.8767,40.1529 C69.0417,38.7739 71.3187,36.8699 71.6747,34.3409 C72.3987,29.1969 71.1847,23.3849 68.6017,18.8879" id="Fill-1" fill="#FFC8D7"></path>
                <path d="M68.6017,18.8879 C64.4737,11.7009 57.2667,6.1369 48.9727,3.0229 C44.8457,1.4729 40.4517,0.5209 36.0047,0.1739 C14.5547,-1.4981 -1.0503,8.9959 0.2397,26.5859 C0.9277,35.9719 12.0447,40.5929 21.2837,40.1119 C26.3167,39.8489 30.6847,35.8489 35.5057,34.8849 C41.2897,33.7289 47.1227,36.3519 52.2757,38.9189 C56.4397,40.9939 61.4407,42.0859 65.8767,40.1529 C69.0417,38.7739 71.3187,36.8699 71.6747,34.3409 C72.3987,29.1969 71.1847,23.3849 68.6017,18.8879 Z" id="Stroke-3" stroke="#3723FF" stroke-width="2" stroke-linecap="round" stroke-linejoin="round"></path>
                <path d="M71.7169,33.4465 C70.8849,36.0725 69.0939,38.3395 65.9229,39.8345 C61.4759,41.9315 56.4759,40.7735 52.3169,38.5545 C47.1699,35.8085 41.3419,33.0065 35.5509,34.2715 C30.7229,35.3255 26.3379,39.6475 21.3009,39.9475 C12.0549,40.4995 0.9469,35.5645 0.2909,25.4625 L-0.0001,31.7195 C0.6549,41.8225 11.7639,46.7575 21.0089,46.2065 C26.0469,45.9065 30.4309,41.5845 35.2589,40.5295 C41.0499,39.2645 46.8779,42.0675 52.0249,44.8125 C56.1839,47.0325 61.1839,48.1895 65.6309,46.0925 C68.8019,44.5965 70.5929,42.3315 71.4249,39.7045 L71.7169,33.4465 Z" id="Fill-5" fill="#3723FF"></path>
                <path d="M71.7169,33.4465 C70.8849,36.0725 69.0939,38.3395 65.9229,39.8345 C61.4759,41.9315 56.4759,40.7735 52.3169,38.5545 C47.1699,35.8085 41.3419,33.0065 35.5509,34.2715 C30.7229,35.3255 26.3379,39.6475 21.3009,39.9475 C12.0549,40.4995 0.9469,35.5645 0.2909,25.4625 L-0.0001,31.7195 C0.6549,41.8225 11.7639,46.7575 21.0089,46.2065 C26.0469,45.9065 30.4309,41.5845 35.2589,40.5295 C41.0499,39.2645 46.8779,42.0675 52.0249,44.8125 C56.1839,47.0325 61.1839,48.1895 65.6309,46.0925 C68.8019,44.5965 70.5929,42.3315 71.4249,39.7045 L71.7169,33.4465 Z" id="Stroke-7" stroke="#3723FF" stroke-width="2" stroke-linecap="round" stroke-linejoin="round"></path>
                <path d="M66.3576,16.715 L51.9106,38.226" id="Stroke-9" stroke="#3723FF" stroke-width="2" stroke-linecap="round" stroke-linejoin="round"></path>
                <path d="M55.923,7.3244 L37.163,35.2564" id="Stroke-11" stroke="#3723FF" stroke-width="2" stroke-linecap="round" stroke-linejoin="round"></path>
                <path d="M42.7599,1.8664 L17.0759,40.1074" id="Stroke-13" stroke="#3723FF" stroke-width="2" stroke-linecap="round" stroke-linejoin="round"></path>
                <path d="M27.3498,0.6623 L3.6298,35.9783" id="Stroke-15" stroke="#3723FF" stroke-width="2" stroke-linecap="round" stroke-linejoin="round"></path>
                <path d="M21.5714,18.9621 C21.5714,22.5091 18.6964,25.3841 15.1494,25.3841 C11.6034,25.3841 8.7284,22.5091 8.7284,18.9621 C8.7284,15.4161 11.6034,12.5411 15.1494,12.5411 C18.6964,12.5411 21.5714,15.4161 21.5714,18.9621" id="Fill-17" fill="#FFFCF5"></path>
                <path d="M21.5714,18.9621 C21.5714,22.5091 18.6964,25.3841 15.1494,25.3841 C11.6034,25.3841 8.7284,22.5091 8.7284,18.9621 C8.7284,15.4161 11.6034,12.5411 15.1494,12.5411 C18.6964,12.5411 21.5714,15.4161 21.5714,18.9621 Z" id="Stroke-19" stroke="#3723FF" stroke-width="2" stroke-linecap="round" stroke-linejoin="round"></path>
            </g>
        </g>
    </g>
</svg>