<?xml version="1.0" encoding="UTF-8"?>
<svg width="322px" height="289px" viewBox="0 0 322 289" version="1.1" xmlns="http://www.w3.org/2000/svg" xmlns:xlink="http://www.w3.org/1999/xlink">
    <!-- Generator: Sketch 47.1 (45422) - http://www.bohemiancoding.com/sketch -->
    <title>Group 4</title>
    <desc>Created with Sketch.</desc>
    <defs>
        <polygon id="path-1" points="0 144.03445 0 288.068 322 288.068 322 144.03445 322 0.0009 0 0.0009"></polygon>
    </defs>
    <g id="Page-1" stroke="none" stroke-width="1" fill="none" fill-rule="evenodd">
        <g id="21-by-2050" transform="translate(-406.000000, -12891.000000)">
            <g id="Group-4" transform="translate(406.000000, 12891.000000)">
                <g id="Page-1-Copy">
                    <mask id="mask-2" fill="white">
                        <use xlink:href="#path-1"></use>
                    </mask>
                    <g id="Clip-2"></g>
                    <path d="M322,179.186144 C322,264.655144 256.582,247.4469 175.328,279.3889 C87.664,313.8509 0,240.2239 0,154.7549 C0,69.2859 72.082,0.0009 161,0.0009 C249.918,0.0009 322,69.2859 322,154.7549 L322,179.186144 Z" id="Fill-1" fill="#E2F8FF" mask="url(#mask-2)" transform="translate(161.000000, 144.034478) rotate(-180.000000) translate(-161.000000, -144.034478) "></path>
                </g>
                <g id="Page-1" transform="translate(54.000000, 37.000000)">
                    <path d="M107.806569,215.321586 C48.5228018,215.321586 0.290873543,167.090626 0.290873543,107.805891 C0.290873543,48.5221238 48.5228018,0.290195516 107.806569,0.290195516 C167.090335,0.290195516 215.322264,48.5221238 215.322264,107.805891 C215.322264,167.090626 167.090335,215.321586 107.806569,215.321586" id="Fill-1" fill="#FFFCF5"></path>
                    <path d="M107.806569,215.321586 C48.5228018,215.321586 0.290873543,167.090626 0.290873543,107.805891 C0.290873543,48.5221238 48.5228018,0.290195516 107.806569,0.290195516 C167.090335,0.290195516 215.322264,48.5221238 215.322264,107.805891 C215.322264,167.090626 167.090335,215.321586 107.806569,215.321586 Z" id="Stroke-3" stroke="#3723FF" stroke-width="2.6" stroke-linecap="round" stroke-linejoin="round"></path>
                    <path d="M198.860642,107.805891 C198.860642,158.094178 158.09379,198.860061 107.806472,198.860061 C57.5181848,198.860061 16.7523013,158.094178 16.7523013,107.805891 C16.7523013,57.5185722 57.5181848,16.7526888 107.806472,16.7526888 C158.09379,16.7526888 198.860642,57.5185722 198.860642,107.805891 Z" id="Stroke-5" stroke="#3723FF" stroke-width="2.6" stroke-linecap="round" stroke-linejoin="round"></path>
                    <path d="M152.094996,55.2928036 C144.771336,42.5429919 131.984717,32.6699516 117.270565,27.1440323 C109.947874,24.3951175 102.152502,22.7058619 94.2641435,22.0917632 C56.2074619,19.1239426 28.5207175,37.74353 30.808574,68.9502027 C32.029991,85.6035121 51.7537937,93.8008574 68.1436413,92.9465435 C77.0742242,92.4816108 84.8231031,85.3836377 93.3778655,83.6740413 C103.639318,81.6234942 113.988915,86.2757274 123.130655,90.8310996 C130.517274,94.5127857 139.38974,96.4500054 147.262601,93.0191892 C152.876664,90.5734493 156.916735,87.1968753 157.5473,82.7093058 C158.831677,73.5820951 156.677489,63.2702744 152.094996,55.2928036" id="Fill-7" fill="#FFC8D7"></path>
                    <path d="M152.094996,55.2928036 C144.771336,42.5429919 131.984717,32.6699516 117.270565,27.1440323 C109.947874,24.3951175 102.152502,22.7058619 94.2641435,22.0917632 C56.2074619,19.1239426 28.5207175,37.74353 30.808574,68.9502027 C32.029991,85.6035121 51.7537937,93.8008574 68.1436413,92.9465435 C77.0742242,92.4816108 84.8231031,85.3836377 93.3778655,83.6740413 C103.639318,81.6234942 113.988915,86.2757274 123.130655,90.8310996 C130.517274,94.5127857 139.38974,96.4500054 147.262601,93.0191892 C152.876664,90.5734493 156.916735,87.1968753 157.5473,82.7093058 C158.831677,73.5820951 156.677489,63.2702744 152.094996,55.2928036 Z" id="Stroke-9" stroke="#3723FF" stroke-width="2.6" stroke-linecap="round" stroke-linejoin="round"></path>
                    <path d="M157.620915,81.1207857 C156.145722,85.7817363 152.967713,89.8014673 147.342027,92.4544897 C139.451731,96.1749202 130.581202,94.1214673 123.202332,90.1840682 C114.072215,85.3129291 103.731336,80.3410547 93.4572915,82.5853238 C84.8918744,84.4557094 77.1129686,92.1232251 68.1746368,92.6559605 C51.7721973,93.6332879 32.0638924,84.8789919 30.9015605,66.955835 L30.3843229,78.0599785 C31.5466547,95.9821668 51.2549596,104.737431 67.6573991,103.759135 C76.5957309,103.2264 84.3746368,95.5588843 92.9400538,93.6884987 C103.214099,91.4442296 113.554978,96.416104 122.685094,101.287243 C130.063964,105.225611 138.934493,107.279064 146.824789,103.557665 C152.450475,100.904642 155.627516,96.8839426 157.103677,92.2249291 L157.620915,81.1207857 Z" id="Fill-11" fill="#3723FF"></path>
                    <path d="M157.620915,81.1207857 C156.145722,85.7817363 152.967713,89.8014673 147.342027,92.4544897 C139.451731,96.1749202 130.581202,94.1214673 123.202332,90.1840682 C114.072215,85.3129291 103.731336,80.3410547 93.4572915,82.5853238 C84.8918744,84.4557094 77.1129686,92.1232251 68.1746368,92.6559605 C51.7721973,93.6332879 32.0638924,84.8789919 30.9015605,66.955835 L30.3843229,78.0599785 C31.5466547,95.9821668 51.2549596,104.737431 67.6573991,103.759135 C76.5957309,103.2264 84.3746368,95.5588843 92.9400538,93.6884987 C103.214099,91.4442296 113.554978,96.416104 122.685094,101.287243 C130.063964,105.225611 138.934493,107.279064 146.824789,103.557665 C152.450475,100.904642 155.627516,96.8839426 157.103677,92.2249291 L157.620915,81.1207857 Z" id="Stroke-13" stroke="#3723FF" stroke-width="2.6" stroke-linecap="round" stroke-linejoin="round"></path>
                    <path d="M148.113622,51.437252 L122.481299,89.6004807" id="Stroke-15" stroke="#3723FF" stroke-width="2.6" stroke-linecap="round" stroke-linejoin="round"></path>
                    <path d="M129.602228,34.7769686 L96.3188556,84.3320179" id="Stroke-17" stroke="#3723FF" stroke-width="2.6" stroke-linecap="round" stroke-linejoin="round"></path>
                    <path d="M106.248657,25.0937758 L60.6804054,92.9390852" id="Stroke-19" stroke="#3723FF" stroke-width="2.6" stroke-linecap="round" stroke-linejoin="round"></path>
                    <path d="M78.9072215,22.9578942 L36.8249973,85.6143605" id="Stroke-21" stroke="#3723FF" stroke-width="2.6" stroke-linecap="round" stroke-linejoin="round"></path>
                    <path d="M68.6544861,55.4252126 C68.6544861,61.7163336 63.5537865,66.8170332 57.2626655,66.8170332 C50.9705758,66.8170332 45.8708448,61.7163336 45.8708448,55.4252126 C45.8708448,49.1331229 50.9705758,44.0324233 57.2626655,44.0324233 C63.5537865,44.0324233 68.6544861,49.1331229 68.6544861,55.4252126" id="Fill-23" fill="#FFFCF5"></path>
                    <path d="M68.6544861,55.4252126 C68.6544861,61.7163336 63.5537865,66.8170332 57.2626655,66.8170332 C50.9705758,66.8170332 45.8708448,61.7163336 45.8708448,55.4252126 C45.8708448,49.1331229 50.9705758,44.0324233 57.2626655,44.0324233 C63.5537865,44.0324233 68.6544861,49.1331229 68.6544861,55.4252126 Z" id="Stroke-25" stroke="#3723FF" stroke-width="2.6" stroke-linecap="round" stroke-linejoin="round"></path>
                    <path d="M125.152628,132.206529 C123.413973,129.616466 124.178206,123.759283 121.352771,121.718422 C118.883785,119.933274 114.00974,122.776143 110.876287,121.497578 C108.061507,120.350744 106.196933,114.652413 102.96565,113.977291 C99.9842691,113.352538 96.3626368,117.872072 93.1177937,117.697722 C90.065704,117.534996 86.785991,112.613489 83.5750493,112.887605 C80.3650762,113.161722 77.9667982,118.568502 74.9863857,119.246529 C71.8180628,119.968143 67.4835336,116.128574 64.6513184,117.249256 C61.5808251,118.463892 60.7090762,124.395659 58.1306368,126.002583 C55.2596771,127.792574 49.9739731,125.817578 47.844,127.994045 C45.4050404,130.486278 47.1514439,136.129399 45.8767534,138.975175 C44.462583,142.135749 39.477148,144.548556 39.7667623,147.938691 C40.0563767,151.328825 45.3788879,152.861166 47.3083587,155.736 C49.0460448,158.325094 48.2827803,164.183247 51.1072466,166.224108 C53.5762332,168.008287 58.4512466,165.166386 61.5837309,166.443982 C64.3975426,167.590816 66.2630852,173.289148 69.4953363,173.965238 C72.4757489,174.589022 76.0973812,170.070457 79.3422242,170.243839 C82.3943139,170.406565 85.6740269,175.32904 88.8849686,175.053955 C92.0949417,174.779839 94.4941883,169.374027 97.4736323,168.695031 C100.641955,167.973417 104.976484,171.813955 107.809668,170.693274 C110.879193,169.478637 111.750942,163.54687 114.329381,161.938978 C117.200341,160.149955 122.487013,162.123982 124.616987,159.947516 C127.054978,157.456251 125.309543,151.81313 126.583265,148.966386 C127.997435,145.805812 132.98287,143.393004 132.693256,140.00287 C132.403641,136.613704 127.08113,135.080395 125.152628,132.206529" id="Fill-27" fill="#8CE06E"></path>
                    <path d="M125.152628,132.206529 C123.413973,129.616466 124.178206,123.759283 121.352771,121.718422 C118.883785,119.933274 114.00974,122.776143 110.876287,121.497578 C108.061507,120.350744 106.196933,114.652413 102.96565,113.977291 C99.9842691,113.352538 96.3626368,117.872072 93.1177937,117.697722 C90.065704,117.534996 86.785991,112.613489 83.5750493,112.887605 C80.3650762,113.161722 77.9667982,118.568502 74.9863857,119.246529 C71.8180628,119.968143 67.4835336,116.128574 64.6513184,117.249256 C61.5808251,118.463892 60.7090762,124.395659 58.1306368,126.002583 C55.2596771,127.792574 49.9739731,125.817578 47.844,127.994045 C45.4050404,130.486278 47.1514439,136.129399 45.8767534,138.975175 C44.462583,142.135749 39.477148,144.548556 39.7667623,147.938691 C40.0563767,151.328825 45.3788879,152.861166 47.3083587,155.736 C49.0460448,158.325094 48.2827803,164.183247 51.1072466,166.224108 C53.5762332,168.008287 58.4512466,165.166386 61.5837309,166.443982 C64.3975426,167.590816 66.2630852,173.289148 69.4953363,173.965238 C72.4757489,174.589022 76.0973812,170.070457 79.3422242,170.243839 C82.3943139,170.406565 85.6740269,175.32904 88.8849686,175.053955 C92.0949417,174.779839 94.4941883,169.374027 97.4736323,168.695031 C100.641955,167.973417 104.976484,171.813955 107.809668,170.693274 C110.879193,169.478637 111.750942,163.54687 114.329381,161.938978 C117.200341,160.149955 122.487013,162.123982 124.616987,159.947516 C127.054978,157.456251 125.309543,151.81313 126.583265,148.966386 C127.997435,145.805812 132.98287,143.393004 132.693256,140.00287 C132.403641,136.613704 127.08113,135.080395 125.152628,132.206529 Z" id="Stroke-29" stroke="#3723FF" stroke-width="2.6" stroke-linecap="round" stroke-linejoin="round"></path>
                    <path d="M180.120366,159.704007 C178.980312,156.664509 177.642662,152.07233 175.322841,149.365065 C173.295541,146.99972 167.91685,148.885604 165.13016,146.898985 C162.62824,145.115774 162.035451,138.846931 159.023074,137.459882 C156.245101,136.180348 151.730411,140.062536 148.595989,139.18885 C145.648509,138.368438 143.505944,132.59746 140.308563,132.19355 C137.113119,131.789639 133.601909,136.845783 130.54207,136.908743 C127.290447,136.974608 123.881909,132.092814 120.873406,132.642016 C117.61016,133.235774 115.478249,139.160761 112.611164,140.265944 C109.418626,141.496079 104.678249,138.332599 102.1279,140.118716 C99.2065722,142.16442 99.6947516,148.350931 97.8350206,151.010734 C95.7699444,153.964025 90.3776933,155.384976 89.9282583,158.938805 C89.4788233,162.492635 94.3499623,165.209586 95.6149668,168.583254 C96.7550206,171.622752 94.7432179,177.492527 97.0630386,180.199792 C99.0913076,182.566106 104.468061,180.680222 107.254752,182.665873 C109.756671,184.450052 110.350429,190.718895 113.362805,192.104976 C116.141747,193.384509 120.655469,189.504258 123.790859,190.376007 C126.73737,191.197388 128.880904,196.968366 132.076348,197.372276 C135.272761,197.776187 138.78494,192.719074 141.842841,192.657083 C145.096402,192.590249 148.503003,197.472043 151.513442,196.924778 C154.77572,196.330052 156.908599,190.405065 159.775684,189.299882 C162.968222,188.068778 167.70763,191.233227 170.258949,189.446142 C173.179308,187.401406 172.691128,181.214895 174.550859,178.554124 C176.615935,175.600832 182.009155,174.179882 182.457622,170.626052 C182.907057,167.072222 181.38537,163.077675 180.120366,159.704007" id="Fill-31" fill="#8CE06E"></path>
                    <path d="M180.120366,159.704007 C178.980312,156.664509 177.642662,152.07233 175.322841,149.365065 C173.295541,146.99972 167.91685,148.885604 165.13016,146.898985 C162.62824,145.115774 162.035451,138.846931 159.023074,137.459882 C156.245101,136.180348 151.730411,140.062536 148.595989,139.18885 C145.648509,138.368438 143.505944,132.59746 140.308563,132.19355 C137.113119,131.789639 133.601909,136.845783 130.54207,136.908743 C127.290447,136.974608 123.881909,132.092814 120.873406,132.642016 C117.61016,133.235774 115.478249,139.160761 112.611164,140.265944 C109.418626,141.496079 104.678249,138.332599 102.1279,140.118716 C99.2065722,142.16442 99.6947516,148.350931 97.8350206,151.010734 C95.7699444,153.964025 90.3776933,155.384976 89.9282583,158.938805 C89.4788233,162.492635 94.3499623,165.209586 95.6149668,168.583254 C96.7550206,171.622752 94.7432179,177.492527 97.0630386,180.199792 C99.0913076,182.566106 104.468061,180.680222 107.254752,182.665873 C109.756671,184.450052 110.350429,190.718895 113.362805,192.104976 C116.141747,193.384509 120.655469,189.504258 123.790859,190.376007 C126.73737,191.197388 128.880904,196.968366 132.076348,197.372276 C135.272761,197.776187 138.78494,192.719074 141.842841,192.657083 C145.096402,192.590249 148.503003,197.472043 151.513442,196.924778 C154.77572,196.330052 156.908599,190.405065 159.775684,189.299882 C162.968222,188.068778 167.70763,191.233227 170.258949,189.446142 C173.179308,187.401406 172.691128,181.214895 174.550859,178.554124 C176.615935,175.600832 182.009155,174.179882 182.457622,170.626052 C182.907057,167.072222 181.38537,163.077675 180.120366,159.704007 Z" id="Stroke-33" stroke="#3723FF" stroke-width="2.6" stroke-linecap="round" stroke-linejoin="round"></path>
                    <path d="M198.409464,137.588707 C197.950343,134.503684 201.153535,129.540527 199.478809,126.484563 C198.014271,123.814106 192.391491,124.289693 190.110414,121.79068 C188.060836,119.547379 188.822163,113.600115 186.193356,111.602841 C183.767957,109.760545 178.558773,112.287648 175.702343,110.737873 C173.015419,109.280115 172.164011,103.427774 169.146791,102.297406 C166.129571,101.167039 161.643939,105.021137 158.660621,104.354734 C155.488423,103.647648 153.221876,98.3193256 150.182378,98.1149489 C146.889105,97.8941058 143.554181,102.877604 140.535993,103.223397 C137.172979,103.607935 133.246235,99.5562404 130.386899,100.608151 C127.116872,101.811164 126.271275,107.658662 123.900118,109.682088 C121.266468,111.930231 115.728926,111.969944 114.53463,115.155702 C113.341302,118.34146 117.490827,122.010554 118.000316,125.435559 C118.459437,128.520581 115.255275,133.483738 116.93097,136.539702 C118.395509,139.21016 124.01732,138.735541 126.299365,141.233586 C128.348943,143.476886 127.587616,149.424151 130.216423,151.421424 C132.641822,153.264689 137.851006,150.735648 140.708405,152.286393 C143.394361,153.744151 144.2448,159.596491 147.26202,160.726859 C150.280208,161.857227 154.76584,158.00216 157.74819,158.669532 C160.920387,159.376617 163.187903,164.70494 166.226432,164.909317 C169.521643,165.13016 172.85463,160.146662 175.872818,159.801837 C179.235831,159.41633 183.163544,163.468025 186.021912,162.416115 C189.292908,161.213101 190.137535,155.366572 192.509661,153.342178 C195.143311,151.094034 200.681822,151.054321 201.874181,147.868563 C203.068477,144.681837 198.917984,141.013711 198.409464,137.588707" id="Fill-35" fill="#8CE06E"></path>
                    <path d="M198.409464,137.588707 C197.950343,134.503684 201.153535,129.540527 199.478809,126.484563 C198.014271,123.814106 192.391491,124.289693 190.110414,121.79068 C188.060836,119.547379 188.822163,113.600115 186.193356,111.602841 C183.767957,109.760545 178.558773,112.287648 175.702343,110.737873 C173.015419,109.280115 172.164011,103.427774 169.146791,102.297406 C166.129571,101.167039 161.643939,105.021137 158.660621,104.354734 C155.488423,103.647648 153.221876,98.3193256 150.182378,98.1149489 C146.889105,97.8941058 143.554181,102.877604 140.535993,103.223397 C137.172979,103.607935 133.246235,99.5562404 130.386899,100.608151 C127.116872,101.811164 126.271275,107.658662 123.900118,109.682088 C121.266468,111.930231 115.728926,111.969944 114.53463,115.155702 C113.341302,118.34146 117.490827,122.010554 118.000316,125.435559 C118.459437,128.520581 115.255275,133.483738 116.93097,136.539702 C118.395509,139.21016 124.01732,138.735541 126.299365,141.233586 C128.348943,143.476886 127.587616,149.424151 130.216423,151.421424 C132.641822,153.264689 137.851006,150.735648 140.708405,152.286393 C143.394361,153.744151 144.2448,159.596491 147.26202,160.726859 C150.280208,161.857227 154.76584,158.00216 157.74819,158.669532 C160.920387,159.376617 163.187903,164.70494 166.226432,164.909317 C169.521643,165.13016 172.85463,160.146662 175.872818,159.801837 C179.235831,159.41633 183.163544,163.468025 186.021912,162.416115 C189.292908,161.213101 190.137535,155.366572 192.509661,153.342178 C195.143311,151.094034 200.681822,151.054321 201.874181,147.868563 C203.068477,144.681837 198.917984,141.013711 198.409464,137.588707 Z" id="Stroke-37" stroke="#3723FF" stroke-width="2.6" stroke-linecap="round" stroke-linejoin="round"></path>
                </g>
            </g>
        </g>
    </g>
</svg>