<?xml version="1.0" encoding="UTF-8"?>
<svg width="120px" height="80px" viewBox="0 0 120 80" version="1.1" xmlns="http://www.w3.org/2000/svg" xmlns:xlink="http://www.w3.org/1999/xlink">
    <!-- Generator: Sketch 47.1 (45422) - http://www.bohemiancoding.com/sketch -->
    <title>Group 3</title>
    <desc>Created with Sketch.</desc>
    <defs></defs>
    <g id="Page-1" stroke="none" stroke-width="1" fill="none" fill-rule="evenodd">
        <g id="Group-3">
            <rect id="Rectangle-6" fill="#FFFCF5" x="0" y="0" width="120" height="80"></rect>
            <g id="Page-1" transform="translate(20.000000, 18.000000)">
                <path d="M-0.0004,44.5117 C-0.0004,25.1507 15.6946,9.4547 35.0566,9.4547 C54.4166,9.4547 70.1116,25.1507 70.1116,44.5117 L-0.0004,44.5117 Z" id="Fill-1" fill="#3723FF"></path>
                <path d="M-0.0004,44.5117 C-0.0004,25.1507 15.6946,9.4547 35.0566,9.4547 C54.4166,9.4547 70.1116,25.1507 70.1116,44.5117 L-0.0004,44.5117 Z" id="Stroke-3" stroke="#3723FF" stroke-width="2" stroke-linecap="round" stroke-linejoin="round"></path>
                <path d="M12.5201,42.4502 C9.7941,40.4782 9.2141,36.3112 7.8841,33.1352 C6.6001,30.0652 3.1221,26.3532 4.8331,22.8872 C5.3411,21.8592 6.1501,21.0062 7.0511,20.3012 C7.9441,19.6022 8.9501,19.0202 9.6641,18.1402 C11.1211,16.3462 11.0231,13.8272 13.0231,12.5092 C14.9391,11.2452 17.5971,11.6292 19.3871,10.1962 C21.0701,8.8482 21.4161,5.4872 23.3261,4.4332 C25.2101,3.3942 28.2661,4.8742 30.3351,4.1552 C32.3631,3.4522 33.8201,0.3972 35.9911,0.0352 C38.0991,-0.3168 40.4851,2.0862 42.6971,2.0862 C44.9101,2.0862 47.2941,-0.3168 49.4031,0.0352 C51.5741,0.3972 53.0321,3.4522 55.0591,4.1552 C57.1281,4.8742 60.1841,3.3942 62.0691,4.4332 C63.9791,5.4872 64.3251,8.8482 66.0071,10.1972 C67.7041,11.5552 71.0851,11.1832 72.5131,12.8042 C73.9431,14.4282 73.1191,17.7022 74.2421,19.5532 C75.3591,21.3922 78.6641,22.2032 79.4381,24.2302 C80.2021,26.2292 76.8111,33.3862 77.2061,35.5322 C77.5891,37.6212 72.5501,35.1592 72.5501,37.3542 C72.5501,39.5512 72.9341,41.4692 72.5501,43.5572 C72.4191,44.2702 48.7021,43.5572 47.0531,43.5572 L24.2361,43.5572 C21.4291,43.5572 18.5391,43.7592 15.7391,43.5552 C14.4051,43.4582 13.3611,43.0582 12.5201,42.4502" id="Fill-5" fill="#FFC8D7"></path>
                <path d="M12.5201,42.4502 C9.7941,40.4782 9.2141,36.3112 7.8841,33.1352 C6.6001,30.0652 3.1221,26.3532 4.8331,22.8872 C5.3411,21.8592 6.1501,21.0062 7.0511,20.3012 C7.9441,19.6022 8.9501,19.0202 9.6641,18.1402 C11.1211,16.3462 11.0231,13.8272 13.0231,12.5092 C14.9391,11.2452 17.5971,11.6292 19.3871,10.1962 C21.0701,8.8482 21.4161,5.4872 23.3261,4.4332 C25.2101,3.3942 28.2661,4.8742 30.3351,4.1552 C32.3631,3.4522 33.8201,0.3972 35.9911,0.0352 C38.0991,-0.3168 40.4851,2.0862 42.6971,2.0862 C44.9101,2.0862 47.2941,-0.3168 49.4031,0.0352 C51.5741,0.3972 53.0321,3.4522 55.0591,4.1552 C57.1281,4.8742 60.1841,3.3942 62.0691,4.4332 C63.9791,5.4872 64.3251,8.8482 66.0071,10.1972 C67.7041,11.5552 71.0851,11.1832 72.5131,12.8042 C73.9431,14.4282 73.1191,17.7022 74.2421,19.5532 C75.3591,21.3922 78.6641,22.2032 79.4381,24.2302 C80.2021,26.2292 76.8111,33.3862 77.2061,35.5322 C77.5891,37.6212 72.5501,35.1592 72.5501,37.3542 C72.5501,39.5512 72.9341,41.4692 72.5501,43.5572 C72.4191,44.2702 48.7021,43.5572 47.0531,43.5572 L24.2361,43.5572 C21.4291,43.5572 18.5391,43.7592 15.7391,43.5552 C14.4051,43.4582 13.3611,43.0582 12.5201,42.4502 Z" id="Stroke-7" stroke="#3723FF" stroke-width="2" stroke-linecap="round" stroke-linejoin="round"></path>
                <path d="M8.0318,44.5117 C8.0318,25.1507 23.7268,9.4547 43.0878,9.4547 C62.4488,9.4547 78.1438,25.1507 78.1438,44.5117 L8.0318,44.5117 Z" id="Fill-9" fill="#FFFCF5"></path>
                <path d="M8.0318,44.5117 C8.0318,25.1507 23.7268,9.4547 43.0878,9.4547 C62.4488,9.4547 78.1438,25.1507 78.1438,44.5117 L8.0318,44.5117 Z" id="Stroke-11" stroke="#3723FF" stroke-width="2" stroke-linecap="round" stroke-linejoin="round"></path>
                <path d="M35.4185,22.1865 L26.2535,35.8325" id="Stroke-13" stroke="#3723FF" stroke-width="2" stroke-linecap="round" stroke-linejoin="round"></path>
                <path d="M45.9576,22.1865 L36.7926,35.8325" id="Stroke-15" stroke="#3723FF" stroke-width="2" stroke-linecap="round" stroke-linejoin="round"></path>
                <path d="M56.4957,22.1865 L47.3307,35.8325" id="Stroke-17" stroke="#3723FF" stroke-width="2" stroke-linecap="round" stroke-linejoin="round"></path>
            </g>
        </g>
    </g>
</svg>