<?xml version="1.0" encoding="UTF-8"?>
<svg width="100px" height="100px" viewBox="0 0 100 100" version="1.1" xmlns="http://www.w3.org/2000/svg" xmlns:xlink="http://www.w3.org/1999/xlink">
    <!-- Generator: Sketch 47.1 (45422) - http://www.bohemiancoding.com/sketch -->
    <title>Page 1</title>
    <desc>Created with Sketch.</desc>
    <defs>
        <polygon id="path-1" points="100 100 100 0 0 0 8.590238e-15 100"></polygon>
    </defs>
    <g id="Page-1" stroke="none" stroke-width="1" fill="none" fill-rule="evenodd">
        <g id="21-by-2050" transform="translate(-85.000000, -209.000000)">
            <g id="Page-1" transform="translate(85.000000, 209.000000)">
                <mask id="mask-2" fill="white">
                    <use xlink:href="#path-1"></use>
                </mask>
                <g id="Clip-2"></g>
                <path d="M60.2446419,94.6054147 C65.8230255,89.6037774 70.3440408,83.0229537 73.4950195,75.4914492 L88.0002958,75.4914492 C81.6064393,84.9919192 71.7436542,91.9646347 60.2446419,94.6054147 L60.2446419,94.6054147 Z M11.9997042,75.4914492 L26.5060368,75.4914492 C29.6559592,83.0229537 34.1769745,89.6037774 39.7564145,94.6054147 C28.2574021,91.9646347 18.3935607,84.9919192 11.9997042,75.4914492 L11.9997042,75.4914492 Z M39.7564145,5.39564166 C34.1780308,10.3972789 29.6559592,16.979159 26.5060368,24.5106635 L11.9986479,24.5106635 C18.3935607,15.0080808 28.2574021,8.03642164 39.7564145,5.39564166 L39.7564145,5.39564166 Z M88.0002958,24.5106635 L73.4950195,24.5106635 C70.3440408,16.979159 65.8219692,10.3972789 60.2425292,5.39564166 C71.7425979,8.03536533 81.6064393,15.0080808 88.0002958,24.5106635 L88.0002958,24.5106635 Z M78.48715,52.1131521 L95.7208801,52.1131521 C95.4060991,59.002419 93.5575532,65.4945125 90.5153746,71.2662012 L75.087938,71.2662012 C77.099156,65.2747996 78.2801128,58.7996071 78.48715,52.1131521 L78.48715,52.1131521 Z M52.1131521,71.2662012 L52.1131521,52.1131521 L74.2354942,52.1131521 C74.014725,58.8450285 72.7714458,65.3402909 70.6271324,71.2662012 L52.1131521,71.2662012 Z M52.1131521,95.4282817 L52.1131521,75.4914492 L68.8831613,75.4914492 C65.0138905,83.9831413 59.2400892,90.9959966 52.1131521,95.4282817 L52.1131521,95.4282817 Z M47.8879042,75.4914492 L47.8879042,95.4282817 C40.7609672,90.9959966 34.9861095,83.9831413 31.1168387,75.4914492 L47.8879042,75.4914492 Z M25.7645058,52.1131521 L47.8879042,52.1131521 L47.8879042,71.2662012 L29.3728676,71.2662012 C27.2285542,65.3402909 25.985275,58.8450285 25.7645058,52.1131521 L25.7645058,52.1131521 Z M47.8879042,28.7359114 L47.8879042,47.8879042 L25.7645058,47.8879042 C25.985275,41.1570842 27.2285542,34.6618217 29.3728676,28.7359114 L47.8879042,28.7359114 Z M47.8879042,4.57383093 L47.8879042,24.5106635 L31.1168387,24.5106635 C34.9861095,16.0189714 40.7609672,9.00611605 47.8879042,4.57383093 L47.8879042,4.57383093 Z M52.1131521,24.5106635 L52.1131521,4.57383093 C59.2400892,9.00611605 65.0138905,16.0189714 68.8831613,24.5106635 L52.1131521,24.5106635 Z M74.2354942,47.8879042 L52.1131521,47.8879042 L52.1131521,28.7359114 L70.6271324,28.7359114 C72.7714458,34.6618217 74.014725,41.1570842 74.2354942,47.8879042 L74.2354942,47.8879042 Z M95.7208801,47.8879042 L78.48715,47.8879042 C78.2801128,41.2025056 77.099156,34.7262567 75.087938,28.7359114 L90.5164309,28.7359114 C93.5575532,34.5065439 95.4060991,40.9996937 95.7208801,47.8879042 L95.7208801,47.8879042 Z M9.48251275,28.7359114 L24.9131183,28.7359114 C22.900844,34.7262567 21.7198872,41.2025056 21.5139063,47.8879042 L4.27911988,47.8879042 C4.59284454,40.9996937 6.44139053,34.5065439 9.48251275,28.7359114 L9.48251275,28.7359114 Z M4.27911988,52.1131521 L21.5139063,52.1131521 C21.7198872,58.7996071 22.900844,65.2747996 24.9131183,71.2662012 L9.48251275,71.2662012 C6.44139053,65.4945125 4.59284454,59.002419 4.27911988,52.1131521 L4.27911988,52.1131521 Z M100,50.0005282 C100,23.2821726 78.9329136,1.39116289 52.5388459,0.0644350315 C52.383568,0.0433087917 52.2272338,0.0401398557 52.0730123,0.0528155996 C51.3842969,0.0253514878 50.6955814,0 50.0005282,0 C49.3075875,0 48.6178158,0.0253514878 47.9322693,0.0528155996 C47.7748788,0.0401398557 47.6174883,0.0433087917 47.4590415,0.0644350315 C21.0649738,1.39327552 0,23.2821726 0,50.0005282 C0,76.7653614 21.1399719,98.6827789 47.6005873,99.9397902 C47.6512903,99.9440155 47.7009369,99.9588038 47.7516399,99.9588038 C47.7864982,99.9588038 47.8192439,99.9482407 47.8541022,99.9461281 C48.5660565,99.9767611 49.2801234,100 50.0005282,100 C50.7198766,100 51.4339435,99.9767611 52.1469541,99.9461281 C52.1807561,99.9482407 52.2135018,99.9588038 52.2494164,99.9588038 C52.3001194,99.9588038 52.3487097,99.9440155 52.3994127,99.9397902 C78.8589718,98.6827789 100,76.7653614 100,50.0005282 L100,50.0005282 Z" id="Fill-1" fill="#8CE06E" mask="url(#mask-2)"></path>
            </g>
        </g>
    </g>
</svg>